<svg width="375" height="812" viewBox="0 0 375 812" fill="none" xmlns="http://www.w3.org/2000/svg">
<g clip-path="url(#clip0_38_4313)">
<rect width="375" height="812" fill="white"/>
<g filter="url(#filter0_f_38_4313)">
<ellipse cx="688.5" cy="524.5" rx="688.5" ry="524.5" transform="matrix(-1 -8.74228e-08 -8.74228e-08 1 876 -119)" fill="url(#paint0_linear_38_4313)"/>
</g>
<g clip-path="url(#clip1_38_4313)">
<mask id="mask0_38_4313" style="mask-type:luminance" maskUnits="userSpaceOnUse" x="-161" y="-1" width="696" height="814">
<path d="M535 -1H-161V813H535V-1Z" fill="white"/>
</mask>
<g mask="url(#mask0_38_4313)">
<path d="M535 -1H-161V813H535V-1Z" fill="url(#paint1_linear_38_4313)" fill-opacity="0.3"/>
<mask id="mask1_38_4313" style="mask-type:luminance" maskUnits="userSpaceOnUse" x="-161" y="-1" width="696" height="814">
<path d="M535 -1H-161V813H535V-1Z" fill="white"/>
</mask>
<g mask="url(#mask1_38_4313)">
<path d="M-167.96 448.22C-155.525 439.103 -147.73 429.335 -137.243 414.683C-128.334 402.31 -117.941 386.844 -105.691 388.147C-92.792 389.612 -89.7296 399.054 -77.48 393.031C-70.52 389.612 -64.3952 383.1 -57.8992 377.891C-41.752 364.867 -33.3072 359.657 -20.408 382.286C-9.82881 401.008 -8.43684 403.45 8.26716 409.637C16.6192 412.73 31.56 415.334 38.1488 425.591C45.2944 436.987 42.696 446.918 52.0688 453.593C57.6368 457.5 66.5456 454.895 72.5776 457.011C86.6832 462.058 94.1072 481.757 108.12 484.362C133.733 489.246 161.202 484.362 187 484.362C209.365 484.362 231.73 484.362 254.094 482.897C272.283 481.594 284.254 475.733 299.566 461.244C308.475 452.778 314.043 447.081 321.374 434.708C328.613 422.335 330.747 411.59 341.605 412.73C359.701 414.846 370.744 475.245 391.16 455.383C408.699 438.289 410.741 376.1 433.198 369.262C438.302 367.797 443.221 373.332 448.046 374.472C459.925 377.402 466.606 371.053 477.464 364.215C489.714 356.401 491.57 352.819 504.19 362.587C515.883 371.541 526.834 391.403 535.371 407.357C541.31 437.801 542.981 472.64 554.952 498.037C564.325 517.736 582.05 528.969 594.856 541.016C623.346 567.878 651.928 594.415 680.418 621.277C755.493 692.095 830.939 762.099 906.664 830.8C791.035 830.8 675.406 830.8 559.778 830.8C195.538 831.126 -168.702 830.8 -532.942 830.8C-457.867 761.447 -382.978 691.443 -308.181 621.277C-278.763 593.601 -249.253 566.087 -219.742 538.574C-207.493 527.178 -195.336 515.782 -183.086 504.386C-179.467 500.967 -172.693 497.711 -170.002 492.176C-164.805 481.594 -168.146 466.291 -168.053 447.732L-167.96 448.22Z" fill="url(#paint2_radial_38_4313)" fill-opacity="0.2"/>
<path d="M-167.96 448.22C-155.525 439.103 -147.73 429.335 -137.243 414.683C-128.334 402.31 -117.941 386.844 -105.691 388.147C-92.792 389.612 -89.7296 399.054 -77.48 393.031C-70.52 389.612 -64.3952 383.1 -57.8992 377.891C-41.752 364.867 -33.3072 359.657 -20.408 382.286C-9.82881 401.008 -8.43684 403.45 8.26716 409.637C16.6192 412.73 31.56 415.334 38.1488 425.591C45.2944 436.987 42.696 446.918 52.0688 453.593C57.6368 457.5 66.5456 454.895 72.5776 457.011C86.6832 462.058 94.1072 481.757 108.12 484.362C133.733 489.246 161.202 484.362 187 484.362C209.365 484.362 231.73 484.362 254.094 482.897C272.283 481.594 284.254 475.733 299.566 461.244C308.475 452.778 314.043 447.081 321.374 434.708C328.613 422.335 330.747 411.59 341.605 412.73C359.701 414.846 370.744 475.245 391.16 455.383C408.699 438.289 410.741 376.1 433.198 369.262C438.302 367.797 443.221 373.332 448.046 374.472C459.925 377.402 466.606 371.053 477.464 364.215C489.714 356.401 491.57 352.819 504.19 362.587C515.883 371.541 526.834 391.403 535.371 407.357C541.31 437.801 542.981 472.64 554.952 498.037C564.325 517.736 582.05 528.969 594.856 541.016C623.346 567.878 651.928 594.415 680.418 621.277C755.493 692.095 830.939 762.099 906.664 830.8C791.035 830.8 675.406 830.8 559.778 830.8C195.538 831.126 -168.702 830.8 -532.942 830.8C-457.867 761.447 -382.978 691.443 -308.181 621.277C-278.763 593.601 -249.253 566.087 -219.742 538.574C-207.493 527.178 -195.336 515.782 -183.086 504.386C-179.467 500.967 -172.693 497.711 -170.002 492.176C-164.805 481.594 -168.146 466.291 -168.053 447.732L-167.96 448.22Z" stroke="url(#paint3_linear_38_4313)" stroke-width="1.3464" stroke-miterlimit="10"/>
<path d="M-509 809.147C-324.143 808.821 -139.378 811.263 45.4799 810.449C213.077 809.798 380.581 815.496 548.085 809.961C658.888 806.216 769.969 807.519 880.865 807.519" stroke="url(#paint4_linear_38_4313)" stroke-width="1.3464" stroke-miterlimit="10"/>
<path d="M-497.678 798.729C-269.483 798.241 -41.288 801.497 186.907 799.543C291.678 798.729 396.357 806.381 501.128 801.659C623.531 796.287 746.12 796.45 868.616 796.287" stroke="url(#paint5_linear_38_4313)" stroke-width="1.3464" stroke-miterlimit="10"/>
<path d="M-486.728 788.472C-262.152 787.821 -37.7617 791.891 186.814 789.449C232.843 788.961 278.593 795.147 324.715 794.659C381.973 794.17 438.766 795.31 496.024 792.217C616.2 785.705 736.654 785.705 856.923 785.542" stroke="url(#paint6_linear_38_4313)" stroke-width="1.3464" stroke-miterlimit="10"/>
<path d="M-476.149 778.704C-255.099 778.053 -34.2349 782.611 186.815 779.843C232.936 779.192 278.779 786.355 324.901 785.867C380.488 785.379 435.519 786.844 491.013 783.099C609.055 775.285 727.467 775.448 845.602 775.285" stroke="url(#paint7_linear_38_4313)" stroke-width="1.3464" stroke-miterlimit="10"/>
<path d="M-465.941 769.262C-248.325 768.448 -30.8941 773.657 186.722 770.564C231.266 769.913 275.531 777.89 320.168 777.239C375.755 776.588 430.6 778.216 486.095 774.309C602.187 766.006 718.651 765.68 834.837 765.517" stroke="url(#paint8_linear_38_4313)" stroke-width="1.3464" stroke-miterlimit="10"/>
<path d="M-456.011 759.982C-241.736 759.168 -27.5532 764.866 186.722 761.448C229.781 760.796 272.376 769.262 315.528 768.774C371.116 767.96 425.868 770.402 481.362 765.68C595.506 756.075 710.207 756.401 824.444 756.075" stroke="url(#paint9_linear_38_4313)" stroke-width="1.3464" stroke-miterlimit="10"/>
<path d="M-446.36 751.029C-235.24 750.215 -24.3985 756.075 186.721 752.494C229.873 751.68 272.561 760.797 315.806 760.145C339.192 759.82 362.949 757.703 386.241 760.634C416.958 764.541 446.097 759.657 476.814 757.052C589.195 747.61 702.133 747.121 814.606 746.796" stroke="url(#paint10_linear_38_4313)" stroke-width="1.3464" stroke-miterlimit="10"/>
<path d="M-436.987 742.237C-229.022 741.423 -21.2428 747.61 186.722 743.702C229.967 742.888 272.748 752.168 316.085 751.517C340.12 751.191 364.341 749.075 388.191 752.982C416.495 757.703 443.964 751.354 472.268 748.586C582.885 738.004 694.245 738.167 805.048 737.842" stroke="url(#paint11_linear_38_4313)" stroke-width="1.3464" stroke-miterlimit="10"/>
<path d="M-427.893 733.771C-222.897 732.957 -18.1805 739.307 186.722 735.237C228.111 734.423 268.943 743.865 310.331 743.214C333.531 742.888 357.195 740.446 380.395 743.865C409.256 748.261 436.632 743.377 465.4 740.609C575.275 729.701 685.8 729.539 795.861 729.376" stroke="url(#paint12_linear_38_4313)" stroke-width="1.3464" stroke-miterlimit="10"/>
<path d="M-419.077 725.632C-217.051 724.818 -15.3037 731.167 186.722 727.097C228.204 726.283 269.128 735.726 310.703 735.074C334.645 734.749 358.773 732.307 382.53 736.865C410.556 742.238 438.117 735.074 466.143 732.307C572.863 721.888 680.139 721.562 786.952 721.399" stroke="url(#paint13_linear_38_4313)" stroke-width="1.3464" stroke-miterlimit="10"/>
<path d="M-410.446 717.492C-211.298 716.678 -12.3344 723.19 186.814 718.958C226.811 718.144 266.251 727.586 306.341 726.935C327.592 726.609 349.122 724.167 370.28 726.935C399.79 730.842 427.352 727.912 456.955 724.818C563.861 714.074 671.323 713.422 778.507 713.26" stroke="url(#paint14_linear_38_4313)" stroke-width="1.3464" stroke-miterlimit="10"/>
<path d="M-402.002 709.677C-205.637 708.863 -9.45788 715.375 186.814 711.142C226.533 710.328 265.694 719.607 305.505 718.956C329.355 718.631 353.39 716.189 377.054 721.073C403.224 726.445 429.208 719.445 455.377 717.003C560.149 707.56 665.198 705.769 770.155 705.769" stroke="url(#paint15_linear_38_4313)" stroke-width="1.3464" stroke-miterlimit="10"/>
<path d="M-393.835 702.026C-200.161 701.212 -6.76604 707.724 186.815 703.491C226.626 702.677 265.973 711.631 305.877 710.98C325.458 710.654 345.317 708.538 364.805 711.305C394.316 715.538 421.877 712.445 451.388 709.514C554.767 699.258 658.61 698.444 762.175 698.281" stroke="url(#paint16_linear_38_4313)" stroke-width="1.3464" stroke-miterlimit="10"/>
<path d="M-385.762 694.537C-194.78 693.885 -3.98276 700.072 186.907 695.839C224.862 695.025 262.353 703.653 300.494 703.002C324.251 702.677 348.193 700.397 371.764 705.444C396.264 710.654 420.484 704.142 445.076 702.188C548.177 694.048 651.278 690.955 754.472 690.955" stroke="url(#paint17_linear_38_4313)" stroke-width="1.3464" stroke-miterlimit="10"/>
<path d="M-377.966 687.211C-189.582 686.56 -1.38388 692.746 186.907 688.513C225.048 687.699 262.632 695.839 300.866 695.188C320.354 694.863 340.12 692.746 359.608 695.839C389.119 700.398 416.68 696.979 446.283 694.537C546.322 686.071 646.639 683.955 746.863 683.955" stroke="url(#paint18_linear_38_4313)" stroke-width="1.3464" stroke-miterlimit="10"/>
<path d="M-370.264 679.884C-184.479 679.233 1.2143 685.256 186.907 681.024C223.192 680.21 259.106 687.861 295.483 687.373C316.734 687.047 338.171 685.419 359.33 688.512C386.613 692.582 412.689 689.326 439.973 687.21C539.733 679.721 639.586 676.791 739.438 676.791" stroke="url(#paint19_linear_38_4313)" stroke-width="1.3464" stroke-miterlimit="10"/>
<path d="M-362.654 672.883C-179.374 672.395 3.81281 678.093 187 674.023C223.006 673.209 258.734 680.372 294.834 679.884C341.419 679.232 387.077 683.302 433.662 680.535C533.144 674.348 632.533 670.278 732.2 670.441" stroke="url(#paint20_linear_38_4313)" stroke-width="1.3464" stroke-miterlimit="10"/>
<path d="M-355.138 665.884C-174.363 665.395 6.31809 671.093 187.092 666.861C221.707 666.047 256.043 672.559 290.75 672.233C339.285 671.582 386.798 676.303 435.333 673.047C531.937 666.535 628.542 663.442 725.147 663.605" stroke="url(#paint21_linear_38_4313)" stroke-width="1.3464" stroke-miterlimit="10"/>
<path d="M-347.806 658.883C-169.445 658.557 8.82404 663.93 187.093 659.86C267.736 658.069 348.379 670.279 429.115 666.046C525.442 660.837 621.675 656.767 718.094 656.929" stroke="url(#paint22_linear_38_4313)" stroke-width="1.3464" stroke-miterlimit="10"/>
<path d="M-340.475 652.046C-164.619 651.72 11.33 656.93 187.186 653.022C265.788 651.232 344.482 662.139 422.991 659.209C519.039 655.627 615.087 650.255 711.228 650.418" stroke="url(#paint23_linear_38_4313)" stroke-width="1.3464" stroke-miterlimit="10"/>
<path d="M-333.237 645.372C-159.701 645.209 13.7427 650.256 187.279 646.186C266.53 644.395 345.688 655.465 424.847 652.046C518.018 647.976 611.189 643.744 704.453 644.069" stroke="url(#paint24_linear_38_4313)" stroke-width="1.3464" stroke-miterlimit="10"/>
<path d="M-326.091 638.534C-154.968 638.534 16.1556 643.255 187.279 639.348C264.488 637.557 341.605 647.325 418.815 645.209C511.708 642.604 604.6 637.231 697.586 637.557" stroke="url(#paint25_linear_38_4313)" stroke-width="1.3464" stroke-miterlimit="10"/>
<path d="M-318.853 631.858C-150.142 631.858 18.661 636.579 187.371 632.672C262.539 630.881 337.707 639.184 412.783 638.37C505.49 637.393 598.104 630.719 690.811 631.207" stroke="url(#paint26_linear_38_4313)" stroke-width="1.3464" stroke-miterlimit="10"/>
<path d="M-311.707 625.021C-145.316 625.021 21.074 629.742 187.372 625.835C263.189 624.044 339.007 632.672 414.732 631.37C504.469 629.742 594.207 624.207 683.944 624.695" stroke="url(#paint27_linear_38_4313)" stroke-width="1.3464" stroke-miterlimit="10"/>
<path d="M-304.562 618.346C-140.584 618.346 23.4861 623.067 187.464 619.16C261.24 617.369 335.016 624.532 408.792 624.532C498.251 624.532 587.617 617.857 677.076 618.346" stroke="url(#paint28_linear_38_4313)" stroke-width="1.3464" stroke-miterlimit="10"/>
<path d="M-297.323 611.672C-135.758 611.672 25.8996 616.393 187.557 612.486C259.384 610.695 331.119 616.393 402.853 617.695C491.941 619.323 581.122 611.346 670.21 611.835" stroke="url(#paint29_linear_38_4313)" stroke-width="1.3464" stroke-miterlimit="10"/>
<path d="M-290.085 604.834C-130.933 604.834 28.405 609.881 187.557 605.648C259.106 603.694 330.655 609.392 402.203 610.532C489.157 611.997 576.203 604.508 663.157 605.159" stroke="url(#paint30_linear_38_4313)" stroke-width="1.3464" stroke-miterlimit="10"/>
<path d="M-282.754 597.996C-126.015 598.159 30.9101 603.206 187.649 598.973C258.177 597.019 328.52 601.903 399.048 603.694C484.795 605.973 570.449 597.833 656.104 598.484" stroke="url(#paint31_linear_38_4313)" stroke-width="1.3464" stroke-miterlimit="10"/>
<path d="M-275.422 590.996C32.8592 591.484 341.234 589.205 648.773 591.647" stroke="url(#paint32_linear_38_4313)" stroke-width="1.3464" stroke-miterlimit="10"/>
<path d="M-267.906 583.995C-116.178 584.158 35.6429 589.367 187.371 584.972C215.304 584.158 243.144 585.623 271.076 585.949C288.244 586.274 305.784 588.716 322.952 586.274C344.945 583.181 362.949 576.181 385.313 580.576C404.059 584.321 426.424 590.181 445.169 584.321C464.75 578.134 474.865 567.878 495.745 575.041C543.63 591.321 592.907 583.995 641.441 584.484" stroke="url(#paint33_linear_38_4313)" stroke-width="1.3464" stroke-miterlimit="10"/>
<path d="M-260.11 576.669C-216.03 576.669 -172.043 571.46 -128.056 571.622C-109.218 571.622 -91.0288 579.6 -72.1904 579.111C-52.3312 578.623 -32.7504 578.134 -12.8912 578.948C53.5536 581.716 120.555 579.6 187.093 577.646C215.026 576.832 243.144 576.506 271.077 577.158C288.152 577.646 306.155 582.042 323.045 578.623C345.131 574.064 360.814 566.901 383.272 571.622C400.162 575.041 422.434 584.321 439.323 578.134C446.747 575.367 452.872 567.39 460.11 563.808C470.69 558.761 477.928 562.668 488.229 567.227C535.186 588.065 585.576 576.832 633.554 577.32" stroke="url(#paint34_linear_38_4313)" stroke-width="1.3464" stroke-miterlimit="10"/>
<path d="M-252.037 569.181C-230.414 569.181 -208.792 569.669 -187.262 569.181C-166.939 568.529 -148.008 557.133 -127.963 554.203C-105.877 551.11 -88.6158 575.204 -67.179 573.902C-48.7118 572.762 -31.1726 569.343 -12.7982 570.32C-3.79661 570.809 5.01939 566.087 14.1138 566.576C21.909 567.064 29.4258 571.297 37.3138 571.46C53.8322 571.623 70.3506 570.809 86.869 571.134C120.091 571.948 153.407 571.134 186.629 570.157C214.747 569.343 243.33 565.762 271.355 567.227C286.203 568.041 301.33 573.088 316.271 571.297C337.429 568.692 354.226 553.715 376.127 558.924C394.037 563.157 415.659 578.297 433.848 572.437C442.943 569.506 449.346 557.296 458.162 553.715C469.019 549.156 478.763 558.599 489.157 563.32C532.587 582.856 580.843 569.343 625.48 569.832" stroke="url(#paint35_linear_38_4313)" stroke-width="1.3464" stroke-miterlimit="10"/>
<path d="M-243.963 561.692C-222.34 561.692 -200.532 562.994 -178.91 561.692C-158.03 560.226 -140.769 539.551 -120.353 536.295C-97.8956 532.713 -86.2028 569.669 -65.6012 569.994C-56.2284 570.157 -45.0924 564.948 -35.8124 562.668C-30.1516 562.017 -22.9132 556.156 -19.2012 557.459C-15.4892 558.761 -14.4684 563.157 -10.2924 564.785C-6.11642 566.413 8.26759 554.528 18.1044 556.645C26.4564 558.436 31.5604 563.971 40.562 564.622C56.802 565.599 74.0628 563.32 90.5812 563.808C122.504 564.785 154.613 563.808 186.536 562.831C200.735 562.506 215.119 565.273 229.132 563.971C243.98 562.668 257.9 555.994 273.026 557.622C288.152 559.25 303.464 566.087 318.684 562.506C337.058 558.11 353.02 543.132 372.136 547.365C390.789 551.435 412.133 573.25 430.972 564.948C438.581 561.529 443.592 549.807 450.738 545.9C462.338 539.551 468.834 546.226 480.156 552.249C524.328 575.53 571.564 562.18 617.314 562.506" stroke="url(#paint36_linear_38_4313)" stroke-width="1.3464" stroke-miterlimit="10"/>
<path d="M-235.704 554.041C-214.267 554.041 -192.459 555.832 -171.023 554.041C-150.699 552.25 -134.459 527.83 -114.507 525.062C-91.2146 521.806 -79.893 563.646 -58.3634 562.506C-51.2178 562.181 -42.0306 557.785 -34.6994 556.157C-29.2242 553.227 -23.749 551.273 -18.0882 550.296C-12.8914 547.366 -11.7778 555.669 -3.98257 556.808C3.81263 557.948 11.515 546.715 19.4958 547.366C26.9198 548.017 33.787 555.018 41.3966 555.832C57.451 557.297 74.619 555.18 90.7662 555.506C122.597 556.157 154.427 555.506 186.257 554.855C199.249 554.529 212.334 556.646 225.326 555.994C239.71 555.18 253.445 547.529 268.014 548.017C282.677 548.668 297.525 556.646 312.094 555.018C332.603 552.901 348.379 530.598 369.445 537.272C387.633 542.97 410.926 567.39 429.579 555.018C435.611 550.948 439.509 539.226 445.169 534.505C459.925 522.132 466.421 533.04 482.382 542.482C522.286 566.088 567.48 554.041 609.147 554.366" stroke="url(#paint37_linear_38_4313)" stroke-width="1.3464" stroke-miterlimit="10"/>
<path d="M-227.352 546.226C-206.008 546.063 -183.179 549.645 -162.021 546.226C-145.224 543.458 -130.562 526.527 -113.858 522.294C-88.1521 515.62 -74.1393 547.854 -50.4753 550.459C-33.6785 552.25 -17.9953 536.458 -1.66249 539.063C30.1679 544.272 62.0911 547.691 94.7567 547.04C125.195 546.552 155.634 547.04 186.072 546.714C213.262 546.389 239.71 541.993 266.715 540.528C280.635 539.714 293.905 545.738 307.733 546.714C329.633 548.18 344.018 524.899 367.032 532.876C382.808 538.412 405.544 556.808 421.506 546.552C430.322 540.854 435.054 524.736 442.664 516.271C453.893 503.572 460.946 509.759 472.731 517.41C493.426 530.76 513.285 545.9 535.65 546.877C557.272 548.017 579.173 546.552 600.795 546.714" stroke="url(#paint38_linear_38_4313)" stroke-width="1.3464" stroke-miterlimit="10"/>
<path d="M-219.371 538.737C-198.212 538.411 -175.198 542.481 -154.225 538.737C-138.078 535.807 -123.323 521.969 -106.897 519.527C-83.6044 516.108 -65.6012 536.295 -43.422 540.528C-36.462 541.83 -28.2956 541.179 -21.5212 538.737C-12.4268 535.481 -5.46681 524.899 3.62759 527.504C11.0516 529.62 15.7844 540.365 23.5796 541.83C32.4884 543.458 41.6756 538.249 50.77 539.714C66.082 542.156 78.3316 540.691 93.6436 538.9C124.082 535.644 155.356 538.9 185.887 538.9C211.221 538.9 235.72 538.737 260.869 533.69C276.924 530.434 287.781 535.481 303.279 539.551C315.992 542.97 321.004 534.504 332.047 528.155C343.368 521.643 352.37 523.597 363.784 528.155C380.488 534.667 402.389 546.226 418.165 533.69C438.21 517.573 439.416 475.245 465.308 490.06C486.744 502.433 504.655 532.388 527.391 538.249C548.456 543.621 571.471 539.063 592.629 539.063" stroke="url(#paint39_linear_38_4313)" stroke-width="1.3464" stroke-miterlimit="10"/>
<path d="M-212.597 532.389C-190.789 531.737 -168.331 528.97 -146.616 526.528C-131.304 524.737 -117.013 513.992 -101.515 513.341C-79.8926 512.527 -62.2606 532.714 -41.5662 536.133C-25.0478 538.901 -8.52937 519.039 6.13303 522.458C13.1858 524.086 18.197 532.714 25.5282 533.691C33.6018 534.668 40.7474 527.016 49.3778 529.133C65.8034 533.203 77.8674 533.854 94.6642 532.389C124.824 529.784 155.541 532.389 185.701 532.389C210.479 532.389 234.514 534.342 259.106 529.133C274.139 525.877 286.389 527.993 301.237 530.923C312.837 533.203 319.519 527.342 330.191 523.272C341.419 519.039 351.071 521.644 362.207 524.737C378.539 529.295 399.512 535.319 414.175 521.644C432.363 504.55 438.581 454.245 463.359 460.919C488.415 467.594 499.922 515.946 522.379 529.784C541.125 541.343 565.81 527.342 585.669 532.226" stroke="url(#paint40_linear_38_4313)" stroke-width="1.3464" stroke-miterlimit="10"/>
<path d="M-206.286 526.527C-169.166 519.853 -133.438 495.433 -95.3903 502.27C-76.1807 505.689 -59.9407 528.807 -41.4735 532.551C-24.5839 535.97 -7.50873 513.992 8.73127 518.713C15.6913 520.667 20.2385 527.504 27.4769 527.179C36.0145 526.853 40.7473 518.225 50.2129 521.481C58.2865 524.248 64.3185 530.76 72.8561 530.597C80.5585 530.597 88.2609 527.016 95.9633 526.365C125.659 523.597 155.912 526.365 185.701 526.365C210.386 526.365 233.493 532.388 257.806 524.899C292.142 514.317 326.386 521.155 360.814 520.829C375.941 520.829 394.872 519.69 408.328 508.619C426.517 493.805 435.519 450.5 457.976 449.523C487.579 448.058 495.003 506.829 517.925 524.411C525.349 530.109 533.887 527.179 541.403 524.411C556.994 518.55 563.211 518.713 579.173 526.202" stroke="url(#paint41_linear_38_4313)" stroke-width="1.3464" stroke-miterlimit="10"/>
<path d="M-200.254 520.829C-175.013 511.713 -150.421 479.641 -124.344 479.478C-113.394 479.478 -100.866 483.06 -90.3791 488.107C-73.6751 496.084 -59.4767 520.992 -43.4223 527.667C-32.7503 532.063 -25.8831 523.271 -15.5823 518.387C-4.35353 513.015 2.88488 513.015 14.0209 516.922C21.3521 519.527 23.1153 523.597 31.1889 520.015C38.4273 516.922 41.3041 512.364 48.7281 513.666C58.7505 515.457 65.4321 527.179 76.0113 527.016C83.0641 527.016 90.8593 521.155 98.2833 520.504C127.237 518.387 156.562 520.504 185.515 520.504C209.922 520.504 231.637 531.574 255.208 520.992C270.334 514.155 286.11 506.34 301.794 507.643C319.797 509.271 339.099 519.201 356.917 516.271C370.094 513.992 391.531 502.433 403.874 494.944C421.32 484.362 434.312 453.105 453.15 448.221C485.909 439.755 490.178 503.898 514.491 521.155C522.101 526.527 529.71 521.643 536.856 517.573C553.467 508.131 555.045 508.131 573.048 520.178" stroke="url(#paint42_linear_38_4313)" stroke-width="1.3464" stroke-miterlimit="10"/>
<path d="M-194.594 515.457C-169.352 502.921 -141.698 456.849 -115.714 456.361C-105.413 456.198 -92.5139 467.105 -83.5123 475.083C-75.4387 482.246 -67.8291 491.037 -60.4979 499.991C-55.3011 506.503 -46.9491 522.946 -41.0099 526.202C-31.2659 531.411 -23.4707 516.759 -14.7475 511.713C3.16291 501.456 3.3485 511.061 17.8253 516.597C30.8173 521.481 40.0973 505.689 52.7181 510.41C62.4621 514.155 67.3805 525.876 77.9597 524.737C84.5485 524.085 91.4157 516.434 98.4685 515.457C127.051 511.387 156.933 515.457 185.608 515.457C210.849 515.457 231.451 531.574 255.301 516.922C269.035 508.457 285.739 495.107 300.123 496.084C318.683 497.386 339.285 521.481 357.659 511.713C364.248 508.294 369.073 497.061 375.198 491.851C383.736 484.525 389.768 486.153 399.512 485.339C420.948 483.711 433.476 451.477 453.892 446.918C481.176 440.895 488.136 493.642 507.624 513.178C518.945 524.411 522.843 515.457 533.236 510.41C549.662 502.27 547.528 497.549 567.387 514.806" stroke="url(#paint43_linear_38_4313)" stroke-width="1.3464" stroke-miterlimit="10"/>
<path d="M-189.304 510.572C-162.949 496.408 -137.151 445.777 -110.146 442.033C-99.2881 440.568 -89.4513 451.313 -80.9137 461.406C-73.0257 470.686 -65.0449 481.268 -57.7137 491.687C-52.0529 499.664 -47.1345 515.13 -40.9169 520.34C-28.2033 530.922 -17.4385 500.804 -4.81774 500.153C3.07026 499.827 10.0303 507.967 17.0831 511.549C31.931 519.2 42.1391 499.501 56.6159 508.13C65.7103 513.665 69.2367 526.852 79.8159 523.107C86.5903 520.665 91.4158 512.363 98.6542 510.572C126.494 503.897 157.582 510.409 185.701 510.572C199.806 510.572 210.757 513.665 224.213 519.689C238.225 526.038 243.144 522.131 255.301 513.177C261.054 508.944 267.272 507.641 273.025 503.246C282.027 496.245 288.709 486.966 299.102 487.129C316.827 487.454 336.872 521.479 354.597 508.455C370.28 497.059 372.321 470.523 392.273 476.221C400.347 478.5 406.286 485.012 414.638 482.57C427.259 478.989 434.869 453.103 447.582 446.429C482.568 428.358 480.526 492.501 506.046 511.386C518.017 520.177 519.781 509.269 529.246 502.595C531.381 499.339 533.608 496.083 535.742 492.827C545.857 489.082 554.581 494.78 562.005 509.595" stroke="url(#paint44_linear_38_4313)" stroke-width="1.3464" stroke-miterlimit="10"/>
<path d="M-184.386 506.014C-168.888 497.549 -157.103 485.339 -143.647 469.873C-132.418 457.012 -118.498 436.336 -104.207 436.173C-94.0915 436.173 -81.7491 448.383 -73.3043 457.174C-66.7155 464.012 -60.1267 471.664 -54.1875 479.966C-49.2691 486.804 -42.1235 506.34 -37.1123 510.41C-27.3683 518.387 -19.6659 503.41 -10.5715 498.851C8.63807 488.92 7.06047 500.968 21.8157 507.805C34.9933 513.992 45.9437 497.06 59.3069 504.712C68.4013 510.084 71.8349 520.178 81.8573 517.899C87.9821 516.434 93.7357 507.317 100.417 505.852C127.793 499.665 158.139 505.852 185.7 505.852C198.414 505.852 209.364 508.294 221.614 513.666C235.534 519.852 241.38 516.596 254.465 508.782C261.054 504.875 267.179 503.898 273.582 499.34C282.676 492.665 289.358 482.734 299.752 482.734C318.868 482.734 335.201 513.992 354.782 500.968C361.278 496.572 365.547 484.036 371.579 478.338C380.024 470.198 385.777 471.664 395.521 474.431C400.254 475.734 405.265 479.315 410.184 478.013C424.846 473.943 433.105 443.011 447.768 437.15C475.886 426.08 480.619 484.036 500.014 502.921C511.614 514.154 514.491 502.27 524.42 496.246C540.475 486.478 537.32 483.711 557.086 503.247" stroke="url(#paint45_linear_38_4313)" stroke-width="1.3464" stroke-miterlimit="10"/>
<path d="M-179.838 501.781C-154.597 486.478 -131.675 436.824 -105.227 432.754C-94.9264 431.126 -80.5423 439.917 -70.2415 446.266C-63.8383 450.336 -57.5279 455.709 -51.8671 462.383C-45.4639 469.709 -38.3183 489.734 -32.4719 494.781C-22.2639 503.572 -16.5103 492.013 -6.20954 489.408C3.16326 486.966 14.0209 488.431 21.8161 496.246C31.8385 506.177 25.3425 507.805 39.9121 503.409C47.8929 500.967 55.0385 493.967 63.3905 499.013C72.6705 504.549 73.9697 514.154 85.1057 509.758C90.4881 507.642 94.7568 503.246 100.232 501.944C127.608 495.106 158.139 501.455 185.794 501.618C198.971 501.618 209.922 504.386 222.728 509.107C235.256 513.828 243.237 507.967 255.301 502.758C261.054 500.316 267.179 500.967 272.933 497.711C282.677 492.176 287.966 482.733 298.546 481.105C316.549 478.501 333.067 502.758 350.978 494.455C358.494 491.036 363.691 481.268 370.558 476.059C379.653 469.221 385.221 471.337 395.336 471.5C415.938 471.826 423.547 441.871 442.664 434.382C474.123 421.846 472.638 481.105 497.694 494.455C505.304 498.525 512.914 489.408 519.41 484.687C534.443 473.942 536.763 478.501 552.725 492.664" stroke="url(#paint46_linear_38_4313)" stroke-width="1.3464" stroke-miterlimit="10"/>
<path d="M-175.755 498.038C-150.884 481.269 -127.963 426.569 -101.793 427.057C-90.1004 427.22 -74.974 433.732 -63.1884 437.151C-47.8764 441.546 -41.3804 454.896 -30.5228 471.99C-14.5612 497.061 4.18441 468.408 20.5172 486.316C30.354 497.061 29.7972 504.061 40.2836 500.48C48.3572 497.712 57.3588 489.898 65.8964 493.317C72.3924 496.084 76.3828 504.55 83.6212 504.387C89.4676 504.387 96.3348 498.852 102.46 497.875C129.836 493.479 158.604 497.875 186.072 497.875C210.108 497.875 230.431 505.038 254.188 497.875C262.354 495.433 269.964 495.433 278.037 491.037C285.461 486.967 291.308 481.107 299.196 479.153C317.106 474.757 333.81 491.2 351.628 484.037C366.197 478.176 378.911 472.478 393.759 467.92C410.556 462.873 419.464 440.407 434.684 429.173C467.999 404.265 466.328 463.687 491.756 476.548C501.128 481.269 510.594 467.92 519.317 465.803C530.917 463.036 537.413 470.036 548.549 479.153" stroke="url(#paint47_linear_38_4313)" stroke-width="1.3464" stroke-miterlimit="10"/>
<path d="M-172.136 494.619C-159.144 484.851 -149.679 473.455 -138.635 457.989C-130.376 446.43 -117.013 420.707 -105.599 419.079C-96.6897 417.777 -85.1825 429.661 -75.6241 429.987C-70.2417 430.15 -65.3233 427.708 -60.0337 426.731C-43.5153 423.638 -37.5761 436.173 -26.2545 455.221C-16.2321 471.989 -11.8705 474.92 4.92627 473.78C35.7359 471.664 23.8575 495.595 39.8191 497.712C48.6351 498.851 58.1007 485.665 67.4735 487.781C80.6511 490.711 90.5807 495.595 104.408 494.781C131.505 493.153 158.881 494.781 186.072 494.781C208.993 494.781 229.781 496.247 252.517 492.991C269.777 490.549 283.048 483.874 299.659 477.362C315.435 471.338 330.747 477.036 346.616 474.431C361 472.152 378.632 471.827 392.552 465.315C409.905 457.175 419 422.661 435.611 413.056C460.853 398.567 469.947 455.547 491.848 455.221C500.293 455.221 506.696 446.593 515.141 446.593C525.441 446.593 535.464 456.523 544.651 463.524" stroke="url(#paint48_linear_38_4313)" stroke-width="1.3464" stroke-miterlimit="10"/>
<path d="M-168.981 491.688C-156.174 481.106 -147.173 469.059 -136.315 452.779C-121.838 430.801 -114.971 414.684 -97.4318 417.777C-88.4302 419.405 -81.1918 426.894 -71.819 425.428C-64.3022 424.289 -59.1054 416.963 -52.0526 414.032C-31.8222 406.055 -30.523 434.545 -17.531 452.779C-7.87978 466.291 6.87542 463.361 16.805 463.524C20.7954 462.872 22.837 462.547 26.085 464.175C33.1378 469.222 32.3026 488.92 36.2002 492.502C40.0978 496.084 59.4002 481.269 72.5778 482.408C80.0946 483.06 87.797 489.734 95.4066 491.2C113.967 494.781 133.826 491.362 152.479 491.362C190.527 491.362 228.203 491.362 266.066 488.595C287.967 486.967 307.362 468.082 329.355 465.152C348.843 462.547 377.519 472.803 395.151 457.826C407.864 447.081 414.36 422.498 426.61 410.614C443.221 394.334 449.439 402.474 464.658 418.428C469.669 426.242 475.33 432.103 481.547 436.173C488.043 434.545 494.261 431.452 500.293 426.894C516.255 423.312 526.277 435.848 541.403 446.918" stroke="url(#paint49_linear_38_4313)" stroke-width="1.3464" stroke-miterlimit="10"/>
<path d="M-166.29 489.082C-153.484 480.779 -142.719 467.104 -134.181 448.057C-126.108 429.986 -112.002 409.636 -103.836 409.147C-99.938 408.822 -83.9764 422.823 -73.2116 424.288C-66.3444 423.799 -60.2196 419.892 -54.7444 412.566C-38.5972 399.054 -35.3492 392.705 -21.986 423.311C-9.64355 451.638 15.8764 442.196 25.5276 452.615C35.1788 462.871 34.7148 479.965 38.7052 485.175C42.6956 490.385 46.4076 489.245 51.2332 487.291C66.0812 480.454 73.4125 475.081 87.8893 482.57C105.707 491.85 124.267 488.919 142.827 488.919C163.707 488.919 184.68 488.594 205.56 488.919C222.356 489.245 238.596 482.733 255.3 484.035C267.55 485.012 276.18 487.129 287.873 481.756C299.195 476.547 308.568 464.825 319.889 459.29C331.582 453.592 344.11 451.801 356.081 454.894C365.64 457.499 377.332 466.616 387.169 461.569C414.545 447.405 419.742 367.145 454.913 399.054C461.595 408.496 469.112 414.683 477.556 417.45C483.96 412.892 490.27 408.496 496.673 404.101C513.192 400.356 522.936 420.543 538.526 431.451" stroke="url(#paint50_linear_38_4313)" stroke-width="1.3464" stroke-miterlimit="10"/>
<path d="M-166.846 480.943C-146.802 462.872 -127.592 406.869 -104.299 404.589C-95.2047 403.613 -86.3887 414.032 -76.5519 411.753C-69.4063 410.125 -63.1887 403.775 -56.6927 398.891C-51.9599 395.31 -46.4847 387.495 -41.1023 387.17C-29.1311 386.193 -26.4399 401.008 -18.9231 413.381C-11.1279 426.242 -3.98233 433.405 6.87527 437.801C18.0113 442.359 23.3009 436.987 30.9105 448.22C39.5409 460.918 36.7569 472.64 48.0785 475.245C55.9665 477.035 64.4113 469.872 72.5777 471.012C84.2705 472.64 93.2721 484.85 104.872 487.129C131.413 492.501 159.995 487.129 186.722 487.292C197.858 487.292 209.272 489.571 220.315 488.757C232.194 487.78 243.33 481.431 255.394 481.757C270.334 482.245 284.069 485.338 297.989 473.454C313.022 460.593 325.087 441.708 343.275 442.685C357.381 443.499 373.343 468.57 387.355 461.244C408.885 450.011 412.597 388.635 436.446 382.611C452.594 378.541 463.451 399.868 480.619 392.054C492.312 386.681 495.096 379.844 506.511 387.821C517.739 395.635 524.792 411.427 536.485 419.241" stroke="url(#paint51_linear_38_4313)" stroke-width="1.3464" stroke-miterlimit="10"/>
<path d="M-168.702 468.081C-146.709 449.522 -130.005 400.845 -104.299 398.077C-95.7616 397.101 -88.5232 402.31 -79.7072 398.566C-72.4688 395.635 -65.6944 389.449 -58.8272 384.728C-53.5376 381.146 -46.4848 373.983 -40.6384 374.146C-28.8528 374.471 -27.2752 385.379 -19.2944 397.101C-3.88958 419.893 18.8464 414.52 33.5088 433.731C40.84 443.336 43.0672 455.383 51.4192 460.755C57.544 464.663 66.0816 463.36 72.6704 466.128C84.3632 471.175 93.5504 483.222 105.429 485.338C131.97 490.222 160.181 485.338 186.814 485.338C197.858 485.338 209.086 487.943 220.037 487.292C232.008 486.641 243.422 480.129 255.579 479.966C270.613 479.64 284.347 482.733 297.989 469.547C311.816 456.034 325.365 428.358 343.09 430.475C358.03 432.428 371.95 468.081 387.355 460.104C409.349 448.871 411.019 381.635 435.704 373.332C441.922 371.215 447.026 376.425 453.058 378.216C463.08 380.983 467.72 378.053 477.278 373.169C489.806 366.983 492.126 362.587 504.005 373.169C515.512 383.263 522.658 400.194 534.814 409.473" stroke="url(#paint52_linear_38_4313)" stroke-width="1.3464" stroke-miterlimit="10"/>
<path d="M355.154 424.777C359.33 465.477 361.557 497.874 376.219 531.411C390.882 564.948 407.586 596.043 423.547 627.789C458.997 698.607 497.23 765.029 535.371 831.452" stroke="url(#paint53_linear_38_4313)" stroke-width="1.3464" stroke-miterlimit="10"/>
<path d="M330.19 418.592C330.376 457.175 332.324 492.828 346.523 523.272C361.835 556.158 374.177 593.276 389.304 627.464C420.484 698.119 454.82 764.379 488.6 831.127" stroke="url(#paint54_linear_38_4313)" stroke-width="1.3464" stroke-miterlimit="10"/>
<path d="M307.176 453.756C309.217 480.129 308.753 513.503 315.249 537.923C322.952 567.227 337.429 599.624 347.729 626.975C374.177 697.142 403.502 764.053 432.085 831.289" stroke="url(#paint55_linear_38_4313)" stroke-width="1.3464" stroke-miterlimit="10"/>
<path d="M283.698 473.943C283.326 480.455 279.336 487.456 278.501 493.968C276.459 510.248 284.533 527.83 288.802 540.203C297.989 566.902 303.742 596.694 312.187 624.37C333.531 694.537 356.453 763.076 379.746 831.289" stroke="url(#paint56_linear_38_4313)" stroke-width="1.3464" stroke-miterlimit="10"/>
<path d="M255.95 479.965C257.064 499.013 261.147 525.061 265.044 534.666C275.345 559.575 277.108 594.577 283.697 624.043C299.566 694.048 317.012 762.749 334.737 831.288" stroke="url(#paint57_linear_38_4313)" stroke-width="1.3464" stroke-miterlimit="10"/>
<path d="M232.101 484.035C240.824 493.315 240.917 529.619 243.052 544.271C246.856 570.156 251.218 597.669 255.487 624.043C266.808 693.559 279.244 762.586 291.864 831.287" stroke="url(#paint58_linear_38_4313)" stroke-width="1.3464" stroke-miterlimit="10"/>
<path d="M216.51 484.687C223.841 528.643 226.347 577.972 230.708 623.23C237.483 692.746 245.371 762.098 252.98 831.288" stroke="url(#paint59_linear_38_4313)" stroke-width="1.3464" stroke-miterlimit="10"/>
<path d="M198.229 484.361C196.28 529.945 201.57 576.506 202.776 622.09C204.725 691.931 207.231 761.61 210.2 831.125" stroke="url(#paint60_linear_38_4313)" stroke-width="1.3464" stroke-miterlimit="10"/>
<path d="M175.771 484.361C168.533 527.992 173.729 577.808 171.873 622.741C168.997 692.257 166.027 761.61 163.8 831.125" stroke="url(#paint61_linear_38_4313)" stroke-width="1.3464" stroke-miterlimit="10"/>
<path d="M152.943 486.153C142.085 527.667 145.24 579.112 140.415 623.394C132.805 692.746 124.731 761.936 117.307 831.289" stroke="url(#paint62_linear_38_4313)" stroke-width="1.3464" stroke-miterlimit="10"/>
<path d="M130.206 486.477C116.286 525.712 116.843 579.925 109.141 623.555C96.8913 693.071 83.6209 761.935 70.9073 831.125" stroke="url(#paint63_linear_38_4313)" stroke-width="1.3464" stroke-miterlimit="10"/>
<path d="M108.399 484.361C91.9729 522.619 89.1889 579.925 78.5169 623.392C61.3489 693.234 42.6961 761.935 24.5073 831.125" stroke="url(#paint64_linear_38_4313)" stroke-width="1.3464" stroke-miterlimit="10"/>
<path d="M91.9724 473.291C84.8268 484.687 86.4972 503.572 81.486 517.572C78.9804 521.317 76.7532 525.387 74.7116 529.945C72.0204 534.504 70.7212 540.364 70.9068 547.528C65.5244 562.017 62.0908 570.645 58.1932 587.739C55.3164 600.275 51.326 611.834 47.614 623.718C25.342 693.885 1.49241 762.424 -21.986 831.288" stroke="url(#paint65_linear_38_4313)" stroke-width="1.3464" stroke-miterlimit="10"/>
<path d="M70.165 456.359C68.1234 480.779 65.989 486.64 55.317 501.292C46.037 513.99 46.7794 515.781 43.9026 534.178C39.077 564.947 26.085 597.67 16.0626 623.718C-11.035 694.21 -39.7102 762.749 -68.2926 831.288" stroke="url(#paint66_linear_38_4313)" stroke-width="1.3464" stroke-miterlimit="10"/>
<path d="M49.4704 451.313C7.15365 591.321 -56.3216 711.631 -114.878 831.289" stroke="url(#paint67_linear_38_4313)" stroke-width="1.3464" stroke-miterlimit="10"/>
<path d="M26.4564 416.149C22.7444 466.129 14.8564 494.293 -4.1676 529.132C-20.0364 558.111 -30.3372 593.438 -46.3916 622.58C-84.8108 692.584 -125.921 756.076 -161.371 831.289" stroke="url(#paint68_linear_38_4313)" stroke-width="1.3464" stroke-miterlimit="10"/>
</g>
<path d="M261.704 353.253C261.704 354.067 261.333 354.719 260.869 354.719C260.405 354.719 260.034 354.067 260.034 353.253C260.034 352.439 260.405 351.788 260.869 351.788C261.333 351.788 261.704 352.439 261.704 353.253Z" fill="url(#paint69_radial_38_4313)"/>
<path d="M196.002 337.299C196.002 338.439 195.538 339.253 194.889 339.253C194.239 339.253 193.775 338.439 193.775 337.299C193.775 336.16 194.239 335.346 194.889 335.346C195.538 335.346 196.002 336.16 196.002 337.299Z" fill="url(#paint70_radial_38_4313)"/>
<path d="M284.534 299.529C284.534 300.832 283.977 301.809 283.235 301.809C282.492 301.809 281.935 300.832 281.935 299.529C281.935 298.227 282.492 297.25 283.235 297.25C283.977 297.25 284.534 298.227 284.534 299.529Z" fill="url(#paint71_radial_38_4313)"/>
<path d="M222.729 244.503C223.19 244.503 223.564 243.847 223.564 243.037C223.564 242.228 223.19 241.572 222.729 241.572C222.267 241.572 221.893 242.228 221.893 243.037C221.893 243.847 222.267 244.503 222.729 244.503Z" fill="url(#paint72_radial_38_4313)"/>
<path d="M230.338 409.746C230.338 410.234 230.152 410.56 229.874 410.56C229.596 410.56 229.41 410.234 229.41 409.746C229.41 409.257 229.596 408.932 229.874 408.932C230.152 408.932 230.338 409.257 230.338 409.746Z" fill="url(#paint73_radial_38_4313)"/>
<path d="M185.609 401.442C185.609 402.094 185.33 402.582 184.959 402.582C184.588 402.582 184.309 402.094 184.309 401.442C184.309 400.791 184.588 400.303 184.959 400.303C185.33 400.303 185.609 400.791 185.609 401.442Z" fill="url(#paint74_radial_38_4313)"/>
<path d="M118.421 341.37C118.421 342.509 117.957 343.323 117.307 343.323C116.658 343.323 116.194 342.509 116.194 341.37C116.194 340.23 116.658 339.416 117.307 339.416C117.957 339.416 118.421 340.23 118.421 341.37Z" fill="url(#paint75_radial_38_4313)"/>
<path d="M286.297 350.649C286.656 350.649 286.947 350.139 286.947 349.51C286.947 348.88 286.656 348.37 286.297 348.37C285.938 348.37 285.647 348.88 285.647 349.51C285.647 350.139 285.938 350.649 286.297 350.649Z" fill="url(#paint76_radial_38_4313)"/>
<path d="M356.268 360.416C356.268 361.393 355.804 362.044 355.34 362.044C354.876 362.044 354.412 361.23 354.412 360.416C354.412 359.602 354.876 358.788 355.34 358.788C355.804 358.788 356.268 359.602 356.268 360.416Z" fill="url(#paint77_radial_38_4313)"/>
<path d="M355.897 201.686C355.897 203.314 355.154 204.617 354.226 204.617C353.298 204.617 352.556 203.314 352.556 201.686C352.556 200.058 353.298 198.756 354.226 198.756C355.154 198.756 355.897 200.058 355.897 201.686Z" fill="url(#paint78_radial_38_4313)"/>
<path d="M312.002 197.943C312.412 197.943 312.745 197.36 312.745 196.64C312.745 195.921 312.412 195.338 312.002 195.338C311.592 195.338 311.26 195.921 311.26 196.64C311.26 197.36 311.592 197.943 312.002 197.943Z" fill="url(#paint79_radial_38_4313)"/>
<path d="M283.605 229.526C283.605 231.154 282.863 232.456 281.935 232.456C281.007 232.456 280.264 231.154 280.264 229.526C280.264 227.898 281.007 226.596 281.935 226.596C282.863 226.596 283.605 227.898 283.605 229.526Z" fill="url(#paint80_radial_38_4313)"/>
<path d="M249.084 196.152C249.084 197.943 248.249 199.408 247.228 199.408C246.207 199.408 245.372 197.943 245.372 196.152C245.372 194.362 246.207 192.896 247.228 192.896C248.249 192.896 249.084 194.362 249.084 196.152Z" fill="url(#paint81_radial_38_4313)"/>
<path d="M177.72 172.708C178.233 172.708 178.648 171.979 178.648 171.08C178.648 170.181 178.233 169.452 177.72 169.452C177.208 169.452 176.792 170.181 176.792 171.08C176.792 171.979 177.208 172.708 177.72 172.708Z" fill="url(#paint82_radial_38_4313)"/>
<path d="M272.748 110.845C272.748 111.985 272.191 112.961 271.542 112.961C270.892 112.961 270.335 111.985 270.335 110.845C270.335 109.705 270.892 108.729 271.542 108.729C272.191 108.729 272.748 109.705 272.748 110.845Z" fill="url(#paint83_radial_38_4313)"/>
<path d="M354.968 117.357C355.737 117.357 356.36 116.263 356.36 114.915C356.36 113.566 355.737 112.473 354.968 112.473C354.199 112.473 353.576 113.566 353.576 114.915C353.576 116.263 354.199 117.357 354.968 117.357Z" fill="url(#paint84_radial_38_4313)"/>
<path d="M160.181 99.2857C160.181 100.588 159.532 101.728 158.789 101.728C158.047 101.728 157.397 100.588 157.397 99.2857C157.397 97.9833 158.047 96.8438 158.789 96.8438C159.532 96.8438 160.181 97.9833 160.181 99.2857Z" fill="url(#paint85_radial_38_4313)"/>
<path d="M212.149 76.0047C212.149 77.6327 211.406 78.9351 210.478 78.9351C209.55 78.9351 208.808 77.6327 208.808 76.0047C208.808 74.3767 209.55 73.0743 210.478 73.0743C211.406 73.0743 212.149 74.3767 212.149 76.0047Z" fill="url(#paint86_radial_38_4313)"/>
<path d="M222.728 154.801C223.395 154.801 223.935 153.854 223.935 152.685C223.935 151.516 223.395 150.568 222.728 150.568C222.062 150.568 221.522 151.516 221.522 152.685C221.522 153.854 222.062 154.801 222.728 154.801Z" fill="url(#paint87_radial_38_4313)"/>
<path d="M283.42 433.678C283.778 433.678 284.069 433.167 284.069 432.538C284.069 431.909 283.778 431.398 283.42 431.398C283.061 431.398 282.77 431.909 282.77 432.538C282.77 433.167 283.061 433.678 283.42 433.678Z" fill="url(#paint88_radial_38_4313)"/>
<path d="M341.513 274.947C341.513 276.086 340.956 277.063 340.306 277.063C339.657 277.063 339.1 276.086 339.1 274.947C339.1 273.807 339.657 272.83 340.306 272.83C340.956 272.83 341.513 273.807 341.513 274.947Z" fill="url(#paint89_radial_38_4313)"/>
<path d="M332.326 34.9798C332.326 35.7938 331.954 36.445 331.49 36.445C331.026 36.445 330.655 35.7938 330.655 34.9798C330.655 34.1658 331.026 33.5146 331.49 33.5146C331.954 33.5146 332.326 34.1658 332.326 34.9798Z" fill="url(#paint90_radial_38_4313)"/>
<path d="M275.067 27.6543C275.785 27.6543 276.367 26.6339 276.367 25.3751C276.367 24.1164 275.785 23.0959 275.067 23.0959C274.35 23.0959 273.768 24.1164 273.768 25.3751C273.768 26.6339 274.35 27.6543 275.067 27.6543Z" fill="url(#paint91_radial_38_4313)"/>
<path d="M300.495 92.2862C300.752 92.2862 300.959 91.9218 300.959 91.4722C300.959 91.0226 300.752 90.6582 300.495 90.6582C300.239 90.6582 300.031 91.0226 300.031 91.4722C300.031 91.9218 300.239 92.2862 300.495 92.2862Z" fill="url(#paint92_radial_38_4313)"/>
<path d="M357.567 31.3974C357.567 32.0486 357.289 32.537 356.917 32.537C356.546 32.537 356.268 32.0486 356.268 31.3974C356.268 30.7462 356.546 30.2578 356.917 30.2578C357.289 30.2578 357.567 30.7462 357.567 31.3974Z" fill="url(#paint93_radial_38_4313)"/>
<path d="M114.709 32.2124C114.709 33.8404 113.967 35.1428 113.039 35.1428C112.111 35.1428 111.368 33.8404 111.368 32.2124C111.368 30.5844 112.111 29.282 113.039 29.282C113.967 29.282 114.709 30.5844 114.709 32.2124Z" fill="url(#paint94_radial_38_4313)"/>
<path d="M70.8145 28.4671C71.2245 28.4671 71.5569 27.884 71.5569 27.1647C71.5569 26.4454 71.2245 25.8623 70.8145 25.8623C70.4045 25.8623 70.0721 26.4454 70.0721 27.1647C70.0721 27.884 70.4045 28.4671 70.8145 28.4671Z" fill="url(#paint95_radial_38_4313)"/>
<path d="M42.4182 60.0506C42.4182 61.6786 41.6758 62.981 40.7478 62.981C39.8198 62.981 39.0775 61.6786 39.0775 60.0506C39.0775 58.4226 39.8198 57.1202 40.7478 57.1202C41.6758 57.1202 42.4182 58.4226 42.4182 60.0506Z" fill="url(#paint96_radial_38_4313)"/>
<path d="M7.89614 26.6759C7.89614 28.4667 7.06094 29.9319 6.04014 29.9319C5.01934 29.9319 4.18414 28.4667 4.18414 26.6759C4.18414 24.8851 5.01934 23.4199 6.04014 23.4199C7.06094 23.4199 7.89614 24.8851 7.89614 26.6759Z" fill="url(#paint97_radial_38_4313)"/>
<path d="M34.716 169.452C34.716 170.592 34.1592 171.569 33.5096 171.569C32.86 171.569 32.3032 170.592 32.3032 169.452C32.3032 168.313 32.86 167.336 33.5096 167.336C34.1592 167.336 34.716 168.313 34.716 169.452Z" fill="url(#paint98_radial_38_4313)"/>
<path d="M93.2721 105.634C94.0409 105.634 94.6641 104.541 94.6641 103.192C94.6641 101.843 94.0409 100.75 93.2721 100.75C92.5033 100.75 91.8801 101.843 91.8801 103.192C91.8801 104.541 92.5033 105.634 93.2721 105.634Z" fill="url(#paint99_radial_38_4313)"/>
<path d="M150.623 42.631C151.033 42.631 151.365 42.0479 151.365 41.3286C151.365 40.6093 151.033 40.0262 150.623 40.0262C150.212 40.0262 149.88 40.6093 149.88 41.3286C149.88 42.0479 150.212 42.631 150.623 42.631Z" fill="url(#paint100_radial_38_4313)"/>
<path d="M247.135 58.4226C247.135 60.0506 246.392 61.353 245.464 61.353C244.536 61.353 243.794 60.0506 243.794 58.4226C243.794 56.7946 244.536 55.4922 245.464 55.4922C246.392 55.4922 247.135 56.7946 247.135 58.4226Z" fill="url(#paint101_radial_38_4313)"/>
<path d="M155.82 275.76C155.82 276.737 155.356 277.388 154.892 277.388C154.428 277.388 153.964 276.574 153.964 275.76C153.964 274.946 154.428 274.132 154.892 274.132C155.356 274.132 155.82 274.946 155.82 275.76Z" fill="url(#paint102_radial_38_4313)"/>
<path d="M108.028 250.69C108.028 251.504 107.657 252.155 107.193 252.155C106.729 252.155 106.357 251.504 106.357 250.69C106.357 249.876 106.729 249.225 107.193 249.225C107.657 249.225 108.028 249.876 108.028 250.69Z" fill="url(#paint103_radial_38_4313)"/>
<path d="M56.8949 262.9C56.8949 264.039 56.4309 264.853 55.7813 264.853C55.1317 264.853 54.6677 264.039 54.6677 262.9C54.6677 261.76 55.1317 260.946 55.7813 260.946C56.4309 260.946 56.8949 261.76 56.8949 262.9Z" fill="url(#paint104_radial_38_4313)"/>
<path d="M110.069 428.304C110.069 428.793 109.884 429.118 109.605 429.118C109.327 429.118 109.141 428.793 109.141 428.304C109.141 427.816 109.327 427.49 109.605 427.49C109.884 427.49 110.069 427.816 110.069 428.304Z" fill="url(#paint105_radial_38_4313)"/>
<path d="M73.1351 383.697C73.4938 383.697 73.7847 383.187 73.7847 382.558C73.7847 381.928 73.4938 381.418 73.1351 381.418C72.7763 381.418 72.4855 381.928 72.4855 382.558C72.4855 383.187 72.7763 383.697 73.1351 383.697Z" fill="url(#paint106_radial_38_4313)"/>
<path d="M15.5989 321.507C15.5989 322.647 15.1349 323.461 14.4853 323.461C13.8357 323.461 13.3717 322.647 13.3717 321.507C13.3717 320.368 13.8357 319.554 14.4853 319.554C15.1349 319.554 15.5989 320.368 15.5989 321.507Z" fill="url(#paint107_radial_38_4313)"/>
<path d="M170.761 350.974C170.761 351.625 170.482 352.113 170.111 352.113C169.74 352.113 169.461 351.625 169.461 350.974C169.461 350.322 169.74 349.834 170.111 349.834C170.482 349.834 170.761 350.322 170.761 350.974Z" fill="url(#paint108_radial_38_4313)"/>
<path d="M2.05008 244.828C2.4601 244.828 2.79248 244.245 2.79248 243.526C2.79248 242.807 2.4601 242.224 2.05008 242.224C1.64006 242.224 1.30768 242.807 1.30768 243.526C1.30768 244.245 1.64006 244.828 2.05008 244.828Z" fill="url(#paint109_radial_38_4313)"/>
<path d="M174.101 449.143C174.101 450.282 173.544 451.259 172.894 451.259C172.245 451.259 171.688 450.282 171.688 449.143C171.688 448.003 172.245 447.026 172.894 447.026C173.544 447.026 174.101 448.003 174.101 449.143Z" fill="url(#paint110_radial_38_4313)"/>
<path d="M105.336 183.29C105.336 185.569 104.315 187.36 103.016 187.36C101.717 187.36 100.696 185.569 100.696 183.29C100.696 181.011 101.717 179.22 103.016 179.22C104.315 179.22 105.336 181.011 105.336 183.29Z" fill="url(#paint111_radial_38_4313)"/>
</g>
</g>
</g>
<defs>
<filter id="filter0_f_38_4313" x="-802.3" y="-420.3" width="1979.6" height="1651.6" filterUnits="userSpaceOnUse" color-interpolation-filters="sRGB">
<feFlood flood-opacity="0" result="BackgroundImageFix"/>
<feBlend mode="normal" in="SourceGraphic" in2="BackgroundImageFix" result="shape"/>
<feGaussianBlur stdDeviation="150.65" result="effect1_foregroundBlur_38_4313"/>
</filter>
<linearGradient id="paint0_linear_38_4313" x1="688.5" y1="223.571" x2="688.5" y2="898.004" gradientUnits="userSpaceOnUse">
<stop stop-color="#459CFF"/>
<stop offset="1" stop-color="#61BC96"/>
</linearGradient>
<linearGradient id="paint1_linear_38_4313" x1="187" y1="461.515" x2="187" y2="142.915" gradientUnits="userSpaceOnUse">
<stop stop-color="#016CA1"/>
<stop offset="0.2" stop-color="#0A5482"/>
<stop offset="0.3" stop-color="#0F456E"/>
<stop offset="0.4" stop-color="#114068"/>
<stop offset="0.6" stop-color="#112947"/>
<stop offset="0.9" stop-color="#111B32"/>
<stop offset="1" stop-color="#11162B"/>
</linearGradient>
<radialGradient id="paint2_radial_38_4313" cx="0" cy="0" r="1" gradientUnits="userSpaceOnUse" gradientTransform="translate(187 505.721) scale(355.146 124.607)">
<stop stop-color="#11B3C5"/>
<stop offset="1" stop-color="#11162B"/>
</radialGradient>
<linearGradient id="paint3_linear_38_4313" x1="-533.963" y1="594.089" x2="907.963" y2="594.089" gradientUnits="userSpaceOnUse">
<stop stop-color="#6BFFFF"/>
<stop offset="1" stop-color="#00C6FF"/>
</linearGradient>
<linearGradient id="paint4_linear_38_4313" x1="-509" y1="809.798" x2="880.773" y2="809.798" gradientUnits="userSpaceOnUse">
<stop stop-color="#6BFFFF"/>
<stop offset="1" stop-color="#00C6FF"/>
</linearGradient>
<linearGradient id="paint5_linear_38_4313" x1="-497.678" y1="799.706" x2="868.523" y2="799.706" gradientUnits="userSpaceOnUse">
<stop stop-color="#6BFFFF"/>
<stop offset="1" stop-color="#00C6FF"/>
</linearGradient>
<linearGradient id="paint6_linear_38_4313" x1="-486.728" y1="790.263" x2="856.83" y2="790.263" gradientUnits="userSpaceOnUse">
<stop stop-color="#6BFFFF"/>
<stop offset="1" stop-color="#00C6FF"/>
</linearGradient>
<linearGradient id="paint7_linear_38_4313" x1="-476.149" y1="780.657" x2="845.602" y2="780.657" gradientUnits="userSpaceOnUse">
<stop stop-color="#6BFFFF"/>
<stop offset="1" stop-color="#00C6FF"/>
</linearGradient>
<linearGradient id="paint8_linear_38_4313" x1="-465.941" y1="771.378" x2="834.93" y2="771.378" gradientUnits="userSpaceOnUse">
<stop stop-color="#6BFFFF"/>
<stop offset="1" stop-color="#00C6FF"/>
</linearGradient>
<linearGradient id="paint9_linear_38_4313" x1="-456.011" y1="762.424" x2="824.536" y2="762.424" gradientUnits="userSpaceOnUse">
<stop stop-color="#6BFFFF"/>
<stop offset="1" stop-color="#00C6FF"/>
</linearGradient>
<linearGradient id="paint10_linear_38_4313" x1="-446.36" y1="754.447" x2="814.606" y2="754.447" gradientUnits="userSpaceOnUse">
<stop stop-color="#6BFFFF"/>
<stop offset="1" stop-color="#00C6FF"/>
</linearGradient>
<linearGradient id="paint11_linear_38_4313" x1="-436.987" y1="746.47" x2="805.048" y2="746.47" gradientUnits="userSpaceOnUse">
<stop stop-color="#6BFFFF"/>
<stop offset="1" stop-color="#00C6FF"/>
</linearGradient>
<linearGradient id="paint12_linear_38_4313" x1="-427.893" y1="737.679" x2="795.861" y2="737.679" gradientUnits="userSpaceOnUse">
<stop stop-color="#6BFFFF"/>
<stop offset="1" stop-color="#00C6FF"/>
</linearGradient>
<linearGradient id="paint13_linear_38_4313" x1="-419.077" y1="730.19" x2="787.045" y2="730.19" gradientUnits="userSpaceOnUse">
<stop stop-color="#6BFFFF"/>
<stop offset="1" stop-color="#00C6FF"/>
</linearGradient>
<linearGradient id="paint14_linear_38_4313" x1="-410.446" y1="721.237" x2="778.507" y2="721.237" gradientUnits="userSpaceOnUse">
<stop stop-color="#6BFFFF"/>
<stop offset="1" stop-color="#00C6FF"/>
</linearGradient>
<linearGradient id="paint15_linear_38_4313" x1="-402.002" y1="714.398" x2="770.248" y2="714.398" gradientUnits="userSpaceOnUse">
<stop stop-color="#6BFFFF"/>
<stop offset="1" stop-color="#00C6FF"/>
</linearGradient>
<linearGradient id="paint16_linear_38_4313" x1="-393.835" y1="705.77" x2="762.175" y2="705.77" gradientUnits="userSpaceOnUse">
<stop stop-color="#6BFFFF"/>
<stop offset="1" stop-color="#00C6FF"/>
</linearGradient>
<linearGradient id="paint17_linear_38_4313" x1="-385.762" y1="699.258" x2="754.379" y2="699.258" gradientUnits="userSpaceOnUse">
<stop stop-color="#6BFFFF"/>
<stop offset="1" stop-color="#00C6FF"/>
</linearGradient>
<linearGradient id="paint18_linear_38_4313" x1="-377.966" y1="690.955" x2="746.863" y2="690.955" gradientUnits="userSpaceOnUse">
<stop stop-color="#6BFFFF"/>
<stop offset="1" stop-color="#00C6FF"/>
</linearGradient>
<linearGradient id="paint19_linear_38_4313" x1="-370.264" y1="683.791" x2="739.438" y2="683.791" gradientUnits="userSpaceOnUse">
<stop stop-color="#6BFFFF"/>
<stop offset="1" stop-color="#00C6FF"/>
</linearGradient>
<linearGradient id="paint20_linear_38_4313" x1="-362.654" y1="675.814" x2="732.2" y2="675.814" gradientUnits="userSpaceOnUse">
<stop stop-color="#6BFFFF"/>
<stop offset="1" stop-color="#00C6FF"/>
</linearGradient>
<linearGradient id="paint21_linear_38_4313" x1="-355.138" y1="668.814" x2="725.147" y2="668.814" gradientUnits="userSpaceOnUse">
<stop stop-color="#6BFFFF"/>
<stop offset="1" stop-color="#00C6FF"/>
</linearGradient>
<linearGradient id="paint22_linear_38_4313" x1="-347.806" y1="661.976" x2="718.187" y2="661.976" gradientUnits="userSpaceOnUse">
<stop stop-color="#6BFFFF"/>
<stop offset="1" stop-color="#00C6FF"/>
</linearGradient>
<linearGradient id="paint23_linear_38_4313" x1="-340.475" y1="655.139" x2="711.228" y2="655.139" gradientUnits="userSpaceOnUse">
<stop stop-color="#6BFFFF"/>
<stop offset="1" stop-color="#00C6FF"/>
</linearGradient>
<linearGradient id="paint24_linear_38_4313" x1="-333.237" y1="648.302" x2="704.36" y2="648.302" gradientUnits="userSpaceOnUse">
<stop stop-color="#6BFFFF"/>
<stop offset="1" stop-color="#00C6FF"/>
</linearGradient>
<linearGradient id="paint25_linear_38_4313" x1="-326.091" y1="641.627" x2="697.586" y2="641.627" gradientUnits="userSpaceOnUse">
<stop stop-color="#6BFFFF"/>
<stop offset="1" stop-color="#00C6FF"/>
</linearGradient>
<linearGradient id="paint26_linear_38_4313" x1="-318.853" y1="634.789" x2="690.811" y2="634.789" gradientUnits="userSpaceOnUse">
<stop stop-color="#6BFFFF"/>
<stop offset="1" stop-color="#00C6FF"/>
</linearGradient>
<linearGradient id="paint27_linear_38_4313" x1="-311.707" y1="628.114" x2="683.944" y2="628.114" gradientUnits="userSpaceOnUse">
<stop stop-color="#6BFFFF"/>
<stop offset="1" stop-color="#00C6FF"/>
</linearGradient>
<linearGradient id="paint28_linear_38_4313" x1="-304.562" y1="621.439" x2="677.076" y2="621.439" gradientUnits="userSpaceOnUse">
<stop stop-color="#6BFFFF"/>
<stop offset="1" stop-color="#00C6FF"/>
</linearGradient>
<linearGradient id="paint29_linear_38_4313" x1="-297.323" y1="614.765" x2="670.21" y2="614.765" gradientUnits="userSpaceOnUse">
<stop stop-color="#6BFFFF"/>
<stop offset="1" stop-color="#00C6FF"/>
</linearGradient>
<linearGradient id="paint30_linear_38_4313" x1="-290.085" y1="607.764" x2="663.157" y2="607.764" gradientUnits="userSpaceOnUse">
<stop stop-color="#6BFFFF"/>
<stop offset="1" stop-color="#00C6FF"/>
</linearGradient>
<linearGradient id="paint31_linear_38_4313" x1="-282.754" y1="601.089" x2="656.104" y2="601.089" gradientUnits="userSpaceOnUse">
<stop stop-color="#6BFFFF"/>
<stop offset="1" stop-color="#00C6FF"/>
</linearGradient>
<linearGradient id="paint32_linear_38_4313" x1="-275.422" y1="590.996" x2="648.773" y2="590.996" gradientUnits="userSpaceOnUse">
<stop stop-color="#6BFFFF"/>
<stop offset="1" stop-color="#00C6FF"/>
</linearGradient>
<linearGradient id="paint33_linear_38_4313" x1="-267.906" y1="580.088" x2="641.349" y2="580.088" gradientUnits="userSpaceOnUse">
<stop stop-color="#6BFFFF"/>
<stop offset="1" stop-color="#00C6FF"/>
</linearGradient>
<linearGradient id="paint34_linear_38_4313" x1="-260.11" y1="570.971" x2="633.646" y2="570.971" gradientUnits="userSpaceOnUse">
<stop stop-color="#6BFFFF"/>
<stop offset="1" stop-color="#00C6FF"/>
</linearGradient>
<linearGradient id="paint35_linear_38_4313" x1="-252.037" y1="563.157" x2="625.48" y2="563.157" gradientUnits="userSpaceOnUse">
<stop stop-color="#6BFFFF"/>
<stop offset="1" stop-color="#00C6FF"/>
</linearGradient>
<linearGradient id="paint36_linear_38_4313" x1="-243.963" y1="552.9" x2="617.221" y2="552.9" gradientUnits="userSpaceOnUse">
<stop stop-color="#6BFFFF"/>
<stop offset="1" stop-color="#00C6FF"/>
</linearGradient>
<linearGradient id="paint37_linear_38_4313" x1="-235.704" y1="543.622" x2="608.961" y2="543.622" gradientUnits="userSpaceOnUse">
<stop stop-color="#6BFFFF"/>
<stop offset="1" stop-color="#00C6FF"/>
</linearGradient>
<linearGradient id="paint38_linear_38_4313" x1="-227.352" y1="529.62" x2="600.61" y2="529.62" gradientUnits="userSpaceOnUse">
<stop stop-color="#6BFFFF"/>
<stop offset="1" stop-color="#00C6FF"/>
</linearGradient>
<linearGradient id="paint39_linear_38_4313" x1="-219.371" y1="514.48" x2="592.629" y2="514.48" gradientUnits="userSpaceOnUse">
<stop stop-color="#6BFFFF"/>
<stop offset="1" stop-color="#00C6FF"/>
</linearGradient>
<linearGradient id="paint40_linear_38_4313" x1="-212.597" y1="498.363" x2="585.762" y2="498.363" gradientUnits="userSpaceOnUse">
<stop stop-color="#6BFFFF"/>
<stop offset="1" stop-color="#00C6FF"/>
</linearGradient>
<linearGradient id="paint41_linear_38_4313" x1="-206.286" y1="491.2" x2="579.358" y2="491.2" gradientUnits="userSpaceOnUse">
<stop stop-color="#6BFFFF"/>
<stop offset="1" stop-color="#00C6FF"/>
</linearGradient>
<linearGradient id="paint42_linear_38_4313" x1="-200.254" y1="488.432" x2="573.234" y2="488.432" gradientUnits="userSpaceOnUse">
<stop stop-color="#6BFFFF"/>
<stop offset="1" stop-color="#00C6FF"/>
</linearGradient>
<linearGradient id="paint43_linear_38_4313" x1="-194.594" y1="486.967" x2="567.48" y2="486.967" gradientUnits="userSpaceOnUse">
<stop stop-color="#6BFFFF"/>
<stop offset="1" stop-color="#00C6FF"/>
</linearGradient>
<linearGradient id="paint44_linear_38_4313" x1="-189.304" y1="482.896" x2="562.19" y2="482.896" gradientUnits="userSpaceOnUse">
<stop stop-color="#6BFFFF"/>
<stop offset="1" stop-color="#00C6FF"/>
</linearGradient>
<linearGradient id="paint45_linear_38_4313" x1="-184.479" y1="477.199" x2="557.272" y2="477.199" gradientUnits="userSpaceOnUse">
<stop stop-color="#6BFFFF"/>
<stop offset="1" stop-color="#00C6FF"/>
</linearGradient>
<linearGradient id="paint46_linear_38_4313" x1="-179.931" y1="471.826" x2="552.725" y2="471.826" gradientUnits="userSpaceOnUse">
<stop stop-color="#6BFFFF"/>
<stop offset="1" stop-color="#00C6FF"/>
</linearGradient>
<linearGradient id="paint47_linear_38_4313" x1="-175.94" y1="463.85" x2="548.549" y2="463.85" gradientUnits="userSpaceOnUse">
<stop stop-color="#6BFFFF"/>
<stop offset="1" stop-color="#00C6FF"/>
</linearGradient>
<linearGradient id="paint48_linear_38_4313" x1="-172.322" y1="454.081" x2="544.837" y2="454.081" gradientUnits="userSpaceOnUse">
<stop stop-color="#6BFFFF"/>
<stop offset="1" stop-color="#00C6FF"/>
</linearGradient>
<linearGradient id="paint49_linear_38_4313" x1="-169.073" y1="447.569" x2="541.589" y2="447.569" gradientUnits="userSpaceOnUse">
<stop stop-color="#6BFFFF"/>
<stop offset="1" stop-color="#00C6FF"/>
</linearGradient>
<linearGradient id="paint50_linear_38_4313" x1="-166.383" y1="440.731" x2="538.804" y2="440.731" gradientUnits="userSpaceOnUse">
<stop stop-color="#6BFFFF"/>
<stop offset="1" stop-color="#00C6FF"/>
</linearGradient>
<linearGradient id="paint51_linear_38_4313" x1="-166.939" y1="435.521" x2="536.578" y2="435.521" gradientUnits="userSpaceOnUse">
<stop stop-color="#6BFFFF"/>
<stop offset="1" stop-color="#00C6FF"/>
</linearGradient>
<linearGradient id="paint52_linear_38_4313" x1="-168.888" y1="427.219" x2="534.907" y2="427.219" gradientUnits="userSpaceOnUse">
<stop stop-color="#6BFFFF"/>
<stop offset="1" stop-color="#00C6FF"/>
</linearGradient>
<linearGradient id="paint53_linear_38_4313" x1="354.875" y1="628.114" x2="535.464" y2="628.114" gradientUnits="userSpaceOnUse">
<stop stop-color="#6BFFFF"/>
<stop offset="1" stop-color="#00C6FF"/>
</linearGradient>
<linearGradient id="paint54_linear_38_4313" x1="329.912" y1="625.185" x2="488.785" y2="625.185" gradientUnits="userSpaceOnUse">
<stop stop-color="#6BFFFF"/>
<stop offset="1" stop-color="#00C6FF"/>
</linearGradient>
<linearGradient id="paint55_linear_38_4313" x1="306.897" y1="642.604" x2="432.363" y2="642.604" gradientUnits="userSpaceOnUse">
<stop stop-color="#6BFFFF"/>
<stop offset="1" stop-color="#00C6FF"/>
</linearGradient>
<linearGradient id="paint56_linear_38_4313" x1="277.851" y1="652.698" x2="379.931" y2="652.698" gradientUnits="userSpaceOnUse">
<stop stop-color="#6BFFFF"/>
<stop offset="1" stop-color="#00C6FF"/>
</linearGradient>
<linearGradient id="paint57_linear_38_4313" x1="255.672" y1="655.79" x2="335.108" y2="655.79" gradientUnits="userSpaceOnUse">
<stop stop-color="#6BFFFF"/>
<stop offset="1" stop-color="#00C6FF"/>
</linearGradient>
<linearGradient id="paint58_linear_38_4313" x1="231.916" y1="657.58" x2="292.143" y2="657.58" gradientUnits="userSpaceOnUse">
<stop stop-color="#6BFFFF"/>
<stop offset="1" stop-color="#00C6FF"/>
</linearGradient>
<linearGradient id="paint59_linear_38_4313" x1="216.232" y1="657.907" x2="253.259" y2="657.907" gradientUnits="userSpaceOnUse">
<stop stop-color="#6BFFFF"/>
<stop offset="1" stop-color="#00C6FF"/>
</linearGradient>
<linearGradient id="paint60_linear_38_4313" x1="197.487" y1="657.743" x2="210.479" y2="657.743" gradientUnits="userSpaceOnUse">
<stop stop-color="#6BFFFF"/>
<stop offset="1" stop-color="#00C6FF"/>
</linearGradient>
<linearGradient id="paint61_linear_38_4313" x1="163.521" y1="657.743" x2="176.049" y2="657.743" gradientUnits="userSpaceOnUse">
<stop stop-color="#6BFFFF"/>
<stop offset="1" stop-color="#00C6FF"/>
</linearGradient>
<linearGradient id="paint62_linear_38_4313" x1="117.029" y1="658.558" x2="153.221" y2="658.558" gradientUnits="userSpaceOnUse">
<stop stop-color="#6BFFFF"/>
<stop offset="1" stop-color="#00C6FF"/>
</linearGradient>
<linearGradient id="paint63_linear_38_4313" x1="70.6289" y1="658.72" x2="130.392" y2="658.72" gradientUnits="userSpaceOnUse">
<stop stop-color="#6BFFFF"/>
<stop offset="1" stop-color="#00C6FF"/>
</linearGradient>
<linearGradient id="paint64_linear_38_4313" x1="24.2289" y1="657.743" x2="108.584" y2="657.743" gradientUnits="userSpaceOnUse">
<stop stop-color="#6BFFFF"/>
<stop offset="1" stop-color="#00C6FF"/>
</linearGradient>
<linearGradient id="paint65_linear_38_4313" x1="-22.2644" y1="652.208" x2="92.158" y2="652.208" gradientUnits="userSpaceOnUse">
<stop stop-color="#6BFFFF"/>
<stop offset="1" stop-color="#00C6FF"/>
</linearGradient>
<linearGradient id="paint66_linear_38_4313" x1="-68.6638" y1="643.905" x2="70.4434" y2="643.905" gradientUnits="userSpaceOnUse">
<stop stop-color="#6BFFFF"/>
<stop offset="1" stop-color="#00C6FF"/>
</linearGradient>
<linearGradient id="paint67_linear_38_4313" x1="-115.064" y1="641.301" x2="49.7488" y2="641.301" gradientUnits="userSpaceOnUse">
<stop stop-color="#6BFFFF"/>
<stop offset="1" stop-color="#00C6FF"/>
</linearGradient>
<linearGradient id="paint68_linear_38_4313" x1="-161.556" y1="623.719" x2="26.7348" y2="623.719" gradientUnits="userSpaceOnUse">
<stop stop-color="#6BFFFF"/>
<stop offset="1" stop-color="#00C6FF"/>
</linearGradient>
<radialGradient id="paint69_radial_38_4313" cx="0" cy="0" r="1" gradientUnits="userSpaceOnUse" gradientTransform="translate(260.869 353.253) scale(0.835194 1.4652)">
<stop stop-color="#2EFFFF"/>
<stop offset="0.1" stop-color="#54FDFD" stop-opacity="0.8"/>
<stop offset="0.2" stop-color="#7FFCFC" stop-opacity="0.6"/>
<stop offset="0.4" stop-color="#A4FAFB" stop-opacity="0.4"/>
<stop offset="0.5" stop-color="#C2F9FA" stop-opacity="0.3"/>
<stop offset="0.6" stop-color="#D9F9F9" stop-opacity="0.1"/>
<stop offset="0.8" stop-color="#EAF8F9" stop-opacity="0"/>
<stop offset="0.9" stop-color="#F4F8F9" stop-opacity="0"/>
<stop offset="1" stop-color="#F8F8F9" stop-opacity="0"/>
</radialGradient>
<radialGradient id="paint70_radial_38_4313" cx="0" cy="0" r="1" gradientUnits="userSpaceOnUse" gradientTransform="translate(194.796 337.299) scale(1.11361 1.9536)">
<stop stop-color="#2EFFFF"/>
<stop offset="0.1" stop-color="#54FDFD" stop-opacity="0.8"/>
<stop offset="0.2" stop-color="#7FFCFC" stop-opacity="0.6"/>
<stop offset="0.4" stop-color="#A4FAFB" stop-opacity="0.4"/>
<stop offset="0.5" stop-color="#C2F9FA" stop-opacity="0.3"/>
<stop offset="0.6" stop-color="#D9F9F9" stop-opacity="0.1"/>
<stop offset="0.8" stop-color="#EAF8F9" stop-opacity="0"/>
<stop offset="0.9" stop-color="#F4F8F9" stop-opacity="0"/>
<stop offset="1" stop-color="#F8F8F9" stop-opacity="0"/>
</radialGradient>
<radialGradient id="paint71_radial_38_4313" cx="0" cy="0" r="1" gradientUnits="userSpaceOnUse" gradientTransform="translate(283.235 299.529) scale(1.29921 2.2792)">
<stop stop-color="#2EFFFF"/>
<stop offset="0.1" stop-color="#54FDFD" stop-opacity="0.8"/>
<stop offset="0.2" stop-color="#7FFCFC" stop-opacity="0.6"/>
<stop offset="0.4" stop-color="#A4FAFB" stop-opacity="0.4"/>
<stop offset="0.5" stop-color="#C2F9FA" stop-opacity="0.3"/>
<stop offset="0.6" stop-color="#D9F9F9" stop-opacity="0.1"/>
<stop offset="0.8" stop-color="#EAF8F9" stop-opacity="0"/>
<stop offset="0.9" stop-color="#F4F8F9" stop-opacity="0"/>
<stop offset="1" stop-color="#F8F8F9" stop-opacity="0"/>
</radialGradient>
<radialGradient id="paint72_radial_38_4313" cx="0" cy="0" r="1" gradientUnits="userSpaceOnUse" gradientTransform="translate(222.729 243.037) scale(0.835194 1.4652)">
<stop stop-color="#2EFFFF"/>
<stop offset="0.1" stop-color="#54FDFD" stop-opacity="0.8"/>
<stop offset="0.2" stop-color="#7FFCFC" stop-opacity="0.6"/>
<stop offset="0.4" stop-color="#A4FAFB" stop-opacity="0.4"/>
<stop offset="0.5" stop-color="#C2F9FA" stop-opacity="0.3"/>
<stop offset="0.6" stop-color="#D9F9F9" stop-opacity="0.1"/>
<stop offset="0.8" stop-color="#EAF8F9" stop-opacity="0"/>
<stop offset="0.9" stop-color="#F4F8F9" stop-opacity="0"/>
<stop offset="1" stop-color="#F8F8F9" stop-opacity="0"/>
</radialGradient>
<radialGradient id="paint73_radial_38_4313" cx="0" cy="0" r="1" gradientUnits="userSpaceOnUse" gradientTransform="translate(229.874 409.746) scale(0.464 0.814)">
<stop stop-color="#2EFFFF"/>
<stop offset="0.1" stop-color="#54FDFD" stop-opacity="0.8"/>
<stop offset="0.2" stop-color="#7FFCFC" stop-opacity="0.6"/>
<stop offset="0.4" stop-color="#A4FAFB" stop-opacity="0.4"/>
<stop offset="0.5" stop-color="#C2F9FA" stop-opacity="0.3"/>
<stop offset="0.6" stop-color="#D9F9F9" stop-opacity="0.1"/>
<stop offset="0.8" stop-color="#EAF8F9" stop-opacity="0"/>
<stop offset="0.9" stop-color="#F4F8F9" stop-opacity="0"/>
<stop offset="1" stop-color="#F8F8F9" stop-opacity="0"/>
</radialGradient>
<radialGradient id="paint74_radial_38_4313" cx="0" cy="0" r="1" gradientUnits="userSpaceOnUse" gradientTransform="translate(184.959 401.442) scale(0.649597 1.1396)">
<stop stop-color="#2EFFFF"/>
<stop offset="0.1" stop-color="#54FDFD" stop-opacity="0.8"/>
<stop offset="0.2" stop-color="#7FFCFC" stop-opacity="0.6"/>
<stop offset="0.4" stop-color="#A4FAFB" stop-opacity="0.4"/>
<stop offset="0.5" stop-color="#C2F9FA" stop-opacity="0.3"/>
<stop offset="0.6" stop-color="#D9F9F9" stop-opacity="0.1"/>
<stop offset="0.8" stop-color="#EAF8F9" stop-opacity="0"/>
<stop offset="0.9" stop-color="#F4F8F9" stop-opacity="0"/>
<stop offset="1" stop-color="#F8F8F9" stop-opacity="0"/>
</radialGradient>
<radialGradient id="paint75_radial_38_4313" cx="0" cy="0" r="1" gradientUnits="userSpaceOnUse" gradientTransform="translate(117.308 341.37) scale(1.1136 1.9536)">
<stop stop-color="#2EFFFF"/>
<stop offset="0.1" stop-color="#54FDFD" stop-opacity="0.8"/>
<stop offset="0.2" stop-color="#7FFCFC" stop-opacity="0.6"/>
<stop offset="0.4" stop-color="#A4FAFB" stop-opacity="0.4"/>
<stop offset="0.5" stop-color="#C2F9FA" stop-opacity="0.3"/>
<stop offset="0.6" stop-color="#D9F9F9" stop-opacity="0.1"/>
<stop offset="0.8" stop-color="#EAF8F9" stop-opacity="0"/>
<stop offset="0.9" stop-color="#F4F8F9" stop-opacity="0"/>
<stop offset="1" stop-color="#F8F8F9" stop-opacity="0"/>
</radialGradient>
<radialGradient id="paint76_radial_38_4313" cx="0" cy="0" r="1" gradientUnits="userSpaceOnUse" gradientTransform="translate(286.297 349.51) scale(0.649611 1.1396)">
<stop stop-color="#2EFFFF"/>
<stop offset="0.1" stop-color="#54FDFD" stop-opacity="0.8"/>
<stop offset="0.2" stop-color="#7FFCFC" stop-opacity="0.6"/>
<stop offset="0.4" stop-color="#A4FAFB" stop-opacity="0.4"/>
<stop offset="0.5" stop-color="#C2F9FA" stop-opacity="0.3"/>
<stop offset="0.6" stop-color="#D9F9F9" stop-opacity="0.1"/>
<stop offset="0.8" stop-color="#EAF8F9" stop-opacity="0"/>
<stop offset="0.9" stop-color="#F4F8F9" stop-opacity="0"/>
<stop offset="1" stop-color="#F8F8F9" stop-opacity="0"/>
</radialGradient>
<radialGradient id="paint77_radial_38_4313" cx="0" cy="0" r="1" gradientUnits="userSpaceOnUse" gradientTransform="translate(355.247 360.416) scale(0.928 1.628)">
<stop stop-color="#2EFFFF"/>
<stop offset="0.1" stop-color="#54FDFD" stop-opacity="0.8"/>
<stop offset="0.2" stop-color="#7FFCFC" stop-opacity="0.6"/>
<stop offset="0.4" stop-color="#A4FAFB" stop-opacity="0.4"/>
<stop offset="0.5" stop-color="#C2F9FA" stop-opacity="0.3"/>
<stop offset="0.6" stop-color="#D9F9F9" stop-opacity="0.1"/>
<stop offset="0.8" stop-color="#EAF8F9" stop-opacity="0"/>
<stop offset="0.9" stop-color="#F4F8F9" stop-opacity="0"/>
<stop offset="1" stop-color="#F8F8F9" stop-opacity="0"/>
</radialGradient>
<radialGradient id="paint78_radial_38_4313" cx="0" cy="0" r="1" gradientUnits="userSpaceOnUse" gradientTransform="translate(354.226 201.686) scale(1.67039 2.9304)">
<stop stop-color="#2EFFFF"/>
<stop offset="0.1" stop-color="#54FDFD" stop-opacity="0.8"/>
<stop offset="0.2" stop-color="#7FFCFC" stop-opacity="0.6"/>
<stop offset="0.4" stop-color="#A4FAFB" stop-opacity="0.4"/>
<stop offset="0.5" stop-color="#C2F9FA" stop-opacity="0.3"/>
<stop offset="0.6" stop-color="#D9F9F9" stop-opacity="0.1"/>
<stop offset="0.8" stop-color="#EAF8F9" stop-opacity="0"/>
<stop offset="0.9" stop-color="#F4F8F9" stop-opacity="0"/>
<stop offset="1" stop-color="#F8F8F9" stop-opacity="0"/>
</radialGradient>
<radialGradient id="paint79_radial_38_4313" cx="0" cy="0" r="1" gradientUnits="userSpaceOnUse" gradientTransform="translate(312.002 196.64) scale(0.742403 1.3024)">
<stop stop-color="#2EFFFF"/>
<stop offset="0.1" stop-color="#54FDFD" stop-opacity="0.8"/>
<stop offset="0.2" stop-color="#7FFCFC" stop-opacity="0.6"/>
<stop offset="0.4" stop-color="#A4FAFB" stop-opacity="0.4"/>
<stop offset="0.5" stop-color="#C2F9FA" stop-opacity="0.3"/>
<stop offset="0.6" stop-color="#D9F9F9" stop-opacity="0.1"/>
<stop offset="0.8" stop-color="#EAF8F9" stop-opacity="0"/>
<stop offset="0.9" stop-color="#F4F8F9" stop-opacity="0"/>
<stop offset="1" stop-color="#F8F8F9" stop-opacity="0"/>
</radialGradient>
<radialGradient id="paint80_radial_38_4313" cx="0" cy="0" r="1" gradientUnits="userSpaceOnUse" gradientTransform="translate(281.935 229.526) scale(1.6704 2.93039)">
<stop stop-color="#2EFFFF"/>
<stop offset="0.1" stop-color="#54FDFD" stop-opacity="0.8"/>
<stop offset="0.2" stop-color="#7FFCFC" stop-opacity="0.6"/>
<stop offset="0.4" stop-color="#A4FAFB" stop-opacity="0.4"/>
<stop offset="0.5" stop-color="#C2F9FA" stop-opacity="0.3"/>
<stop offset="0.6" stop-color="#D9F9F9" stop-opacity="0.1"/>
<stop offset="0.8" stop-color="#EAF8F9" stop-opacity="0"/>
<stop offset="0.9" stop-color="#F4F8F9" stop-opacity="0"/>
<stop offset="1" stop-color="#F8F8F9" stop-opacity="0"/>
</radialGradient>
<radialGradient id="paint81_radial_38_4313" cx="0" cy="0" r="1" gradientUnits="userSpaceOnUse" gradientTransform="translate(247.135 196.152) scale(1.856 3.256)">
<stop stop-color="#2EFFFF"/>
<stop offset="0.1" stop-color="#54FDFD" stop-opacity="0.8"/>
<stop offset="0.2" stop-color="#7FFCFC" stop-opacity="0.6"/>
<stop offset="0.4" stop-color="#A4FAFB" stop-opacity="0.4"/>
<stop offset="0.5" stop-color="#C2F9FA" stop-opacity="0.3"/>
<stop offset="0.6" stop-color="#D9F9F9" stop-opacity="0.1"/>
<stop offset="0.8" stop-color="#EAF8F9" stop-opacity="0"/>
<stop offset="0.9" stop-color="#F4F8F9" stop-opacity="0"/>
<stop offset="1" stop-color="#F8F8F9" stop-opacity="0"/>
</radialGradient>
<radialGradient id="paint82_radial_38_4313" cx="0" cy="0" r="1" gradientUnits="userSpaceOnUse" gradientTransform="translate(177.72 171.08) scale(0.928 1.628)">
<stop stop-color="#2EFFFF"/>
<stop offset="0.1" stop-color="#54FDFD" stop-opacity="0.8"/>
<stop offset="0.2" stop-color="#7FFCFC" stop-opacity="0.6"/>
<stop offset="0.4" stop-color="#A4FAFB" stop-opacity="0.4"/>
<stop offset="0.5" stop-color="#C2F9FA" stop-opacity="0.3"/>
<stop offset="0.6" stop-color="#D9F9F9" stop-opacity="0.1"/>
<stop offset="0.8" stop-color="#EAF8F9" stop-opacity="0"/>
<stop offset="0.9" stop-color="#F4F8F9" stop-opacity="0"/>
<stop offset="1" stop-color="#F8F8F9" stop-opacity="0"/>
</radialGradient>
<radialGradient id="paint83_radial_38_4313" cx="0" cy="0" r="1" gradientUnits="userSpaceOnUse" gradientTransform="translate(271.542 110.845) scale(1.2064 2.1164)">
<stop stop-color="#2EFFFF"/>
<stop offset="0.1" stop-color="#54FDFD" stop-opacity="0.8"/>
<stop offset="0.2" stop-color="#7FFCFC" stop-opacity="0.6"/>
<stop offset="0.4" stop-color="#A4FAFB" stop-opacity="0.4"/>
<stop offset="0.5" stop-color="#C2F9FA" stop-opacity="0.3"/>
<stop offset="0.6" stop-color="#D9F9F9" stop-opacity="0.1"/>
<stop offset="0.8" stop-color="#EAF8F9" stop-opacity="0"/>
<stop offset="0.9" stop-color="#F4F8F9" stop-opacity="0"/>
<stop offset="1" stop-color="#F8F8F9" stop-opacity="0"/>
</radialGradient>
<radialGradient id="paint84_radial_38_4313" cx="0" cy="0" r="1" gradientUnits="userSpaceOnUse" gradientTransform="translate(354.968 114.915) scale(1.392 2.442)">
<stop stop-color="#2EFFFF"/>
<stop offset="0.1" stop-color="#54FDFD" stop-opacity="0.8"/>
<stop offset="0.2" stop-color="#7FFCFC" stop-opacity="0.6"/>
<stop offset="0.4" stop-color="#A4FAFB" stop-opacity="0.4"/>
<stop offset="0.5" stop-color="#C2F9FA" stop-opacity="0.3"/>
<stop offset="0.6" stop-color="#D9F9F9" stop-opacity="0.1"/>
<stop offset="0.8" stop-color="#EAF8F9" stop-opacity="0"/>
<stop offset="0.9" stop-color="#F4F8F9" stop-opacity="0"/>
<stop offset="1" stop-color="#F8F8F9" stop-opacity="0"/>
</radialGradient>
<radialGradient id="paint85_radial_38_4313" cx="0" cy="0" r="1" gradientUnits="userSpaceOnUse" gradientTransform="translate(158.789 99.2857) scale(1.392 2.442)">
<stop stop-color="#2EFFFF"/>
<stop offset="0.1" stop-color="#54FDFD" stop-opacity="0.8"/>
<stop offset="0.2" stop-color="#7FFCFC" stop-opacity="0.6"/>
<stop offset="0.4" stop-color="#A4FAFB" stop-opacity="0.4"/>
<stop offset="0.5" stop-color="#C2F9FA" stop-opacity="0.3"/>
<stop offset="0.6" stop-color="#D9F9F9" stop-opacity="0.1"/>
<stop offset="0.8" stop-color="#EAF8F9" stop-opacity="0"/>
<stop offset="0.9" stop-color="#F4F8F9" stop-opacity="0"/>
<stop offset="1" stop-color="#F8F8F9" stop-opacity="0"/>
</radialGradient>
<radialGradient id="paint86_radial_38_4313" cx="0" cy="0" r="1" gradientUnits="userSpaceOnUse" gradientTransform="translate(210.571 76.0047) scale(1.6704 2.9304)">
<stop stop-color="#2EFFFF"/>
<stop offset="0.1" stop-color="#54FDFD" stop-opacity="0.8"/>
<stop offset="0.2" stop-color="#7FFCFC" stop-opacity="0.6"/>
<stop offset="0.4" stop-color="#A4FAFB" stop-opacity="0.4"/>
<stop offset="0.5" stop-color="#C2F9FA" stop-opacity="0.3"/>
<stop offset="0.6" stop-color="#D9F9F9" stop-opacity="0.1"/>
<stop offset="0.8" stop-color="#EAF8F9" stop-opacity="0"/>
<stop offset="0.9" stop-color="#F4F8F9" stop-opacity="0"/>
<stop offset="1" stop-color="#F8F8F9" stop-opacity="0"/>
</radialGradient>
<radialGradient id="paint87_radial_38_4313" cx="0" cy="0" r="1" gradientUnits="userSpaceOnUse" gradientTransform="translate(222.728 152.685) scale(1.20639 2.1164)">
<stop stop-color="#2EFFFF"/>
<stop offset="0.1" stop-color="#54FDFD" stop-opacity="0.8"/>
<stop offset="0.2" stop-color="#7FFCFC" stop-opacity="0.6"/>
<stop offset="0.4" stop-color="#A4FAFB" stop-opacity="0.4"/>
<stop offset="0.5" stop-color="#C2F9FA" stop-opacity="0.3"/>
<stop offset="0.6" stop-color="#D9F9F9" stop-opacity="0.1"/>
<stop offset="0.8" stop-color="#EAF8F9" stop-opacity="0"/>
<stop offset="0.9" stop-color="#F4F8F9" stop-opacity="0"/>
<stop offset="1" stop-color="#F8F8F9" stop-opacity="0"/>
</radialGradient>
<radialGradient id="paint88_radial_38_4313" cx="0" cy="0" r="1" gradientUnits="userSpaceOnUse" gradientTransform="translate(283.42 432.538) scale(0.649597 1.1396)">
<stop stop-color="#2EFFFF"/>
<stop offset="0.1" stop-color="#54FDFD" stop-opacity="0.8"/>
<stop offset="0.2" stop-color="#7FFCFC" stop-opacity="0.6"/>
<stop offset="0.4" stop-color="#A4FAFB" stop-opacity="0.4"/>
<stop offset="0.5" stop-color="#C2F9FA" stop-opacity="0.3"/>
<stop offset="0.6" stop-color="#D9F9F9" stop-opacity="0.1"/>
<stop offset="0.8" stop-color="#EAF8F9" stop-opacity="0"/>
<stop offset="0.9" stop-color="#F4F8F9" stop-opacity="0"/>
<stop offset="1" stop-color="#F8F8F9" stop-opacity="0"/>
</radialGradient>
<radialGradient id="paint89_radial_38_4313" cx="0" cy="0" r="1" gradientUnits="userSpaceOnUse" gradientTransform="translate(340.306 274.947) scale(1.20639 2.1164)">
<stop stop-color="#2EFFFF"/>
<stop offset="0.1" stop-color="#54FDFD" stop-opacity="0.8"/>
<stop offset="0.2" stop-color="#7FFCFC" stop-opacity="0.6"/>
<stop offset="0.4" stop-color="#A4FAFB" stop-opacity="0.4"/>
<stop offset="0.5" stop-color="#C2F9FA" stop-opacity="0.3"/>
<stop offset="0.6" stop-color="#D9F9F9" stop-opacity="0.1"/>
<stop offset="0.8" stop-color="#EAF8F9" stop-opacity="0"/>
<stop offset="0.9" stop-color="#F4F8F9" stop-opacity="0"/>
<stop offset="1" stop-color="#F8F8F9" stop-opacity="0"/>
</radialGradient>
<radialGradient id="paint90_radial_38_4313" cx="0" cy="0" r="1" gradientUnits="userSpaceOnUse" gradientTransform="translate(331.49 34.9798) scale(0.835194 1.4652)">
<stop stop-color="#2EFFFF"/>
<stop offset="0.1" stop-color="#54FDFD" stop-opacity="0.8"/>
<stop offset="0.2" stop-color="#7FFCFC" stop-opacity="0.6"/>
<stop offset="0.4" stop-color="#A4FAFB" stop-opacity="0.4"/>
<stop offset="0.5" stop-color="#C2F9FA" stop-opacity="0.3"/>
<stop offset="0.6" stop-color="#D9F9F9" stop-opacity="0.1"/>
<stop offset="0.8" stop-color="#EAF8F9" stop-opacity="0"/>
<stop offset="0.9" stop-color="#F4F8F9" stop-opacity="0"/>
<stop offset="1" stop-color="#F8F8F9" stop-opacity="0"/>
</radialGradient>
<radialGradient id="paint91_radial_38_4313" cx="0" cy="0" r="1" gradientUnits="userSpaceOnUse" gradientTransform="translate(275.067 25.3751) scale(1.29919 2.2792)">
<stop stop-color="#2EFFFF"/>
<stop offset="0.1" stop-color="#54FDFD" stop-opacity="0.8"/>
<stop offset="0.2" stop-color="#7FFCFC" stop-opacity="0.6"/>
<stop offset="0.4" stop-color="#A4FAFB" stop-opacity="0.4"/>
<stop offset="0.5" stop-color="#C2F9FA" stop-opacity="0.3"/>
<stop offset="0.6" stop-color="#D9F9F9" stop-opacity="0.1"/>
<stop offset="0.8" stop-color="#EAF8F9" stop-opacity="0"/>
<stop offset="0.9" stop-color="#F4F8F9" stop-opacity="0"/>
<stop offset="1" stop-color="#F8F8F9" stop-opacity="0"/>
</radialGradient>
<radialGradient id="paint92_radial_38_4313" cx="0" cy="0" r="1" gradientUnits="userSpaceOnUse" gradientTransform="translate(300.495 91.4722) scale(0.464 0.814)">
<stop stop-color="#2EFFFF"/>
<stop offset="0.1" stop-color="#54FDFD" stop-opacity="0.8"/>
<stop offset="0.2" stop-color="#7FFCFC" stop-opacity="0.6"/>
<stop offset="0.4" stop-color="#A4FAFB" stop-opacity="0.4"/>
<stop offset="0.5" stop-color="#C2F9FA" stop-opacity="0.3"/>
<stop offset="0.6" stop-color="#D9F9F9" stop-opacity="0.1"/>
<stop offset="0.8" stop-color="#EAF8F9" stop-opacity="0"/>
<stop offset="0.9" stop-color="#F4F8F9" stop-opacity="0"/>
<stop offset="1" stop-color="#F8F8F9" stop-opacity="0"/>
</radialGradient>
<radialGradient id="paint93_radial_38_4313" cx="0" cy="0" r="1" gradientUnits="userSpaceOnUse" gradientTransform="translate(356.917 31.3974) scale(0.649583 1.1396)">
<stop stop-color="#2EFFFF"/>
<stop offset="0.1" stop-color="#54FDFD" stop-opacity="0.8"/>
<stop offset="0.2" stop-color="#7FFCFC" stop-opacity="0.6"/>
<stop offset="0.4" stop-color="#A4FAFB" stop-opacity="0.4"/>
<stop offset="0.5" stop-color="#C2F9FA" stop-opacity="0.3"/>
<stop offset="0.6" stop-color="#D9F9F9" stop-opacity="0.1"/>
<stop offset="0.8" stop-color="#EAF8F9" stop-opacity="0"/>
<stop offset="0.9" stop-color="#F4F8F9" stop-opacity="0"/>
<stop offset="1" stop-color="#F8F8F9" stop-opacity="0"/>
</radialGradient>
<radialGradient id="paint94_radial_38_4313" cx="0" cy="0" r="1" gradientUnits="userSpaceOnUse" gradientTransform="translate(113.039 32.2124) scale(1.6704 2.9304)">
<stop stop-color="#2EFFFF"/>
<stop offset="0.1" stop-color="#54FDFD" stop-opacity="0.8"/>
<stop offset="0.2" stop-color="#7FFCFC" stop-opacity="0.6"/>
<stop offset="0.4" stop-color="#A4FAFB" stop-opacity="0.4"/>
<stop offset="0.5" stop-color="#C2F9FA" stop-opacity="0.3"/>
<stop offset="0.6" stop-color="#D9F9F9" stop-opacity="0.1"/>
<stop offset="0.8" stop-color="#EAF8F9" stop-opacity="0"/>
<stop offset="0.9" stop-color="#F4F8F9" stop-opacity="0"/>
<stop offset="1" stop-color="#F8F8F9" stop-opacity="0"/>
</radialGradient>
<radialGradient id="paint95_radial_38_4313" cx="0" cy="0" r="1" gradientUnits="userSpaceOnUse" gradientTransform="translate(70.8145 27.1647) scale(0.742403 1.3024)">
<stop stop-color="#2EFFFF"/>
<stop offset="0.1" stop-color="#54FDFD" stop-opacity="0.8"/>
<stop offset="0.2" stop-color="#7FFCFC" stop-opacity="0.6"/>
<stop offset="0.4" stop-color="#A4FAFB" stop-opacity="0.4"/>
<stop offset="0.5" stop-color="#C2F9FA" stop-opacity="0.3"/>
<stop offset="0.6" stop-color="#D9F9F9" stop-opacity="0.1"/>
<stop offset="0.8" stop-color="#EAF8F9" stop-opacity="0"/>
<stop offset="0.9" stop-color="#F4F8F9" stop-opacity="0"/>
<stop offset="1" stop-color="#F8F8F9" stop-opacity="0"/>
</radialGradient>
<radialGradient id="paint96_radial_38_4313" cx="0" cy="0" r="1" gradientUnits="userSpaceOnUse" gradientTransform="translate(40.7478 60.0506) scale(1.6704 2.9304)">
<stop stop-color="#2EFFFF"/>
<stop offset="0.1" stop-color="#54FDFD" stop-opacity="0.8"/>
<stop offset="0.2" stop-color="#7FFCFC" stop-opacity="0.6"/>
<stop offset="0.4" stop-color="#A4FAFB" stop-opacity="0.4"/>
<stop offset="0.5" stop-color="#C2F9FA" stop-opacity="0.3"/>
<stop offset="0.6" stop-color="#D9F9F9" stop-opacity="0.1"/>
<stop offset="0.8" stop-color="#EAF8F9" stop-opacity="0"/>
<stop offset="0.9" stop-color="#F4F8F9" stop-opacity="0"/>
<stop offset="1" stop-color="#F8F8F9" stop-opacity="0"/>
</radialGradient>
<radialGradient id="paint97_radial_38_4313" cx="0" cy="0" r="1" gradientUnits="userSpaceOnUse" gradientTransform="translate(6.04014 26.6759) scale(1.856 3.256)">
<stop stop-color="#2EFFFF"/>
<stop offset="0.1" stop-color="#54FDFD" stop-opacity="0.8"/>
<stop offset="0.2" stop-color="#7FFCFC" stop-opacity="0.6"/>
<stop offset="0.4" stop-color="#A4FAFB" stop-opacity="0.4"/>
<stop offset="0.5" stop-color="#C2F9FA" stop-opacity="0.3"/>
<stop offset="0.6" stop-color="#D9F9F9" stop-opacity="0.1"/>
<stop offset="0.8" stop-color="#EAF8F9" stop-opacity="0"/>
<stop offset="0.9" stop-color="#F4F8F9" stop-opacity="0"/>
<stop offset="1" stop-color="#F8F8F9" stop-opacity="0"/>
</radialGradient>
<radialGradient id="paint98_radial_38_4313" cx="0" cy="0" r="1" gradientUnits="userSpaceOnUse" gradientTransform="translate(33.5096 169.453) scale(1.2064 2.1164)">
<stop stop-color="#2EFFFF"/>
<stop offset="0.1" stop-color="#54FDFD" stop-opacity="0.8"/>
<stop offset="0.2" stop-color="#7FFCFC" stop-opacity="0.6"/>
<stop offset="0.4" stop-color="#A4FAFB" stop-opacity="0.4"/>
<stop offset="0.5" stop-color="#C2F9FA" stop-opacity="0.3"/>
<stop offset="0.6" stop-color="#D9F9F9" stop-opacity="0.1"/>
<stop offset="0.8" stop-color="#EAF8F9" stop-opacity="0"/>
<stop offset="0.9" stop-color="#F4F8F9" stop-opacity="0"/>
<stop offset="1" stop-color="#F8F8F9" stop-opacity="0"/>
</radialGradient>
<radialGradient id="paint99_radial_38_4313" cx="0" cy="0" r="1" gradientUnits="userSpaceOnUse" gradientTransform="translate(93.2721 103.192) scale(1.392 2.442)">
<stop stop-color="#2EFFFF"/>
<stop offset="0.1" stop-color="#54FDFD" stop-opacity="0.8"/>
<stop offset="0.2" stop-color="#7FFCFC" stop-opacity="0.6"/>
<stop offset="0.4" stop-color="#A4FAFB" stop-opacity="0.4"/>
<stop offset="0.5" stop-color="#C2F9FA" stop-opacity="0.3"/>
<stop offset="0.6" stop-color="#D9F9F9" stop-opacity="0.1"/>
<stop offset="0.8" stop-color="#EAF8F9" stop-opacity="0"/>
<stop offset="0.9" stop-color="#F4F8F9" stop-opacity="0"/>
<stop offset="1" stop-color="#F8F8F9" stop-opacity="0"/>
</radialGradient>
<radialGradient id="paint100_radial_38_4313" cx="0" cy="0" r="1" gradientUnits="userSpaceOnUse" gradientTransform="translate(150.623 41.3286) scale(0.742403 1.3024)">
<stop stop-color="#2EFFFF"/>
<stop offset="0.1" stop-color="#54FDFD" stop-opacity="0.8"/>
<stop offset="0.2" stop-color="#7FFCFC" stop-opacity="0.6"/>
<stop offset="0.4" stop-color="#A4FAFB" stop-opacity="0.4"/>
<stop offset="0.5" stop-color="#C2F9FA" stop-opacity="0.3"/>
<stop offset="0.6" stop-color="#D9F9F9" stop-opacity="0.1"/>
<stop offset="0.8" stop-color="#EAF8F9" stop-opacity="0"/>
<stop offset="0.9" stop-color="#F4F8F9" stop-opacity="0"/>
<stop offset="1" stop-color="#F8F8F9" stop-opacity="0"/>
</radialGradient>
<radialGradient id="paint101_radial_38_4313" cx="0" cy="0" r="1" gradientUnits="userSpaceOnUse" gradientTransform="translate(245.464 58.4226) scale(1.67039 2.9304)">
<stop stop-color="#2EFFFF"/>
<stop offset="0.1" stop-color="#54FDFD" stop-opacity="0.8"/>
<stop offset="0.2" stop-color="#7FFCFC" stop-opacity="0.6"/>
<stop offset="0.4" stop-color="#A4FAFB" stop-opacity="0.4"/>
<stop offset="0.5" stop-color="#C2F9FA" stop-opacity="0.3"/>
<stop offset="0.6" stop-color="#D9F9F9" stop-opacity="0.1"/>
<stop offset="0.8" stop-color="#EAF8F9" stop-opacity="0"/>
<stop offset="0.9" stop-color="#F4F8F9" stop-opacity="0"/>
<stop offset="1" stop-color="#F8F8F9" stop-opacity="0"/>
</radialGradient>
<radialGradient id="paint102_radial_38_4313" cx="0" cy="0" r="1" gradientUnits="userSpaceOnUse" gradientTransform="translate(154.892 275.76) scale(0.928 1.628)">
<stop stop-color="#2EFFFF"/>
<stop offset="0.1" stop-color="#54FDFD" stop-opacity="0.8"/>
<stop offset="0.2" stop-color="#7FFCFC" stop-opacity="0.6"/>
<stop offset="0.4" stop-color="#A4FAFB" stop-opacity="0.4"/>
<stop offset="0.5" stop-color="#C2F9FA" stop-opacity="0.3"/>
<stop offset="0.6" stop-color="#D9F9F9" stop-opacity="0.1"/>
<stop offset="0.8" stop-color="#EAF8F9" stop-opacity="0"/>
<stop offset="0.9" stop-color="#F4F8F9" stop-opacity="0"/>
<stop offset="1" stop-color="#F8F8F9" stop-opacity="0"/>
</radialGradient>
<radialGradient id="paint103_radial_38_4313" cx="0" cy="0" r="1" gradientUnits="userSpaceOnUse" gradientTransform="translate(107.193 250.69) scale(0.835194 1.4652)">
<stop stop-color="#2EFFFF"/>
<stop offset="0.1" stop-color="#54FDFD" stop-opacity="0.8"/>
<stop offset="0.2" stop-color="#7FFCFC" stop-opacity="0.6"/>
<stop offset="0.4" stop-color="#A4FAFB" stop-opacity="0.4"/>
<stop offset="0.5" stop-color="#C2F9FA" stop-opacity="0.3"/>
<stop offset="0.6" stop-color="#D9F9F9" stop-opacity="0.1"/>
<stop offset="0.8" stop-color="#EAF8F9" stop-opacity="0"/>
<stop offset="0.9" stop-color="#F4F8F9" stop-opacity="0"/>
<stop offset="1" stop-color="#F8F8F9" stop-opacity="0"/>
</radialGradient>
<radialGradient id="paint104_radial_38_4313" cx="0" cy="0" r="1" gradientUnits="userSpaceOnUse" gradientTransform="translate(55.7813 262.9) scale(1.1136 1.95361)">
<stop stop-color="#2EFFFF"/>
<stop offset="0.1" stop-color="#54FDFD" stop-opacity="0.8"/>
<stop offset="0.2" stop-color="#7FFCFC" stop-opacity="0.6"/>
<stop offset="0.4" stop-color="#A4FAFB" stop-opacity="0.4"/>
<stop offset="0.5" stop-color="#C2F9FA" stop-opacity="0.3"/>
<stop offset="0.6" stop-color="#D9F9F9" stop-opacity="0.1"/>
<stop offset="0.8" stop-color="#EAF8F9" stop-opacity="0"/>
<stop offset="0.9" stop-color="#F4F8F9" stop-opacity="0"/>
<stop offset="1" stop-color="#F8F8F9" stop-opacity="0"/>
</radialGradient>
<radialGradient id="paint105_radial_38_4313" cx="0" cy="0" r="1" gradientUnits="userSpaceOnUse" gradientTransform="translate(109.605 428.304) scale(0.464 0.814)">
<stop stop-color="#2EFFFF"/>
<stop offset="0.1" stop-color="#54FDFD" stop-opacity="0.8"/>
<stop offset="0.2" stop-color="#7FFCFC" stop-opacity="0.6"/>
<stop offset="0.4" stop-color="#A4FAFB" stop-opacity="0.4"/>
<stop offset="0.5" stop-color="#C2F9FA" stop-opacity="0.3"/>
<stop offset="0.6" stop-color="#D9F9F9" stop-opacity="0.1"/>
<stop offset="0.8" stop-color="#EAF8F9" stop-opacity="0"/>
<stop offset="0.9" stop-color="#F4F8F9" stop-opacity="0"/>
<stop offset="1" stop-color="#F8F8F9" stop-opacity="0"/>
</radialGradient>
<radialGradient id="paint106_radial_38_4313" cx="0" cy="0" r="1" gradientUnits="userSpaceOnUse" gradientTransform="translate(73.1351 382.558) scale(0.649597 1.13961)">
<stop stop-color="#2EFFFF"/>
<stop offset="0.1" stop-color="#54FDFD" stop-opacity="0.8"/>
<stop offset="0.2" stop-color="#7FFCFC" stop-opacity="0.6"/>
<stop offset="0.4" stop-color="#A4FAFB" stop-opacity="0.4"/>
<stop offset="0.5" stop-color="#C2F9FA" stop-opacity="0.3"/>
<stop offset="0.6" stop-color="#D9F9F9" stop-opacity="0.1"/>
<stop offset="0.8" stop-color="#EAF8F9" stop-opacity="0"/>
<stop offset="0.9" stop-color="#F4F8F9" stop-opacity="0"/>
<stop offset="1" stop-color="#F8F8F9" stop-opacity="0"/>
</radialGradient>
<radialGradient id="paint107_radial_38_4313" cx="0" cy="0" r="1" gradientUnits="userSpaceOnUse" gradientTransform="translate(14.4853 321.507) scale(1.1136 1.95361)">
<stop stop-color="#2EFFFF"/>
<stop offset="0.1" stop-color="#54FDFD" stop-opacity="0.8"/>
<stop offset="0.2" stop-color="#7FFCFC" stop-opacity="0.6"/>
<stop offset="0.4" stop-color="#A4FAFB" stop-opacity="0.4"/>
<stop offset="0.5" stop-color="#C2F9FA" stop-opacity="0.3"/>
<stop offset="0.6" stop-color="#D9F9F9" stop-opacity="0.1"/>
<stop offset="0.8" stop-color="#EAF8F9" stop-opacity="0"/>
<stop offset="0.9" stop-color="#F4F8F9" stop-opacity="0"/>
<stop offset="1" stop-color="#F8F8F9" stop-opacity="0"/>
</radialGradient>
<radialGradient id="paint108_radial_38_4313" cx="0" cy="0" r="1" gradientUnits="userSpaceOnUse" gradientTransform="translate(170.111 350.974) scale(0.649597 1.1396)">
<stop stop-color="#2EFFFF"/>
<stop offset="0.1" stop-color="#54FDFD" stop-opacity="0.8"/>
<stop offset="0.2" stop-color="#7FFCFC" stop-opacity="0.6"/>
<stop offset="0.4" stop-color="#A4FAFB" stop-opacity="0.4"/>
<stop offset="0.5" stop-color="#C2F9FA" stop-opacity="0.3"/>
<stop offset="0.6" stop-color="#D9F9F9" stop-opacity="0.1"/>
<stop offset="0.8" stop-color="#EAF8F9" stop-opacity="0"/>
<stop offset="0.9" stop-color="#F4F8F9" stop-opacity="0"/>
<stop offset="1" stop-color="#F8F8F9" stop-opacity="0"/>
</radialGradient>
<radialGradient id="paint109_radial_38_4313" cx="0" cy="0" r="1" gradientUnits="userSpaceOnUse" gradientTransform="translate(2.05008 243.526) scale(0.742403 1.3024)">
<stop stop-color="#2EFFFF"/>
<stop offset="0.1" stop-color="#54FDFD" stop-opacity="0.8"/>
<stop offset="0.2" stop-color="#7FFCFC" stop-opacity="0.6"/>
<stop offset="0.4" stop-color="#A4FAFB" stop-opacity="0.4"/>
<stop offset="0.5" stop-color="#C2F9FA" stop-opacity="0.3"/>
<stop offset="0.6" stop-color="#D9F9F9" stop-opacity="0.1"/>
<stop offset="0.8" stop-color="#EAF8F9" stop-opacity="0"/>
<stop offset="0.9" stop-color="#F4F8F9" stop-opacity="0"/>
<stop offset="1" stop-color="#F8F8F9" stop-opacity="0"/>
</radialGradient>
<radialGradient id="paint110_radial_38_4313" cx="0" cy="0" r="1" gradientUnits="userSpaceOnUse" gradientTransform="translate(172.987 449.143) scale(1.2064 2.11638)">
<stop stop-color="#2EFFFF"/>
<stop offset="0.1" stop-color="#54FDFD" stop-opacity="0.8"/>
<stop offset="0.2" stop-color="#7FFCFC" stop-opacity="0.6"/>
<stop offset="0.4" stop-color="#A4FAFB" stop-opacity="0.4"/>
<stop offset="0.5" stop-color="#C2F9FA" stop-opacity="0.3"/>
<stop offset="0.6" stop-color="#D9F9F9" stop-opacity="0.1"/>
<stop offset="0.8" stop-color="#EAF8F9" stop-opacity="0"/>
<stop offset="0.9" stop-color="#F4F8F9" stop-opacity="0"/>
<stop offset="1" stop-color="#F8F8F9" stop-opacity="0"/>
</radialGradient>
<radialGradient id="paint111_radial_38_4313" cx="0" cy="0" r="1" gradientUnits="userSpaceOnUse" gradientTransform="translate(103.016 183.29) scale(2.32 4.07)">
<stop stop-color="#2EFFFF"/>
<stop offset="0.1" stop-color="#54FDFD" stop-opacity="0.8"/>
<stop offset="0.2" stop-color="#7FFCFC" stop-opacity="0.6"/>
<stop offset="0.4" stop-color="#A4FAFB" stop-opacity="0.4"/>
<stop offset="0.5" stop-color="#C2F9FA" stop-opacity="0.3"/>
<stop offset="0.6" stop-color="#D9F9F9" stop-opacity="0.1"/>
<stop offset="0.8" stop-color="#EAF8F9" stop-opacity="0"/>
<stop offset="0.9" stop-color="#F4F8F9" stop-opacity="0"/>
<stop offset="1" stop-color="#F8F8F9" stop-opacity="0"/>
</radialGradient>
<clipPath id="clip0_38_4313">
<rect width="375" height="812" fill="white"/>
</clipPath>
<clipPath id="clip1_38_4313">
<rect width="696" height="814" fill="white" transform="translate(-161 -1)"/>
</clipPath>
</defs>
</svg>
