<svg width="375" height="812" viewBox="0 0 375 812" fill="none" xmlns="http://www.w3.org/2000/svg">
<rect width="375" height="812" fill="#111111"/>
<path d="M123.488 252.689V219.593H130.299V224.586L130.152 231.84L130.594 239.02V252.725H123.488V252.689ZM137.994 244.306C135.969 244.306 134.165 243.868 132.619 242.957C131.073 242.046 129.858 240.661 128.974 238.802C128.09 236.943 127.685 234.61 127.685 231.767C127.685 228.887 128.09 226.555 128.937 224.696C129.747 222.873 130.962 221.488 132.508 220.577C134.092 219.666 135.896 219.228 138.031 219.228C140.387 219.228 142.486 219.739 144.327 220.796C146.168 221.853 147.64 223.274 148.708 225.17C149.776 227.029 150.328 229.252 150.328 231.767C150.328 234.318 149.776 236.542 148.708 238.401C147.64 240.26 146.168 241.718 144.327 242.738C142.412 243.759 140.35 244.306 137.994 244.306ZM136.816 238.51C137.994 238.51 139.062 238.255 139.982 237.708C140.903 237.162 141.639 236.396 142.228 235.375C142.78 234.355 143.075 233.152 143.075 231.767C143.075 230.345 142.78 229.143 142.228 228.159C141.676 227.174 140.903 226.409 139.982 225.862C139.062 225.352 137.994 225.06 136.816 225.06C135.638 225.06 134.57 225.315 133.613 225.862C132.656 226.372 131.919 227.138 131.367 228.159C130.815 229.143 130.52 230.345 130.52 231.767C130.52 233.152 130.815 234.355 131.367 235.375C131.919 236.396 132.692 237.162 133.613 237.708C134.533 238.219 135.601 238.51 136.816 238.51Z" fill="white"/>
<path d="M165.719 244.304C162.921 244.304 160.454 243.758 158.355 242.664C156.257 241.571 154.637 240.076 153.459 238.217C152.317 236.322 151.728 234.171 151.728 231.766C151.728 229.36 152.28 227.21 153.385 225.314C154.489 223.419 156.036 221.924 158.061 220.867C160.049 219.81 162.295 219.264 164.798 219.264C167.191 219.264 169.364 219.774 171.315 220.794C173.266 221.815 174.776 223.273 175.917 225.132C177.058 226.991 177.611 229.251 177.611 231.875C177.611 232.13 177.611 232.458 177.574 232.786C177.537 233.151 177.5 233.442 177.5 233.77H164.688V229.652H173.745L170.947 230.891C170.984 229.615 170.726 228.522 170.21 227.574C169.695 226.626 168.959 225.897 168.075 225.387C167.155 224.877 166.087 224.585 164.872 224.585C163.657 224.585 162.589 224.84 161.669 225.387C160.748 225.897 160.012 226.663 159.497 227.61C158.981 228.558 158.723 229.688 158.723 230.964V232.057C158.723 233.406 159.018 234.609 159.644 235.593C160.27 236.577 161.08 237.342 162.147 237.889C163.215 238.4 164.504 238.691 165.976 238.691C167.265 238.691 168.406 238.509 169.364 238.108C170.358 237.707 171.278 237.124 172.088 236.358L175.88 240.441C174.739 241.716 173.34 242.664 171.646 243.357C169.916 243.94 167.928 244.304 165.719 244.304Z" fill="white"/>
<path d="M85.8614 244.304C83.0633 244.304 80.5965 243.758 78.498 242.664C76.3994 241.571 74.7794 240.076 73.6013 238.217C72.4599 236.322 71.8709 234.171 71.8709 231.766C71.8709 229.36 72.4231 227.21 73.5276 225.314C74.6322 223.419 76.1785 221.924 78.2034 220.867C80.1915 219.81 82.4374 219.264 84.941 219.264C87.3341 219.264 89.5063 219.774 91.4576 220.794C93.4089 221.815 94.9184 223.273 96.0597 225.132C97.2011 226.991 97.7533 229.251 97.7533 231.875C97.7533 232.13 97.7533 232.458 97.7165 232.786C97.6797 233.151 97.6429 233.442 97.6429 233.77H84.8305V229.652H93.8875L91.0894 230.891C91.1262 229.615 90.8685 228.522 90.3531 227.574C89.8376 226.626 89.1013 225.897 88.2177 225.387C87.2973 224.877 86.2296 224.585 85.0146 224.585C83.7996 224.585 82.7319 224.84 81.8115 225.387C80.8911 225.897 80.1547 226.663 79.6393 227.61C79.1238 228.558 78.8661 229.688 78.8661 230.964V232.057C78.8661 233.406 79.1607 234.609 79.7866 235.593C80.4124 236.577 81.2224 237.342 82.2901 237.889C83.3578 238.4 84.6464 238.691 86.1191 238.691C87.4077 238.691 88.549 238.509 89.5063 238.108C90.5003 237.707 91.4208 237.124 92.2308 236.358L96.0229 240.441C94.8816 241.716 93.4825 242.664 91.7889 243.357C90.0585 243.94 88.1072 244.304 85.8614 244.304Z" fill="white"/>
<path d="M220.982 244.304C218.183 244.304 215.717 243.758 213.618 242.664C211.52 241.571 209.9 240.076 208.721 238.217C207.58 236.322 206.991 234.171 206.991 231.766C206.991 229.36 207.543 227.21 208.648 225.314C209.752 223.419 211.299 221.924 213.324 220.867C215.312 219.81 217.558 219.264 220.061 219.264C222.454 219.264 224.626 219.774 226.578 220.794C228.529 221.815 230.039 223.273 231.18 225.132C232.321 226.991 232.873 229.251 232.873 231.875C232.873 232.13 232.873 232.458 232.837 232.786C232.8 233.151 232.763 233.442 232.763 233.77H219.951V229.652H229.008L226.21 230.891C226.246 229.615 225.989 228.522 225.473 227.574C224.958 226.626 224.221 225.897 223.338 225.387C222.417 224.877 221.35 224.585 220.135 224.585C218.92 224.585 217.852 224.84 216.932 225.387C216.011 225.897 215.275 226.663 214.759 227.61C214.244 228.558 213.986 229.688 213.986 230.964V232.057C213.986 233.406 214.281 234.609 214.907 235.593C215.533 236.577 216.343 237.342 217.41 237.889C218.478 238.4 219.767 238.691 221.239 238.691C222.528 238.691 223.669 238.509 224.626 238.108C225.62 237.707 226.541 237.124 227.351 236.358L231.143 240.441C230.002 241.716 228.603 242.664 226.909 243.357C225.179 243.94 223.227 244.304 220.982 244.304Z" fill="white"/>
<path d="M191.307 244.306C188.987 244.306 186.889 243.795 185.048 242.738C183.207 241.681 181.734 240.26 180.667 238.364C179.599 236.505 179.084 234.282 179.084 231.767C179.084 229.216 179.599 227.029 180.667 225.17C181.734 223.311 183.207 221.853 185.048 220.796C186.889 219.739 188.987 219.228 191.307 219.228C193.369 219.228 195.173 219.666 196.756 220.577C198.302 221.488 199.517 222.837 200.364 224.696C201.211 226.518 201.652 228.888 201.652 231.767C201.652 234.61 201.247 236.943 200.401 238.838C199.591 240.697 198.413 242.082 196.866 242.993C195.32 243.868 193.479 244.306 191.307 244.306ZM192.485 238.51C193.663 238.51 194.731 238.255 195.688 237.708C196.645 237.198 197.382 236.396 197.934 235.376C198.486 234.355 198.781 233.152 198.781 231.767C198.781 230.345 198.486 229.143 197.934 228.159C197.382 227.174 196.609 226.409 195.688 225.862C194.731 225.352 193.663 225.06 192.485 225.06C191.344 225.06 190.276 225.315 189.319 225.862C188.362 226.373 187.625 227.138 187.073 228.159C186.521 229.143 186.226 230.345 186.226 231.767C186.226 233.152 186.521 234.355 187.073 235.376C187.625 236.396 188.398 237.162 189.319 237.708C190.276 238.255 191.344 238.51 192.485 238.51ZM198.965 243.941V238.948L199.112 231.694L198.67 224.514V210.371H205.813V243.941H198.965Z" fill="white"/>
<path d="M283.018 252.726C281.914 252.726 280.772 252.543 279.668 252.215C278.563 251.851 277.606 251.377 276.87 250.757L279.189 246.201C279.668 246.675 280.257 247.003 280.883 247.258C281.509 247.513 282.171 247.623 282.834 247.623C283.718 247.623 284.417 247.404 284.933 247.003C285.448 246.566 285.963 245.873 286.368 244.925L287.51 242.265L287.988 241.572L295.941 222.764H302.053L292.112 245.91C291.412 247.696 290.602 249.081 289.682 250.065C288.762 251.049 287.768 251.742 286.663 252.142C285.559 252.507 284.344 252.726 283.018 252.726ZM286.773 245.363L276.98 222.691H283.534L291.192 240.989L286.773 245.363Z" fill="white"/>
<path d="M234.197 229.907V243.904H241.34V231.694C241.34 230.199 241.561 229.033 242.039 228.085C242.186 227.793 242.371 227.502 242.555 227.283L234.197 229.907ZM253.195 223.675L247.93 225.461C248.887 225.643 249.624 226.08 250.213 226.736C251.023 227.684 251.428 229.106 251.428 231.074V243.904H258.57V231.694C258.57 231.584 258.57 231.511 258.57 231.402L253.195 223.675ZM274.401 223.93C274.033 223.237 273.592 222.618 273.076 222.107L266.964 226.408C267.112 226.518 267.222 226.663 267.333 226.773C268.143 227.721 268.548 229.142 268.548 231.11V243.941H275.69V230.017C275.69 227.538 275.248 225.497 274.401 223.93Z" fill="white"/>
<path d="M234.197 228.377L255.662 211.537L261.81 218.863L270.757 212.849L268.621 209.933L282.722 209.277L277.2 221.779L275.101 218.827L259.306 229.908L253.453 221.415L234.197 228.377Z" fill="#A6CBD6"/>
<path d="M121.942 243.94L112.406 231.474L121.574 219.592H113.952L108.651 226.699L103.46 219.592H95.5071L104.601 231.693L104.527 231.766L108.651 226.699L112.406 231.474L108.467 236.468L104.527 231.766L95.0653 243.94H102.944L108.467 236.468L113.879 243.94H121.942Z" fill="white"/>
<path d="M76.2807 524.318H77.8119V531.537C77.8119 532.19 77.6827 532.748 77.4241 533.212C77.1689 533.676 76.8093 534.031 76.3453 534.276C75.8813 534.518 75.3377 534.639 74.7146 534.639C74.1412 534.639 73.6259 534.535 73.1685 534.326C72.7144 534.117 72.3548 533.814 72.0896 533.416C71.8278 533.015 71.6969 532.528 71.6969 531.955H73.2232C73.2232 532.236 73.2878 532.48 73.417 532.685C73.5496 532.891 73.7303 533.052 73.959 533.168C74.191 533.28 74.4561 533.337 74.7544 533.337C75.0792 533.337 75.3543 533.269 75.5797 533.133C75.8084 532.994 75.9824 532.79 76.1017 532.521C76.221 532.253 76.2807 531.925 76.2807 531.537V524.318ZM82.8652 534.654C82.1493 534.654 81.5245 534.49 80.9909 534.162C80.4573 533.834 80.043 533.375 79.748 532.785C79.453 532.195 79.3055 531.505 79.3055 530.717C79.3055 529.924 79.453 529.232 79.748 528.638C80.043 528.045 80.4573 527.585 80.9909 527.256C81.5245 526.928 82.1493 526.764 82.8652 526.764C83.5811 526.764 84.2059 526.928 84.7395 527.256C85.2731 527.585 85.6874 528.045 85.9824 528.638C86.2774 529.232 86.4249 529.924 86.4249 530.717C86.4249 531.505 86.2774 532.195 85.9824 532.785C85.6874 533.375 85.2731 533.834 84.7395 534.162C84.2059 534.49 83.5811 534.654 82.8652 534.654ZM82.8702 533.406C83.3342 533.406 83.7187 533.284 84.0236 533.038C84.3285 532.793 84.5539 532.467 84.6997 532.059C84.8489 531.651 84.9234 531.202 84.9234 530.712C84.9234 530.224 84.8489 529.777 84.6997 529.369C84.5539 528.958 84.3285 528.629 84.0236 528.38C83.7187 528.131 83.3342 528.007 82.8702 528.007C82.4028 528.007 82.0151 528.131 81.7068 528.38C81.4019 528.629 81.1749 528.958 81.0257 529.369C80.8799 529.777 80.807 530.224 80.807 530.712C80.807 531.202 80.8799 531.651 81.0257 532.059C81.1749 532.467 81.4019 532.793 81.7068 533.038C82.0151 533.284 82.4028 533.406 82.8702 533.406ZM87.8041 534.5V526.864H89.2906V534.5H87.8041ZM88.5548 525.685C88.2963 525.685 88.0743 525.599 87.8887 525.427C87.7064 525.251 87.6152 525.042 87.6152 524.8C87.6152 524.555 87.7064 524.346 87.8887 524.174C88.0743 523.998 88.2963 523.911 88.5548 523.911C88.8134 523.911 89.0338 523.998 89.2161 524.174C89.4017 524.346 89.4945 524.555 89.4945 524.8C89.4945 525.042 89.4017 525.251 89.2161 525.427C89.0338 525.599 88.8134 525.685 88.5548 525.685ZM92.497 529.966V534.5H91.0105V526.864H92.4373V528.107H92.5318C92.7074 527.702 92.9825 527.377 93.3571 527.132C93.7349 526.887 94.2105 526.764 94.7839 526.764C95.3043 526.764 95.76 526.874 96.1511 527.092C96.5422 527.308 96.8455 527.629 97.0609 528.057C97.2763 528.484 97.384 529.013 97.384 529.643V534.5H95.8975V529.822C95.8975 529.268 95.7534 528.836 95.465 528.524C95.1767 528.209 94.7806 528.052 94.2768 528.052C93.9321 528.052 93.6255 528.126 93.3571 528.276C93.0919 528.425 92.8814 528.643 92.7257 528.932C92.5732 529.217 92.497 529.562 92.497 529.966ZM102.503 534.5V533.386L105.948 529.817C106.316 529.429 106.619 529.089 106.858 528.798C107.1 528.503 107.281 528.223 107.4 527.957C107.519 527.692 107.579 527.411 107.579 527.112C107.579 526.774 107.499 526.482 107.34 526.237C107.181 525.989 106.964 525.798 106.689 525.665C106.414 525.53 106.104 525.462 105.759 525.462C105.395 525.462 105.076 525.536 104.805 525.685C104.533 525.835 104.324 526.045 104.178 526.317C104.032 526.589 103.96 526.907 103.96 527.271H102.493C102.493 526.652 102.635 526.11 102.92 525.646C103.205 525.182 103.597 524.822 104.094 524.567C104.591 524.308 105.156 524.179 105.789 524.179C106.429 524.179 106.992 524.307 107.479 524.562C107.97 524.814 108.353 525.158 108.628 525.596C108.903 526.03 109.04 526.521 109.04 527.067C109.04 527.445 108.969 527.815 108.827 528.176C108.688 528.537 108.444 528.94 108.096 529.384C107.748 529.825 107.264 530.36 106.644 530.99L104.621 533.108V533.183H109.205V534.5H102.503ZM114.249 534.639C113.537 534.639 112.907 534.517 112.36 534.271C111.816 534.026 111.39 533.688 111.082 533.257C110.774 532.826 110.622 532.336 110.625 531.786C110.622 531.355 110.709 530.959 110.888 530.597C111.071 530.233 111.318 529.929 111.629 529.688C111.941 529.442 112.289 529.286 112.673 529.22V529.161C112.166 529.038 111.76 528.766 111.455 528.345C111.15 527.924 110.999 527.44 111.003 526.893C110.999 526.373 111.137 525.909 111.415 525.501C111.697 525.09 112.083 524.767 112.574 524.532C113.064 524.297 113.623 524.179 114.249 524.179C114.869 524.179 115.422 524.298 115.91 524.537C116.4 524.772 116.786 525.095 117.068 525.506C117.35 525.914 117.492 526.376 117.496 526.893C117.492 527.44 117.336 527.924 117.028 528.345C116.72 528.766 116.319 529.038 115.825 529.161V529.22C116.206 529.286 116.549 529.442 116.854 529.688C117.162 529.929 117.408 530.233 117.59 530.597C117.776 530.959 117.87 531.355 117.873 531.786C117.87 532.336 117.714 532.826 117.406 533.257C117.098 533.688 116.67 534.026 116.123 534.271C115.58 534.517 114.955 534.639 114.249 534.639ZM114.249 533.381C114.67 533.381 115.035 533.312 115.343 533.173C115.651 533.03 115.89 532.833 116.059 532.581C116.228 532.326 116.314 532.027 116.317 531.686C116.314 531.331 116.221 531.018 116.039 530.746C115.86 530.475 115.616 530.261 115.308 530.105C115 529.949 114.647 529.871 114.249 529.871C113.848 529.871 113.492 529.949 113.18 530.105C112.869 530.261 112.623 530.475 112.444 530.746C112.265 531.018 112.178 531.331 112.181 531.686C112.178 532.027 112.259 532.326 112.425 532.581C112.594 532.833 112.834 533.03 113.145 533.173C113.457 533.312 113.825 533.381 114.249 533.381ZM114.249 528.643C114.587 528.643 114.887 528.576 115.149 528.44C115.411 528.304 115.616 528.115 115.765 527.873C115.918 527.631 115.996 527.348 115.999 527.023C115.996 526.705 115.92 526.426 115.77 526.188C115.625 525.949 115.421 525.765 115.159 525.636C114.897 525.503 114.594 525.437 114.249 525.437C113.898 525.437 113.59 525.503 113.324 525.636C113.063 525.765 112.859 525.949 112.713 526.188C112.567 526.426 112.496 526.705 112.499 527.023C112.496 527.348 112.569 527.631 112.718 527.873C112.867 528.115 113.073 528.304 113.334 528.44C113.599 528.576 113.904 528.643 114.249 528.643ZM121.028 533.108L120.953 533.65C120.903 534.048 120.819 534.462 120.699 534.893C120.583 535.327 120.462 535.73 120.336 536.101C120.214 536.472 120.113 536.767 120.033 536.986H118.979C119.022 536.78 119.082 536.502 119.158 536.151C119.234 535.803 119.309 535.413 119.382 534.982C119.455 534.551 119.51 534.112 119.546 533.665L119.596 533.108H121.028ZM126.003 534.669C125.217 534.666 124.546 534.459 123.989 534.048C123.432 533.637 123.006 533.038 122.711 532.253C122.416 531.467 122.269 530.521 122.269 529.414C122.269 528.31 122.416 527.367 122.711 526.585C123.01 525.803 123.437 525.206 123.994 524.795C124.554 524.384 125.224 524.179 126.003 524.179C126.781 524.179 127.449 524.386 128.006 524.8C128.563 525.211 128.989 525.808 129.284 526.59C129.582 527.369 129.731 528.31 129.731 529.414C129.731 530.524 129.584 531.472 129.289 532.258C128.994 533.04 128.568 533.638 128.011 534.053C127.454 534.464 126.785 534.669 126.003 534.669ZM126.003 533.342C126.692 533.342 127.23 533.005 127.618 532.332C128.009 531.66 128.205 530.687 128.205 529.414C128.205 528.569 128.115 527.855 127.936 527.271C127.761 526.685 127.507 526.241 127.176 525.939C126.848 525.634 126.457 525.482 126.003 525.482C125.316 525.482 124.778 525.82 124.387 526.496C123.996 527.172 123.798 528.145 123.795 529.414C123.795 530.263 123.883 530.98 124.059 531.567C124.238 532.15 124.491 532.593 124.819 532.894C125.147 533.192 125.542 533.342 126.003 533.342ZM134.76 534.669C133.974 534.666 133.303 534.459 132.746 534.048C132.189 533.637 131.763 533.038 131.468 532.253C131.173 531.467 131.026 530.521 131.026 529.414C131.026 528.31 131.173 527.367 131.468 526.585C131.767 525.803 132.194 525.206 132.751 524.795C133.311 524.384 133.981 524.179 134.76 524.179C135.539 524.179 136.206 524.386 136.763 524.8C137.32 525.211 137.746 525.808 138.041 526.59C138.339 527.369 138.488 528.31 138.488 529.414C138.488 530.524 138.341 531.472 138.046 532.258C137.751 533.04 137.325 533.638 136.768 534.053C136.211 534.464 135.542 534.669 134.76 534.669ZM134.76 533.342C135.449 533.342 135.988 533.005 136.375 532.332C136.766 531.66 136.962 530.687 136.962 529.414C136.962 528.569 136.873 527.855 136.694 527.271C136.518 526.685 136.264 526.241 135.933 525.939C135.605 525.634 135.214 525.482 134.76 525.482C134.074 525.482 133.535 525.82 133.144 526.496C132.753 527.172 132.556 528.145 132.552 529.414C132.552 530.263 132.64 530.98 132.816 531.567C132.995 532.15 133.248 532.593 133.576 532.894C133.905 533.192 134.299 533.342 134.76 533.342ZM143.517 534.669C142.731 534.666 142.06 534.459 141.503 534.048C140.946 533.637 140.521 533.038 140.226 532.253C139.931 531.467 139.783 530.521 139.783 529.414C139.783 528.31 139.931 527.367 140.226 526.585C140.524 525.803 140.951 525.206 141.508 524.795C142.068 524.384 142.738 524.179 143.517 524.179C144.296 524.179 144.963 524.386 145.52 524.8C146.077 525.211 146.503 525.808 146.798 526.59C147.096 527.369 147.245 528.31 147.245 529.414C147.245 530.524 147.098 531.472 146.803 532.258C146.508 533.04 146.082 533.638 145.525 534.053C144.968 534.464 144.299 534.669 143.517 534.669ZM143.517 533.342C144.206 533.342 144.745 533.005 145.132 532.332C145.524 531.66 145.719 530.687 145.719 529.414C145.719 528.569 145.63 527.855 145.451 527.271C145.275 526.685 145.021 526.241 144.69 525.939C144.362 525.634 143.971 525.482 143.517 525.482C142.831 525.482 142.292 525.82 141.901 526.496C141.51 527.172 141.313 528.145 141.309 529.414C141.309 530.263 141.397 530.98 141.573 531.567C141.752 532.15 142.005 532.593 142.333 532.894C142.662 533.192 143.056 533.342 143.517 533.342ZM151.742 532.79V526.068H153.079V532.79H151.742ZM149.052 530.095V528.763H155.774V530.095H149.052ZM161.338 534.5V524.318H167.721V525.641H162.874V528.743H167.388V530.06H162.874V533.178H167.781V534.5H161.338ZM170.547 526.864L172.232 529.837L173.933 526.864H175.558L173.177 530.682L175.578 534.5H173.953L172.232 531.646L170.517 534.5H168.887L171.263 530.682L168.916 526.864H170.547ZM176.805 537.364V526.864H178.256V528.102H178.381C178.467 527.942 178.591 527.759 178.754 527.55C178.916 527.341 179.141 527.159 179.43 527.003C179.718 526.844 180.099 526.764 180.573 526.764C181.19 526.764 181.74 526.92 182.224 527.232C182.708 527.543 183.087 527.992 183.362 528.579C183.641 529.165 183.78 529.871 183.78 530.697C183.78 531.522 183.642 532.23 183.367 532.82C183.092 533.406 182.714 533.859 182.234 534.177C181.753 534.492 181.205 534.649 180.588 534.649C180.124 534.649 179.745 534.571 179.45 534.415C179.158 534.26 178.929 534.077 178.764 533.869C178.598 533.66 178.47 533.474 178.381 533.312H178.291V537.364H176.805ZM178.261 530.682C178.261 531.219 178.339 531.689 178.495 532.094C178.651 532.498 178.876 532.815 179.171 533.043C179.466 533.269 179.827 533.381 180.255 533.381C180.699 533.381 181.07 533.264 181.369 533.028C181.667 532.79 181.892 532.467 182.045 532.059C182.201 531.651 182.278 531.192 182.278 530.682C182.278 530.178 182.202 529.726 182.05 529.325C181.901 528.924 181.675 528.607 181.374 528.375C181.075 528.143 180.702 528.027 180.255 528.027C179.824 528.027 179.46 528.138 179.161 528.36C178.866 528.582 178.643 528.892 178.49 529.29C178.338 529.687 178.261 530.152 178.261 530.682ZM186.652 524.318V534.5H185.165V524.318H186.652ZM191.588 534.654C190.872 534.654 190.248 534.49 189.714 534.162C189.18 533.834 188.766 533.375 188.471 532.785C188.176 532.195 188.029 531.505 188.029 530.717C188.029 529.924 188.176 529.232 188.471 528.638C188.766 528.045 189.18 527.585 189.714 527.256C190.248 526.928 190.872 526.764 191.588 526.764C192.304 526.764 192.929 526.928 193.463 527.256C193.996 527.585 194.411 528.045 194.706 528.638C195 529.232 195.148 529.924 195.148 530.717C195.148 531.505 195 532.195 194.706 532.785C194.411 533.375 193.996 533.834 193.463 534.162C192.929 534.49 192.304 534.654 191.588 534.654ZM191.593 533.406C192.057 533.406 192.442 533.284 192.747 533.038C193.052 532.793 193.277 532.467 193.423 532.059C193.572 531.651 193.647 531.202 193.647 530.712C193.647 530.224 193.572 529.777 193.423 529.369C193.277 528.958 193.052 528.629 192.747 528.38C192.442 528.131 192.057 528.007 191.593 528.007C191.126 528.007 190.738 528.131 190.43 528.38C190.125 528.629 189.898 528.958 189.749 529.369C189.603 529.777 189.53 530.224 189.53 530.712C189.53 531.202 189.603 531.651 189.749 532.059C189.898 532.467 190.125 532.793 190.43 533.038C190.738 533.284 191.126 533.406 191.593 533.406ZM196.527 534.5V526.864H197.964V528.077H198.044C198.183 527.666 198.428 527.343 198.779 527.107C199.134 526.869 199.535 526.749 199.983 526.749C200.075 526.749 200.185 526.753 200.311 526.759C200.44 526.766 200.541 526.774 200.614 526.784V528.206C200.554 528.189 200.448 528.171 200.296 528.151C200.143 528.128 199.991 528.116 199.838 528.116C199.487 528.116 199.174 528.191 198.899 528.34C198.627 528.486 198.411 528.69 198.252 528.952C198.093 529.21 198.014 529.505 198.014 529.837V534.5H196.527ZM204.638 534.654C203.886 534.654 203.238 534.493 202.694 534.172C202.154 533.847 201.736 533.391 201.441 532.805C201.15 532.215 201.004 531.524 201.004 530.732C201.004 529.949 201.15 529.26 201.441 528.663C201.736 528.067 202.147 527.601 202.674 527.266C203.205 526.932 203.824 526.764 204.534 526.764C204.965 526.764 205.382 526.835 205.786 526.978C206.191 527.121 206.554 527.344 206.875 527.649C207.197 527.954 207.45 528.35 207.636 528.837C207.822 529.321 207.914 529.91 207.914 530.602V531.129H201.844V530.016H206.458C206.458 529.625 206.378 529.278 206.219 528.977C206.06 528.672 205.836 528.431 205.548 528.256C205.263 528.08 204.928 527.992 204.544 527.992C204.126 527.992 203.761 528.095 203.45 528.3C203.142 528.503 202.903 528.768 202.734 529.096C202.568 529.421 202.485 529.774 202.485 530.155V531.025C202.485 531.535 202.575 531.969 202.754 532.327C202.936 532.685 203.19 532.959 203.514 533.148C203.839 533.333 204.219 533.426 204.653 533.426C204.935 533.426 205.192 533.386 205.424 533.307C205.656 533.224 205.856 533.101 206.025 532.939C206.194 532.777 206.323 532.576 206.413 532.337L207.82 532.591C207.707 533.005 207.505 533.368 207.213 533.68C206.925 533.988 206.562 534.228 206.125 534.401C205.69 534.57 205.195 534.654 204.638 534.654ZM209.284 534.5V526.864H210.72V528.077H210.8C210.939 527.666 211.184 527.343 211.536 527.107C211.89 526.869 212.291 526.749 212.739 526.749C212.832 526.749 212.941 526.753 213.067 526.759C213.196 526.766 213.297 526.774 213.37 526.784V528.206C213.311 528.189 213.205 528.171 213.052 528.151C212.9 528.128 212.747 528.116 212.595 528.116C212.243 528.116 211.93 528.191 211.655 528.34C211.383 528.486 211.168 528.69 211.009 528.952C210.85 529.21 210.77 529.505 210.77 529.837V534.5H209.284ZM220.099 528.728L218.752 528.967C218.695 528.794 218.606 528.63 218.483 528.474C218.364 528.319 218.202 528.191 217.996 528.092C217.791 527.992 217.534 527.942 217.225 527.942C216.804 527.942 216.453 528.037 216.171 528.226C215.89 528.411 215.749 528.652 215.749 528.947C215.749 529.202 215.843 529.407 216.032 529.563C216.221 529.719 216.526 529.847 216.947 529.946L218.16 530.224C218.863 530.387 219.386 530.637 219.731 530.975C220.076 531.313 220.248 531.752 220.248 532.293C220.248 532.75 220.116 533.158 219.85 533.516C219.589 533.87 219.222 534.149 218.752 534.351C218.284 534.553 217.742 534.654 217.126 534.654C216.271 534.654 215.573 534.472 215.033 534.107C214.493 533.739 214.161 533.217 214.039 532.541L215.475 532.322C215.565 532.697 215.749 532.98 216.027 533.173C216.306 533.362 216.669 533.456 217.116 533.456C217.603 533.456 217.993 533.355 218.284 533.153C218.576 532.947 218.722 532.697 218.722 532.402C218.722 532.163 218.632 531.963 218.453 531.8C218.278 531.638 218.008 531.515 217.643 531.433L216.35 531.149C215.638 530.987 215.111 530.728 214.769 530.374C214.431 530.019 214.262 529.57 214.262 529.026C214.262 528.576 214.388 528.181 214.64 527.843C214.892 527.505 215.24 527.241 215.684 527.053C216.128 526.86 216.637 526.764 217.211 526.764C218.036 526.764 218.685 526.943 219.159 527.301C219.633 527.656 219.947 528.131 220.099 528.728ZM229.865 531.333V526.864H231.356V534.5H229.895V533.178H229.815C229.64 533.585 229.358 533.925 228.97 534.197C228.586 534.465 228.107 534.599 227.533 534.599C227.043 534.599 226.609 534.492 226.231 534.276C225.856 534.058 225.561 533.734 225.346 533.307C225.134 532.879 225.028 532.351 225.028 531.721V526.864H226.514V531.542C226.514 532.062 226.658 532.477 226.947 532.785C227.235 533.093 227.61 533.247 228.07 533.247C228.349 533.247 228.625 533.178 228.901 533.038C229.179 532.899 229.409 532.689 229.592 532.407C229.777 532.125 229.868 531.767 229.865 531.333ZM234.56 529.966V534.5H233.074V526.864H234.501V528.107H234.595C234.771 527.702 235.046 527.377 235.42 527.132C235.798 526.887 236.274 526.764 236.847 526.764C237.368 526.764 237.823 526.874 238.214 527.092C238.606 527.308 238.909 527.629 239.124 528.057C239.34 528.484 239.447 529.013 239.447 529.643V534.5H237.961V529.822C237.961 529.268 237.817 528.836 237.528 528.524C237.24 528.209 236.844 528.052 236.34 528.052C235.995 528.052 235.689 528.126 235.42 528.276C235.155 528.425 234.945 528.643 234.789 528.932C234.637 529.217 234.56 529.562 234.56 529.966ZM242.648 524.318V534.5H241.161V524.318H242.648ZM247.584 534.654C246.868 534.654 246.243 534.49 245.71 534.162C245.176 533.834 244.762 533.375 244.467 532.785C244.172 532.195 244.024 531.505 244.024 530.717C244.024 529.924 244.172 529.232 244.467 528.638C244.762 528.045 245.176 527.585 245.71 527.256C246.243 526.928 246.868 526.764 247.584 526.764C248.3 526.764 248.925 526.928 249.458 527.256C249.992 527.585 250.406 528.045 250.701 528.638C250.996 529.232 251.144 529.924 251.144 530.717C251.144 531.505 250.996 532.195 250.701 532.785C250.406 533.375 249.992 533.834 249.458 534.162C248.925 534.49 248.3 534.654 247.584 534.654ZM247.589 533.406C248.053 533.406 248.437 533.284 248.742 533.038C249.047 532.793 249.273 532.467 249.418 532.059C249.568 531.651 249.642 531.202 249.642 530.712C249.642 530.224 249.568 529.777 249.418 529.369C249.273 528.958 249.047 528.629 248.742 528.38C248.437 528.131 248.053 528.007 247.589 528.007C247.122 528.007 246.734 528.131 246.426 528.38C246.121 528.629 245.894 528.958 245.744 529.369C245.599 529.777 245.526 530.224 245.526 530.712C245.526 531.202 245.599 531.651 245.744 532.059C245.894 532.467 246.121 532.793 246.426 533.038C246.734 533.284 247.122 533.406 247.589 533.406ZM255.739 534.654C255 534.654 254.364 534.487 253.83 534.152C253.3 533.814 252.892 533.348 252.607 532.755C252.322 532.162 252.18 531.482 252.18 530.717C252.18 529.941 252.326 529.257 252.617 528.663C252.909 528.067 253.32 527.601 253.85 527.266C254.381 526.932 255.005 526.764 255.725 526.764C256.305 526.764 256.822 526.872 257.276 527.087C257.73 527.299 258.096 527.598 258.374 527.982C258.656 528.367 258.824 528.816 258.877 529.33H257.43C257.35 528.972 257.168 528.663 256.883 528.405C256.601 528.146 256.223 528.017 255.749 528.017C255.335 528.017 254.972 528.126 254.661 528.345C254.352 528.561 254.112 528.869 253.94 529.27C253.767 529.668 253.681 530.138 253.681 530.682C253.681 531.239 253.766 531.719 253.935 532.124C254.104 532.528 254.342 532.841 254.651 533.063C254.962 533.285 255.329 533.396 255.749 533.396C256.031 533.396 256.286 533.345 256.515 533.242C256.747 533.136 256.941 532.985 257.097 532.79C257.256 532.594 257.367 532.359 257.43 532.084H258.877C258.824 532.578 258.663 533.018 258.394 533.406C258.126 533.794 257.766 534.099 257.315 534.321C256.868 534.543 256.343 534.654 255.739 534.654ZM261.553 531.91L261.543 530.095H261.802L264.845 526.864H266.624L263.154 530.543H262.921L261.553 531.91ZM260.186 534.5V524.318H261.673V534.5H260.186ZM265.009 534.5L262.274 530.871L263.298 529.832L266.833 534.5H265.009ZM267.699 534.5V526.864H269.186V534.5H267.699ZM268.45 525.685C268.191 525.685 267.969 525.599 267.784 525.427C267.601 525.251 267.51 525.042 267.51 524.8C267.51 524.555 267.601 524.346 267.784 524.174C267.969 523.998 268.191 523.911 268.45 523.911C268.708 523.911 268.929 523.998 269.111 524.174C269.297 524.346 269.39 524.555 269.39 524.8C269.39 525.042 269.297 525.251 269.111 525.427C268.929 525.599 268.708 525.685 268.45 525.685ZM272.392 529.966V534.5H270.906V526.864H272.332V528.107H272.427C272.603 527.702 272.878 527.377 273.252 527.132C273.63 526.887 274.106 526.764 274.679 526.764C275.199 526.764 275.655 526.874 276.046 527.092C276.437 527.308 276.741 527.629 276.956 528.057C277.171 528.484 277.279 529.013 277.279 529.643V534.5H275.793V529.822C275.793 529.268 275.648 528.836 275.36 528.524C275.072 528.209 274.676 528.052 274.172 528.052C273.827 528.052 273.521 528.126 273.252 528.276C272.987 528.425 272.777 528.643 272.621 528.932C272.468 529.217 272.392 529.562 272.392 529.966ZM282.194 537.523C281.588 537.523 281.066 537.443 280.628 537.284C280.194 537.125 279.84 536.915 279.564 536.653C279.289 536.391 279.084 536.104 278.948 535.793L280.226 535.266C280.315 535.411 280.434 535.566 280.584 535.728C280.736 535.894 280.942 536.035 281.2 536.151C281.462 536.267 281.798 536.325 282.209 536.325C282.773 536.325 283.238 536.187 283.606 535.912C283.974 535.64 284.158 535.206 284.158 534.609V533.108H284.064C283.974 533.27 283.845 533.451 283.676 533.65C283.51 533.849 283.282 534.021 282.99 534.167C282.698 534.313 282.319 534.386 281.851 534.386C281.248 534.386 280.705 534.245 280.221 533.963C279.74 533.678 279.359 533.259 279.077 532.705C278.799 532.148 278.66 531.464 278.66 530.652C278.66 529.84 278.797 529.144 279.072 528.564C279.351 527.984 279.732 527.54 280.216 527.232C280.7 526.92 281.248 526.764 281.861 526.764C282.335 526.764 282.718 526.844 283.01 527.003C283.301 527.159 283.528 527.341 283.691 527.55C283.857 527.759 283.984 527.942 284.074 528.102H284.183V526.864H285.64V534.669C285.64 535.325 285.487 535.864 285.182 536.285C284.877 536.706 284.465 537.017 283.944 537.219C283.427 537.422 282.844 537.523 282.194 537.523ZM282.18 533.153C282.607 533.153 282.968 533.053 283.263 532.854C283.562 532.652 283.787 532.364 283.939 531.989C284.095 531.612 284.173 531.159 284.173 530.632C284.173 530.118 284.097 529.666 283.944 529.275C283.792 528.884 283.568 528.579 283.273 528.36C282.978 528.138 282.614 528.027 282.18 528.027C281.732 528.027 281.359 528.143 281.061 528.375C280.763 528.604 280.537 528.915 280.385 529.31C280.236 529.704 280.161 530.145 280.161 530.632C280.161 531.133 280.237 531.572 280.39 531.95C280.542 532.327 280.768 532.622 281.066 532.835C281.367 533.047 281.739 533.153 282.18 533.153ZM291.758 534.5H290.127L293.791 524.318H295.566L299.23 534.5H297.599L294.721 526.168H294.641L291.758 534.5ZM292.031 530.513H297.321V531.805H292.031V530.513ZM301.957 524.318V534.5H300.42V524.318H301.957ZM99.5898 555.5V547.864H101.017V549.107H101.111C101.27 548.686 101.53 548.357 101.892 548.122C102.253 547.884 102.685 547.764 103.189 547.764C103.7 547.764 104.127 547.884 104.472 548.122C104.82 548.361 105.077 548.689 105.243 549.107H105.322C105.504 548.699 105.794 548.374 106.192 548.132C106.59 547.887 107.064 547.764 107.614 547.764C108.307 547.764 108.872 547.981 109.309 548.415C109.75 548.85 109.971 549.504 109.971 550.379V555.5H108.484V550.518C108.484 550.001 108.343 549.627 108.061 549.395C107.78 549.163 107.443 549.047 107.052 549.047C106.568 549.047 106.192 549.196 105.924 549.494C105.655 549.789 105.521 550.169 105.521 550.633V555.5H104.039V550.424C104.039 550.01 103.91 549.677 103.652 549.425C103.393 549.173 103.057 549.047 102.642 549.047C102.361 549.047 102.1 549.121 101.862 549.271C101.627 549.416 101.436 549.62 101.29 549.882C101.148 550.144 101.076 550.447 101.076 550.792V555.5H99.5898ZM113.905 555.669C113.421 555.669 112.984 555.58 112.593 555.401C112.202 555.218 111.892 554.955 111.663 554.61C111.438 554.265 111.325 553.843 111.325 553.342C111.325 552.911 111.408 552.557 111.574 552.278C111.739 552 111.963 551.78 112.245 551.617C112.526 551.455 112.841 551.332 113.189 551.249C113.537 551.166 113.892 551.103 114.253 551.06C114.711 551.007 115.082 550.964 115.367 550.931C115.652 550.895 115.859 550.837 115.988 550.757C116.118 550.678 116.182 550.548 116.182 550.369V550.335C116.182 549.9 116.06 549.564 115.814 549.325C115.572 549.087 115.211 548.967 114.73 548.967C114.23 548.967 113.836 549.078 113.547 549.3C113.262 549.519 113.065 549.763 112.956 550.031L111.559 549.713C111.724 549.249 111.966 548.875 112.284 548.589C112.606 548.301 112.975 548.092 113.393 547.963C113.811 547.83 114.25 547.764 114.711 547.764C115.016 547.764 115.339 547.801 115.68 547.874C116.025 547.943 116.346 548.072 116.645 548.261C116.946 548.45 117.193 548.72 117.385 549.072C117.578 549.42 117.674 549.872 117.674 550.429V555.5H116.222V554.456H116.162C116.066 554.648 115.922 554.837 115.73 555.023C115.538 555.208 115.291 555.362 114.989 555.485C114.687 555.608 114.326 555.669 113.905 555.669ZM114.228 554.476C114.639 554.476 114.991 554.395 115.282 554.232C115.577 554.07 115.801 553.858 115.953 553.596C116.109 553.331 116.187 553.047 116.187 552.746V551.761C116.134 551.814 116.031 551.864 115.879 551.911C115.73 551.954 115.559 551.992 115.367 552.025C115.175 552.055 114.987 552.083 114.805 552.109C114.623 552.133 114.47 552.152 114.348 552.169C114.059 552.205 113.796 552.267 113.557 552.353C113.322 552.439 113.133 552.563 112.99 552.726C112.851 552.885 112.782 553.097 112.782 553.362C112.782 553.73 112.917 554.009 113.189 554.197C113.461 554.383 113.807 554.476 114.228 554.476ZM125.096 549.728L123.749 549.967C123.692 549.794 123.603 549.63 123.48 549.474C123.361 549.319 123.198 549.191 122.993 549.092C122.787 548.992 122.531 548.942 122.222 548.942C121.801 548.942 121.45 549.037 121.168 549.226C120.887 549.411 120.746 549.652 120.746 549.947C120.746 550.202 120.84 550.407 121.029 550.563C121.218 550.719 121.523 550.847 121.944 550.946L123.157 551.224C123.86 551.387 124.383 551.637 124.728 551.975C125.073 552.313 125.245 552.752 125.245 553.293C125.245 553.75 125.112 554.158 124.847 554.516C124.585 554.87 124.219 555.149 123.749 555.351C123.281 555.553 122.739 555.654 122.123 555.654C121.268 555.654 120.57 555.472 120.03 555.107C119.49 554.739 119.158 554.217 119.036 553.541L120.472 553.322C120.562 553.697 120.746 553.98 121.024 554.173C121.303 554.362 121.665 554.456 122.113 554.456C122.6 554.456 122.99 554.355 123.281 554.153C123.573 553.947 123.719 553.697 123.719 553.402C123.719 553.163 123.629 552.963 123.45 552.8C123.275 552.638 123.005 552.515 122.64 552.433L121.347 552.149C120.635 551.987 120.108 551.728 119.766 551.374C119.428 551.019 119.259 550.57 119.259 550.026C119.259 549.576 119.385 549.181 119.637 548.843C119.889 548.505 120.237 548.241 120.681 548.053C121.125 547.86 121.634 547.764 122.207 547.764C123.033 547.764 123.682 547.943 124.156 548.301C124.63 548.656 124.943 549.131 125.096 549.728ZM130.164 547.864V549.057H125.993V547.864H130.164ZM127.112 546.034H128.598V553.258C128.598 553.546 128.641 553.763 128.727 553.909C128.813 554.052 128.924 554.149 129.06 554.202C129.2 554.252 129.35 554.277 129.513 554.277C129.632 554.277 129.737 554.269 129.826 554.252C129.915 554.236 129.985 554.222 130.035 554.212L130.303 555.44C130.217 555.473 130.094 555.507 129.935 555.54C129.776 555.576 129.577 555.596 129.339 555.599C128.948 555.606 128.583 555.536 128.245 555.391C127.907 555.245 127.634 555.019 127.425 554.714C127.216 554.41 127.112 554.027 127.112 553.566V546.034ZM134.738 555.654C133.985 555.654 133.337 555.493 132.794 555.172C132.253 554.847 131.836 554.391 131.541 553.805C131.249 553.215 131.103 552.524 131.103 551.732C131.103 550.949 131.249 550.26 131.541 549.663C131.836 549.067 132.247 548.601 132.774 548.266C133.304 547.932 133.924 547.764 134.633 547.764C135.064 547.764 135.482 547.835 135.886 547.978C136.29 548.121 136.653 548.344 136.975 548.649C137.296 548.954 137.55 549.35 137.735 549.837C137.921 550.321 138.014 550.91 138.014 551.602V552.129H131.944V551.016H136.557C136.557 550.625 136.478 550.278 136.319 549.977C136.159 549.672 135.936 549.431 135.647 549.256C135.362 549.08 135.028 548.992 134.643 548.992C134.226 548.992 133.861 549.095 133.549 549.3C133.241 549.503 133.003 549.768 132.833 550.096C132.668 550.421 132.585 550.774 132.585 551.155V552.025C132.585 552.535 132.674 552.969 132.853 553.327C133.036 553.685 133.289 553.959 133.614 554.148C133.939 554.333 134.318 554.426 134.753 554.426C135.034 554.426 135.291 554.386 135.523 554.307C135.755 554.224 135.956 554.101 136.125 553.939C136.294 553.777 136.423 553.576 136.512 553.337L137.919 553.591C137.807 554.005 137.605 554.368 137.313 554.68C137.025 554.988 136.662 555.228 136.224 555.401C135.79 555.57 135.294 555.654 134.738 555.654ZM139.383 555.5V547.864H140.82V549.077H140.9C141.039 548.666 141.284 548.343 141.635 548.107C141.99 547.869 142.391 547.749 142.838 547.749C142.931 547.749 143.041 547.753 143.167 547.759C143.296 547.766 143.397 547.774 143.47 547.784V549.206C143.41 549.189 143.304 549.171 143.152 549.151C142.999 549.128 142.847 549.116 142.694 549.116C142.343 549.116 142.03 549.191 141.755 549.34C141.483 549.486 141.267 549.69 141.108 549.952C140.949 550.21 140.87 550.505 140.87 550.837V555.5H139.383ZM145.648 558.364C145.426 558.364 145.224 558.345 145.042 558.309C144.859 558.276 144.724 558.239 144.634 558.2L144.992 556.982C145.264 557.054 145.506 557.086 145.718 557.076C145.93 557.066 146.117 556.987 146.28 556.837C146.445 556.688 146.591 556.445 146.717 556.107L146.901 555.599L144.107 547.864H145.698L147.632 553.79H147.712L149.645 547.864H151.241L148.094 556.519C147.948 556.917 147.763 557.253 147.537 557.528C147.312 557.807 147.044 558.016 146.732 558.155C146.421 558.294 146.059 558.364 145.648 558.364ZM160.283 550.553V551.841H155.769V550.553H160.283ZM168.626 555.654C167.91 555.654 167.285 555.49 166.751 555.162C166.218 554.834 165.803 554.375 165.508 553.785C165.213 553.195 165.066 552.505 165.066 551.717C165.066 550.924 165.213 550.232 165.508 549.638C165.803 549.045 166.218 548.585 166.751 548.256C167.285 547.928 167.91 547.764 168.626 547.764C169.342 547.764 169.966 547.928 170.5 548.256C171.033 548.585 171.448 549.045 171.743 549.638C172.038 550.232 172.185 550.924 172.185 551.717C172.185 552.505 172.038 553.195 171.743 553.785C171.448 554.375 171.033 554.834 170.5 555.162C169.966 555.49 169.342 555.654 168.626 555.654ZM168.631 554.406C169.095 554.406 169.479 554.284 169.784 554.038C170.089 553.793 170.314 553.467 170.46 553.059C170.609 552.651 170.684 552.202 170.684 551.712C170.684 551.224 170.609 550.777 170.46 550.369C170.314 549.958 170.089 549.629 169.784 549.38C169.479 549.131 169.095 549.007 168.631 549.007C168.163 549.007 167.775 549.131 167.467 549.38C167.162 549.629 166.935 549.958 166.786 550.369C166.64 550.777 166.567 551.224 166.567 551.712C166.567 552.202 166.64 552.651 166.786 553.059C166.935 553.467 167.162 553.793 167.467 554.038C167.775 554.284 168.163 554.406 168.631 554.406ZM175.051 550.966V555.5H173.565V547.864H174.991V549.107H175.086C175.261 548.702 175.537 548.377 175.911 548.132C176.289 547.887 176.765 547.764 177.338 547.764C177.858 547.764 178.314 547.874 178.705 548.092C179.096 548.308 179.4 548.629 179.615 549.057C179.83 549.484 179.938 550.013 179.938 550.643V555.5H178.452V550.822C178.452 550.268 178.307 549.836 178.019 549.524C177.731 549.209 177.335 549.052 176.831 549.052C176.486 549.052 176.18 549.126 175.911 549.276C175.646 549.425 175.435 549.643 175.28 549.932C175.127 550.217 175.051 550.562 175.051 550.966ZM184.943 555.654C184.191 555.654 183.543 555.493 182.999 555.172C182.459 554.847 182.041 554.391 181.746 553.805C181.455 553.215 181.309 552.524 181.309 551.732C181.309 550.949 181.455 550.26 181.746 549.663C182.041 549.067 182.452 548.601 182.979 548.266C183.509 547.932 184.129 547.764 184.838 547.764C185.269 547.764 185.687 547.835 186.091 547.978C186.496 548.121 186.859 548.344 187.18 548.649C187.502 548.954 187.755 549.35 187.941 549.837C188.126 550.321 188.219 550.91 188.219 551.602V552.129H182.149V551.016H186.763C186.763 550.625 186.683 550.278 186.524 549.977C186.365 549.672 186.141 549.431 185.853 549.256C185.568 549.08 185.233 548.992 184.848 548.992C184.431 548.992 184.066 549.095 183.755 549.3C183.446 549.503 183.208 549.768 183.039 550.096C182.873 550.421 182.79 550.774 182.79 551.155V552.025C182.79 552.535 182.88 552.969 183.059 553.327C183.241 553.685 183.495 553.959 183.819 554.148C184.144 554.333 184.524 554.426 184.958 554.426C185.24 554.426 185.496 554.386 185.728 554.307C185.96 554.224 186.161 554.101 186.33 553.939C186.499 553.777 186.628 553.576 186.718 553.337L188.125 553.591C188.012 554.005 187.81 554.368 187.518 554.68C187.23 554.988 186.867 555.228 186.429 555.401C185.995 555.57 185.5 555.654 184.943 555.654ZM196.578 547.864V549.057H192.407V547.864H196.578ZM193.526 546.034H195.012V553.258C195.012 553.546 195.055 553.763 195.141 553.909C195.228 554.052 195.339 554.149 195.475 554.202C195.614 554.252 195.765 554.277 195.927 554.277C196.046 554.277 196.151 554.269 196.24 554.252C196.33 554.236 196.399 554.222 196.449 554.212L196.717 555.44C196.631 555.473 196.509 555.507 196.35 555.54C196.19 555.576 195.992 555.596 195.753 555.599C195.362 555.606 194.997 555.536 194.659 555.391C194.321 555.245 194.048 555.019 193.839 554.714C193.63 554.41 193.526 554.027 193.526 553.566V546.034ZM201.077 555.654C200.361 555.654 199.736 555.49 199.203 555.162C198.669 554.834 198.255 554.375 197.96 553.785C197.665 553.195 197.518 552.505 197.518 551.717C197.518 550.924 197.665 550.232 197.96 549.638C198.255 549.045 198.669 548.585 199.203 548.256C199.736 547.928 200.361 547.764 201.077 547.764C201.793 547.764 202.418 547.928 202.951 548.256C203.485 548.585 203.899 549.045 204.194 549.638C204.489 550.232 204.637 550.924 204.637 551.717C204.637 552.505 204.489 553.195 204.194 553.785C203.899 554.375 203.485 554.834 202.951 555.162C202.418 555.49 201.793 555.654 201.077 555.654ZM201.082 554.406C201.546 554.406 201.931 554.284 202.236 554.038C202.54 553.793 202.766 553.467 202.912 553.059C203.061 552.651 203.135 552.202 203.135 551.712C203.135 551.224 203.061 550.777 202.912 550.369C202.766 549.958 202.54 549.629 202.236 549.38C201.931 549.131 201.546 549.007 201.082 549.007C200.615 549.007 200.227 549.131 199.919 549.38C199.614 549.629 199.387 549.958 199.238 550.369C199.092 550.777 199.019 551.224 199.019 551.712C199.019 552.202 199.092 552.651 199.238 553.059C199.387 553.467 199.614 553.793 199.919 554.038C200.227 554.284 200.615 554.406 201.082 554.406ZM209.233 555.654C208.517 555.654 207.892 555.49 207.358 555.162C206.825 554.834 206.41 554.375 206.116 553.785C205.821 553.195 205.673 552.505 205.673 551.717C205.673 550.924 205.821 550.232 206.116 549.638C206.41 549.045 206.825 548.585 207.358 548.256C207.892 547.928 208.517 547.764 209.233 547.764C209.949 547.764 210.573 547.928 211.107 548.256C211.641 548.585 212.055 549.045 212.35 549.638C212.645 550.232 212.792 550.924 212.792 551.717C212.792 552.505 212.645 553.195 212.35 553.785C212.055 554.375 211.641 554.834 211.107 555.162C210.573 555.49 209.949 555.654 209.233 555.654ZM209.238 554.406C209.702 554.406 210.086 554.284 210.391 554.038C210.696 553.793 210.921 553.467 211.067 553.059C211.216 552.651 211.291 552.202 211.291 551.712C211.291 551.224 211.216 550.777 211.067 550.369C210.921 549.958 210.696 549.629 210.391 549.38C210.086 549.131 209.702 549.007 209.238 549.007C208.77 549.007 208.383 549.131 208.074 549.38C207.769 549.629 207.542 549.958 207.393 550.369C207.247 550.777 207.174 551.224 207.174 551.712C207.174 552.202 207.247 552.651 207.393 553.059C207.542 553.467 207.769 553.793 208.074 554.038C208.383 554.284 208.77 554.406 209.238 554.406ZM215.658 545.318V555.5H214.172V545.318H215.658ZM223.025 555.669C222.541 555.669 222.104 555.58 221.713 555.401C221.322 555.218 221.012 554.955 220.783 554.61C220.558 554.265 220.445 553.843 220.445 553.342C220.445 552.911 220.528 552.557 220.694 552.278C220.859 552 221.083 551.78 221.365 551.617C221.647 551.455 221.961 551.332 222.309 551.249C222.657 551.166 223.012 551.103 223.373 551.06C223.831 551.007 224.202 550.964 224.487 550.931C224.772 550.895 224.979 550.837 225.108 550.757C225.238 550.678 225.302 550.548 225.302 550.369V550.335C225.302 549.9 225.18 549.564 224.934 549.325C224.692 549.087 224.331 548.967 223.851 548.967C223.35 548.967 222.956 549.078 222.667 549.3C222.382 549.519 222.185 549.763 222.076 550.031L220.679 549.713C220.844 549.249 221.086 548.875 221.405 548.589C221.726 548.301 222.096 548.092 222.513 547.963C222.931 547.83 223.37 547.764 223.831 547.764C224.136 547.764 224.459 547.801 224.8 547.874C225.145 547.943 225.466 548.072 225.765 548.261C226.066 548.45 226.313 548.72 226.505 549.072C226.698 549.42 226.794 549.872 226.794 550.429V555.5H225.342V554.456H225.282C225.186 554.648 225.042 554.837 224.85 555.023C224.658 555.208 224.411 555.362 224.109 555.485C223.808 555.608 223.446 555.669 223.025 555.669ZM223.348 554.476C223.759 554.476 224.111 554.395 224.402 554.232C224.697 554.07 224.921 553.858 225.074 553.596C225.229 553.331 225.307 553.047 225.307 552.746V551.761C225.254 551.814 225.152 551.864 224.999 551.911C224.85 551.954 224.679 551.992 224.487 552.025C224.295 552.055 224.107 552.083 223.925 552.109C223.743 552.133 223.59 552.152 223.468 552.169C223.179 552.205 222.916 552.267 222.677 552.353C222.442 552.439 222.253 552.563 222.111 552.726C221.971 552.885 221.902 553.097 221.902 553.362C221.902 553.73 222.038 554.009 222.309 554.197C222.581 554.383 222.928 554.476 223.348 554.476ZM232.058 547.864V549.057H227.887V547.864H232.058ZM229.006 546.034H230.492V553.258C230.492 553.546 230.535 553.763 230.622 553.909C230.708 554.052 230.819 554.149 230.955 554.202C231.094 554.252 231.245 554.277 231.407 554.277C231.526 554.277 231.631 554.269 231.72 554.252C231.81 554.236 231.879 554.222 231.929 554.212L232.198 555.44C232.111 555.473 231.989 555.507 231.83 555.54C231.671 555.576 231.472 555.596 231.233 555.599C230.842 555.606 230.477 555.536 230.139 555.391C229.801 555.245 229.528 555.019 229.319 554.714C229.11 554.41 229.006 554.027 229.006 553.566V546.034ZM239.07 555.669C238.586 555.669 238.149 555.58 237.758 555.401C237.367 555.218 237.057 554.955 236.828 554.61C236.603 554.265 236.49 553.843 236.49 553.342C236.49 552.911 236.573 552.557 236.738 552.278C236.904 552 237.128 551.78 237.41 551.617C237.691 551.455 238.006 551.332 238.354 551.249C238.702 551.166 239.057 551.103 239.418 551.06C239.875 551.007 240.247 550.964 240.532 550.931C240.817 550.895 241.024 550.837 241.153 550.757C241.282 550.678 241.347 550.548 241.347 550.369V550.335C241.347 549.9 241.224 549.564 240.979 549.325C240.737 549.087 240.376 548.967 239.895 548.967C239.395 548.967 239 549.078 238.712 549.3C238.427 549.519 238.23 549.763 238.121 550.031L236.724 549.713C236.889 549.249 237.131 548.875 237.449 548.589C237.771 548.301 238.14 548.092 238.558 547.963C238.976 547.83 239.415 547.764 239.875 547.764C240.18 547.764 240.504 547.801 240.845 547.874C241.19 547.943 241.511 548.072 241.809 548.261C242.111 548.45 242.358 548.72 242.55 549.072C242.742 549.42 242.839 549.872 242.839 550.429V555.5H241.387V554.456H241.327C241.231 554.648 241.087 554.837 240.895 555.023C240.702 555.208 240.456 555.362 240.154 555.485C239.852 555.608 239.491 555.669 239.07 555.669ZM239.393 554.476C239.804 554.476 240.156 554.395 240.447 554.232C240.742 554.07 240.966 553.858 241.118 553.596C241.274 553.331 241.352 553.047 241.352 552.746V551.761C241.299 551.814 241.196 551.864 241.044 551.911C240.895 551.954 240.724 551.992 240.532 552.025C240.34 552.055 240.152 552.083 239.97 552.109C239.788 552.133 239.635 552.152 239.513 552.169C239.224 552.205 238.961 552.267 238.722 552.353C238.487 552.439 238.298 552.563 238.155 552.726C238.016 552.885 237.947 553.097 237.947 553.362C237.947 553.73 238.082 554.009 238.354 554.197C238.626 554.383 238.972 554.476 239.393 554.476ZM251.528 547.864V549.057H247.357V547.864H251.528ZM248.476 546.034H249.962V553.258C249.962 553.546 250.005 553.763 250.091 553.909C250.178 554.052 250.289 554.149 250.425 554.202C250.564 554.252 250.715 554.277 250.877 554.277C250.996 554.277 251.101 554.269 251.19 554.252C251.28 554.236 251.349 554.222 251.399 554.212L251.667 555.44C251.581 555.473 251.459 555.507 251.3 555.54C251.14 555.576 250.942 555.596 250.703 555.599C250.312 555.606 249.947 555.536 249.609 555.391C249.271 555.245 248.998 555.019 248.789 554.714C248.58 554.41 248.476 554.027 248.476 553.566V546.034ZM252.893 555.5V547.864H254.379V555.5H252.893ZM253.643 546.685C253.385 546.685 253.163 546.599 252.977 546.427C252.795 546.251 252.704 546.042 252.704 545.8C252.704 545.555 252.795 545.346 252.977 545.174C253.163 544.998 253.385 544.911 253.643 544.911C253.902 544.911 254.122 544.998 254.305 545.174C254.49 545.346 254.583 545.555 254.583 545.8C254.583 546.042 254.49 546.251 254.305 546.427C254.122 546.599 253.902 546.685 253.643 546.685ZM256.099 555.5V547.864H257.526V549.107H257.62C257.779 548.686 258.039 548.357 258.401 548.122C258.762 547.884 259.195 547.764 259.698 547.764C260.209 547.764 260.636 547.884 260.981 548.122C261.329 548.361 261.586 548.689 261.752 549.107H261.831C262.013 548.699 262.303 548.374 262.701 548.132C263.099 547.887 263.573 547.764 264.123 547.764C264.816 547.764 265.381 547.981 265.818 548.415C266.259 548.85 266.48 549.504 266.48 550.379V555.5H264.993V550.518C264.993 550.001 264.852 549.627 264.57 549.395C264.289 549.163 263.952 549.047 263.561 549.047C263.077 549.047 262.701 549.196 262.433 549.494C262.164 549.789 262.03 550.169 262.03 550.633V555.5H260.548V550.424C260.548 550.01 260.419 549.677 260.161 549.425C259.902 549.173 259.566 549.047 259.151 549.047C258.87 549.047 258.61 549.121 258.371 549.271C258.136 549.416 257.945 549.62 257.799 549.882C257.657 550.144 257.585 550.447 257.585 550.792V555.5H256.099ZM271.483 555.654C270.731 555.654 270.083 555.493 269.539 555.172C268.999 554.847 268.581 554.391 268.286 553.805C267.995 553.215 267.849 552.524 267.849 551.732C267.849 550.949 267.995 550.26 268.286 549.663C268.581 549.067 268.992 548.601 269.519 548.266C270.05 547.932 270.669 547.764 271.379 547.764C271.81 547.764 272.227 547.835 272.632 547.978C273.036 548.121 273.399 548.344 273.72 548.649C274.042 548.954 274.295 549.35 274.481 549.837C274.667 550.321 274.759 550.91 274.759 551.602V552.129H268.689V551.016H273.303C273.303 550.625 273.223 550.278 273.064 549.977C272.905 549.672 272.681 549.431 272.393 549.256C272.108 549.08 271.773 548.992 271.389 548.992C270.971 548.992 270.606 549.095 270.295 549.3C269.987 549.503 269.748 549.768 269.579 550.096C269.413 550.421 269.33 550.774 269.33 551.155V552.025C269.33 552.535 269.42 552.969 269.599 553.327C269.781 553.685 270.035 553.959 270.36 554.148C270.684 554.333 271.064 554.426 271.498 554.426C271.78 554.426 272.037 554.386 272.269 554.307C272.501 554.224 272.701 554.101 272.87 553.939C273.039 553.777 273.169 553.576 273.258 553.337L274.665 553.591C274.552 554.005 274.35 554.368 274.058 554.68C273.77 554.988 273.407 555.228 272.97 555.401C272.535 555.57 272.04 555.654 271.483 555.654Z" fill="white" fill-opacity="0.6"/>
</svg>
