<svg width="330" height="42" viewBox="0 0 330 42" fill="none" xmlns="http://www.w3.org/2000/svg">
<rect x="0.5" y="0.5" width="329" height="41" rx="20.5" stroke="white"/>
<path d="M103.625 17.9205C103.564 17.3826 103.314 16.9659 102.875 16.6705C102.436 16.3712 101.883 16.2216 101.216 16.2216C100.739 16.2216 100.326 16.2973 99.9773 16.4489C99.6288 16.5966 99.358 16.8011 99.1648 17.0625C98.9754 17.3201 98.8807 17.6136 98.8807 17.9432C98.8807 18.2197 98.9451 18.4583 99.0739 18.6591C99.2064 18.8598 99.3788 19.0284 99.5909 19.1648C99.8068 19.2973 100.038 19.4091 100.284 19.5C100.53 19.5871 100.767 19.6591 100.994 19.7159L102.131 20.0114C102.502 20.1023 102.883 20.2254 103.273 20.3807C103.663 20.536 104.025 20.7405 104.358 20.9943C104.691 21.2481 104.96 21.5625 105.165 21.9375C105.373 22.3125 105.477 22.7614 105.477 23.2841C105.477 23.9432 105.307 24.5284 104.966 25.0398C104.629 25.5511 104.138 25.9545 103.494 26.25C102.854 26.5455 102.08 26.6932 101.17 26.6932C100.299 26.6932 99.5455 26.5549 98.9091 26.2784C98.2727 26.0019 97.7746 25.6098 97.4148 25.1023C97.0549 24.5909 96.8561 23.9848 96.8182 23.2841H98.5795C98.6136 23.7045 98.75 24.0549 98.9886 24.3352C99.2311 24.6117 99.5398 24.8182 99.9148 24.9545C100.294 25.0871 100.708 25.1534 101.159 25.1534C101.655 25.1534 102.097 25.0758 102.483 24.9205C102.873 24.7614 103.18 24.5417 103.403 24.2614C103.627 23.9773 103.739 23.6458 103.739 23.267C103.739 22.9223 103.64 22.6402 103.443 22.4205C103.25 22.2008 102.987 22.0189 102.653 21.875C102.324 21.7311 101.951 21.6042 101.534 21.4943L100.159 21.1193C99.2273 20.8655 98.4886 20.4924 97.9432 20C97.4015 19.5076 97.1307 18.8561 97.1307 18.0455C97.1307 17.375 97.3125 16.7898 97.6761 16.2898C98.0398 15.7898 98.5322 15.4015 99.1534 15.125C99.7746 14.8447 100.475 14.7045 101.256 14.7045C102.044 14.7045 102.739 14.8428 103.341 15.1193C103.947 15.3958 104.424 15.7765 104.773 16.2614C105.121 16.7424 105.303 17.2955 105.318 17.9205H103.625ZM111.513 17.7727V19.1364H106.746V17.7727H111.513ZM108.024 15.6818H109.723V23.9375C109.723 24.267 109.772 24.5152 109.871 24.6818C109.969 24.8447 110.096 24.9564 110.251 25.017C110.411 25.0739 110.583 25.1023 110.768 25.1023C110.905 25.1023 111.024 25.0928 111.126 25.0739C111.229 25.0549 111.308 25.0398 111.365 25.0284L111.672 26.4318C111.573 26.4697 111.433 26.5076 111.251 26.5455C111.07 26.5871 110.842 26.6098 110.57 26.6136C110.123 26.6212 109.706 26.5417 109.32 26.375C108.933 26.2083 108.621 25.9508 108.382 25.6023C108.143 25.2538 108.024 24.8163 108.024 24.2898V15.6818ZM115.932 26.6932C115.379 26.6932 114.879 26.5909 114.432 26.3864C113.985 26.178 113.631 25.8769 113.369 25.483C113.112 25.089 112.983 24.6061 112.983 24.0341C112.983 23.5417 113.078 23.1364 113.267 22.8182C113.456 22.5 113.712 22.2481 114.034 22.0625C114.356 21.8769 114.716 21.7367 115.114 21.642C115.511 21.5473 115.917 21.4754 116.33 21.4261C116.852 21.3655 117.277 21.3163 117.602 21.2784C117.928 21.2367 118.165 21.1705 118.312 21.0795C118.46 20.9886 118.534 20.8409 118.534 20.6364V20.5966C118.534 20.1004 118.394 19.7159 118.114 19.4432C117.837 19.1705 117.424 19.0341 116.875 19.0341C116.303 19.0341 115.852 19.161 115.523 19.4148C115.197 19.6648 114.972 19.9432 114.847 20.25L113.25 19.8864C113.439 19.3561 113.716 18.928 114.08 18.6023C114.447 18.2727 114.869 18.0341 115.347 17.8864C115.824 17.7348 116.326 17.6591 116.852 17.6591C117.201 17.6591 117.57 17.7008 117.96 17.7841C118.354 17.8636 118.722 18.0114 119.062 18.2273C119.407 18.4432 119.689 18.7519 119.909 19.1534C120.129 19.5511 120.239 20.0682 120.239 20.7045V26.5H118.58V25.3068H118.511C118.402 25.5265 118.237 25.7424 118.017 25.9545C117.797 26.1667 117.515 26.3428 117.17 26.483C116.826 26.6231 116.413 26.6932 115.932 26.6932ZM116.301 25.3295C116.771 25.3295 117.172 25.2367 117.506 25.0511C117.843 24.8655 118.098 24.6231 118.273 24.3239C118.451 24.0208 118.54 23.697 118.54 23.3523V22.2273C118.479 22.2879 118.362 22.3447 118.188 22.3977C118.017 22.447 117.822 22.4905 117.602 22.5284C117.383 22.5625 117.169 22.5947 116.96 22.625C116.752 22.6515 116.578 22.6742 116.438 22.6932C116.108 22.7348 115.807 22.8049 115.534 22.9034C115.265 23.0019 115.049 23.1439 114.886 23.3295C114.727 23.5114 114.648 23.7538 114.648 24.0568C114.648 24.4773 114.803 24.7955 115.114 25.0114C115.424 25.2235 115.82 25.3295 116.301 25.3295ZM122.501 26.5V17.7727H124.143V19.1591H124.234C124.393 18.6894 124.674 18.3201 125.075 18.0511C125.481 17.7784 125.939 17.642 126.45 17.642C126.556 17.642 126.681 17.6458 126.825 17.6534C126.973 17.661 127.089 17.6705 127.172 17.6818V19.3068C127.104 19.2879 126.982 19.267 126.808 19.2443C126.634 19.2178 126.46 19.2045 126.286 19.2045C125.884 19.2045 125.526 19.2898 125.212 19.4602C124.901 19.6269 124.655 19.8598 124.473 20.1591C124.291 20.4545 124.2 20.7917 124.2 21.1705V26.5H122.501ZM133.232 17.7727V19.1364H128.464V17.7727H133.232ZM129.743 15.6818H131.442V23.9375C131.442 24.267 131.491 24.5152 131.589 24.6818C131.688 24.8447 131.815 24.9564 131.97 25.017C132.129 25.0739 132.302 25.1023 132.487 25.1023C132.624 25.1023 132.743 25.0928 132.845 25.0739C132.947 25.0549 133.027 25.0398 133.084 25.0284L133.391 26.4318C133.292 26.4697 133.152 26.5076 132.97 26.5455C132.788 26.5871 132.561 26.6098 132.288 26.6136C131.841 26.6212 131.425 26.5417 131.038 26.375C130.652 26.2083 130.339 25.9508 130.101 25.6023C129.862 25.2538 129.743 24.8163 129.743 24.2898V15.6818ZM138.908 16.375V14.8636H147.913V16.375H144.283V26.5H142.533V16.375H138.908ZM152.263 26.6761C151.403 26.6761 150.662 26.4924 150.041 26.125C149.424 25.7538 148.946 25.233 148.609 24.5625C148.276 23.8883 148.109 23.0985 148.109 22.1932C148.109 21.2992 148.276 20.5114 148.609 19.8295C148.946 19.1477 149.416 18.6155 150.018 18.233C150.625 17.8504 151.333 17.6591 152.143 17.6591C152.636 17.6591 153.113 17.7405 153.575 17.9034C154.037 18.0663 154.452 18.322 154.82 18.6705C155.187 19.0189 155.477 19.4716 155.689 20.0284C155.901 20.5814 156.007 21.2538 156.007 22.0455V22.6477H149.07V21.375H154.342C154.342 20.928 154.251 20.5322 154.07 20.1875C153.888 19.839 153.632 19.5644 153.303 19.3636C152.977 19.1629 152.594 19.0625 152.155 19.0625C151.678 19.0625 151.261 19.1799 150.905 19.4148C150.553 19.6458 150.28 19.9489 150.087 20.3239C149.897 20.6951 149.803 21.0985 149.803 21.5341V22.5284C149.803 23.1117 149.905 23.608 150.109 24.017C150.318 24.4261 150.607 24.7386 150.979 24.9545C151.35 25.1667 151.784 25.2727 152.28 25.2727C152.602 25.2727 152.895 25.2273 153.161 25.1364C153.426 25.0417 153.655 24.9015 153.848 24.7159C154.041 24.5303 154.189 24.3011 154.291 24.0284L155.899 24.3182C155.77 24.7917 155.539 25.2064 155.206 25.5625C154.876 25.9148 154.462 26.1894 153.962 26.3864C153.465 26.5795 152.899 26.6761 152.263 26.6761ZM160.432 26.6932C159.879 26.6932 159.379 26.5909 158.932 26.3864C158.485 26.178 158.131 25.8769 157.869 25.483C157.612 25.089 157.483 24.6061 157.483 24.0341C157.483 23.5417 157.578 23.1364 157.767 22.8182C157.956 22.5 158.212 22.2481 158.534 22.0625C158.856 21.8769 159.216 21.7367 159.614 21.642C160.011 21.5473 160.417 21.4754 160.83 21.4261C161.352 21.3655 161.777 21.3163 162.102 21.2784C162.428 21.2367 162.665 21.1705 162.812 21.0795C162.96 20.9886 163.034 20.8409 163.034 20.6364V20.5966C163.034 20.1004 162.894 19.7159 162.614 19.4432C162.337 19.1705 161.924 19.0341 161.375 19.0341C160.803 19.0341 160.352 19.161 160.023 19.4148C159.697 19.6648 159.472 19.9432 159.347 20.25L157.75 19.8864C157.939 19.3561 158.216 18.928 158.58 18.6023C158.947 18.2727 159.369 18.0341 159.847 17.8864C160.324 17.7348 160.826 17.6591 161.352 17.6591C161.701 17.6591 162.07 17.7008 162.46 17.7841C162.854 17.8636 163.222 18.0114 163.562 18.2273C163.907 18.4432 164.189 18.7519 164.409 19.1534C164.629 19.5511 164.739 20.0682 164.739 20.7045V26.5H163.08V25.3068H163.011C162.902 25.5265 162.737 25.7424 162.517 25.9545C162.297 26.1667 162.015 26.3428 161.67 26.483C161.326 26.6231 160.913 26.6932 160.432 26.6932ZM160.801 25.3295C161.271 25.3295 161.672 25.2367 162.006 25.0511C162.343 24.8655 162.598 24.6231 162.773 24.3239C162.951 24.0208 163.04 23.697 163.04 23.3523V22.2273C162.979 22.2879 162.862 22.3447 162.688 22.3977C162.517 22.447 162.322 22.4905 162.102 22.5284C161.883 22.5625 161.669 22.5947 161.46 22.625C161.252 22.6515 161.078 22.6742 160.938 22.6932C160.608 22.7348 160.307 22.8049 160.034 22.9034C159.765 23.0019 159.549 23.1439 159.386 23.3295C159.227 23.5114 159.148 23.7538 159.148 24.0568C159.148 24.4773 159.303 24.7955 159.614 25.0114C159.924 25.2235 160.32 25.3295 160.801 25.3295ZM170.678 26.6761C169.833 26.6761 169.106 26.4848 168.496 26.1023C167.89 25.7159 167.424 25.1837 167.098 24.5057C166.772 23.8277 166.609 23.0511 166.609 22.1761C166.609 21.2898 166.776 20.5076 167.109 19.8295C167.443 19.1477 167.912 18.6155 168.518 18.233C169.125 17.8504 169.839 17.6591 170.661 17.6591C171.323 17.6591 171.914 17.7822 172.433 18.0284C172.952 18.2708 173.371 18.6117 173.689 19.0511C174.011 19.4905 174.202 20.0038 174.263 20.5909H172.609C172.518 20.1818 172.31 19.8295 171.984 19.5341C171.662 19.2386 171.231 19.0909 170.689 19.0909C170.215 19.0909 169.801 19.2159 169.445 19.4659C169.092 19.7121 168.818 20.0644 168.621 20.5227C168.424 20.9773 168.325 21.5152 168.325 22.1364C168.325 22.7727 168.422 23.322 168.615 23.7841C168.808 24.2462 169.081 24.6042 169.433 24.858C169.789 25.1117 170.208 25.2386 170.689 25.2386C171.011 25.2386 171.303 25.1799 171.564 25.0625C171.829 24.9413 172.051 24.7689 172.229 24.5455C172.411 24.322 172.537 24.053 172.609 23.7386H174.263C174.202 24.303 174.018 24.8068 173.712 25.25C173.405 25.6932 172.994 26.0417 172.479 26.2955C171.967 26.5492 171.367 26.6761 170.678 26.6761ZM177.778 21.3182V26.5H176.08V14.8636H177.756V19.1932H177.864C178.068 18.7235 178.381 18.3504 178.801 18.0739C179.222 17.7973 179.771 17.6591 180.449 17.6591C181.047 17.6591 181.57 17.7822 182.017 18.0284C182.468 18.2746 182.816 18.642 183.062 19.1307C183.312 19.6155 183.438 20.2216 183.438 20.9489V26.5H181.739V21.1534C181.739 20.5133 181.574 20.017 181.244 19.6648C180.915 19.3087 180.456 19.1307 179.869 19.1307C179.468 19.1307 179.108 19.2159 178.79 19.3864C178.475 19.5568 178.227 19.8068 178.045 20.1364C177.867 20.4621 177.778 20.8561 177.778 21.3182ZM185.705 26.5V17.7727H187.403V26.5H185.705ZM186.562 16.4261C186.267 16.4261 186.013 16.3277 185.801 16.1307C185.593 15.9299 185.489 15.6913 185.489 15.4148C185.489 15.1345 185.593 14.8958 185.801 14.6989C186.013 14.4981 186.267 14.3977 186.562 14.3977C186.858 14.3977 187.11 14.4981 187.318 14.6989C187.53 14.8958 187.636 15.1345 187.636 15.4148C187.636 15.6913 187.53 15.9299 187.318 16.1307C187.11 16.3277 186.858 16.4261 186.562 16.4261ZM191.388 21.3182V26.5H189.689V17.7727H191.32V19.1932H191.428C191.628 18.7311 191.943 18.3598 192.371 18.0795C192.803 17.7992 193.346 17.6591 194.001 17.6591C194.596 17.6591 195.117 17.7841 195.564 18.0341C196.011 18.2803 196.357 18.6477 196.604 19.1364C196.85 19.625 196.973 20.2292 196.973 20.9489V26.5H195.274V21.1534C195.274 20.5208 195.109 20.0265 194.78 19.6705C194.45 19.3106 193.998 19.1307 193.422 19.1307C193.028 19.1307 192.678 19.2159 192.371 19.3864C192.068 19.5568 191.827 19.8068 191.649 20.1364C191.475 20.4621 191.388 20.8561 191.388 21.3182ZM202.911 29.9545C202.217 29.9545 201.621 29.8636 201.121 29.6818C200.625 29.5 200.219 29.2595 199.905 28.9602C199.59 28.661 199.356 28.3333 199.2 27.9773L200.661 27.375C200.763 27.5417 200.899 27.7178 201.07 27.9034C201.244 28.0928 201.479 28.2538 201.774 28.3864C202.073 28.5189 202.458 28.5852 202.928 28.5852C203.571 28.5852 204.104 28.428 204.524 28.1136C204.945 27.803 205.155 27.3068 205.155 26.625V24.9091H205.047C204.945 25.0947 204.797 25.3011 204.604 25.5284C204.414 25.7557 204.153 25.9527 203.82 26.1193C203.486 26.286 203.053 26.3693 202.518 26.3693C201.829 26.3693 201.208 26.2083 200.655 25.8864C200.106 25.5606 199.67 25.0814 199.348 24.4489C199.03 23.8125 198.871 23.0303 198.871 22.1023C198.871 21.1742 199.028 20.3788 199.342 19.7159C199.661 19.053 200.096 18.5455 200.649 18.1932C201.202 17.8371 201.829 17.6591 202.53 17.6591C203.071 17.6591 203.509 17.75 203.842 17.9318C204.176 18.1098 204.435 18.3182 204.621 18.5568C204.81 18.7955 204.956 19.0057 205.058 19.1875H205.183V17.7727H206.848V26.6932C206.848 27.4432 206.674 28.0587 206.325 28.5398C205.977 29.0208 205.505 29.3769 204.911 29.608C204.32 29.839 203.653 29.9545 202.911 29.9545ZM202.893 24.9602C203.382 24.9602 203.795 24.8466 204.132 24.6193C204.473 24.3883 204.731 24.0587 204.905 23.6307C205.083 23.1989 205.172 22.6818 205.172 22.0795C205.172 21.4924 205.085 20.9754 204.911 20.5284C204.736 20.0814 204.481 19.733 204.143 19.483C203.806 19.2292 203.39 19.1023 202.893 19.1023C202.382 19.1023 201.956 19.2348 201.615 19.5C201.274 19.7614 201.017 20.1174 200.842 20.5682C200.672 21.0189 200.587 21.5227 200.587 22.0795C200.587 22.6515 200.674 23.1534 200.848 23.5852C201.022 24.017 201.28 24.3542 201.621 24.5966C201.965 24.839 202.39 24.9602 202.893 24.9602Z" fill="white"/>
<path d="M215.326 28.8118C215.222 29.1842 215.439 29.5703 215.812 29.6742C216.184 29.7782 216.57 29.5605 216.674 29.1882L216 29L215.326 28.8118ZM222.304 26.028L222.342 25.329L222.323 25.328H222.304V26.028ZM226.799 23.0763C226.799 22.6897 226.486 22.3763 226.099 22.3763C225.712 22.3763 225.399 22.6897 225.399 23.0763H226.099H226.799ZM229.091 22.641C228.704 22.641 228.391 22.9544 228.391 23.341C228.391 23.7276 228.704 24.041 229.091 24.041V23.341V22.641ZM220.892 16C220.892 16.3866 221.206 16.7 221.592 16.7C221.979 16.7 222.292 16.3866 222.292 16H221.592H220.892ZM222.794 13.2219L222.48 12.5958V12.5958L222.794 13.2219ZM221.887 14.1115L221.266 13.789V13.789L221.887 14.1115ZM233.774 14.1115L234.395 13.789V13.789L233.774 14.1115ZM232.868 13.2219L232.555 13.8479L232.555 13.8479L232.868 13.2219ZM232.868 23.1191L232.555 22.493V22.493L232.868 23.1191ZM233.774 22.2295L233.153 21.907V21.907L233.774 22.2295ZM224.73 15.6995C224.344 15.6995 224.03 16.0129 224.03 16.3995C224.03 16.7861 224.344 17.0995 224.73 17.0995V16.3995V15.6995ZM231.035 17.0995C231.421 17.0995 231.735 16.7861 231.735 16.3995C231.735 16.0129 231.421 15.6995 231.035 15.6995V16.3995V17.0995ZM227.385 19.2618C226.998 19.2618 226.685 19.5752 226.685 19.9618C226.685 20.3484 226.998 20.6618 227.385 20.6618V19.9618V19.2618ZM231.035 20.6618C231.421 20.6618 231.735 20.3484 231.735 19.9618C231.735 19.5752 231.421 19.2618 231.035 19.2618V19.9618V20.6618ZM216 29L216.674 29.1882C216.787 28.7825 217.079 28.1426 217.564 27.617C218.038 27.1031 218.664 26.728 219.484 26.728V26.028V25.328C218.18 25.328 217.203 25.9435 216.535 26.668C215.877 27.3807 215.489 28.2269 215.326 28.8118L216 29ZM219.484 26.028V26.728H222.304V26.028V25.328H219.484V26.028ZM222.304 26.028L222.267 26.727C222.986 26.7656 224.074 26.6494 225.011 26.1388C225.993 25.6039 226.799 24.6312 226.799 23.0763H226.099H225.399C225.399 24.0456 224.941 24.5827 224.341 24.9095C223.697 25.2607 222.887 25.3582 222.342 25.329L222.304 26.028ZM229.091 23.341V24.041H230.682V23.341V22.641H229.091V23.341ZM234 20.084H234.7V16.257H234H233.3V20.084H234ZM230.682 13V12.3H224.979V13V13.7H230.682V13ZM224.979 13V12.3C224.41 12.3 223.942 12.2995 223.561 12.33C223.173 12.3611 222.816 12.4279 222.48 12.5958L222.794 13.2219L223.107 13.8479C223.215 13.794 223.37 13.7498 223.673 13.7255C223.985 13.7005 224.387 13.7 224.979 13.7V13ZM221.592 16H222.292C222.292 15.4336 222.31 15.1198 222.346 14.9056C222.377 14.7188 222.421 14.6022 222.509 14.434L221.887 14.1115L221.266 13.789C221.127 14.0562 221.025 14.3138 220.964 14.6774C220.909 15.0136 220.892 15.4264 220.892 16H221.592ZM222.794 13.2219L222.48 12.5958C221.96 12.8563 221.534 13.2732 221.266 13.789L221.887 14.1115L222.509 14.434C222.639 14.1837 222.847 13.9778 223.107 13.8479L222.794 13.2219ZM234 16.257H234.7C234.7 15.6987 234.701 15.2372 234.669 14.8619C234.637 14.4782 234.569 14.123 234.395 13.789L233.774 14.1115L233.153 14.434C233.205 14.5354 233.25 14.683 233.274 14.9781C233.299 15.2817 233.3 15.6752 233.3 16.257H234ZM230.682 13V13.7C231.274 13.7 231.677 13.7005 231.988 13.7255C232.292 13.7498 232.447 13.794 232.555 13.8479L232.868 13.2219L233.181 12.5958C232.845 12.4279 232.488 12.3611 232.1 12.33C231.72 12.2995 231.251 12.3 230.682 12.3V13ZM233.774 14.1115L234.395 13.789C234.128 13.2732 233.702 12.8563 233.181 12.5958L232.868 13.2219L232.555 13.8479C232.814 13.9778 233.023 14.1837 233.153 14.434L233.774 14.1115ZM230.682 23.341V24.041C231.251 24.041 231.72 24.0415 232.1 24.011C232.488 23.9799 232.845 23.9131 233.181 23.7452L232.868 23.1191L232.555 22.493C232.447 22.547 232.292 22.5911 231.988 22.6155C231.677 22.6404 231.274 22.641 230.682 22.641V23.341ZM234 20.084H233.3C233.3 20.6658 233.299 21.0592 233.274 21.3629C233.25 21.658 233.205 21.8055 233.153 21.907L233.774 22.2295L234.395 22.552C234.569 22.218 234.637 21.8628 234.669 21.479C234.701 21.1038 234.7 20.6422 234.7 20.084H234ZM232.868 23.1191L233.181 23.7452C233.702 23.4847 234.128 23.0677 234.395 22.552L233.774 22.2295L233.153 21.907C233.023 22.1573 232.814 22.3632 232.555 22.493L232.868 23.1191ZM224.73 16.3995V17.0995H231.035V16.3995V15.6995H224.73V16.3995ZM227.385 19.9618V20.6618L231.035 20.6618V19.9618V19.2618L227.385 19.2618V19.9618ZM223.403 21.1425H222.703C222.703 21.9579 222.026 22.641 221.164 22.641V23.341V24.041C222.775 24.041 224.103 22.7555 224.103 21.1425H223.403ZM221.164 23.341V22.641C220.301 22.641 219.624 21.9579 219.624 21.1425H218.924H218.224C218.224 22.7555 219.552 24.041 221.164 24.041V23.341ZM218.924 21.1425H219.624C219.624 20.3271 220.301 19.644 221.164 19.644V18.944V18.244C219.552 18.244 218.224 19.5295 218.224 21.1425H218.924ZM221.164 18.944V19.644C222.026 19.644 222.703 20.3271 222.703 21.1425H223.403H224.103C224.103 19.5295 222.775 18.244 221.164 18.244V18.944Z" fill="white"/>
</svg>
