<svg width="330" height="42" viewBox="0 0 330 42" fill="none" xmlns="http://www.w3.org/2000/svg">
<rect width="330" height="42" rx="21" fill="url(#paint0_linear_41_8126)"/>
<path d="M102.625 17.9205C102.564 17.3826 102.314 16.9659 101.875 16.6705C101.436 16.3712 100.883 16.2216 100.216 16.2216C99.7386 16.2216 99.3258 16.2973 98.9773 16.4489C98.6288 16.5966 98.358 16.8011 98.1648 17.0625C97.9754 17.3201 97.8807 17.6136 97.8807 17.9432C97.8807 18.2197 97.9451 18.4583 98.0739 18.6591C98.2064 18.8598 98.3788 19.0284 98.5909 19.1648C98.8068 19.2973 99.0379 19.4091 99.2841 19.5C99.5303 19.5871 99.767 19.6591 99.9943 19.7159L101.131 20.0114C101.502 20.1023 101.883 20.2254 102.273 20.3807C102.663 20.536 103.025 20.7405 103.358 20.9943C103.691 21.2481 103.96 21.5625 104.165 21.9375C104.373 22.3125 104.477 22.7614 104.477 23.2841C104.477 23.9432 104.307 24.5284 103.966 25.0398C103.629 25.5511 103.138 25.9545 102.494 26.25C101.854 26.5455 101.08 26.6932 100.17 26.6932C99.2992 26.6932 98.5455 26.5549 97.9091 26.2784C97.2727 26.0019 96.7746 25.6098 96.4148 25.1023C96.0549 24.5909 95.8561 23.9848 95.8182 23.2841H97.5795C97.6136 23.7045 97.75 24.0549 97.9886 24.3352C98.2311 24.6117 98.5398 24.8182 98.9148 24.9545C99.2936 25.0871 99.7083 25.1534 100.159 25.1534C100.655 25.1534 101.097 25.0758 101.483 24.9205C101.873 24.7614 102.18 24.5417 102.403 24.2614C102.627 23.9773 102.739 23.6458 102.739 23.267C102.739 22.9223 102.64 22.6402 102.443 22.4205C102.25 22.2008 101.987 22.0189 101.653 21.875C101.324 21.7311 100.951 21.6042 100.534 21.4943L99.1591 21.1193C98.2273 20.8655 97.4886 20.4924 96.9432 20C96.4015 19.5076 96.1307 18.8561 96.1307 18.0455C96.1307 17.375 96.3125 16.7898 96.6761 16.2898C97.0398 15.7898 97.5322 15.4015 98.1534 15.125C98.7746 14.8447 99.4754 14.7045 100.256 14.7045C101.044 14.7045 101.739 14.8428 102.341 15.1193C102.947 15.3958 103.424 15.7765 103.773 16.2614C104.121 16.7424 104.303 17.2955 104.318 17.9205H102.625ZM110.513 17.7727V19.1364H105.746V17.7727H110.513ZM107.024 15.6818H108.723V23.9375C108.723 24.267 108.772 24.5152 108.871 24.6818C108.969 24.8447 109.096 24.9564 109.251 25.017C109.411 25.0739 109.583 25.1023 109.768 25.1023C109.905 25.1023 110.024 25.0928 110.126 25.0739C110.229 25.0549 110.308 25.0398 110.365 25.0284L110.672 26.4318C110.573 26.4697 110.433 26.5076 110.251 26.5455C110.07 26.5871 109.842 26.6098 109.57 26.6136C109.123 26.6212 108.706 26.5417 108.32 26.375C107.933 26.2083 107.621 25.9508 107.382 25.6023C107.143 25.2538 107.024 24.8163 107.024 24.2898V15.6818ZM114.932 26.6932C114.379 26.6932 113.879 26.5909 113.432 26.3864C112.985 26.178 112.631 25.8769 112.369 25.483C112.112 25.089 111.983 24.6061 111.983 24.0341C111.983 23.5417 112.078 23.1364 112.267 22.8182C112.456 22.5 112.712 22.2481 113.034 22.0625C113.356 21.8769 113.716 21.7367 114.114 21.642C114.511 21.5473 114.917 21.4754 115.33 21.4261C115.852 21.3655 116.277 21.3163 116.602 21.2784C116.928 21.2367 117.165 21.1705 117.312 21.0795C117.46 20.9886 117.534 20.8409 117.534 20.6364V20.5966C117.534 20.1004 117.394 19.7159 117.114 19.4432C116.837 19.1705 116.424 19.0341 115.875 19.0341C115.303 19.0341 114.852 19.161 114.523 19.4148C114.197 19.6648 113.972 19.9432 113.847 20.25L112.25 19.8864C112.439 19.3561 112.716 18.928 113.08 18.6023C113.447 18.2727 113.869 18.0341 114.347 17.8864C114.824 17.7348 115.326 17.6591 115.852 17.6591C116.201 17.6591 116.57 17.7008 116.96 17.7841C117.354 17.8636 117.722 18.0114 118.062 18.2273C118.407 18.4432 118.689 18.7519 118.909 19.1534C119.129 19.5511 119.239 20.0682 119.239 20.7045V26.5H117.58V25.3068H117.511C117.402 25.5265 117.237 25.7424 117.017 25.9545C116.797 26.1667 116.515 26.3428 116.17 26.483C115.826 26.6231 115.413 26.6932 114.932 26.6932ZM115.301 25.3295C115.771 25.3295 116.172 25.2367 116.506 25.0511C116.843 24.8655 117.098 24.6231 117.273 24.3239C117.451 24.0208 117.54 23.697 117.54 23.3523V22.2273C117.479 22.2879 117.362 22.3447 117.188 22.3977C117.017 22.447 116.822 22.4905 116.602 22.5284C116.383 22.5625 116.169 22.5947 115.96 22.625C115.752 22.6515 115.578 22.6742 115.438 22.6932C115.108 22.7348 114.807 22.8049 114.534 22.9034C114.265 23.0019 114.049 23.1439 113.886 23.3295C113.727 23.5114 113.648 23.7538 113.648 24.0568C113.648 24.4773 113.803 24.7955 114.114 25.0114C114.424 25.2235 114.82 25.3295 115.301 25.3295ZM121.501 26.5V17.7727H123.143V19.1591H123.234C123.393 18.6894 123.674 18.3201 124.075 18.0511C124.481 17.7784 124.939 17.642 125.45 17.642C125.556 17.642 125.681 17.6458 125.825 17.6534C125.973 17.661 126.089 17.6705 126.172 17.6818V19.3068C126.104 19.2879 125.982 19.267 125.808 19.2443C125.634 19.2178 125.46 19.2045 125.286 19.2045C124.884 19.2045 124.526 19.2898 124.212 19.4602C123.901 19.6269 123.655 19.8598 123.473 20.1591C123.291 20.4545 123.2 20.7917 123.2 21.1705V26.5H121.501ZM132.232 17.7727V19.1364H127.464V17.7727H132.232ZM128.743 15.6818H130.442V23.9375C130.442 24.267 130.491 24.5152 130.589 24.6818C130.688 24.8447 130.815 24.9564 130.97 25.017C131.129 25.0739 131.302 25.1023 131.487 25.1023C131.624 25.1023 131.743 25.0928 131.845 25.0739C131.947 25.0549 132.027 25.0398 132.084 25.0284L132.391 26.4318C132.292 26.4697 132.152 26.5076 131.97 26.5455C131.788 26.5871 131.561 26.6098 131.288 26.6136C130.841 26.6212 130.425 26.5417 130.038 26.375C129.652 26.2083 129.339 25.9508 129.101 25.6023C128.862 25.2538 128.743 24.8163 128.743 24.2898V15.6818ZM138.482 26.5V14.8636H145.777V16.375H140.237V19.9205H145.396V21.4261H140.237V24.9886H145.845V26.5H138.482ZM149.327 17.7727L151.253 21.1705L153.196 17.7727H155.054L152.332 22.1364L155.077 26.5H153.219L151.253 23.2386L149.293 26.5H147.429L150.145 22.1364L147.463 17.7727H149.327ZM156.798 29.7727V17.7727H158.457V19.1875H158.599C158.698 19.0057 158.84 18.7955 159.026 18.5568C159.211 18.3182 159.469 18.1098 159.798 17.9318C160.128 17.75 160.563 17.6591 161.105 17.6591C161.81 17.6591 162.438 17.8371 162.991 18.1932C163.545 18.5492 163.978 19.0625 164.293 19.733C164.611 20.4034 164.77 21.2102 164.77 22.1534C164.77 23.0966 164.613 23.9053 164.298 24.5795C163.984 25.25 163.552 25.767 163.003 26.1307C162.454 26.4905 161.827 26.6705 161.122 26.6705C160.592 26.6705 160.158 26.5814 159.821 26.4034C159.488 26.2254 159.226 26.017 159.037 25.7784C158.848 25.5398 158.702 25.3277 158.599 25.142H158.497V29.7727H156.798ZM158.463 22.1364C158.463 22.75 158.552 23.2879 158.73 23.75C158.908 24.2121 159.166 24.5739 159.503 24.8352C159.84 25.0928 160.253 25.2216 160.741 25.2216C161.249 25.2216 161.673 25.0871 162.014 24.8182C162.355 24.5455 162.613 24.1761 162.787 23.7102C162.965 23.2443 163.054 22.7197 163.054 22.1364C163.054 21.5606 162.967 21.0436 162.793 20.5852C162.622 20.1269 162.365 19.7652 162.02 19.5C161.679 19.2348 161.253 19.1023 160.741 19.1023C160.249 19.1023 159.832 19.2292 159.491 19.483C159.154 19.7367 158.899 20.0909 158.724 20.5455C158.55 21 158.463 21.5303 158.463 22.1364ZM168.372 14.8636V26.5H166.673V14.8636H168.372ZM174.334 26.6761C173.516 26.6761 172.802 26.4886 172.192 26.1136C171.582 25.7386 171.108 25.214 170.771 24.5398C170.434 23.8655 170.266 23.0777 170.266 22.1761C170.266 21.2708 170.434 20.4792 170.771 19.8011C171.108 19.1231 171.582 18.5966 172.192 18.2216C172.802 17.8466 173.516 17.6591 174.334 17.6591C175.152 17.6591 175.866 17.8466 176.476 18.2216C177.086 18.5966 177.559 19.1231 177.896 19.8011C178.233 20.4792 178.402 21.2708 178.402 22.1761C178.402 23.0777 178.233 23.8655 177.896 24.5398C177.559 25.214 177.086 25.7386 176.476 26.1136C175.866 26.4886 175.152 26.6761 174.334 26.6761ZM174.339 25.25C174.87 25.25 175.309 25.1098 175.658 24.8295C176.006 24.5492 176.264 24.1761 176.43 23.7102C176.601 23.2443 176.686 22.7311 176.686 22.1705C176.686 21.6136 176.601 21.1023 176.43 20.6364C176.264 20.1667 176.006 19.7898 175.658 19.5057C175.309 19.2216 174.87 19.0795 174.339 19.0795C173.805 19.0795 173.362 19.2216 173.01 19.5057C172.661 19.7898 172.402 20.1667 172.232 20.6364C172.065 21.1023 171.982 21.6136 171.982 22.1705C171.982 22.7311 172.065 23.2443 172.232 23.7102C172.402 24.1761 172.661 24.5492 173.01 24.8295C173.362 25.1098 173.805 25.25 174.339 25.25ZM180.298 26.5V17.7727H181.94V19.1591H182.031C182.19 18.6894 182.471 18.3201 182.872 18.0511C183.277 17.7784 183.736 17.642 184.247 17.642C184.353 17.642 184.478 17.6458 184.622 17.6534C184.77 17.661 184.885 17.6705 184.969 17.6818V19.3068C184.901 19.2879 184.779 19.267 184.605 19.2443C184.431 19.2178 184.257 19.2045 184.082 19.2045C183.681 19.2045 183.323 19.2898 183.009 19.4602C182.698 19.6269 182.452 19.8598 182.27 20.1591C182.088 20.4545 181.997 20.7917 181.997 21.1705V26.5H180.298ZM186.439 26.5V17.7727H188.138V26.5H186.439ZM187.297 16.4261C187.001 16.4261 186.748 16.3277 186.536 16.1307C186.327 15.9299 186.223 15.6913 186.223 15.4148C186.223 15.1345 186.327 14.8958 186.536 14.6989C186.748 14.4981 187.001 14.3977 187.297 14.3977C187.592 14.3977 187.844 14.4981 188.053 14.6989C188.265 14.8958 188.371 15.1345 188.371 15.4148C188.371 15.6913 188.265 15.9299 188.053 16.1307C187.844 16.3277 187.592 16.4261 187.297 16.4261ZM192.122 21.3182V26.5H190.423V17.7727H192.054V19.1932H192.162C192.363 18.7311 192.677 18.3598 193.105 18.0795C193.537 17.7992 194.08 17.6591 194.736 17.6591C195.33 17.6591 195.851 17.7841 196.298 18.0341C196.745 18.2803 197.092 18.6477 197.338 19.1364C197.584 19.625 197.707 20.2292 197.707 20.9489V26.5H196.009V21.1534C196.009 20.5208 195.844 20.0265 195.514 19.6705C195.185 19.3106 194.732 19.1307 194.156 19.1307C193.762 19.1307 193.412 19.2159 193.105 19.3864C192.802 19.5568 192.562 19.8068 192.384 20.1364C192.209 20.4621 192.122 20.8561 192.122 21.3182ZM203.645 29.9545C202.952 29.9545 202.355 29.8636 201.855 29.6818C201.359 29.5 200.954 29.2595 200.639 28.9602C200.325 28.661 200.09 28.3333 199.935 27.9773L201.395 27.375C201.497 27.5417 201.634 27.7178 201.804 27.9034C201.978 28.0928 202.213 28.2538 202.509 28.3864C202.808 28.5189 203.192 28.5852 203.662 28.5852C204.306 28.5852 204.838 28.428 205.259 28.1136C205.679 27.803 205.889 27.3068 205.889 26.625V24.9091H205.781C205.679 25.0947 205.531 25.3011 205.338 25.5284C205.149 25.7557 204.887 25.9527 204.554 26.1193C204.221 26.286 203.787 26.3693 203.253 26.3693C202.563 26.3693 201.942 26.2083 201.389 25.8864C200.84 25.5606 200.404 25.0814 200.082 24.4489C199.764 23.8125 199.605 23.0303 199.605 22.1023C199.605 21.1742 199.762 20.3788 200.077 19.7159C200.395 19.053 200.83 18.5455 201.384 18.1932C201.937 17.8371 202.563 17.6591 203.264 17.6591C203.806 17.6591 204.243 17.75 204.577 17.9318C204.91 18.1098 205.17 18.3182 205.355 18.5568C205.545 18.7955 205.69 19.0057 205.793 19.1875H205.918V17.7727H207.582V26.6932C207.582 27.4432 207.408 28.0587 207.06 28.5398C206.711 29.0208 206.24 29.3769 205.645 29.608C205.054 29.839 204.387 29.9545 203.645 29.9545ZM203.628 24.9602C204.116 24.9602 204.529 24.8466 204.866 24.6193C205.207 24.3883 205.465 24.0587 205.639 23.6307C205.817 23.1989 205.906 22.6818 205.906 22.0795C205.906 21.4924 205.819 20.9754 205.645 20.5284C205.471 20.0814 205.215 19.733 204.878 19.483C204.541 19.2292 204.124 19.1023 203.628 19.1023C203.116 19.1023 202.69 19.2348 202.349 19.5C202.009 19.7614 201.751 20.1174 201.577 20.5682C201.406 21.0189 201.321 21.5227 201.321 22.0795C201.321 22.6515 201.408 23.1534 201.582 23.5852C201.757 24.017 202.014 24.3542 202.355 24.5966C202.7 24.839 203.124 24.9602 203.628 24.9602Z" fill="white"/>
<path d="M226.177 26.1625L225.834 25.5522V25.5522L226.177 26.1625ZM231.474 25.548L230.795 25.3758V25.3758L231.474 25.548ZM228.09 29.8885L227.601 29.3874V29.3874L228.09 29.8885ZM227.447 29.7351L228.106 29.5006V29.5006L227.447 29.7351ZM220.837 20.8233L221.448 21.1661V21.1661L220.837 20.8233ZM221.452 15.5262L221.624 16.2047V16.2047L221.452 15.5262ZM217.111 18.9099L217.613 19.3986L217.613 19.3986L217.111 18.9099ZM217.265 19.5531L217.499 18.8935H217.499L217.265 19.5531ZM220.109 22.2272L219.478 21.9252L220.109 22.2272ZM219.902 22.7869L219.204 22.7333V22.7333L219.902 22.7869ZM219.968 23.1737L220.608 22.8909V22.8909L219.968 23.1737ZM234.999 13.0619L234.299 13.0571L234.999 13.0619ZM234.914 12.4402L234.29 12.7563V12.7563L234.914 12.4402ZM233.938 12.0006L233.933 11.3006V11.3006L233.938 12.0006ZM234.56 12.0855L234.876 11.4609L234.56 12.0855ZM224.773 26.8908L225.075 27.5223L224.773 26.8908ZM224.213 27.0983L224.267 27.7963V27.7963L224.213 27.0983ZM223.826 27.0321L224.109 26.3918V26.3918L223.826 27.0321ZM217.866 28.6856L217.167 28.7085V28.7085L217.866 28.6856ZM218.314 29.1336L218.291 29.8333H218.291L218.314 29.1336ZM234.999 13.0619L234.299 13.0571C234.284 15.3161 233.39 18.8814 230.318 22.1154L230.825 22.5975L231.333 23.0796C234.67 19.5667 235.682 15.651 235.699 13.0667L234.999 13.0619ZM230.825 22.5975L230.318 22.1154C229.161 23.3335 227.691 24.5091 225.834 25.5522L226.177 26.1625L226.52 26.7728C228.494 25.6634 230.076 24.4023 231.333 23.0796L230.825 22.5975ZM226.177 26.1625L225.834 25.5522C225.401 25.7955 224.947 26.0316 224.471 26.2593L224.773 26.8908L225.075 27.5223C225.578 27.2815 226.059 27.0313 226.52 26.7728L226.177 26.1625ZM230.825 22.5975L230.204 22.9193C230.36 23.2216 230.565 23.6458 230.702 24.1071C230.84 24.5768 230.886 25.0168 230.795 25.3758L231.474 25.548L232.152 25.7202C232.332 25.0138 232.216 24.2927 232.044 23.7107C231.87 23.1201 231.616 22.6018 231.447 22.2758L230.825 22.5975ZM231.474 25.548L230.795 25.3758C230.746 25.5703 230.606 25.8594 230.363 26.2301C230.127 26.5897 229.823 26.9824 229.49 27.3772C228.824 28.1664 228.075 28.9257 227.601 29.3874L228.09 29.8885L228.579 30.3896C229.067 29.9136 229.853 29.1186 230.56 28.28C230.914 27.8609 231.256 27.4212 231.534 26.998C231.804 26.5859 232.045 26.1417 232.152 25.7202L231.474 25.548ZM227.447 29.7351L228.106 29.5006L226.836 25.928L226.177 26.1625L225.517 26.397L226.787 29.9696L227.447 29.7351ZM228.09 29.8885L227.601 29.3874C227.77 29.2225 228.037 29.3042 228.106 29.5006L227.447 29.7351L226.787 29.9696C227.05 30.7088 227.997 30.9571 228.579 30.3896L228.09 29.8885ZM233.938 12.0006L233.933 11.3006C231.349 11.3183 227.433 12.3301 223.92 15.6671L224.402 16.1746L224.885 16.6821C228.119 13.61 231.684 12.716 233.943 12.7005L233.938 12.0006ZM224.402 16.1746L223.92 15.6671C222.598 16.9236 221.337 18.5057 220.227 20.4804L220.837 20.8233L221.448 21.1661C222.491 19.3094 223.667 17.8392 224.885 16.6821L224.402 16.1746ZM220.837 20.8233L220.227 20.4804C219.969 20.9405 219.718 21.4218 219.478 21.9252L220.109 22.2272L220.741 22.5293C220.968 22.0531 221.205 21.5991 221.448 21.1661L220.837 20.8233ZM224.402 16.1746L224.724 15.5529C224.398 15.3842 223.88 15.13 223.289 14.9557C222.707 14.7839 221.986 14.6684 221.28 14.8478L221.452 15.5262L221.624 16.2047C221.983 16.1136 222.423 16.1597 222.893 16.2984C223.354 16.4346 223.778 16.6398 224.081 16.7963L224.402 16.1746ZM221.452 15.5262L221.28 14.8478C220.858 14.9547 220.414 15.196 220.002 15.4664C219.579 15.744 219.139 16.0862 218.72 16.4398C217.881 17.1473 217.086 17.9331 216.61 18.4211L217.111 18.9099L217.613 19.3986C218.074 18.9253 218.834 18.1756 219.623 17.5098C220.018 17.1768 220.41 16.8729 220.77 16.637C221.141 16.3938 221.43 16.2541 221.624 16.2047L221.452 15.5262ZM217.265 19.5531L217.03 20.2126L220.603 21.4828L220.837 20.8233L221.072 20.1637L217.499 18.8935L217.265 19.5531ZM217.111 18.9099L216.61 18.4211C216.043 19.003 216.291 19.9498 217.03 20.2126L217.265 19.5531L217.499 18.8935C217.696 18.9633 217.778 19.2296 217.613 19.3986L217.111 18.9099ZM223.352 26.635L223.847 26.1401L220.86 23.1526L220.365 23.6476L219.87 24.1426L222.857 27.13L223.352 26.635ZM220.109 22.2272L219.478 21.9252C219.369 22.1518 219.228 22.423 219.204 22.7333L219.902 22.7869L220.6 22.8405C220.598 22.8571 220.594 22.8559 220.612 22.8087C220.635 22.7508 220.671 22.6747 220.741 22.5293L220.109 22.2272ZM220.365 23.6476L220.86 23.1526C220.741 23.0338 220.677 22.9695 220.634 22.919C220.596 22.876 220.6 22.8731 220.608 22.8909L219.968 23.1737L219.328 23.4565C219.454 23.7421 219.685 23.9577 219.87 24.1426L220.365 23.6476ZM219.902 22.7869L219.204 22.7333C219.185 22.9772 219.229 23.2327 219.328 23.4565L219.968 23.1737L220.608 22.8909C220.603 22.8785 220.599 22.8541 220.6 22.8405L219.902 22.7869ZM234.999 13.0619L235.699 13.0667C235.701 12.8036 235.717 12.4756 235.539 12.1241L234.914 12.4402L234.29 12.7563C234.293 12.7619 234.292 12.7622 234.292 12.76C234.291 12.7586 234.293 12.7633 234.295 12.7801C234.297 12.7987 234.299 12.8273 234.3 12.8751C234.3 12.9238 234.3 12.9801 234.299 13.0571L234.999 13.0619ZM233.938 12.0006L233.943 12.7005C234.02 12.7 234.076 12.6997 234.125 12.7005C234.173 12.7013 234.201 12.7031 234.22 12.7051C234.237 12.707 234.241 12.7086 234.24 12.7082C234.238 12.7076 234.238 12.7072 234.244 12.7101L234.56 12.0855L234.876 11.4609C234.524 11.283 234.196 11.2988 233.933 11.3006L233.938 12.0006ZM234.914 12.4402L235.539 12.1241C235.462 11.9721 235.352 11.8405 235.256 11.7441C235.16 11.6477 235.028 11.5378 234.876 11.4609L234.56 12.0855L234.244 12.7101C234.235 12.7054 234.23 12.7022 234.229 12.7019C234.228 12.7014 234.23 12.7024 234.234 12.7053C234.242 12.7115 234.253 12.7214 234.266 12.7341C234.279 12.7468 234.289 12.7583 234.295 12.7663C234.298 12.7701 234.299 12.7717 234.298 12.771C234.298 12.7704 234.295 12.7655 234.29 12.7563L234.914 12.4402ZM224.773 26.8908L224.471 26.2593C224.325 26.3289 224.249 26.3648 224.191 26.3875C224.144 26.406 224.143 26.4017 224.159 26.4004L224.213 27.0983L224.267 27.7963C224.577 27.7724 224.848 27.6307 225.075 27.5223L224.773 26.8908ZM223.352 26.635L222.857 27.13C223.042 27.3149 223.258 27.5463 223.543 27.6724L223.826 27.0321L224.109 26.3918C224.127 26.3997 224.124 26.4038 224.081 26.3665C224.03 26.3226 223.966 26.2589 223.847 26.1401L223.352 26.635ZM224.213 27.0983L224.159 26.4004C224.146 26.4014 224.122 26.3973 224.109 26.3918L223.826 27.0321L223.543 27.6724C223.767 27.7713 224.023 27.815 224.267 27.7963L224.213 27.0983ZM219.042 24.9421L218.454 24.5626C218.208 24.9441 217.878 25.564 217.615 26.2834C217.354 26.9983 217.139 27.8596 217.167 28.7085L217.866 28.6856L218.566 28.6627C218.546 28.0615 218.701 27.3896 218.93 26.7646C219.157 26.144 219.439 25.6172 219.63 25.3217L219.042 24.9421ZM222.058 27.958L221.678 27.3699C221.383 27.5606 220.856 27.843 220.235 28.0701C219.61 28.2989 218.938 28.4537 218.337 28.434L218.314 29.1336L218.291 29.8333C219.14 29.861 220.002 29.6465 220.717 29.3848C221.436 29.1215 222.056 28.7924 222.437 28.5462L222.058 27.958ZM217.866 28.6856L217.167 28.7085C217.187 29.3226 217.677 29.8132 218.291 29.8333L218.314 29.1336L218.337 28.434C218.46 28.438 218.562 28.5396 218.566 28.6627L217.866 28.6856ZM230.821 18.7396L230.326 18.2447C229.892 18.6784 229.189 18.6784 228.755 18.2447L228.26 18.7396L227.765 19.2346C228.746 20.2151 230.336 20.2151 231.316 19.2346L230.821 18.7396ZM228.26 18.7396L228.755 18.2447C228.322 17.8109 228.322 17.1077 228.755 16.6739L228.26 16.179L227.765 15.684C226.785 16.6645 226.785 18.2541 227.765 19.2346L228.26 18.7396ZM228.26 16.179L228.755 16.6739C229.189 16.2402 229.892 16.2402 230.326 16.6739L230.821 16.179L231.316 15.684C230.336 14.7035 228.746 14.7035 227.765 15.684L228.26 16.179ZM230.821 16.179L230.326 16.6739C230.76 17.1077 230.76 17.8109 230.326 18.2447L230.821 18.7396L231.316 19.2346C232.296 18.2541 232.296 16.6645 231.316 15.684L230.821 16.179Z" fill="white"/>
<defs>
<linearGradient id="paint0_linear_41_8126" x1="370.441" y1="-4.56522" x2="164.41" y2="339.889" gradientUnits="userSpaceOnUse">
<stop stop-color="#2548C3"/>
<stop offset="1" stop-color="#90CAB5"/>
</linearGradient>
</defs>
</svg>
