<svg width="186" height="311" viewBox="0 0 186 311" fill="none" xmlns="http://www.w3.org/2000/svg">
<foreignObject x="-19.5878" y="-19.5878" width="224.431" height="350.067"><div xmlns="http://www.w3.org/1999/xhtml" style="backdrop-filter:blur(17.27px);clip-path:url(#bgblur_0_38_4206_clip_path);height:100%;width:100%"></div></foreignObject><g filter="url(#filter0_d_38_4206)" data-figma-bg-blur-radius="34.5499">
<rect width="155.332" height="280.967" rx="18.2743" transform="matrix(-1 0 0 1 170.294 14.9621)" fill="white" fill-opacity="0.27" shape-rendering="crispEdges"/>
</g>
<foreignObject x="-19.5878" y="-19.5878" width="224.431" height="350.067"><div xmlns="http://www.w3.org/1999/xhtml" style="backdrop-filter:blur(8.31px);clip-path:url(#bgblur_1_38_4206_clip_path);height:100%;width:100%"></div></foreignObject><g data-figma-bg-blur-radius="16.6182">
<path d="M163.441 33.237C163.441 26.9291 158.328 21.8156 152.02 21.8156H33.2367C26.9289 21.8156 21.8153 26.9292 21.8153 33.2371V277.656C21.8153 283.964 26.9289 289.077 33.2368 289.077H152.02C158.328 289.077 163.441 283.964 163.441 277.656V33.237Z" fill="white"/>
<path d="M152.019 23.8146H33.237C28.033 23.8146 23.8142 28.0335 23.8142 33.2375V277.655C23.8142 282.859 28.033 287.078 33.237 287.078H152.019C157.223 287.078 161.442 282.859 161.442 277.655V33.2375C161.442 28.0335 157.223 23.8146 152.019 23.8146Z" stroke="white" stroke-opacity="0.64" stroke-width="3.9975"/>
</g>
<defs>
<filter id="filter0_d_38_4206" x="-19.5878" y="-19.5878" width="224.431" height="350.067" filterUnits="userSpaceOnUse" color-interpolation-filters="sRGB">
<feFlood flood-opacity="0" result="BackgroundImageFix"/>
<feColorMatrix in="SourceAlpha" type="matrix" values="0 0 0 0 0 0 0 0 0 0 0 0 0 0 0 0 0 0 127 0" result="hardAlpha"/>
<feMorphology radius="1.14214" operator="dilate" in="SourceAlpha" result="effect1_dropShadow_38_4206"/>
<feOffset/>
<feGaussianBlur stdDeviation="6.90997"/>
<feComposite in2="hardAlpha" operator="out"/>
<feColorMatrix type="matrix" values="0 0 0 0 1 0 0 0 0 1 0 0 0 0 1 0 0 0 1 0"/>
<feBlend mode="normal" in2="BackgroundImageFix" result="effect1_dropShadow_38_4206"/>
<feBlend mode="normal" in="SourceGraphic" in2="effect1_dropShadow_38_4206" result="shape"/>
</filter>
<clipPath id="bgblur_0_38_4206_clip_path" transform="translate(19.5878 19.5878)"><rect width="155.332" height="280.967" rx="18.2743" transform="matrix(-1 0 0 1 170.294 14.9621)"/>
</clipPath><clipPath id="bgblur_1_38_4206_clip_path" transform="translate(19.5878 19.5878)"><path d="M163.441 33.237C163.441 26.9291 158.328 21.8156 152.02 21.8156H33.2367C26.9289 21.8156 21.8153 26.9292 21.8153 33.2371V277.656C21.8153 283.964 26.9289 289.077 33.2368 289.077H152.02C158.328 289.077 163.441 283.964 163.441 277.656V33.237Z"/>
</clipPath></defs>
</svg>
