<svg width="346" height="66" viewBox="0 0 346 66" fill="none" xmlns="http://www.w3.org/2000/svg">
    <g style="mix-blend-mode:overlay">
        <path
            d="M26.223 13.912H37.359V17.336H26.223V13.912ZM26.543 23.512H39.183V27H22.383V4.6H38.735V8.088H26.543V23.512ZM44.7618 27L37.4337 9.912H41.5938L47.8978 24.984H45.8498L52.3778 9.912H56.2178L48.8898 27H44.7618ZM63.281 27.224C61.3823 27.224 59.7183 26.8507 58.289 26.104C56.881 25.336 55.7823 24.2907 54.993 22.968C54.225 21.6453 53.841 20.1413 53.841 18.456C53.841 16.7493 54.2143 15.2453 54.961 13.944C55.729 12.6213 56.7743 11.5867 58.097 10.84C59.441 10.0933 60.9663 9.72 62.673 9.72C64.337 9.72 65.8197 10.0827 67.121 10.808C68.4223 11.5333 69.4463 12.5573 70.193 13.88C70.9397 15.2027 71.313 16.76 71.313 18.552C71.313 18.7227 71.3023 18.9147 71.281 19.128C71.281 19.3413 71.2703 19.544 71.249 19.736H57.009V17.08H69.137L67.569 17.912C67.5903 16.9307 67.3877 16.0667 66.961 15.32C66.5343 14.5733 65.9477 13.9867 65.201 13.56C64.4757 13.1333 63.633 12.92 62.673 12.92C61.6917 12.92 60.8277 13.1333 60.081 13.56C59.3557 13.9867 58.7797 14.584 58.353 15.352C57.9477 16.0987 57.745 16.984 57.745 18.008V18.648C57.745 19.672 57.9797 20.5787 58.449 21.368C58.9183 22.1573 59.5797 22.7653 60.433 23.192C61.2863 23.6187 62.2677 23.832 63.377 23.832C64.337 23.832 65.201 23.6827 65.969 23.384C66.737 23.0853 67.4197 22.616 68.017 21.976L70.161 24.44C69.393 25.336 68.4223 26.0293 67.249 26.52C66.097 26.9893 64.7743 27.224 63.281 27.224ZM72.1553 27V9.912H75.9633V14.616L75.5153 13.24C76.0273 12.088 76.8273 11.2133 77.9153 10.616C79.0246 10.0187 80.4006 9.72 82.0433 9.72V13.528C81.8726 13.4853 81.7126 13.464 81.5633 13.464C81.4139 13.4427 81.2646 13.432 81.1153 13.432C79.6006 13.432 78.3953 13.88 77.4993 14.776C76.6033 15.6507 76.1553 16.9627 76.1553 18.712V27H72.1553ZM84.4695 33.432C83.6375 33.432 82.8055 33.2933 81.9735 33.016C81.1415 32.7387 80.4482 32.3547 79.8935 31.864L81.4935 28.92C81.8988 29.2827 82.3575 29.5707 82.8695 29.784C83.3815 29.9973 83.9042 30.104 84.4375 30.104C85.1628 30.104 85.7495 29.9227 86.1975 29.56C86.6455 29.1973 87.0615 28.5893 87.4455 27.736L88.4375 25.496L88.7575 25.016L95.2215 9.912H99.0615L91.0615 28.376C90.5282 29.656 89.9308 30.6693 89.2695 31.416C88.6295 32.1627 87.9042 32.6853 87.0935 32.984C86.3042 33.2827 85.4295 33.432 84.4695 33.432ZM87.9895 27.608L80.2775 9.912H84.4375L90.7095 24.664L87.9895 27.608ZM109.685 27.224C108.256 27.224 106.88 27.0427 105.557 26.68C104.256 26.296 103.221 25.8373 102.453 25.304L103.989 22.264C104.757 22.7547 105.675 23.16 106.741 23.48C107.808 23.8 108.875 23.96 109.941 23.96C111.2 23.96 112.107 23.7893 112.661 23.448C113.237 23.1067 113.525 22.648 113.525 22.072C113.525 21.6027 113.333 21.2507 112.949 21.016C112.565 20.76 112.064 20.568 111.445 20.44C110.827 20.312 110.133 20.1947 109.365 20.088C108.619 19.9813 107.861 19.8427 107.093 19.672C106.347 19.48 105.664 19.2133 105.045 18.872C104.427 18.5093 103.925 18.0293 103.541 17.432C103.157 16.8347 102.965 16.0453 102.965 15.064C102.965 13.976 103.275 13.0373 103.893 12.248C104.512 11.4373 105.376 10.8187 106.485 10.392C107.616 9.944 108.949 9.72 110.485 9.72C111.637 9.72 112.8 9.848 113.973 10.104C115.147 10.36 116.117 10.7227 116.885 11.192L115.349 14.232C114.539 13.7413 113.717 13.4107 112.885 13.24C112.075 13.048 111.264 12.952 110.453 12.952C109.237 12.952 108.331 13.1333 107.733 13.496C107.157 13.8587 106.869 14.3173 106.869 14.872C106.869 15.384 107.061 15.768 107.445 16.024C107.829 16.28 108.331 16.4827 108.949 16.632C109.568 16.7813 110.251 16.9093 110.997 17.016C111.765 17.1013 112.523 17.24 113.269 17.432C114.016 17.624 114.699 17.8907 115.317 18.232C115.957 18.552 116.469 19.0107 116.853 19.608C117.237 20.2053 117.429 20.984 117.429 21.944C117.429 23.0107 117.109 23.9387 116.469 24.728C115.851 25.5173 114.965 26.136 113.813 26.584C112.661 27.0107 111.285 27.224 109.685 27.224ZM125.906 27.224C124.007 27.224 122.343 26.8507 120.914 26.104C119.506 25.336 118.407 24.2907 117.618 22.968C116.85 21.6453 116.466 20.1413 116.466 18.456C116.466 16.7493 116.839 15.2453 117.586 13.944C118.354 12.6213 119.399 11.5867 120.722 10.84C122.066 10.0933 123.591 9.72 125.298 9.72C126.962 9.72 128.445 10.0827 129.746 10.808C131.047 11.5333 132.071 12.5573 132.818 13.88C133.565 15.2027 133.938 16.76 133.938 18.552C133.938 18.7227 133.927 18.9147 133.906 19.128C133.906 19.3413 133.895 19.544 133.874 19.736H119.634V17.08H131.762L130.194 17.912C130.215 16.9307 130.013 16.0667 129.586 15.32C129.159 14.5733 128.573 13.9867 127.826 13.56C127.101 13.1333 126.258 12.92 125.298 12.92C124.317 12.92 123.453 13.1333 122.706 13.56C121.981 13.9867 121.405 14.584 120.978 15.352C120.573 16.0987 120.37 16.984 120.37 18.008V18.648C120.37 19.672 120.605 20.5787 121.074 21.368C121.543 22.1573 122.205 22.7653 123.058 23.192C123.911 23.6187 124.893 23.832 126.002 23.832C126.962 23.832 127.826 23.6827 128.594 23.384C129.362 23.0853 130.045 22.616 130.642 21.976L132.786 24.44C132.018 25.336 131.047 26.0293 129.874 26.52C128.722 26.9893 127.399 27.224 125.906 27.224ZM142.62 27.224C140.828 27.224 139.228 26.8507 137.82 26.104C136.434 25.336 135.346 24.2907 134.556 22.968C133.767 21.6453 133.372 20.1413 133.372 18.456C133.372 16.7493 133.767 15.2453 134.556 13.944C135.346 12.6213 136.434 11.5867 137.82 10.84C139.228 10.0933 140.828 9.72 142.62 9.72C144.284 9.72 145.746 10.0613 147.004 10.744C148.284 11.4053 149.255 12.3867 149.916 13.688L146.844 15.48C146.332 14.6693 145.703 14.072 144.956 13.688C144.231 13.304 143.442 13.112 142.588 13.112C141.607 13.112 140.722 13.3253 139.932 13.752C139.143 14.1787 138.524 14.7973 138.076 15.608C137.628 16.3973 137.404 17.3467 137.404 18.456C137.404 19.5653 137.628 20.5253 138.076 21.336C138.524 22.1253 139.143 22.7333 139.932 23.16C140.722 23.5867 141.607 23.8 142.588 23.8C143.442 23.8 144.231 23.608 144.956 23.224C145.703 22.84 146.332 22.2427 146.844 21.432L149.916 23.224C149.255 24.504 148.284 25.496 147.004 26.2C145.746 26.8827 144.284 27.224 142.62 27.224ZM157.804 27.224C156.055 27.224 154.497 26.8507 153.132 26.104C151.767 25.336 150.689 24.2907 149.9 22.968C149.111 21.6453 148.716 20.1413 148.716 18.456C148.716 16.7493 149.111 15.2453 149.9 13.944C150.689 12.6213 151.767 11.5867 153.132 10.84C154.497 10.0933 156.055 9.72 157.804 9.72C159.575 9.72 161.143 10.0933 162.508 10.84C163.895 11.5867 164.972 12.6107 165.74 13.912C166.529 15.2133 166.924 16.728 166.924 18.456C166.924 20.1413 166.529 21.6453 165.74 22.968C164.972 24.2907 163.895 25.336 162.508 26.104C161.143 26.8507 159.575 27.224 157.804 27.224ZM157.804 23.8C158.785 23.8 159.66 23.5867 160.428 23.16C161.196 22.7333 161.793 22.1147 162.22 21.304C162.668 20.4933 162.892 19.544 162.892 18.456C162.892 17.3467 162.668 16.3973 162.22 15.608C161.793 14.7973 161.196 14.1787 160.428 13.752C159.66 13.3253 158.796 13.112 157.836 13.112C156.855 13.112 155.98 13.3253 155.212 13.752C154.465 14.1787 153.868 14.7973 153.42 15.608C152.972 16.3973 152.748 17.3467 152.748 18.456C152.748 19.544 152.972 20.4933 153.42 21.304C153.868 22.1147 154.465 22.7333 155.212 23.16C155.98 23.5867 156.844 23.8 157.804 23.8ZM177.445 9.72C178.81 9.72 180.026 9.98667 181.093 10.52C182.181 11.0533 183.034 11.8747 183.653 12.984C184.272 14.072 184.581 15.48 184.581 17.208V27H180.581V17.72C180.581 16.2053 180.218 15.0747 179.493 14.328C178.789 13.5813 177.797 13.208 176.517 13.208C175.578 13.208 174.746 13.4 174.021 13.784C173.296 14.168 172.73 14.744 172.325 15.512C171.941 16.2587 171.749 17.208 171.749 18.36V27H167.749V9.912H171.557V14.52L170.885 13.112C171.482 12.024 172.346 11.192 173.477 10.616C174.629 10.0187 175.952 9.72 177.445 9.72ZM193.919 27.224C192.276 27.224 190.793 26.8613 189.471 26.136C188.169 25.3893 187.145 24.3653 186.399 23.064C185.652 21.7627 185.279 20.2267 185.279 18.456C185.279 16.6853 185.652 15.1493 186.399 13.848C187.145 12.5467 188.169 11.5333 189.471 10.808C190.793 10.0827 192.276 9.72 193.919 9.72C195.348 9.72 196.628 10.04 197.759 10.68C198.889 11.2987 199.785 12.248 200.447 13.528C201.108 14.808 201.439 16.4507 201.439 18.456C201.439 20.44 201.119 22.0827 200.479 23.384C199.839 24.664 198.953 25.624 197.823 26.264C196.692 26.904 195.391 27.224 193.919 27.224ZM194.399 23.8C195.359 23.8 196.212 23.5867 196.959 23.16C197.727 22.7333 198.335 22.1147 198.783 21.304C199.252 20.4933 199.487 19.544 199.487 18.456C199.487 17.3467 199.252 16.3973 198.783 15.608C198.335 14.7973 197.727 14.1787 196.959 13.752C196.212 13.3253 195.359 13.112 194.399 13.112C193.439 13.112 192.575 13.3253 191.807 13.752C191.06 14.1787 190.452 14.7973 189.983 15.608C189.535 16.3973 189.311 17.3467 189.311 18.456C189.311 19.544 189.535 20.4933 189.983 21.304C190.452 22.1147 191.06 22.7333 191.807 23.16C192.575 23.5867 193.439 23.8 194.399 23.8ZM199.583 27V22.968L199.743 18.424L199.423 13.88V3.256H203.391V27H199.583ZM204.599 31.832L206.455 24.76L206.999 27.128C206.253 27.128 205.623 26.904 205.111 26.456C204.621 25.9867 204.375 25.3573 204.375 24.568C204.375 23.7573 204.621 23.1173 205.111 22.648C205.623 22.1573 206.242 21.912 206.967 21.912C207.714 21.912 208.333 22.1573 208.823 22.648C209.314 23.1387 209.559 23.7787 209.559 24.568C209.559 24.7813 209.538 25.016 209.495 25.272C209.453 25.5067 209.378 25.784 209.271 26.104C209.186 26.424 209.037 26.8293 208.823 27.32L207.191 31.832H204.599ZM214.776 21.912V19.032L225.816 4.6H230.264L219.384 19.032L217.304 18.392H235.064V21.912H214.776ZM227.064 27V21.912L227.192 18.392V13.88H231.096V27H227.064ZM243.158 27.32C241.388 27.32 239.788 26.872 238.358 25.976C236.95 25.08 235.841 23.7787 235.03 22.072C234.22 20.344 233.814 18.2533 233.814 15.8C233.814 13.3467 234.22 11.2667 235.03 9.56C235.841 7.832 236.95 6.52 238.358 5.624C239.788 4.728 241.388 4.28 243.158 4.28C244.95 4.28 246.55 4.728 247.958 5.624C249.366 6.52 250.476 7.832 251.286 9.56C252.118 11.2667 252.534 13.3467 252.534 15.8C252.534 18.2533 252.118 20.344 251.286 22.072C250.476 23.7787 249.366 25.08 247.958 25.976C246.55 26.872 244.95 27.32 243.158 27.32ZM243.158 23.704C244.204 23.704 245.11 23.4267 245.878 22.872C246.646 22.296 247.244 21.4213 247.67 20.248C248.118 19.0747 248.342 17.592 248.342 15.8C248.342 13.9867 248.118 12.504 247.67 11.352C247.244 10.1787 246.646 9.31467 245.878 8.76C245.11 8.184 244.204 7.896 243.158 7.896C242.156 7.896 241.26 8.184 240.47 8.76C239.702 9.31467 239.094 10.1787 238.646 11.352C238.22 12.504 238.006 13.9867 238.006 15.8C238.006 17.592 238.22 19.0747 238.646 20.248C239.094 21.4213 239.702 22.296 240.47 22.872C241.26 23.4267 242.156 23.704 243.158 23.704ZM252.131 31.832L253.987 24.76L254.531 27.128C253.784 27.128 253.155 26.904 252.643 26.456C252.152 25.9867 251.907 25.3573 251.907 24.568C251.907 23.7573 252.152 23.1173 252.643 22.648C253.155 22.1573 253.773 21.912 254.499 21.912C255.245 21.912 255.864 22.1573 256.355 22.648C256.845 23.1387 257.091 23.7787 257.091 24.568C257.091 24.7813 257.069 25.016 257.027 25.272C256.984 25.5067 256.909 25.784 256.803 26.104C256.717 26.424 256.568 26.8293 256.355 27.32L254.723 31.832H252.131ZM265.752 27.32C263.981 27.32 262.381 26.872 260.952 25.976C259.544 25.08 258.435 23.7787 257.624 22.072C256.813 20.344 256.408 18.2533 256.408 15.8C256.408 13.3467 256.813 11.2667 257.624 9.56C258.435 7.832 259.544 6.52 260.952 5.624C262.381 4.728 263.981 4.28 265.752 4.28C267.544 4.28 269.144 4.728 270.552 5.624C271.96 6.52 273.069 7.832 273.88 9.56C274.712 11.2667 275.128 13.3467 275.128 15.8C275.128 18.2533 274.712 20.344 273.88 22.072C273.069 23.7787 271.96 25.08 270.552 25.976C269.144 26.872 267.544 27.32 265.752 27.32ZM265.752 23.704C266.797 23.704 267.704 23.4267 268.472 22.872C269.24 22.296 269.837 21.4213 270.264 20.248C270.712 19.0747 270.936 17.592 270.936 15.8C270.936 13.9867 270.712 12.504 270.264 11.352C269.837 10.1787 269.24 9.31467 268.472 8.76C267.704 8.184 266.797 7.896 265.752 7.896C264.749 7.896 263.853 8.184 263.064 8.76C262.296 9.31467 261.688 10.1787 261.24 11.352C260.813 12.504 260.6 13.9867 260.6 15.8C260.6 17.592 260.813 19.0747 261.24 20.248C261.688 21.4213 262.296 22.296 263.064 22.872C263.853 23.4267 264.749 23.704 265.752 23.704ZM284.283 27.32C282.513 27.32 280.913 26.872 279.483 25.976C278.075 25.08 276.966 23.7787 276.155 22.072C275.345 20.344 274.939 18.2533 274.939 15.8C274.939 13.3467 275.345 11.2667 276.155 9.56C276.966 7.832 278.075 6.52 279.483 5.624C280.913 4.728 282.513 4.28 284.283 4.28C286.075 4.28 287.675 4.728 289.083 5.624C290.491 6.52 291.601 7.832 292.411 9.56C293.243 11.2667 293.659 13.3467 293.659 15.8C293.659 18.2533 293.243 20.344 292.411 22.072C291.601 23.7787 290.491 25.08 289.083 25.976C287.675 26.872 286.075 27.32 284.283 27.32ZM284.283 23.704C285.329 23.704 286.235 23.4267 287.003 22.872C287.771 22.296 288.369 21.4213 288.795 20.248C289.243 19.0747 289.467 17.592 289.467 15.8C289.467 13.9867 289.243 12.504 288.795 11.352C288.369 10.1787 287.771 9.31467 287.003 8.76C286.235 8.184 285.329 7.896 284.283 7.896C283.281 7.896 282.385 8.184 281.595 8.76C280.827 9.31467 280.219 10.1787 279.771 11.352C279.345 12.504 279.131 13.9867 279.131 15.8C279.131 17.592 279.345 19.0747 279.771 20.248C280.219 21.4213 280.827 22.296 281.595 22.872C282.385 23.4267 283.281 23.704 284.283 23.704ZM302.815 27.32C301.044 27.32 299.444 26.872 298.015 25.976C296.607 25.08 295.497 23.7787 294.687 22.072C293.876 20.344 293.471 18.2533 293.471 15.8C293.471 13.3467 293.876 11.2667 294.687 9.56C295.497 7.832 296.607 6.52 298.015 5.624C299.444 4.728 301.044 4.28 302.815 4.28C304.607 4.28 306.207 4.728 307.615 5.624C309.023 6.52 310.132 7.832 310.943 9.56C311.775 11.2667 312.191 13.3467 312.191 15.8C312.191 18.2533 311.775 20.344 310.943 22.072C310.132 23.7787 309.023 25.08 307.615 25.976C306.207 26.872 304.607 27.32 302.815 27.32ZM302.815 23.704C303.86 23.704 304.767 23.4267 305.535 22.872C306.303 22.296 306.9 21.4213 307.327 20.248C307.775 19.0747 307.999 17.592 307.999 15.8C307.999 13.9867 307.775 12.504 307.327 11.352C306.9 10.1787 306.303 9.31467 305.535 8.76C304.767 8.184 303.86 7.896 302.815 7.896C301.812 7.896 300.916 8.184 300.127 8.76C299.359 9.31467 298.751 10.1787 298.303 11.352C297.876 12.504 297.663 13.9867 297.663 15.8C297.663 17.592 297.876 19.0747 298.303 20.248C298.751 21.4213 299.359 22.296 300.127 22.872C300.916 23.4267 301.812 23.704 302.815 23.704ZM318.494 23V8.6H321.918V23H318.494ZM312.83 17.4V14.2H327.582V17.4H312.83ZM14.3314 59.32C12.582 59.32 10.9714 59.0427 9.49938 58.488C8.04871 57.912 6.77938 57.112 5.69138 56.088C4.60338 55.0427 3.76071 53.816 3.16338 52.408C2.56604 51 2.26738 49.464 2.26738 47.8C2.26738 46.136 2.56604 44.6 3.16338 43.192C3.76071 41.784 4.60338 40.568 5.69138 39.544C6.80071 38.4987 8.09138 37.6987 9.56338 37.144C11.0354 36.568 12.646 36.28 14.3954 36.28C16.294 36.28 18.0007 36.5893 19.5154 37.208C21.0514 37.8267 22.342 38.7333 23.3874 39.928L20.7634 42.488C19.8887 41.6133 18.9394 40.9733 17.9154 40.568C16.9127 40.1413 15.8034 39.928 14.5874 39.928C13.414 39.928 12.326 40.12 11.3234 40.504C10.3207 40.888 9.45671 41.432 8.73138 42.136C8.00604 42.84 7.44071 43.672 7.03538 44.632C6.65138 45.592 6.45938 46.648 6.45938 47.8C6.45938 48.9307 6.65138 49.976 7.03538 50.936C7.44071 51.896 8.00604 52.7387 8.73138 53.464C9.45671 54.168 10.31 54.712 11.2914 55.096C12.2727 55.48 13.3607 55.672 14.5554 55.672C15.6647 55.672 16.7314 55.5013 17.7554 55.16C18.8007 54.7973 19.7927 54.2 20.7314 53.368L23.0994 56.472C21.926 57.4107 20.5607 58.1253 19.0034 58.616C17.4674 59.0853 15.91 59.32 14.3314 59.32ZM19.1634 55.928V47.544H23.0994V56.472L19.1634 55.928ZM32.8821 59.224C31.1328 59.224 29.5755 58.8507 28.2101 58.104C26.8448 57.336 25.7675 56.2907 24.9781 54.968C24.1888 53.6453 23.7941 52.1413 23.7941 50.456C23.7941 48.7493 24.1888 47.2453 24.9781 45.944C25.7675 44.6213 26.8448 43.5867 28.2101 42.84C29.5755 42.0933 31.1328 41.72 32.8821 41.72C34.6528 41.72 36.2208 42.0933 37.5861 42.84C38.9728 43.5867 40.0501 44.6107 40.8181 45.912C41.6075 47.2133 42.0021 48.728 42.0021 50.456C42.0021 52.1413 41.6075 53.6453 40.8181 54.968C40.0501 56.2907 38.9728 57.336 37.5861 58.104C36.2208 58.8507 34.6528 59.224 32.8821 59.224ZM32.8821 55.8C33.8635 55.8 34.7381 55.5867 35.5061 55.16C36.2741 54.7333 36.8715 54.1147 37.2981 53.304C37.7461 52.4933 37.9701 51.544 37.9701 50.456C37.9701 49.3467 37.7461 48.3973 37.2981 47.608C36.8715 46.7973 36.2741 46.1787 35.5061 45.752C34.7381 45.3253 33.8741 45.112 32.9141 45.112C31.9328 45.112 31.0581 45.3253 30.2901 45.752C29.5435 46.1787 28.9461 46.7973 28.4981 47.608C28.0501 48.3973 27.8261 49.3467 27.8261 50.456C27.8261 51.544 28.0501 52.4933 28.4981 53.304C28.9461 54.1147 29.5435 54.7333 30.2901 55.16C31.0581 55.5867 31.9221 55.8 32.8821 55.8ZM50.5071 59.224C48.7578 59.224 47.2005 58.8507 45.8351 58.104C44.4698 57.336 43.3925 56.2907 42.6031 54.968C41.8138 53.6453 41.4191 52.1413 41.4191 50.456C41.4191 48.7493 41.8138 47.2453 42.6031 45.944C43.3925 44.6213 44.4698 43.5867 45.8351 42.84C47.2005 42.0933 48.7578 41.72 50.5071 41.72C52.2778 41.72 53.8458 42.0933 55.2111 42.84C56.5978 43.5867 57.6751 44.6107 58.4431 45.912C59.2325 47.2133 59.6271 48.728 59.6271 50.456C59.6271 52.1413 59.2325 53.6453 58.4431 54.968C57.6751 56.2907 56.5978 57.336 55.2111 58.104C53.8458 58.8507 52.2778 59.224 50.5071 59.224ZM50.5071 55.8C51.4885 55.8 52.3631 55.5867 53.1311 55.16C53.8991 54.7333 54.4965 54.1147 54.9231 53.304C55.3711 52.4933 55.5951 51.544 55.5951 50.456C55.5951 49.3467 55.3711 48.3973 54.9231 47.608C54.4965 46.7973 53.8991 46.1787 53.1311 45.752C52.3631 45.3253 51.4991 45.112 50.5391 45.112C49.5578 45.112 48.6831 45.3253 47.9151 45.752C47.1685 46.1787 46.5711 46.7973 46.1231 47.608C45.6751 48.3973 45.4511 49.3467 45.4511 50.456C45.4511 51.544 45.6751 52.4933 46.1231 53.304C46.5711 54.1147 47.1685 54.7333 47.9151 55.16C48.6831 55.5867 49.5471 55.8 50.5071 55.8ZM68.1961 65.432C66.6175 65.432 65.0708 65.2187 63.5561 64.792C62.0628 64.3867 60.8361 63.7893 59.8761 63L61.6681 59.992C62.4148 60.6107 63.3535 61.1013 64.4841 61.464C65.6361 61.848 66.7988 62.04 67.9721 62.04C69.8495 62.04 71.2255 61.6027 72.1001 60.728C72.9748 59.8747 73.4121 58.584 73.4121 56.856V53.816L73.7321 49.944L73.6041 46.072V41.912H77.4121V56.408C77.4121 59.5013 76.6228 61.7733 75.0441 63.224C73.4655 64.696 71.1828 65.432 68.1961 65.432ZM67.6841 58.232C66.0628 58.232 64.5908 57.8907 63.2681 57.208C61.9668 56.504 60.9321 55.5333 60.1641 54.296C59.4175 53.0587 59.0441 51.608 59.0441 49.944C59.0441 48.3013 59.4175 46.8613 60.1641 45.624C60.9321 44.3867 61.9668 43.4267 63.2681 42.744C64.5908 42.0613 66.0628 41.72 67.6841 41.72C69.1348 41.72 70.4361 42.008 71.5881 42.584C72.7401 43.16 73.6575 44.056 74.3401 45.272C75.0441 46.488 75.3961 48.0453 75.3961 49.944C75.3961 51.8427 75.0441 53.4107 74.3401 54.648C73.6575 55.864 72.7401 56.7707 71.5881 57.368C70.4361 57.944 69.1348 58.232 67.6841 58.232ZM68.2921 54.84C69.2948 54.84 70.1908 54.6373 70.9801 54.232C71.7695 53.8053 72.3775 53.2293 72.8041 52.504C73.2521 51.7573 73.4761 50.904 73.4761 49.944C73.4761 48.984 73.2521 48.1413 72.8041 47.416C72.3775 46.6693 71.7695 46.104 70.9801 45.72C70.1908 45.3147 69.2948 45.112 68.2921 45.112C67.2895 45.112 66.3828 45.3147 65.5721 45.72C64.7828 46.104 64.1641 46.6693 63.7161 47.416C63.2895 48.1413 63.0761 48.984 63.0761 49.944C63.0761 50.904 63.2895 51.7573 63.7161 52.504C64.1641 53.2293 64.7828 53.8053 65.5721 54.232C66.3828 54.6373 67.2895 54.84 68.2921 54.84ZM79.6709 59V35.256H83.6709V59H79.6709ZM93.9529 59.224C92.0542 59.224 90.3902 58.8507 88.9609 58.104C87.5529 57.336 86.4542 56.2907 85.6649 54.968C84.8969 53.6453 84.5129 52.1413 84.5129 50.456C84.5129 48.7493 84.8862 47.2453 85.6329 45.944C86.4009 44.6213 87.4462 43.5867 88.7689 42.84C90.1129 42.0933 91.6382 41.72 93.3449 41.72C95.0089 41.72 96.4915 42.0827 97.7929 42.808C99.0942 43.5333 100.118 44.5573 100.865 45.88C101.612 47.2027 101.985 48.76 101.985 50.552C101.985 50.7227 101.974 50.9147 101.953 51.128C101.953 51.3413 101.942 51.544 101.921 51.736H87.6809V49.08H99.8089L98.2409 49.912C98.2622 48.9307 98.0595 48.0667 97.6329 47.32C97.2062 46.5733 96.6195 45.9867 95.8729 45.56C95.1475 45.1333 94.3049 44.92 93.3449 44.92C92.3635 44.92 91.4995 45.1333 90.7529 45.56C90.0275 45.9867 89.4515 46.584 89.0249 47.352C88.6195 48.0987 88.4169 48.984 88.4169 50.008V50.648C88.4169 51.672 88.6515 52.5787 89.1209 53.368C89.5902 54.1573 90.2515 54.7653 91.1049 55.192C91.9582 55.6187 92.9395 55.832 94.0489 55.832C95.0089 55.832 95.8729 55.6827 96.6409 55.384C97.4089 55.0853 98.0915 54.616 98.6889 53.976L100.833 56.44C100.065 57.336 99.0942 58.0293 97.9209 58.52C96.7689 58.9893 95.4462 59.224 93.9529 59.224ZM113.951 59.224C112.522 59.224 111.146 59.0427 109.823 58.68C108.522 58.296 107.487 57.8373 106.719 57.304L108.255 54.264C109.023 54.7547 109.94 55.16 111.007 55.48C112.074 55.8 113.14 55.96 114.207 55.96C115.466 55.96 116.372 55.7893 116.927 55.448C117.503 55.1067 117.791 54.648 117.791 54.072C117.791 53.6027 117.599 53.2507 117.215 53.016C116.831 52.76 116.33 52.568 115.711 52.44C115.092 52.312 114.399 52.1947 113.631 52.088C112.884 51.9813 112.127 51.8427 111.359 51.672C110.612 51.48 109.93 51.2133 109.311 50.872C108.692 50.5093 108.191 50.0293 107.807 49.432C107.423 48.8347 107.231 48.0453 107.231 47.064C107.231 45.976 107.54 45.0373 108.159 44.248C108.778 43.4373 109.642 42.8187 110.751 42.392C111.882 41.944 113.215 41.72 114.751 41.72C115.903 41.72 117.066 41.848 118.239 42.104C119.412 42.36 120.383 42.7227 121.151 43.192L119.615 46.232C118.804 45.7413 117.983 45.4107 117.151 45.24C116.34 45.048 115.53 44.952 114.719 44.952C113.503 44.952 112.596 45.1333 111.999 45.496C111.423 45.8587 111.135 46.3173 111.135 46.872C111.135 47.384 111.327 47.768 111.711 48.024C112.095 48.28 112.596 48.4827 113.215 48.632C113.834 48.7813 114.516 48.9093 115.263 49.016C116.031 49.1013 116.788 49.24 117.535 49.432C118.282 49.624 118.964 49.8907 119.583 50.232C120.223 50.552 120.735 51.0107 121.119 51.608C121.503 52.2053 121.695 52.984 121.695 53.944C121.695 55.0107 121.375 55.9387 120.735 56.728C120.116 57.5173 119.231 58.136 118.079 58.584C116.927 59.0107 115.551 59.224 113.951 59.224ZM130.172 59.224C128.273 59.224 126.609 58.8507 125.18 58.104C123.772 57.336 122.673 56.2907 121.884 54.968C121.116 53.6453 120.732 52.1413 120.732 50.456C120.732 48.7493 121.105 47.2453 121.852 45.944C122.62 44.6213 123.665 43.5867 124.988 42.84C126.332 42.0933 127.857 41.72 129.564 41.72C131.228 41.72 132.71 42.0827 134.012 42.808C135.313 43.5333 136.337 44.5573 137.084 45.88C137.83 47.2027 138.204 48.76 138.204 50.552C138.204 50.7227 138.193 50.9147 138.172 51.128C138.172 51.3413 138.161 51.544 138.14 51.736H123.9V49.08H136.028L134.46 49.912C134.481 48.9307 134.278 48.0667 133.852 47.32C133.425 46.5733 132.838 45.9867 132.092 45.56C131.366 45.1333 130.524 44.92 129.564 44.92C128.582 44.92 127.718 45.1333 126.972 45.56C126.246 45.9867 125.67 46.584 125.244 47.352C124.838 48.0987 124.636 48.984 124.636 50.008V50.648C124.636 51.672 124.87 52.5787 125.34 53.368C125.809 54.1573 126.47 54.7653 127.324 55.192C128.177 55.6187 129.158 55.832 130.268 55.832C131.228 55.832 132.092 55.6827 132.86 55.384C133.628 55.0853 134.31 54.616 134.908 53.976L137.052 56.44C136.284 57.336 135.313 58.0293 134.14 58.52C132.988 58.9893 131.665 59.224 130.172 59.224ZM149.105 59V55.544L148.881 54.808V48.76C148.881 47.5867 148.529 46.68 147.825 46.04C147.121 45.3787 146.054 45.048 144.625 45.048C143.665 45.048 142.716 45.1973 141.777 45.496C140.86 45.7947 140.081 46.2107 139.441 46.744L137.873 43.832C138.79 43.128 139.878 42.6053 141.137 42.264C142.417 41.9013 143.74 41.72 145.105 41.72C147.58 41.72 149.489 42.3173 150.833 43.512C152.198 44.6853 152.881 46.5093 152.881 48.984V59H149.105ZM143.729 59.224C142.449 59.224 141.329 59.0107 140.369 58.584C139.409 58.136 138.662 57.528 138.129 56.76C137.617 55.9707 137.361 55.0853 137.361 54.104C137.361 53.144 137.585 52.28 138.033 51.512C138.502 50.744 139.26 50.136 140.305 49.688C141.35 49.24 142.737 49.016 144.465 49.016H149.425V51.672H144.753C143.388 51.672 142.47 51.896 142.001 52.344C141.532 52.7707 141.297 53.304 141.297 53.944C141.297 54.6693 141.585 55.2453 142.161 55.672C142.737 56.0987 143.537 56.312 144.561 56.312C145.542 56.312 146.417 56.088 147.185 55.64C147.974 55.192 148.54 54.5307 148.881 53.656L149.553 56.056C149.169 57.0587 148.476 57.8373 147.473 58.392C146.492 58.9467 145.244 59.224 143.729 59.224ZM155.015 59V41.912H158.823V46.616L158.375 45.24C158.887 44.088 159.687 43.2133 160.775 42.616C161.884 42.0187 163.26 41.72 164.903 41.72V45.528C164.732 45.4853 164.572 45.464 164.423 45.464C164.273 45.4427 164.124 45.432 163.975 45.432C162.46 45.432 161.255 45.88 160.359 46.776C159.463 47.6507 159.015 48.9627 159.015 50.712V59H155.015ZM172.98 59.224C171.188 59.224 169.588 58.8507 168.18 58.104C166.793 57.336 165.705 56.2907 164.916 54.968C164.126 53.6453 163.732 52.1413 163.732 50.456C163.732 48.7493 164.126 47.2453 164.916 45.944C165.705 44.6213 166.793 43.5867 168.18 42.84C169.588 42.0933 171.188 41.72 172.98 41.72C174.644 41.72 176.105 42.0613 177.364 42.744C178.644 43.4053 179.614 44.3867 180.276 45.688L177.204 47.48C176.692 46.6693 176.062 46.072 175.316 45.688C174.59 45.304 173.801 45.112 172.948 45.112C171.966 45.112 171.081 45.3253 170.292 45.752C169.502 46.1787 168.884 46.7973 168.436 47.608C167.988 48.3973 167.764 49.3467 167.764 50.456C167.764 51.5653 167.988 52.5253 168.436 53.336C168.884 54.1253 169.502 54.7333 170.292 55.16C171.081 55.5867 171.966 55.8 172.948 55.8C173.801 55.8 174.59 55.608 175.316 55.224C176.062 54.84 176.692 54.2427 177.204 53.432L180.276 55.224C179.614 56.504 178.644 57.496 177.364 58.2C176.105 58.8827 174.644 59.224 172.98 59.224ZM190.273 41.72C191.638 41.72 192.854 41.9867 193.921 42.52C195.009 43.0533 195.862 43.8747 196.481 44.984C197.1 46.072 197.409 47.48 197.409 49.208V59H193.409V49.72C193.409 48.2053 193.046 47.0747 192.321 46.328C191.617 45.5813 190.625 45.208 189.345 45.208C188.406 45.208 187.574 45.4 186.849 45.784C186.124 46.168 185.558 46.744 185.153 47.512C184.769 48.2587 184.577 49.208 184.577 50.36V59H180.577V35.256H184.577V46.52L183.713 45.112C184.31 44.024 185.174 43.192 186.305 42.616C187.457 42.0187 188.78 41.72 190.273 41.72ZM207.547 59.224C205.648 59.224 203.984 58.8507 202.555 58.104C201.147 57.336 200.048 56.2907 199.259 54.968C198.491 53.6453 198.107 52.1413 198.107 50.456C198.107 48.7493 198.48 47.2453 199.227 45.944C199.995 44.6213 201.04 43.5867 202.363 42.84C203.707 42.0933 205.232 41.72 206.939 41.72C208.603 41.72 210.085 42.0827 211.387 42.808C212.688 43.5333 213.712 44.5573 214.459 45.88C215.205 47.2027 215.579 48.76 215.579 50.552C215.579 50.7227 215.568 50.9147 215.547 51.128C215.547 51.3413 215.536 51.544 215.515 51.736H201.275V49.08H213.403L211.835 49.912C211.856 48.9307 211.653 48.0667 211.227 47.32C210.8 46.5733 210.213 45.9867 209.467 45.56C208.741 45.1333 207.899 44.92 206.939 44.92C205.957 44.92 205.093 45.1333 204.347 45.56C203.621 45.9867 203.045 46.584 202.619 47.352C202.213 48.0987 202.011 48.984 202.011 50.008V50.648C202.011 51.672 202.245 52.5787 202.715 53.368C203.184 54.1573 203.845 54.7653 204.699 55.192C205.552 55.6187 206.533 55.832 207.643 55.832C208.603 55.832 209.467 55.6827 210.235 55.384C211.003 55.0853 211.685 54.616 212.283 53.976L214.427 56.44C213.659 57.336 212.688 58.0293 211.515 58.52C210.363 58.9893 209.04 59.224 207.547 59.224ZM221.701 59.224C220.272 59.224 218.896 59.0427 217.573 58.68C216.272 58.296 215.237 57.8373 214.469 57.304L216.005 54.264C216.773 54.7547 217.69 55.16 218.757 55.48C219.824 55.8 220.89 55.96 221.957 55.96C223.216 55.96 224.122 55.7893 224.677 55.448C225.253 55.1067 225.541 54.648 225.541 54.072C225.541 53.6027 225.349 53.2507 224.965 53.016C224.581 52.76 224.08 52.568 223.461 52.44C222.842 52.312 222.149 52.1947 221.381 52.088C220.634 51.9813 219.877 51.8427 219.109 51.672C218.362 51.48 217.68 51.2133 217.061 50.872C216.442 50.5093 215.941 50.0293 215.557 49.432C215.173 48.8347 214.981 48.0453 214.981 47.064C214.981 45.976 215.29 45.0373 215.909 44.248C216.528 43.4373 217.392 42.8187 218.501 42.392C219.632 41.944 220.965 41.72 222.501 41.72C223.653 41.72 224.816 41.848 225.989 42.104C227.162 42.36 228.133 42.7227 228.901 43.192L227.365 46.232C226.554 45.7413 225.733 45.4107 224.901 45.24C224.09 45.048 223.28 44.952 222.469 44.952C221.253 44.952 220.346 45.1333 219.749 45.496C219.173 45.8587 218.885 46.3173 218.885 46.872C218.885 47.384 219.077 47.768 219.461 48.024C219.845 48.28 220.346 48.4827 220.965 48.632C221.584 48.7813 222.266 48.9093 223.013 49.016C223.781 49.1013 224.538 49.24 225.285 49.432C226.032 49.624 226.714 49.8907 227.333 50.232C227.973 50.552 228.485 51.0107 228.869 51.608C229.253 52.2053 229.445 52.984 229.445 53.944C229.445 55.0107 229.125 55.9387 228.485 56.728C227.866 57.5173 226.981 58.136 225.829 58.584C224.677 59.0107 223.301 59.224 221.701 59.224ZM245.429 41.72C246.795 41.72 248.011 41.9867 249.077 42.52C250.165 43.0533 251.019 43.8747 251.637 44.984C252.256 46.072 252.565 47.48 252.565 49.208V59H248.565V49.72C248.565 48.2053 248.203 47.0747 247.477 46.328C246.773 45.5813 245.781 45.208 244.501 45.208C243.563 45.208 242.731 45.4 242.005 45.784C241.28 46.168 240.715 46.744 240.309 47.512C239.925 48.2587 239.733 49.208 239.733 50.36V59H235.733V35.256H239.733V46.52L238.869 45.112C239.467 44.024 240.331 43.192 241.461 42.616C242.613 42.0187 243.936 41.72 245.429 41.72ZM265.168 59V55.544L264.944 54.808V48.76C264.944 47.5867 264.592 46.68 263.888 46.04C263.184 45.3787 262.117 45.048 260.688 45.048C259.728 45.048 258.778 45.1973 257.84 45.496C256.922 45.7947 256.144 46.2107 255.504 46.744L253.936 43.832C254.853 43.128 255.941 42.6053 257.2 42.264C258.48 41.9013 259.802 41.72 261.168 41.72C263.642 41.72 265.552 42.3173 266.896 43.512C268.261 44.6853 268.944 46.5093 268.944 48.984V59H265.168ZM259.792 59.224C258.512 59.224 257.392 59.0107 256.432 58.584C255.472 58.136 254.725 57.528 254.192 56.76C253.68 55.9707 253.424 55.0853 253.424 54.104C253.424 53.144 253.648 52.28 254.096 51.512C254.565 50.744 255.322 50.136 256.368 49.688C257.413 49.24 258.8 49.016 260.528 49.016H265.488V51.672H260.816C259.45 51.672 258.533 51.896 258.064 52.344C257.594 52.7707 257.36 53.304 257.36 53.944C257.36 54.6693 257.648 55.2453 258.224 55.672C258.8 56.0987 259.6 56.312 260.624 56.312C261.605 56.312 262.48 56.088 263.248 55.64C264.037 55.192 264.602 54.5307 264.944 53.656L265.616 56.056C265.232 57.0587 264.538 57.8373 263.536 58.392C262.554 58.9467 261.306 59.224 259.792 59.224ZM280.549 59.224C279.162 59.224 277.893 58.904 276.741 58.264C275.61 57.624 274.704 56.664 274.021 55.384C273.36 54.0827 273.029 52.44 273.029 50.456C273.029 48.4507 273.349 46.808 273.989 45.528C274.65 44.248 275.546 43.2987 276.677 42.68C277.808 42.04 279.098 41.72 280.549 41.72C282.234 41.72 283.717 42.0827 284.997 42.808C286.298 43.5333 287.322 44.5467 288.069 45.848C288.837 47.1493 289.221 48.6853 289.221 50.456C289.221 52.2267 288.837 53.7733 288.069 55.096C287.322 56.3973 286.298 57.4107 284.997 58.136C283.717 58.8613 282.234 59.224 280.549 59.224ZM271.077 65.208V41.912H274.885V45.944L274.757 50.488L275.077 55.032V65.208H271.077ZM280.101 55.8C281.061 55.8 281.914 55.5867 282.661 55.16C283.429 54.7333 284.037 54.1147 284.485 53.304C284.933 52.4933 285.157 51.544 285.157 50.456C285.157 49.3467 284.933 48.3973 284.485 47.608C284.037 46.7973 283.429 46.1787 282.661 45.752C281.914 45.3253 281.061 45.112 280.101 45.112C279.141 45.112 278.277 45.3253 277.509 45.752C276.741 46.1787 276.133 46.7973 275.685 47.608C275.237 48.3973 275.013 49.3467 275.013 50.456C275.013 51.544 275.237 52.4933 275.685 53.304C276.133 54.1147 276.741 54.7333 277.509 55.16C278.277 55.5867 279.141 55.8 280.101 55.8ZM299.487 59.224C298.1 59.224 296.831 58.904 295.679 58.264C294.548 57.624 293.641 56.664 292.959 55.384C292.297 54.0827 291.967 52.44 291.967 50.456C291.967 48.4507 292.287 46.808 292.927 45.528C293.588 44.248 294.484 43.2987 295.615 42.68C296.745 42.04 298.036 41.72 299.487 41.72C301.172 41.72 302.655 42.0827 303.935 42.808C305.236 43.5333 306.26 44.5467 307.007 45.848C307.775 47.1493 308.159 48.6853 308.159 50.456C308.159 52.2267 307.775 53.7733 307.007 55.096C306.26 56.3973 305.236 57.4107 303.935 58.136C302.655 58.8613 301.172 59.224 299.487 59.224ZM290.015 65.208V41.912H293.823V45.944L293.695 50.488L294.015 55.032V65.208H290.015ZM299.039 55.8C299.999 55.8 300.852 55.5867 301.599 55.16C302.367 54.7333 302.975 54.1147 303.423 53.304C303.871 52.4933 304.095 51.544 304.095 50.456C304.095 49.3467 303.871 48.3973 303.423 47.608C302.975 46.7973 302.367 46.1787 301.599 45.752C300.852 45.3253 299.999 45.112 299.039 45.112C298.079 45.112 297.215 45.3253 296.447 45.752C295.679 46.1787 295.071 46.7973 294.623 47.608C294.175 48.3973 293.951 49.3467 293.951 50.456C293.951 51.544 294.175 52.4933 294.623 53.304C295.071 54.1147 295.679 54.7333 296.447 55.16C297.215 55.5867 298.079 55.8 299.039 55.8ZM316.984 59.224C315.085 59.224 313.421 58.8507 311.992 58.104C310.584 57.336 309.485 56.2907 308.696 54.968C307.928 53.6453 307.544 52.1413 307.544 50.456C307.544 48.7493 307.917 47.2453 308.664 45.944C309.432 44.6213 310.477 43.5867 311.8 42.84C313.144 42.0933 314.669 41.72 316.376 41.72C318.04 41.72 319.523 42.0827 320.824 42.808C322.125 43.5333 323.149 44.5573 323.896 45.88C324.643 47.2027 325.016 48.76 325.016 50.552C325.016 50.7227 325.005 50.9147 324.984 51.128C324.984 51.3413 324.973 51.544 324.952 51.736H310.712V49.08H322.84L321.272 49.912C321.293 48.9307 321.091 48.0667 320.664 47.32C320.237 46.5733 319.651 45.9867 318.904 45.56C318.179 45.1333 317.336 44.92 316.376 44.92C315.395 44.92 314.531 45.1333 313.784 45.56C313.059 45.9867 312.483 46.584 312.056 47.352C311.651 48.0987 311.448 48.984 311.448 50.008V50.648C311.448 51.672 311.683 52.5787 312.152 53.368C312.621 54.1573 313.283 54.7653 314.136 55.192C314.989 55.6187 315.971 55.832 317.08 55.832C318.04 55.832 318.904 55.6827 319.672 55.384C320.44 55.0853 321.123 54.616 321.72 53.976L323.864 56.44C323.096 57.336 322.125 58.0293 320.952 58.52C319.8 58.9893 318.477 59.224 316.984 59.224ZM335.554 41.72C336.92 41.72 338.136 41.9867 339.202 42.52C340.29 43.0533 341.144 43.8747 341.762 44.984C342.381 46.072 342.69 47.48 342.69 49.208V59H338.69V49.72C338.69 48.2053 338.328 47.0747 337.602 46.328C336.898 45.5813 335.906 45.208 334.626 45.208C333.688 45.208 332.856 45.4 332.13 45.784C331.405 46.168 330.84 46.744 330.434 47.512C330.05 48.2587 329.858 49.208 329.858 50.36V59H325.858V41.912H329.666V46.52L328.994 45.112C329.592 44.024 330.456 43.192 331.586 42.616C332.738 42.0187 334.061 41.72 335.554 41.72Z"
            fill="#1D1D1D" />
    </g>
</svg>