<svg width="343" height="66" viewBox="0 0 343 66" fill="none" xmlns="http://www.w3.org/2000/svg">
    <g style="mix-blend-mode:overlay">
        <path
            d="M8.63113 27L13.1111 4.6H17.3351L23.7031 20.472L21.4631 20.44L33.8791 4.6H38.3271L33.8791 27H29.0151L31.9911 11.992H32.9831L23.0951 24.632H20.7911L15.5111 11.96L16.4711 12.056L13.4951 27H8.63113ZM35.8736 27L39.2976 9.784H44.2576L40.8336 27H35.8736ZM42.6256 7.384C41.751 7.384 41.047 7.13867 40.5136 6.648C39.9803 6.136 39.7136 5.51733 39.7136 4.792C39.7136 3.93867 40.0123 3.23467 40.6096 2.68C41.2283 2.104 42.0283 1.816 43.0096 1.816C43.8843 1.816 44.5883 2.06133 45.1216 2.552C45.6763 3.02133 45.9536 3.608 45.9536 4.312C45.9536 5.22933 45.6443 5.976 45.0256 6.552C44.4283 7.10667 43.6283 7.384 42.6256 7.384ZM42.4674 27L47.2034 3.256H52.1954L47.4594 27H42.4674ZM49.0924 27L53.8284 3.256H58.8204L54.0844 27H49.0924ZM55.7174 27L59.1414 9.784H64.1014L60.6774 27H55.7174ZM62.4694 7.384C61.5947 7.384 60.8907 7.13867 60.3574 6.648C59.824 6.136 59.5574 5.51733 59.5574 4.792C59.5574 3.93867 59.856 3.23467 60.4534 2.68C61.072 2.104 61.872 1.816 62.8534 1.816C63.728 1.816 64.432 2.06133 64.9654 2.552C65.52 3.02133 65.7974 3.608 65.7974 4.312C65.7974 5.22933 65.488 5.976 64.8694 6.552C64.272 7.10667 63.472 7.384 62.4694 7.384ZM71.3031 27.256C69.5538 27.256 68.0285 26.936 66.7271 26.296C65.4258 25.656 64.4125 24.76 63.6871 23.608C62.9831 22.456 62.6311 21.1013 62.6311 19.544C62.6311 17.624 63.0791 15.9173 63.9751 14.424C64.8711 12.9093 66.0978 11.7147 67.6551 10.84C69.2338 9.96533 71.0258 9.528 73.0311 9.528C74.8018 9.528 76.3271 9.848 77.6071 10.488C78.9085 11.128 79.9111 12.024 80.6151 13.176C81.3405 14.3067 81.7031 15.6613 81.7031 17.24C81.7031 19.1387 81.2551 20.8453 80.3591 22.36C79.4631 23.8747 78.2365 25.0693 76.6791 25.944C75.1218 26.8187 73.3298 27.256 71.3031 27.256ZM71.6231 23.16C72.6045 23.16 73.4685 22.9253 74.2151 22.456C74.9831 21.9653 75.5805 21.2933 76.0071 20.44C76.4338 19.5867 76.6471 18.5947 76.6471 17.464C76.6471 16.312 76.3058 15.384 75.6231 14.68C74.9405 13.976 73.9805 13.624 72.7431 13.624C71.7618 13.624 70.8871 13.8693 70.1191 14.36C69.3725 14.8293 68.7751 15.4907 68.3271 16.344C67.9005 17.1973 67.6871 18.1893 67.6871 19.32C67.6871 20.4933 68.0285 21.432 68.7111 22.136C69.3938 22.8187 70.3645 23.16 71.6231 23.16ZM93.6886 9.528C95.1606 9.528 96.4086 9.83733 97.4326 10.456C98.4566 11.0533 99.182 11.9387 99.6086 13.112C100.035 14.2853 100.078 15.736 99.7366 17.464L97.8166 27H92.8246L94.6806 17.784C94.9366 16.5253 94.83 15.5547 94.3606 14.872C93.9126 14.1893 93.0806 13.848 91.8646 13.848C90.606 13.848 89.55 14.2107 88.6966 14.936C87.8646 15.6613 87.2886 16.7707 86.9686 18.264L85.2406 27H80.2486L83.6726 9.784H88.4086L87.4166 14.648L86.7126 13.176C87.5446 11.9173 88.5686 11 89.7846 10.424C91.022 9.82667 92.3233 9.528 93.6886 9.528ZM105.646 27.256C104.131 27.256 102.702 27.0853 101.358 26.744C100.035 26.4027 99.011 25.976 98.2856 25.464L100.206 21.848C100.952 22.3387 101.859 22.7333 102.926 23.032C104.014 23.3307 105.102 23.48 106.19 23.48C107.363 23.48 108.216 23.3307 108.75 23.032C109.283 22.7333 109.55 22.328 109.55 21.816C109.55 21.4107 109.326 21.112 108.878 20.92C108.43 20.7067 107.864 20.536 107.182 20.408C106.499 20.28 105.763 20.1307 104.974 19.96C104.206 19.7893 103.47 19.5547 102.766 19.256C102.083 18.936 101.518 18.488 101.07 17.912C100.643 17.3147 100.43 16.536 100.43 15.576C100.43 14.2747 100.792 13.176 101.518 12.28C102.264 11.384 103.288 10.7013 104.59 10.232C105.912 9.76267 107.406 9.528 109.07 9.528C110.264 9.528 111.427 9.656 112.558 9.912C113.688 10.168 114.648 10.52 115.438 10.968L113.646 14.616C112.835 14.104 111.982 13.7627 111.086 13.592C110.211 13.4 109.368 13.304 108.558 13.304C107.384 13.304 106.531 13.4747 105.998 13.816C105.486 14.136 105.23 14.5307 105.23 15C105.23 15.4053 105.443 15.7253 105.87 15.96C106.318 16.1733 106.883 16.3547 107.566 16.504C108.248 16.632 108.984 16.7813 109.774 16.952C110.563 17.1013 111.299 17.336 111.982 17.656C112.664 17.9547 113.219 18.392 113.646 18.968C114.094 19.5227 114.318 20.28 114.318 21.24C114.318 22.5413 113.934 23.6507 113.166 24.568C112.419 25.464 111.395 26.136 110.094 26.584C108.792 27.032 107.31 27.256 105.646 27.256ZM128.428 27.256C126.679 27.256 125.153 26.936 123.852 26.296C122.551 25.656 121.537 24.76 120.812 23.608C120.108 22.456 119.756 21.1013 119.756 19.544C119.756 17.624 120.204 15.9173 121.1 14.424C121.996 12.9093 123.223 11.7147 124.78 10.84C126.359 9.96533 128.151 9.528 130.156 9.528C131.927 9.528 133.452 9.848 134.732 10.488C136.033 11.128 137.036 12.024 137.74 13.176C138.465 14.3067 138.828 15.6613 138.828 17.24C138.828 19.1387 138.38 20.8453 137.484 22.36C136.588 23.8747 135.361 25.0693 133.804 25.944C132.247 26.8187 130.455 27.256 128.428 27.256ZM128.748 23.16C129.729 23.16 130.593 22.9253 131.34 22.456C132.108 21.9653 132.705 21.2933 133.132 20.44C133.559 19.5867 133.772 18.5947 133.772 17.464C133.772 16.312 133.431 15.384 132.748 14.68C132.065 13.976 131.105 13.624 129.868 13.624C128.887 13.624 128.012 13.8693 127.244 14.36C126.497 14.8293 125.9 15.4907 125.452 16.344C125.025 17.1973 124.812 18.1893 124.812 19.32C124.812 20.4933 125.153 21.432 125.836 22.136C126.519 22.8187 127.489 23.16 128.748 23.16ZM137.95 27L141.534 9.176C141.918 7.29867 142.728 5.80533 143.966 4.696C145.224 3.56533 146.91 3 149.022 3C149.811 3 150.547 3.08533 151.23 3.256C151.912 3.40533 152.499 3.64 152.99 3.96L151.038 7.544C150.462 7.13867 149.8 6.936 149.054 6.936C148.286 6.936 147.688 7.14933 147.262 7.576C146.835 7.98133 146.526 8.632 146.334 9.528L145.982 11.128L145.726 13.144L142.974 27H137.95ZM137.886 14.008L138.654 10.168H150.59L149.822 14.008H137.886ZM166.251 9.528C167.702 9.528 168.939 9.83733 169.963 10.456C170.987 11.0533 171.712 11.9387 172.139 13.112C172.587 14.2853 172.64 15.736 172.299 17.464L170.379 27H165.387L167.243 17.784C167.499 16.5253 167.392 15.5547 166.923 14.872C166.475 14.1893 165.643 13.848 164.427 13.848C163.168 13.848 162.112 14.2107 161.259 14.936C160.427 15.6613 159.851 16.7707 159.531 18.264L157.803 27H152.811L157.547 3.256H162.539L160.267 14.648L159.275 13.176C160.107 11.9173 161.131 11 162.347 10.424C163.584 9.82667 164.886 9.528 166.251 9.528ZM180.991 27.256C179.241 27.256 177.716 26.936 176.415 26.296C175.113 25.656 174.1 24.76 173.375 23.608C172.671 22.456 172.319 21.1013 172.319 19.544C172.319 17.624 172.767 15.9173 173.663 14.424C174.559 12.9093 175.785 11.7147 177.343 10.84C178.921 9.96533 180.713 9.528 182.719 9.528C184.489 9.528 186.015 9.848 187.295 10.488C188.596 11.128 189.599 12.024 190.303 13.176C191.028 14.3067 191.391 15.6613 191.391 17.24C191.391 19.1387 190.943 20.8453 190.047 22.36C189.151 23.8747 187.924 25.0693 186.367 25.944C184.809 26.8187 183.017 27.256 180.991 27.256ZM181.311 23.16C182.292 23.16 183.156 22.9253 183.903 22.456C184.671 21.9653 185.268 21.2933 185.695 20.44C186.121 19.5867 186.335 18.5947 186.335 17.464C186.335 16.312 185.993 15.384 185.311 14.68C184.628 13.976 183.668 13.624 182.431 13.624C181.449 13.624 180.575 13.8693 179.807 14.36C179.06 14.8293 178.463 15.4907 178.015 16.344C177.588 17.1973 177.375 18.1893 177.375 19.32C177.375 20.4933 177.716 21.432 178.399 22.136C179.081 22.8187 180.052 23.16 181.311 23.16ZM197.296 27.256C195.888 27.256 194.672 26.9573 193.648 26.36C192.624 25.7413 191.899 24.8453 191.472 23.672C191.045 22.4987 191.003 21.048 191.344 19.32L193.232 9.784H198.224L196.4 19C196.144 20.2587 196.24 21.2293 196.688 21.912C197.157 22.5947 197.979 22.936 199.152 22.936C200.389 22.936 201.424 22.5733 202.256 21.848C203.109 21.1227 203.675 20.0133 203.952 18.52L205.712 9.784H210.704L207.28 27H202.544L203.504 22.136L204.208 23.608C203.397 24.8667 202.384 25.7947 201.168 26.392C199.952 26.968 198.661 27.256 197.296 27.256ZM208.905 27L212.329 9.784H217.065L216.073 14.68L215.625 13.272C216.393 11.8853 217.396 10.9147 218.633 10.36C219.87 9.80533 221.353 9.528 223.081 9.528L222.185 14.136C221.972 14.1147 221.769 14.104 221.577 14.104C221.406 14.0827 221.225 14.072 221.033 14.072C219.561 14.072 218.356 14.4347 217.417 15.16C216.5 15.8853 215.881 17.0587 215.561 18.68L213.897 27H208.905ZM225.958 27.256C224.443 27.256 223.014 27.0853 221.67 26.744C220.347 26.4027 219.323 25.976 218.598 25.464L220.518 21.848C221.265 22.3387 222.171 22.7333 223.238 23.032C224.326 23.3307 225.414 23.48 226.502 23.48C227.675 23.48 228.529 23.3307 229.062 23.032C229.595 22.7333 229.862 22.328 229.862 21.816C229.862 21.4107 229.638 21.112 229.19 20.92C228.742 20.7067 228.177 20.536 227.494 20.408C226.811 20.28 226.075 20.1307 225.286 19.96C224.518 19.7893 223.782 19.5547 223.078 19.256C222.395 18.936 221.83 18.488 221.382 17.912C220.955 17.3147 220.742 16.536 220.742 15.576C220.742 14.2747 221.105 13.176 221.83 12.28C222.577 11.384 223.601 10.7013 224.902 10.232C226.225 9.76267 227.718 9.528 229.382 9.528C230.577 9.528 231.739 9.656 232.87 9.912C234.001 10.168 234.961 10.52 235.75 10.968L233.958 14.616C233.147 14.104 232.294 13.7627 231.398 13.592C230.523 13.4 229.681 13.304 228.87 13.304C227.697 13.304 226.843 13.4747 226.31 13.816C225.798 14.136 225.542 14.5307 225.542 15C225.542 15.4053 225.755 15.7253 226.182 15.96C226.63 16.1733 227.195 16.3547 227.878 16.504C228.561 16.632 229.297 16.7813 230.086 16.952C230.875 17.1013 231.611 17.336 232.294 17.656C232.977 17.9547 233.531 18.392 233.958 18.968C234.406 19.5227 234.63 20.28 234.63 21.24C234.63 22.5413 234.246 23.6507 233.478 24.568C232.731 25.464 231.707 26.136 230.406 26.584C229.105 27.032 227.622 27.256 225.958 27.256ZM235.958 27.256C235.105 27.256 234.401 26.9893 233.846 26.456C233.291 25.9013 233.014 25.208 233.014 24.376C233.014 23.3733 233.334 22.5733 233.974 21.976C234.635 21.3573 235.425 21.048 236.342 21.048C237.195 21.048 237.889 21.3147 238.422 21.848C238.977 22.3813 239.254 23.0747 239.254 23.928C239.254 24.5893 239.094 25.176 238.774 25.688C238.475 26.1787 238.081 26.5627 237.59 26.84C237.099 27.1173 236.555 27.256 235.958 27.256ZM244.502 27.256C243.649 27.256 242.945 26.9893 242.39 26.456C241.835 25.9013 241.558 25.208 241.558 24.376C241.558 23.3733 241.878 22.5733 242.518 21.976C243.179 21.3573 243.969 21.048 244.886 21.048C245.739 21.048 246.433 21.3147 246.966 21.848C247.521 22.3813 247.798 23.0747 247.798 23.928C247.798 24.5893 247.638 25.176 247.318 25.688C247.019 26.1787 246.625 26.5627 246.134 26.84C245.643 27.1173 245.099 27.256 244.502 27.256ZM253.078 27.256C252.225 27.256 251.521 26.9893 250.966 26.456C250.411 25.9013 250.134 25.208 250.134 24.376C250.134 23.3733 250.454 22.5733 251.094 21.976C251.755 21.3573 252.545 21.048 253.462 21.048C254.315 21.048 255.009 21.3147 255.542 21.848C256.097 22.3813 256.374 23.0747 256.374 23.928C256.374 24.5893 256.214 25.176 255.894 25.688C255.595 26.1787 255.201 26.5627 254.71 26.84C254.219 27.1173 253.675 27.256 253.078 27.256ZM269.608 33.464C267.944 33.464 266.408 33.272 265 32.888C263.613 32.504 262.419 31.9387 261.416 31.192L263.784 27.576C264.467 28.1307 265.341 28.5787 266.408 28.92C267.496 29.2613 268.637 29.432 269.832 29.432C271.56 29.432 272.851 29.0587 273.704 28.312C274.579 27.5653 275.165 26.456 275.464 24.984L276.072 21.88L277.224 17.848L277.992 13.496L278.696 9.784H283.464L280.616 24.12C279.955 27.4267 278.696 29.8053 276.84 31.256C275.005 32.728 272.595 33.464 269.608 33.464ZM270.344 26.168C268.936 26.168 267.656 25.88 266.504 25.304C265.352 24.728 264.435 23.9067 263.752 22.84C263.069 21.752 262.728 20.4507 262.728 18.936C262.728 17.6133 262.963 16.3867 263.432 15.256C263.923 14.1253 264.595 13.1333 265.448 12.28C266.323 11.4053 267.336 10.7333 268.488 10.264C269.661 9.77333 270.941 9.528 272.328 9.528C273.587 9.528 274.728 9.76267 275.752 10.232C276.776 10.7013 277.565 11.4587 278.12 12.504C278.696 13.5493 278.909 14.9467 278.76 16.696C278.632 18.5947 278.216 20.2587 277.512 21.688C276.808 23.096 275.848 24.1947 274.632 24.984C273.437 25.7733 272.008 26.168 270.344 26.168ZM271.688 22.072C272.669 22.072 273.533 21.8587 274.28 21.432C275.027 21.0053 275.613 20.4187 276.04 19.672C276.467 18.904 276.68 18.0293 276.68 17.048C276.68 16.0027 276.339 15.1813 275.656 14.584C274.973 13.9653 274.024 13.656 272.808 13.656C271.827 13.656 270.952 13.8693 270.184 14.296C269.437 14.7227 268.84 15.32 268.392 16.088C267.965 16.8347 267.752 17.6987 267.752 18.68C267.752 19.7253 268.104 20.5573 268.808 21.176C269.512 21.7733 270.472 22.072 271.688 22.072ZM290.678 27.256C288.929 27.256 287.403 26.936 286.102 26.296C284.801 25.656 283.787 24.76 283.062 23.608C282.358 22.456 282.006 21.1013 282.006 19.544C282.006 17.624 282.454 15.9173 283.35 14.424C284.246 12.9093 285.473 11.7147 287.03 10.84C288.609 9.96533 290.401 9.528 292.406 9.528C294.177 9.528 295.702 9.848 296.982 10.488C298.283 11.128 299.286 12.024 299.99 13.176C300.715 14.3067 301.078 15.6613 301.078 17.24C301.078 19.1387 300.63 20.8453 299.734 22.36C298.838 23.8747 297.611 25.0693 296.054 25.944C294.497 26.8187 292.705 27.256 290.678 27.256ZM290.998 23.16C291.979 23.16 292.843 22.9253 293.59 22.456C294.358 21.9653 294.955 21.2933 295.382 20.44C295.809 19.5867 296.022 18.5947 296.022 17.464C296.022 16.312 295.681 15.384 294.998 14.68C294.315 13.976 293.355 13.624 292.118 13.624C291.137 13.624 290.262 13.8693 289.494 14.36C288.747 14.8293 288.15 15.4907 287.702 16.344C287.275 17.1973 287.062 18.1893 287.062 19.32C287.062 20.4933 287.403 21.432 288.086 22.136C288.769 22.8187 289.739 23.16 290.998 23.16ZM313.064 9.528C314.536 9.528 315.784 9.83733 316.808 10.456C317.832 11.0533 318.557 11.9387 318.984 13.112C319.41 14.2853 319.453 15.736 319.112 17.464L317.192 27H312.2L314.056 17.784C314.312 16.5253 314.205 15.5547 313.736 14.872C313.288 14.1893 312.456 13.848 311.24 13.848C309.981 13.848 308.925 14.2107 308.072 14.936C307.24 15.6613 306.664 16.7707 306.344 18.264L304.616 27H299.624L303.048 9.784H307.784L306.792 14.648L306.088 13.176C306.92 11.9173 307.944 11 309.16 10.424C310.397 9.82667 311.698 9.528 313.064 9.528ZM327.963 27.256C326.171 27.256 324.614 26.936 323.291 26.296C321.99 25.656 320.976 24.76 320.251 23.608C319.526 22.456 319.163 21.1013 319.163 19.544C319.163 17.624 319.59 15.9173 320.443 14.424C321.318 12.9093 322.512 11.7147 324.027 10.84C325.563 9.96533 327.323 9.528 329.307 9.528C330.992 9.528 332.443 9.848 333.659 10.488C334.875 11.1067 335.814 11.9813 336.475 13.112C337.158 14.2213 337.499 15.5547 337.499 17.112C337.499 17.56 337.467 18.008 337.403 18.456C337.36 18.904 337.296 19.3307 337.211 19.736H322.971L323.483 16.824H334.875L332.827 17.72C332.998 16.76 332.944 15.96 332.667 15.32C332.39 14.6587 331.942 14.1573 331.323 13.816C330.704 13.4533 329.958 13.272 329.083 13.272C327.995 13.272 327.067 13.5387 326.299 14.072C325.552 14.584 324.987 15.2987 324.603 16.216C324.219 17.1333 324.027 18.168 324.027 19.32C324.027 20.6427 324.39 21.6347 325.115 22.296C325.862 22.936 326.982 23.256 328.475 23.256C329.35 23.256 330.192 23.1173 331.003 22.84C331.814 22.5627 332.507 22.168 333.083 21.656L335.163 24.952C334.16 25.7413 333.03 26.328 331.771 26.712C330.534 27.0747 329.264 27.256 327.963 27.256ZM51.6629 59.256C50.4255 59.256 49.3695 59.0107 48.4949 58.52C47.6202 58.008 46.9909 57.2827 46.6069 56.344C46.2442 55.384 46.1909 54.2533 46.4469 52.952L49.4229 37.976H54.4149L51.4389 52.92C51.3109 53.6453 51.3855 54.2213 51.6629 54.648C51.9402 55.0747 52.4522 55.288 53.1989 55.288C53.5402 55.288 53.8815 55.2347 54.2229 55.128C54.5855 55.0213 54.9162 54.872 55.2149 54.68L55.9509 58.232C55.3322 58.616 54.6495 58.8827 53.9029 59.032C53.1562 59.1813 52.4095 59.256 51.6629 59.256ZM45.1669 46.008L45.9349 42.168H57.8709L57.1029 46.008H45.1669ZM64.0219 59.256C62.2725 59.256 60.7472 58.936 59.4459 58.296C58.1445 57.656 57.1312 56.76 56.4059 55.608C55.7019 54.456 55.3499 53.1013 55.3499 51.544C55.3499 49.624 55.7979 47.9173 56.6939 46.424C57.5899 44.9093 58.8165 43.7147 60.3739 42.84C61.9525 41.9653 63.7445 41.528 65.7499 41.528C67.5205 41.528 69.0459 41.848 70.3259 42.488C71.6272 43.128 72.6299 44.024 73.3339 45.176C74.0592 46.3067 74.4219 47.6613 74.4219 49.24C74.4219 51.1387 73.9739 52.8453 73.0779 54.36C72.1819 55.8747 70.9552 57.0693 69.3979 57.944C67.8405 58.8187 66.0485 59.256 64.0219 59.256ZM64.3419 55.16C65.3232 55.16 66.1872 54.9253 66.9339 54.456C67.7019 53.9653 68.2992 53.2933 68.7259 52.44C69.1525 51.5867 69.3659 50.5947 69.3659 49.464C69.3659 48.312 69.0245 47.384 68.3419 46.68C67.6592 45.976 66.6992 45.624 65.4619 45.624C64.4805 45.624 63.6059 45.8693 62.8379 46.36C62.0912 46.8293 61.4939 47.4907 61.0459 48.344C60.6192 49.1973 60.4059 50.1893 60.4059 51.32C60.4059 52.4933 60.7472 53.432 61.4299 54.136C62.1125 54.8187 63.0832 55.16 64.3419 55.16ZM79.0299 59L82.4539 41.784H87.1899L86.1979 46.68L85.7499 45.272C86.5179 43.8853 87.5205 42.9147 88.7579 42.36C89.9952 41.8053 91.4779 41.528 93.2059 41.528L92.3099 46.136C92.0965 46.1147 91.8939 46.104 91.7019 46.104C91.5312 46.0827 91.3499 46.072 91.1579 46.072C89.6859 46.072 88.4805 46.4347 87.5419 47.16C86.6245 47.8853 86.0059 49.0587 85.6859 50.68L84.0219 59H79.0299ZM98.7131 59.256C96.9211 59.256 95.3638 58.936 94.0411 58.296C92.7398 57.656 91.7265 56.76 91.0011 55.608C90.2758 54.456 89.9131 53.1013 89.9131 51.544C89.9131 49.624 90.3398 47.9173 91.1931 46.424C92.0678 44.9093 93.2625 43.7147 94.7771 42.84C96.3131 41.9653 98.0731 41.528 100.057 41.528C101.742 41.528 103.193 41.848 104.409 42.488C105.625 43.1067 106.564 43.9813 107.225 45.112C107.908 46.2213 108.249 47.5547 108.249 49.112C108.249 49.56 108.217 50.008 108.153 50.456C108.11 50.904 108.046 51.3307 107.961 51.736H93.7211L94.2331 48.824H105.625L103.577 49.72C103.748 48.76 103.694 47.96 103.417 47.32C103.14 46.6587 102.692 46.1573 102.073 45.816C101.454 45.4533 100.708 45.272 99.8331 45.272C98.7451 45.272 97.8171 45.5387 97.0491 46.072C96.3025 46.584 95.7371 47.2987 95.3531 48.216C94.9691 49.1333 94.7771 50.168 94.7771 51.32C94.7771 52.6427 95.1398 53.6347 95.8651 54.296C96.6118 54.936 97.7318 55.256 99.2251 55.256C100.1 55.256 100.942 55.1173 101.753 54.84C102.564 54.5627 103.257 54.168 103.833 53.656L105.913 56.952C104.91 57.7413 103.78 58.328 102.521 58.712C101.284 59.0747 100.014 59.256 98.7131 59.256ZM117.663 59.256C116.276 59.256 115.06 58.9893 114.015 58.456C112.991 57.9227 112.223 57.1013 111.711 55.992C111.199 54.8613 111.018 53.4107 111.167 51.64C111.295 49.592 111.711 47.8107 112.415 46.296C113.14 44.7813 114.122 43.608 115.359 42.776C116.596 41.944 118.058 41.528 119.743 41.528C121.087 41.528 122.324 41.8373 123.455 42.456C124.586 43.0533 125.492 43.928 126.175 45.08C126.858 46.2107 127.199 47.5973 127.199 49.24C127.199 50.6693 126.954 52.0027 126.463 53.24C125.972 54.456 125.29 55.512 124.415 56.408C123.562 57.304 122.559 58.008 121.407 58.52C120.255 59.0107 119.007 59.256 117.663 59.256ZM105.407 65.208L110.079 41.784H114.815L114.111 45.208L113.023 50.328L112.351 55.448L110.399 65.208H105.407ZM117.087 55.128C118.09 55.128 118.964 54.8933 119.711 54.424C120.458 53.9333 121.044 53.272 121.471 52.44C121.919 51.5867 122.143 50.5947 122.143 49.464C122.143 48.2907 121.802 47.3627 121.119 46.68C120.436 45.9973 119.466 45.656 118.207 45.656C117.247 45.656 116.383 45.9013 115.615 46.392C114.847 46.8613 114.25 47.5227 113.823 48.376C113.396 49.208 113.183 50.1893 113.183 51.32C113.183 52.4933 113.524 53.4213 114.207 54.104C114.89 54.7867 115.85 55.128 117.087 55.128ZM134.901 59.256C133.109 59.256 131.551 58.936 130.229 58.296C128.927 57.656 127.914 56.76 127.189 55.608C126.463 54.456 126.101 53.1013 126.101 51.544C126.101 49.624 126.527 47.9173 127.381 46.424C128.255 44.9093 129.45 43.7147 130.965 42.84C132.501 41.9653 134.261 41.528 136.245 41.528C137.93 41.528 139.381 41.848 140.597 42.488C141.813 43.1067 142.751 43.9813 143.413 45.112C144.095 46.2213 144.437 47.5547 144.437 49.112C144.437 49.56 144.405 50.008 144.341 50.456C144.298 50.904 144.234 51.3307 144.149 51.736H129.909L130.421 48.824H141.813L139.765 49.72C139.935 48.76 139.882 47.96 139.605 47.32C139.327 46.6587 138.879 46.1573 138.261 45.816C137.642 45.4533 136.895 45.272 136.021 45.272C134.933 45.272 134.005 45.5387 133.237 46.072C132.49 46.584 131.925 47.2987 131.541 48.216C131.157 49.1333 130.965 50.168 130.965 51.32C130.965 52.6427 131.327 53.6347 132.053 54.296C132.799 54.936 133.919 55.256 135.413 55.256C136.287 55.256 137.13 55.1173 137.941 54.84C138.751 54.5627 139.445 54.168 140.021 53.656L142.101 56.952C141.098 57.7413 139.967 58.328 138.709 58.712C137.471 59.0747 136.202 59.256 134.901 59.256ZM149.85 59.256C148.613 59.256 147.557 59.0107 146.682 58.52C145.808 58.008 145.178 57.2827 144.794 56.344C144.432 55.384 144.378 54.2533 144.634 52.952L147.61 37.976H152.602L149.626 52.92C149.498 53.6453 149.573 54.2213 149.85 54.648C150.128 55.0747 150.64 55.288 151.386 55.288C151.728 55.288 152.069 55.2347 152.41 55.128C152.773 55.0213 153.104 54.872 153.402 54.68L154.138 58.232C153.52 58.616 152.837 58.8827 152.09 59.032C151.344 59.1813 150.597 59.256 149.85 59.256ZM143.354 46.008L144.122 42.168H156.058L155.29 46.008H143.354ZM153.749 59L157.173 41.784H162.133L158.709 59H153.749ZM160.501 39.384C159.626 39.384 158.922 39.1387 158.389 38.648C157.855 38.136 157.589 37.5173 157.589 36.792C157.589 35.9387 157.887 35.2347 158.485 34.68C159.103 34.104 159.903 33.816 160.885 33.816C161.759 33.816 162.463 34.0613 162.997 34.552C163.551 35.0213 163.829 35.608 163.829 36.312C163.829 37.2293 163.519 37.976 162.901 38.552C162.303 39.1067 161.503 39.384 160.501 39.384ZM167.35 59.256C166.113 59.256 165.057 59.0107 164.182 58.52C163.308 58.008 162.678 57.2827 162.294 56.344C161.932 55.384 161.878 54.2533 162.134 52.952L165.11 37.976H170.102L167.126 52.92C166.998 53.6453 167.073 54.2213 167.35 54.648C167.628 55.0747 168.14 55.288 168.886 55.288C169.228 55.288 169.569 55.2347 169.91 55.128C170.273 55.0213 170.604 54.872 170.902 54.68L171.638 58.232C171.02 58.616 170.337 58.8827 169.59 59.032C168.844 59.1813 168.097 59.256 167.35 59.256ZM160.854 46.008L161.622 42.168H173.558L172.79 46.008H160.854ZM171.249 59L174.673 41.784H179.633L176.209 59H171.249ZM178.001 39.384C177.126 39.384 176.422 39.1387 175.889 38.648C175.355 38.136 175.089 37.5173 175.089 36.792C175.089 35.9387 175.387 35.2347 175.985 34.68C176.603 34.104 177.403 33.816 178.385 33.816C179.259 33.816 179.963 34.0613 180.497 34.552C181.051 35.0213 181.329 35.608 181.329 36.312C181.329 37.2293 181.019 37.976 180.401 38.552C179.803 39.1067 179.003 39.384 178.001 39.384ZM182.514 59L178.706 41.784H183.634L186.802 56.6H184.242L193.362 41.784H198.354L187.666 59H182.514ZM202.651 59.256C200.859 59.256 199.301 58.936 197.979 58.296C196.677 57.656 195.664 56.76 194.939 55.608C194.213 54.456 193.851 53.1013 193.851 51.544C193.851 49.624 194.277 47.9173 195.131 46.424C196.005 44.9093 197.2 43.7147 198.715 42.84C200.251 41.9653 202.011 41.528 203.995 41.528C205.68 41.528 207.131 41.848 208.347 42.488C209.563 43.1067 210.501 43.9813 211.163 45.112C211.845 46.2213 212.187 47.5547 212.187 49.112C212.187 49.56 212.155 50.008 212.091 50.456C212.048 50.904 211.984 51.3307 211.899 51.736H197.659L198.171 48.824H209.563L207.515 49.72C207.685 48.76 207.632 47.96 207.355 47.32C207.077 46.6587 206.629 46.1573 206.011 45.816C205.392 45.4533 204.645 45.272 203.771 45.272C202.683 45.272 201.755 45.5387 200.987 46.072C200.24 46.584 199.675 47.2987 199.291 48.216C198.907 49.1333 198.715 50.168 198.715 51.32C198.715 52.6427 199.077 53.6347 199.803 54.296C200.549 54.936 201.669 55.256 203.163 55.256C204.037 55.256 204.88 55.1173 205.691 54.84C206.501 54.5627 207.195 54.168 207.771 53.656L209.851 56.952C208.848 57.7413 207.717 58.328 206.459 58.712C205.221 59.0747 203.952 59.256 202.651 59.256ZM223.663 59.256C222.426 59.256 221.37 59.0107 220.495 58.52C219.62 58.008 218.991 57.2827 218.607 56.344C218.244 55.384 218.191 54.2533 218.447 52.952L221.423 37.976H226.415L223.439 52.92C223.311 53.6453 223.386 54.2213 223.663 54.648C223.94 55.0747 224.452 55.288 225.199 55.288C225.54 55.288 225.882 55.2347 226.223 55.128C226.586 55.0213 226.916 54.872 227.215 54.68L227.951 58.232C227.332 58.616 226.65 58.8827 225.903 59.032C225.156 59.1813 224.41 59.256 223.663 59.256ZM217.167 46.008L217.935 42.168H229.871L229.103 46.008H217.167ZM234.806 59.256C233.483 59.256 232.257 58.9573 231.126 58.36C229.995 57.7413 229.089 56.856 228.406 55.704C227.723 54.552 227.382 53.1653 227.382 51.544C227.382 50.0933 227.617 48.76 228.086 47.544C228.577 46.328 229.259 45.272 230.134 44.376C231.009 43.48 232.022 42.7867 233.174 42.296C234.326 41.784 235.563 41.528 236.886 41.528C238.315 41.528 239.542 41.7947 240.566 42.328C241.59 42.8613 242.347 43.6933 242.838 44.824C243.35 45.9333 243.531 47.3733 243.382 49.144C243.275 51.1707 242.859 52.952 242.134 54.488C241.409 56.0027 240.427 57.176 239.19 58.008C237.974 58.84 236.513 59.256 234.806 59.256ZM236.342 55.128C237.323 55.128 238.187 54.8933 238.934 54.424C239.702 53.9333 240.299 53.272 240.726 52.44C241.174 51.5867 241.398 50.5947 241.398 49.464C241.398 48.2907 241.046 47.3627 240.342 46.68C239.659 45.9973 238.699 45.656 237.462 45.656C236.502 45.656 235.638 45.9013 234.87 46.392C234.102 46.8613 233.494 47.5227 233.046 48.376C232.619 49.208 232.406 50.1893 232.406 51.32C232.406 52.4933 232.747 53.4213 233.43 54.104C234.134 54.7867 235.105 55.128 236.342 55.128ZM239.766 59L240.438 55.576L241.558 50.456L242.23 45.336L242.934 41.784H247.926L244.502 59H239.766ZM252.396 59.256C250.881 59.256 249.452 59.0853 248.108 58.744C246.785 58.4027 245.761 57.976 245.036 57.464L246.956 53.848C247.702 54.3387 248.609 54.7333 249.676 55.032C250.764 55.3307 251.852 55.48 252.94 55.48C254.113 55.48 254.966 55.3307 255.5 55.032C256.033 54.7333 256.3 54.328 256.3 53.816C256.3 53.4107 256.076 53.112 255.628 52.92C255.18 52.7067 254.614 52.536 253.932 52.408C253.249 52.28 252.513 52.1307 251.724 51.96C250.956 51.7893 250.22 51.5547 249.516 51.256C248.833 50.936 248.268 50.488 247.82 49.912C247.393 49.3147 247.18 48.536 247.18 47.576C247.18 46.2747 247.542 45.176 248.268 44.28C249.014 43.384 250.038 42.7013 251.34 42.232C252.662 41.7627 254.156 41.528 255.82 41.528C257.014 41.528 258.177 41.656 259.308 41.912C260.438 42.168 261.398 42.52 262.188 42.968L260.396 46.616C259.585 46.104 258.732 45.7627 257.836 45.592C256.961 45.4 256.118 45.304 255.308 45.304C254.134 45.304 253.281 45.4747 252.748 45.816C252.236 46.136 251.98 46.5307 251.98 47C251.98 47.4053 252.193 47.7253 252.62 47.96C253.068 48.1733 253.633 48.3547 254.316 48.504C254.998 48.632 255.734 48.7813 256.524 48.952C257.313 49.1013 258.049 49.336 258.732 49.656C259.414 49.9547 259.969 50.392 260.396 50.968C260.844 51.5227 261.068 52.28 261.068 53.24C261.068 54.5413 260.684 55.6507 259.916 56.568C259.169 57.464 258.145 58.136 256.844 58.584C255.542 59.032 254.06 59.256 252.396 59.256ZM265.116 55.544L266.204 49.368L275.452 41.784H281.948L272.316 49.816L269.532 51.864L265.116 55.544ZM260.124 59L264.86 35.256H269.852L265.116 59H260.124ZM273.084 59L268.668 51.768L272.156 47.96L278.876 59H273.084ZM283.458 59.256C281.943 59.256 280.514 59.0853 279.17 58.744C277.847 58.4027 276.823 57.976 276.098 57.464L278.018 53.848C278.765 54.3387 279.671 54.7333 280.738 55.032C281.826 55.3307 282.914 55.48 284.002 55.48C285.175 55.48 286.029 55.3307 286.562 55.032C287.095 54.7333 287.362 54.328 287.362 53.816C287.362 53.4107 287.138 53.112 286.69 52.92C286.242 52.7067 285.677 52.536 284.994 52.408C284.311 52.28 283.575 52.1307 282.786 51.96C282.018 51.7893 281.282 51.5547 280.578 51.256C279.895 50.936 279.33 50.488 278.882 49.912C278.455 49.3147 278.242 48.536 278.242 47.576C278.242 46.2747 278.605 45.176 279.33 44.28C280.077 43.384 281.101 42.7013 282.402 42.232C283.725 41.7627 285.218 41.528 286.882 41.528C288.077 41.528 289.239 41.656 290.37 41.912C291.501 42.168 292.461 42.52 293.25 42.968L291.458 46.616C290.647 46.104 289.794 45.7627 288.898 45.592C288.023 45.4 287.181 45.304 286.37 45.304C285.197 45.304 284.343 45.4747 283.81 45.816C283.298 46.136 283.042 46.5307 283.042 47C283.042 47.4053 283.255 47.7253 283.682 47.96C284.13 48.1733 284.695 48.3547 285.378 48.504C286.061 48.632 286.797 48.7813 287.586 48.952C288.375 49.1013 289.111 49.336 289.794 49.656C290.477 49.9547 291.031 50.392 291.458 50.968C291.906 51.5227 292.13 52.28 292.13 53.24C292.13 54.5413 291.746 55.6507 290.978 56.568C290.231 57.464 289.207 58.136 287.906 58.584C286.605 59.032 285.122 59.256 283.458 59.256ZM293.458 59.256C292.605 59.256 291.901 58.9893 291.346 58.456C290.791 57.9013 290.514 57.208 290.514 56.376C290.514 55.3733 290.834 54.5733 291.474 53.976C292.135 53.3573 292.925 53.048 293.842 53.048C294.695 53.048 295.389 53.3147 295.922 53.848C296.477 54.3813 296.754 55.0747 296.754 55.928C296.754 56.5893 296.594 57.176 296.274 57.688C295.975 58.1787 295.581 58.5627 295.09 58.84C294.599 59.1173 294.055 59.256 293.458 59.256Z"
            fill="#1D1D1D" />
    </g>
</svg>