<svg width="163" height="393" viewBox="0 0 163 393" fill="none" xmlns="http://www.w3.org/2000/svg">
<path d="M107.176 175.455C107.176 175.455 115.569 176.419 122.064 176.029C130.19 175.542 140.208 175.338 142.066 177.503C143.925 179.668 143.925 179.668 140.317 181.572C137.504 183.056 126.668 187.834 119.346 185.571C112.024 183.307 102.679 183.765 102.679 183.765L107.176 175.455Z" fill="#FFB27D"/>
<path d="M17.5724 95.5075C17.5724 95.5075 33.2098 172.959 51.8237 178.872C61.0077 181.79 101.155 187.253 112.94 187.34C112.94 187.34 115.677 184.837 114.411 175.383C114.411 175.383 71.9282 162.594 65.5282 154.645C56.0029 142.814 67.9818 103.852 56.2611 92.906C44.5405 81.9596 25.6662 78.0787 17.5724 95.5075Z" fill="#7AA9E2"/>
<path d="M20.0345 238.759C23.2459 244.206 26.9604 249.311 30.7885 254.145C42.6207 269.082 55.5005 281.398 57.7441 293.039C58.1901 295.36 58.8986 297.858 59.8239 300.49C60.761 303.157 61.9192 305.961 63.2562 308.86C68.2771 319.766 75.7855 331.987 83.2823 343.096C96.2421 362.299 108.428 378.323 108.428 378.323L130.777 377.371C129.882 375.131 120.135 348.616 107.095 316.212C101.8 303.059 96.1695 289.066 90.7373 275.573C90.0132 273.771 89.2897 271.977 88.5735 270.198C86.9123 266.068 85.2786 262.004 83.6822 258.046C71.4388 227.62 61.6863 203.392 61.6863 203.392C61.6863 203.392 12.7503 184.854 7.66816 196.866C3.47861 206.77 6.89228 216.473 20.0345 238.759Z" fill="#163560"/>
<path d="M109.128 374.259C109.128 374.259 110.271 392.701 113.839 392.965C114.314 393 131.935 393 131.935 393L154.431 392.87C154.431 392.87 154.283 387.45 147.708 386.304C141.132 385.158 130.127 380.537 126.143 371.846C121.953 362.704 109.128 374.259 109.128 374.259Z" fill="#163560"/>
<path d="M57.3779 321.574C57.3779 321.574 41.8327 331.563 43.3415 334.807C43.5422 335.239 52.1324 350.625 52.1324 350.625L63.2125 370.202C63.2125 370.202 67.8735 367.431 65.6683 361.132C63.4636 354.832 62.1333 342.97 67.7791 335.255C73.7196 327.139 57.3779 321.574 57.3779 321.574Z" fill="#163560"/>
<path d="M79.2672 195.142C79.2672 195.142 145.505 242.72 152.738 257.67C158.387 269.345 68.3794 343.548 68.3794 343.548C68.3794 343.548 55.2688 330.561 53.5547 324.276C53.5547 324.276 84.5604 279.718 109.128 265.254C116.443 260.947 21.4288 250.431 11.1437 234.432C0.858572 218.433 6.52677 197.247 6.52677 197.247L79.2672 195.142Z" fill="#1C468A"/>
<path d="M50.0069 60.5009C56.0397 64.2377 59.3642 68.9811 59.3642 68.9811C44.6489 72.7879 20.2543 59.1514 20.2543 59.1514C20.2543 59.1514 29.7261 52.7872 33.2347 38.8032C33.4126 38.0978 33.5739 37.3738 33.7171 36.6332C34.1771 34.2781 34.4623 31.7285 34.5137 28.9766L41.2736 35.0316L52.514 45.102C52.514 45.102 52.2594 49.2812 50.8528 56.4685C50.6091 57.722 50.3285 59.0679 50.0069 60.5009Z" fill="#FFB27D"/>
<path d="M80.2672 192.549C80.2345 192.699 80.1894 192.848 80.1375 193.004C78.7206 196.983 57.2998 210.485 42.8356 215.848C33.8056 219.196 2.47834 226.679 0.417797 220.236C-1.97468 212.767 6.78197 158.329 4.66905 129.979C2.18581 95.3229 11.7811 63.7805 25.121 53.4835C26.1287 52.7424 28.1244 54.7121 33.9036 57.4552C39.2409 59.9846 45.1368 60.706 50.1297 59.6138L54.6024 63.4558C60.7913 69.014 67.5844 76.6064 70.6662 88.2431C72.5514 95.3816 73.9751 106.68 75.0346 119.375C75.4376 124.297 75.7955 129.433 76.101 134.614C76.5755 142.87 76.9914 151.198 77.1932 159.115C77.1999 159.265 77.2062 159.414 77.2062 159.57L77.2129 159.856C77.2975 160.656 77.3104 161.527 77.3172 162.327C77.3431 163.126 77.3623 163.926 77.382 164.713C77.5246 170.908 77.5184 176.661 77.7331 181.635C77.8436 184.131 78.3441 185.918 78.8772 187.342C79.4233 188.792 80.0016 189.859 80.2423 190.879C80.3647 191.424 80.3973 191.97 80.2672 192.549Z" fill="#B0D4FF"/>
<path d="M52.5143 45.1031C52.5143 45.1031 52.2596 49.2823 50.8531 56.4696C39.8772 52.9226 34.8977 43.0089 33.235 38.8038C32.762 37.6156 32.5571 36.8812 32.5571 36.8812C32.5571 36.8812 32.9829 36.7894 33.7173 36.6338C35.2603 36.306 38.1656 35.6899 41.2738 35.0322L52.5143 45.1031Z" fill="#ED975D"/>
<path d="M55.8651 48.6448C55.8651 48.6448 31.6059 48.0287 32.2226 32.9265C32.8392 17.8248 30.1231 7.57497 45.6381 7.32965C61.1537 7.08486 63.9253 12.9704 64.946 18.0613C65.9656 23.1522 62.1915 48.4166 55.8651 48.6448Z" fill="#FFB27D"/>
<path d="M142.697 178.623L144.808 179.309L162.766 124.035L160.655 123.349L142.697 178.623Z" fill="#1C468A"/>
<path d="M83.8601 177.992L144.833 179.297L144.912 175.65L83.9382 174.345L83.8601 177.992Z" fill="#1C468A"/>
<path d="M29.2036 4.85567C29.0506 4.60206 28.6409 4.34639 27.6674 4.11871C27.6674 4.11871 28.5397 3.76654 29.5951 3.92732C30.0432 2.59702 31.1993 0.306697 33.6561 0.135546C33.6561 0.135546 32.2723 0.585205 31.8497 2.00886C35.0704 -0.306333 41.2702 -1.30731 57.21 2.83557C78.2174 8.29578 68.7766 20.6923 65.7296 21.8291C62.6826 22.966 56.5306 17.2765 51.3188 16.7729C46.1075 16.2693 43.8131 23.5219 41.8889 24.2319C39.9648 24.942 40.9699 23.2616 38.7999 21.7773C36.6305 20.2924 35.713 24.1614 35.9433 26.8236C36.1735 29.4857 32.3382 32.2631 32.3382 32.2631C32.3382 32.2631 32.3382 32.2631 29.689 28.1549C27.0393 24.0468 26.6021 8.55876 28.6559 5.63831C28.8379 5.38003 29.0184 5.1181 29.2036 4.85567Z" fill="#2C3A64"/>
<path d="M78.8764 187.341C72.9867 186.386 58.4379 183.473 47.8738 176.862C28.8066 164.926 17.5724 104.358 17.5724 104.358L47.4381 142.603L77.3422 164.491L77.3811 164.712C77.5238 170.907 77.5175 176.661 77.7323 181.634C77.8427 184.13 78.3437 185.918 78.8764 187.341Z" fill="#91B8EF"/>
<path d="M107.263 159.264C107.263 159.264 109.38 159.969 111.851 159.264C114.322 158.558 122.793 156.44 124.205 157.146C125.617 157.851 130.029 161.381 131.088 162.087C132.147 162.793 133.735 165.793 133.735 165.793C132.758 166.504 130.124 164.083 128.799 163.907C127.476 163.731 116.88 167.469 113.968 167.116C111.056 166.763 106.644 165.44 106.644 165.44L107.263 159.264Z" fill="#FFB27D"/>
<path d="M124.836 162.546C124.836 162.708 127.731 167.219 130.626 166.406L128.147 163.013L124.836 162.546Z" fill="#FFB27D"/>
<path d="M111.851 159.262C111.851 159.262 115.495 156.842 116.774 155.602C116.774 155.602 117.36 155.993 117.299 156.531C117.197 157.432 116.06 158.929 116.06 158.929L111.851 159.262Z" fill="#FFB27D"/>
<path d="M47.9104 74.1767C32.2138 60.7476 8.65472 75.9473 14.3042 95.8174C20.8546 118.857 33.5006 156.862 46.5069 160.554C55.7776 163.185 96.0752 167.4 107.857 167.121C107.857 167.121 110.041 167.955 108.483 158.545C108.483 158.545 64.2967 144.896 59.4532 135.913C56.8574 131.1 60.3286 85.0686 48.2745 74.4915C48.1536 74.3857 48.0322 74.2809 47.9104 74.1767Z" fill="#B0D4FF"/>
</svg>
