<svg width="330" height="58" viewBox="0 0 330 58" fill="none" xmlns="http://www.w3.org/2000/svg">
<path d="M76.0058 23.192C74.7258 23.192 73.5018 23 72.3338 22.616C71.1658 22.216 70.2458 21.704 69.5738 21.08L70.4618 19.208C71.1018 19.768 71.9178 20.232 72.9098 20.6C73.9018 20.968 74.9338 21.152 76.0058 21.152C76.9818 21.152 77.7738 21.04 78.3818 20.816C78.9898 20.592 79.4378 20.288 79.7258 19.904C80.0138 19.504 80.1578 19.056 80.1578 18.56C80.1578 17.984 79.9658 17.52 79.5818 17.168C79.2138 16.816 78.7258 16.536 78.1178 16.328C77.5258 16.104 76.8698 15.912 76.1498 15.752C75.4298 15.592 74.7018 15.408 73.9658 15.2C73.2458 14.976 72.5818 14.696 71.9738 14.36C71.3818 14.024 70.9018 13.576 70.5338 13.016C70.1658 12.44 69.9818 11.704 69.9818 10.808C69.9818 9.944 70.2058 9.152 70.6538 8.432C71.1178 7.696 71.8218 7.112 72.7658 6.68C73.7258 6.232 74.9418 6.008 76.4138 6.008C77.3898 6.008 78.3578 6.136 79.3178 6.392C80.2778 6.648 81.1098 7.016 81.8138 7.496L81.0218 9.416C80.3018 8.936 79.5418 8.592 78.7418 8.384C77.9418 8.16 77.1658 8.048 76.4138 8.048C75.4698 8.048 74.6938 8.168 74.0858 8.408C73.4778 8.648 73.0298 8.968 72.7418 9.368C72.4698 9.768 72.3338 10.216 72.3338 10.712C72.3338 11.304 72.5178 11.776 72.8858 12.128C73.2698 12.48 73.7578 12.76 74.3498 12.968C74.9578 13.176 75.6218 13.368 76.3418 13.544C77.0618 13.704 77.7818 13.888 78.5018 14.096C79.2378 14.304 79.9018 14.576 80.4938 14.912C81.1018 15.248 81.5898 15.696 81.9578 16.256C82.3258 16.816 82.5098 17.536 82.5098 18.416C82.5098 19.264 82.2778 20.056 81.8138 20.792C81.3498 21.512 80.6298 22.096 79.6538 22.544C78.6938 22.976 77.4778 23.192 76.0058 23.192ZM90.0481 23.144C88.7681 23.144 87.7761 22.8 87.0721 22.112C86.3681 21.424 86.0161 20.44 86.0161 19.16V7.496H88.3201V19.064C88.3201 19.752 88.4881 20.28 88.8241 20.648C89.1761 21.016 89.6721 21.2 90.3121 21.2C91.0321 21.2 91.6321 21 92.1121 20.6L92.8321 22.256C92.4801 22.56 92.0561 22.784 91.5601 22.928C91.0801 23.072 90.5761 23.144 90.0481 23.144ZM83.8561 12.176V10.28H91.9681V12.176H83.8561ZM103.514 23V20.312L103.394 19.808V15.224C103.394 14.248 103.106 13.496 102.53 12.968C101.97 12.424 101.122 12.152 99.9856 12.152C99.2336 12.152 98.4976 12.28 97.7776 12.536C97.0576 12.776 96.4496 13.104 95.9536 13.52L94.9936 11.792C95.6496 11.264 96.4336 10.864 97.3456 10.592C98.2736 10.304 99.2416 10.16 100.25 10.16C101.994 10.16 103.338 10.584 104.282 11.432C105.226 12.28 105.698 13.576 105.698 15.32V23H103.514ZM99.3376 23.144C98.3936 23.144 97.5616 22.984 96.8416 22.664C96.1376 22.344 95.5936 21.904 95.2096 21.344C94.8256 20.768 94.6336 20.12 94.6336 19.4C94.6336 18.712 94.7936 18.088 95.1136 17.528C95.4496 16.968 95.9856 16.52 96.7216 16.184C97.4736 15.848 98.4816 15.68 99.7456 15.68H103.778V17.336H99.8416C98.6896 17.336 97.9136 17.528 97.5136 17.912C97.1136 18.296 96.9136 18.76 96.9136 19.304C96.9136 19.928 97.1616 20.432 97.6576 20.816C98.1536 21.184 98.8416 21.368 99.7216 21.368C100.586 21.368 101.338 21.176 101.978 20.792C102.634 20.408 103.106 19.848 103.394 19.112L103.85 20.696C103.546 21.448 103.01 22.048 102.242 22.496C101.474 22.928 100.506 23.144 99.3376 23.144ZM109.961 23V10.28H112.169V13.736L111.953 12.872C112.305 11.992 112.897 11.32 113.729 10.856C114.561 10.392 115.585 10.16 116.801 10.16V12.392C116.705 12.376 116.609 12.368 116.513 12.368C116.433 12.368 116.353 12.368 116.273 12.368C115.041 12.368 114.065 12.736 113.345 13.472C112.625 14.208 112.265 15.272 112.265 16.664V23H109.961ZM124.525 23.144C123.245 23.144 122.253 22.8 121.549 22.112C120.845 21.424 120.493 20.44 120.493 19.16V7.496H122.797V19.064C122.797 19.752 122.965 20.28 123.301 20.648C123.653 21.016 124.149 21.2 124.789 21.2C125.509 21.2 126.109 21 126.589 20.6L127.309 22.256C126.957 22.56 126.533 22.784 126.037 22.928C125.557 23.072 125.053 23.144 124.525 23.144ZM118.333 12.176V10.28H126.445V12.176H118.333ZM142.203 23.144C140.843 23.144 139.643 22.864 138.603 22.304C137.579 21.744 136.779 20.976 136.203 20C135.643 19.024 135.363 17.904 135.363 16.64C135.363 15.376 135.635 14.256 136.179 13.28C136.739 12.304 137.499 11.544 138.459 11C139.435 10.44 140.531 10.16 141.747 10.16C142.979 10.16 144.067 10.432 145.011 10.976C145.955 11.52 146.691 12.288 147.219 13.28C147.763 14.256 148.035 15.4 148.035 16.712C148.035 16.808 148.027 16.92 148.011 17.048C148.011 17.176 148.003 17.296 147.987 17.408H137.163V15.752H146.787L145.851 16.328C145.867 15.512 145.699 14.784 145.347 14.144C144.995 13.504 144.507 13.008 143.883 12.656C143.275 12.288 142.563 12.104 141.747 12.104C140.947 12.104 140.235 12.288 139.611 12.656C138.987 13.008 138.499 13.512 138.147 14.168C137.795 14.808 137.619 15.544 137.619 16.376V16.76C137.619 17.608 137.811 18.368 138.195 19.04C138.595 19.696 139.147 20.208 139.851 20.576C140.555 20.944 141.363 21.128 142.275 21.128C143.027 21.128 143.707 21 144.315 20.744C144.939 20.488 145.483 20.104 145.947 19.592L147.219 21.08C146.643 21.752 145.923 22.264 145.059 22.616C144.211 22.968 143.259 23.144 142.203 23.144ZM149.035 23L154.507 15.896L154.483 17.072L149.275 10.28H151.843L155.827 15.512H154.843L158.827 10.28H161.347L156.067 17.12L156.091 15.896L161.611 23H158.995L154.795 17.432L155.731 17.576L151.603 23H149.035ZM170.869 23.144C169.813 23.144 168.845 22.904 167.965 22.424C167.101 21.928 166.405 21.2 165.877 20.24C165.365 19.28 165.109 18.08 165.109 16.64C165.109 15.2 165.357 14 165.853 13.04C166.365 12.08 167.053 11.36 167.917 10.88C168.797 10.4 169.781 10.16 170.869 10.16C172.117 10.16 173.221 10.432 174.181 10.976C175.141 11.52 175.901 12.28 176.461 13.256C177.021 14.216 177.301 15.344 177.301 16.64C177.301 17.936 177.021 19.072 176.461 20.048C175.901 21.024 175.141 21.784 174.181 22.328C173.221 22.872 172.117 23.144 170.869 23.144ZM164.125 27.656V10.28H166.333V13.712L166.189 16.664L166.429 19.616V27.656H164.125ZM170.677 21.128C171.493 21.128 172.221 20.944 172.861 20.576C173.517 20.208 174.029 19.688 174.397 19.016C174.781 18.328 174.973 17.536 174.973 16.64C174.973 15.728 174.781 14.944 174.397 14.288C174.029 13.616 173.517 13.096 172.861 12.728C172.221 12.36 171.493 12.176 170.677 12.176C169.877 12.176 169.149 12.36 168.493 12.728C167.853 13.096 167.341 13.616 166.957 14.288C166.589 14.944 166.405 15.728 166.405 16.64C166.405 17.536 166.589 18.328 166.957 19.016C167.341 19.688 167.853 20.208 168.493 20.576C169.149 20.944 169.877 21.128 170.677 21.128ZM180.485 23V5.192H182.789V23H180.485ZM192.636 23.144C191.356 23.144 190.22 22.864 189.228 22.304C188.236 21.744 187.452 20.976 186.876 20C186.3 19.008 186.012 17.888 186.012 16.64C186.012 15.376 186.3 14.256 186.876 13.28C187.452 12.304 188.236 11.544 189.228 11C190.22 10.44 191.356 10.16 192.636 10.16C193.9 10.16 195.028 10.44 196.02 11C197.028 11.544 197.812 12.304 198.372 13.28C198.948 14.24 199.236 15.36 199.236 16.64C199.236 17.904 198.948 19.024 198.372 20C197.812 20.976 197.028 21.744 196.02 22.304C195.028 22.864 193.9 23.144 192.636 23.144ZM192.636 21.128C193.452 21.128 194.18 20.944 194.82 20.576C195.476 20.208 195.988 19.688 196.356 19.016C196.724 18.328 196.908 17.536 196.908 16.64C196.908 15.728 196.724 14.944 196.356 14.288C195.988 13.616 195.476 13.096 194.82 12.728C194.18 12.36 193.452 12.176 192.636 12.176C191.82 12.176 191.092 12.36 190.452 12.728C189.812 13.096 189.3 13.616 188.916 14.288C188.532 14.944 188.34 15.728 188.34 16.64C188.34 17.536 188.532 18.328 188.916 19.016C189.3 19.688 189.812 20.208 190.452 20.576C191.092 20.944 191.82 21.128 192.636 21.128ZM202.422 23V10.28H204.63V13.736L204.414 12.872C204.766 11.992 205.358 11.32 206.19 10.856C207.022 10.392 208.046 10.16 209.262 10.16V12.392C209.166 12.376 209.07 12.368 208.974 12.368C208.894 12.368 208.814 12.368 208.734 12.368C207.502 12.368 206.526 12.736 205.806 13.472C205.086 14.208 204.726 15.272 204.726 16.664V23H202.422ZM212.102 23V10.28H214.406V23H212.102ZM213.254 7.832C212.806 7.832 212.43 7.688 212.126 7.4C211.838 7.112 211.694 6.76 211.694 6.344C211.694 5.912 211.838 5.552 212.126 5.264C212.43 4.976 212.806 4.832 213.254 4.832C213.702 4.832 214.07 4.976 214.358 5.264C214.662 5.536 214.814 5.88 214.814 6.296C214.814 6.728 214.67 7.096 214.382 7.4C214.094 7.688 213.718 7.832 213.254 7.832ZM225.597 10.16C226.637 10.16 227.549 10.36 228.333 10.76C229.133 11.16 229.757 11.768 230.205 12.584C230.653 13.4 230.877 14.432 230.877 15.68V23H228.573V15.944C228.573 14.712 228.269 13.784 227.661 13.16C227.069 12.536 226.229 12.224 225.141 12.224C224.325 12.224 223.613 12.384 223.005 12.704C222.397 13.024 221.925 13.496 221.589 14.12C221.269 14.744 221.109 15.52 221.109 16.448V23H218.805V10.28H221.013V13.712L220.653 12.8C221.069 11.968 221.709 11.32 222.573 10.856C223.437 10.392 224.445 10.16 225.597 10.16ZM240.709 27.8C239.541 27.8 238.405 27.632 237.301 27.296C236.213 26.976 235.325 26.512 234.637 25.904L235.741 24.128C236.333 24.64 237.061 25.04 237.925 25.328C238.789 25.632 239.693 25.784 240.637 25.784C242.141 25.784 243.245 25.432 243.949 24.728C244.653 24.024 245.005 22.952 245.005 21.512V18.824L245.245 16.304L245.125 13.76V10.28H247.309V21.272C247.309 23.512 246.749 25.16 245.629 26.216C244.509 27.272 242.869 27.8 240.709 27.8ZM240.421 22.472C239.189 22.472 238.085 22.216 237.109 21.704C236.149 21.176 235.381 20.448 234.805 19.52C234.245 18.592 233.965 17.52 233.965 16.304C233.965 15.072 234.245 14 234.805 13.088C235.381 12.16 236.149 11.44 237.109 10.928C238.085 10.416 239.189 10.16 240.421 10.16C241.509 10.16 242.501 10.384 243.397 10.832C244.293 11.264 245.005 11.936 245.533 12.848C246.077 13.76 246.349 14.912 246.349 16.304C246.349 17.68 246.077 18.824 245.533 19.736C245.005 20.648 244.293 21.336 243.397 21.8C242.501 22.248 241.509 22.472 240.421 22.472ZM240.685 20.456C241.533 20.456 242.285 20.28 242.941 19.928C243.597 19.576 244.109 19.088 244.477 18.464C244.861 17.84 245.053 17.12 245.053 16.304C245.053 15.488 244.861 14.768 244.477 14.144C244.109 13.52 243.597 13.04 242.941 12.704C242.285 12.352 241.533 12.176 240.685 12.176C239.837 12.176 239.077 12.352 238.405 12.704C237.749 13.04 237.229 13.52 236.845 14.144C236.477 14.768 236.293 15.488 236.293 16.304C236.293 17.12 236.477 17.84 236.845 18.464C237.229 19.088 237.749 19.576 238.405 19.928C239.077 20.28 239.837 20.456 240.685 20.456ZM252.263 23.144C251.815 23.144 251.431 22.992 251.111 22.688C250.791 22.368 250.631 21.968 250.631 21.488C250.631 21.008 250.791 20.616 251.111 20.312C251.431 20.008 251.815 19.856 252.263 19.856C252.695 19.856 253.063 20.008 253.367 20.312C253.687 20.616 253.847 21.008 253.847 21.488C253.847 21.968 253.687 22.368 253.367 22.688C253.063 22.992 252.695 23.144 252.263 23.144Z" fill="white" fill-opacity="0.5"/>
<path d="M6.66038 52L9.37238 38.368H3.99638L4.64438 35.2H19.2844L18.6364 38.368H13.2844L10.5484 52H6.66038ZM27.8563 38.896C28.9443 38.896 29.8723 39.128 30.6403 39.592C31.4083 40.04 31.9523 40.704 32.2723 41.584C32.6083 42.464 32.6483 43.552 32.3923 44.848L30.9523 52H27.2083L28.6003 45.088C28.7923 44.144 28.7123 43.416 28.3603 42.904C28.0243 42.392 27.4003 42.136 26.4883 42.136C25.5443 42.136 24.7523 42.408 24.1123 42.952C23.4883 43.496 23.0563 44.328 22.8163 45.448L21.5203 52H17.7763L21.3283 34.192H25.0723L23.3683 42.736L22.6243 41.632C23.2483 40.688 24.0163 40 24.9283 39.568C25.8563 39.12 26.8323 38.896 27.8563 38.896ZM41.2809 52.192C39.9369 52.192 38.7689 51.952 37.7769 51.472C36.8009 50.992 36.0409 50.32 35.4969 49.456C34.9529 48.592 34.6809 47.576 34.6809 46.408C34.6809 44.968 35.0009 43.688 35.6409 42.568C36.2969 41.432 37.1929 40.536 38.3289 39.88C39.4809 39.224 40.8009 38.896 42.2889 38.896C43.5529 38.896 44.6409 39.136 45.5529 39.616C46.4649 40.08 47.1689 40.736 47.6649 41.584C48.1769 42.416 48.4329 43.416 48.4329 44.584C48.4329 44.92 48.4089 45.256 48.3609 45.592C48.3289 45.928 48.2809 46.248 48.2169 46.552H37.5369L37.9209 44.368H46.4649L44.9289 45.04C45.0569 44.32 45.0169 43.72 44.8089 43.24C44.6009 42.744 44.2649 42.368 43.8009 42.112C43.3369 41.84 42.7769 41.704 42.1209 41.704C41.3049 41.704 40.6089 41.904 40.0329 42.304C39.4729 42.688 39.0489 43.224 38.7609 43.912C38.4729 44.6 38.3289 45.376 38.3289 46.24C38.3289 47.232 38.6009 47.976 39.1449 48.472C39.7049 48.952 40.5449 49.192 41.6649 49.192C42.3209 49.192 42.9529 49.088 43.5609 48.88C44.1689 48.672 44.6889 48.376 45.1209 47.992L46.6809 50.464C45.9289 51.056 45.0809 51.496 44.1369 51.784C43.2089 52.056 42.2569 52.192 41.2809 52.192ZM56.7161 52L59.4041 38.632C59.6921 37.224 60.3001 36.104 61.2281 35.272C62.1721 34.424 63.4361 34 65.0201 34C65.6121 34 66.1641 34.064 66.6761 34.192C67.1881 34.304 67.6281 34.48 67.9961 34.72L66.5321 37.408C66.1001 37.104 65.6041 36.952 65.0441 36.952C64.4681 36.952 64.0201 37.112 63.7001 37.432C63.3801 37.736 63.1481 38.224 63.0041 38.896L62.7401 40.096L62.5481 41.608L60.4841 52H56.7161ZM56.6681 42.256L57.2441 39.376H66.1961L65.6201 42.256H56.6681ZM71.0854 52.192C70.0294 52.192 69.1174 51.968 68.3494 51.52C67.5814 51.056 67.0374 50.384 66.7174 49.504C66.3974 48.624 66.3654 47.536 66.6214 46.24L68.0374 39.088H71.7814L70.4134 46C70.2214 46.944 70.2934 47.672 70.6294 48.184C70.9814 48.696 71.5974 48.952 72.4774 48.952C73.4054 48.952 74.1814 48.68 74.8054 48.136C75.4454 47.592 75.8694 46.76 76.0774 45.64L77.3974 39.088H81.1414L78.5734 52H75.0214L75.7414 48.352L76.2694 49.456C75.6614 50.4 74.9014 51.096 73.9894 51.544C73.0774 51.976 72.1094 52.192 71.0854 52.192ZM87.2979 52.192C86.3699 52.192 85.5779 52.008 84.9219 51.64C84.2659 51.256 83.7939 50.712 83.5059 50.008C83.2339 49.288 83.1939 48.44 83.3859 47.464L85.6179 36.232H89.3619L87.1299 47.44C87.0339 47.984 87.0899 48.416 87.2979 48.736C87.5059 49.056 87.8899 49.216 88.4499 49.216C88.7059 49.216 88.9619 49.176 89.2179 49.096C89.4899 49.016 89.7379 48.904 89.9619 48.76L90.5139 51.424C90.0499 51.712 89.5379 51.912 88.9779 52.024C88.4179 52.136 87.8579 52.192 87.2979 52.192ZM82.4259 42.256L83.0019 39.376H91.9539L91.3779 42.256H82.4259ZM97.9916 52.192C96.9356 52.192 96.0236 51.968 95.2556 51.52C94.4876 51.056 93.9436 50.384 93.6236 49.504C93.3036 48.624 93.2716 47.536 93.5276 46.24L94.9436 39.088H98.6876L97.3196 46C97.1276 46.944 97.1996 47.672 97.5356 48.184C97.8876 48.696 98.5036 48.952 99.3836 48.952C100.312 48.952 101.088 48.68 101.712 48.136C102.352 47.592 102.776 46.76 102.984 45.64L104.304 39.088H108.048L105.48 52H101.928L102.648 48.352L103.176 49.456C102.568 50.4 101.808 51.096 100.896 51.544C99.9836 51.976 99.0156 52.192 97.9916 52.192ZM108.948 52L111.516 39.088H115.068L114.324 42.76L113.988 41.704C114.564 40.664 115.316 39.936 116.244 39.52C117.172 39.104 118.284 38.896 119.58 38.896L118.908 42.352C118.748 42.336 118.596 42.328 118.452 42.328C118.324 42.312 118.188 42.304 118.044 42.304C116.94 42.304 116.036 42.576 115.332 43.12C114.644 43.664 114.18 44.544 113.94 45.76L112.692 52H108.948ZM125.961 52.192C124.617 52.192 123.449 51.952 122.457 51.472C121.481 50.992 120.721 50.32 120.177 49.456C119.633 48.592 119.361 47.576 119.361 46.408C119.361 44.968 119.681 43.688 120.321 42.568C120.977 41.432 121.873 40.536 123.009 39.88C124.161 39.224 125.481 38.896 126.969 38.896C128.233 38.896 129.321 39.136 130.233 39.616C131.145 40.08 131.849 40.736 132.345 41.584C132.857 42.416 133.113 43.416 133.113 44.584C133.113 44.92 133.089 45.256 133.041 45.592C133.009 45.928 132.961 46.248 132.897 46.552H122.217L122.601 44.368H131.145L129.609 45.04C129.737 44.32 129.697 43.72 129.489 43.24C129.281 42.744 128.945 42.368 128.481 42.112C128.017 41.84 127.457 41.704 126.801 41.704C125.985 41.704 125.289 41.904 124.713 42.304C124.153 42.688 123.729 43.224 123.441 43.912C123.153 44.6 123.009 45.376 123.009 46.24C123.009 47.232 123.281 47.976 123.825 48.472C124.385 48.952 125.225 49.192 126.345 49.192C127.001 49.192 127.633 49.088 128.241 48.88C128.849 48.672 129.369 48.376 129.801 47.992L131.361 50.464C130.609 51.056 129.761 51.496 128.817 51.784C127.889 52.056 126.937 52.192 125.961 52.192ZM140.964 52L143.532 39.088H147.252L144.684 52H140.964ZM146.028 37.288C145.372 37.288 144.844 37.104 144.444 36.736C144.044 36.352 143.844 35.888 143.844 35.344C143.844 34.704 144.068 34.176 144.516 33.76C144.98 33.328 145.58 33.112 146.316 33.112C146.972 33.112 147.5 33.296 147.9 33.664C148.316 34.016 148.524 34.456 148.524 34.984C148.524 35.672 148.292 36.232 147.828 36.664C147.38 37.08 146.78 37.288 146.028 37.288ZM152.863 52.192C151.727 52.192 150.655 52.064 149.647 51.808C148.655 51.552 147.887 51.232 147.343 50.848L148.783 48.136C149.343 48.504 150.023 48.8 150.823 49.024C151.639 49.248 152.455 49.36 153.271 49.36C154.151 49.36 154.791 49.248 155.191 49.024C155.591 48.8 155.791 48.496 155.791 48.112C155.791 47.808 155.623 47.584 155.287 47.44C154.951 47.28 154.527 47.152 154.015 47.056C153.503 46.96 152.951 46.848 152.359 46.72C151.783 46.592 151.231 46.416 150.703 46.192C150.191 45.952 149.767 45.616 149.431 45.184C149.111 44.736 148.951 44.152 148.951 43.432C148.951 42.456 149.223 41.632 149.767 40.96C150.327 40.288 151.095 39.776 152.071 39.424C153.063 39.072 154.183 38.896 155.431 38.896C156.327 38.896 157.199 38.992 158.047 39.184C158.895 39.376 159.615 39.64 160.207 39.976L158.863 42.712C158.255 42.328 157.615 42.072 156.943 41.944C156.287 41.8 155.655 41.728 155.047 41.728C154.167 41.728 153.527 41.856 153.127 42.112C152.743 42.352 152.551 42.648 152.551 43C152.551 43.304 152.711 43.544 153.031 43.72C153.367 43.88 153.791 44.016 154.303 44.128C154.815 44.224 155.367 44.336 155.959 44.464C156.551 44.576 157.103 44.752 157.615 44.992C158.127 45.216 158.543 45.544 158.863 45.976C159.199 46.392 159.367 46.96 159.367 47.68C159.367 48.656 159.079 49.488 158.503 50.176C157.943 50.848 157.175 51.352 156.199 51.688C155.223 52.024 154.111 52.192 152.863 52.192ZM173.538 52.192C172.546 52.192 171.626 51.968 170.778 51.52C169.93 51.056 169.25 50.392 168.738 49.528C168.226 48.664 167.97 47.624 167.97 46.408C167.97 45.32 168.146 44.32 168.498 43.408C168.866 42.496 169.378 41.704 170.034 41.032C170.69 40.36 171.45 39.84 172.314 39.472C173.178 39.088 174.106 38.896 175.098 38.896C176.17 38.896 177.09 39.096 177.858 39.496C178.626 39.896 179.194 40.52 179.562 41.368C179.946 42.2 180.082 43.28 179.97 44.608C179.89 46.128 179.578 47.464 179.034 48.616C178.49 49.752 177.754 50.632 176.826 51.256C175.914 51.88 174.818 52.192 173.538 52.192ZM174.69 49.096C175.426 49.096 176.074 48.92 176.634 48.568C177.21 48.2 177.658 47.704 177.978 47.08C178.314 46.44 178.482 45.696 178.482 44.848C178.482 43.968 178.218 43.272 177.69 42.76C177.178 42.248 176.458 41.992 175.53 41.992C174.81 41.992 174.162 42.176 173.586 42.544C173.01 42.896 172.554 43.392 172.218 44.032C171.898 44.656 171.738 45.392 171.738 46.24C171.738 47.12 171.994 47.816 172.506 48.328C173.034 48.84 173.762 49.096 174.69 49.096ZM177.258 52L177.762 49.432L178.602 45.592L179.106 41.752L179.634 39.088H183.378L180.81 52H177.258ZM184.276 52L187.828 34.192H191.572L188.02 52H184.276ZM191.495 52L194.063 39.088H197.615L196.871 42.76L196.535 41.704C197.111 40.664 197.863 39.936 198.791 39.52C199.719 39.104 200.831 38.896 202.127 38.896L201.455 42.352C201.295 42.336 201.143 42.328 200.999 42.328C200.871 42.312 200.735 42.304 200.591 42.304C199.487 42.304 198.583 42.576 197.879 43.12C197.191 43.664 196.727 44.544 196.487 45.76L195.239 52H191.495ZM208.508 52.192C207.164 52.192 205.996 51.952 205.004 51.472C204.028 50.992 203.268 50.32 202.724 49.456C202.18 48.592 201.908 47.576 201.908 46.408C201.908 44.968 202.228 43.688 202.868 42.568C203.524 41.432 204.42 40.536 205.556 39.88C206.708 39.224 208.028 38.896 209.516 38.896C210.78 38.896 211.868 39.136 212.78 39.616C213.692 40.08 214.396 40.736 214.892 41.584C215.404 42.416 215.66 43.416 215.66 44.584C215.66 44.92 215.636 45.256 215.588 45.592C215.556 45.928 215.508 46.248 215.444 46.552H204.764L205.148 44.368H213.692L212.156 45.04C212.284 44.32 212.244 43.72 212.036 43.24C211.828 42.744 211.492 42.368 211.028 42.112C210.564 41.84 210.004 41.704 209.348 41.704C208.532 41.704 207.836 41.904 207.26 42.304C206.7 42.688 206.276 43.224 205.988 43.912C205.7 44.6 205.556 45.376 205.556 46.24C205.556 47.232 205.828 47.976 206.372 48.472C206.932 48.952 207.772 49.192 208.892 49.192C209.548 49.192 210.18 49.088 210.788 48.88C211.396 48.672 211.916 48.376 212.348 47.992L213.908 50.464C213.156 51.056 212.308 51.496 211.364 51.784C210.436 52.056 209.484 52.192 208.508 52.192ZM222.546 52.192C221.554 52.192 220.634 51.968 219.786 51.52C218.938 51.056 218.258 50.392 217.746 49.528C217.234 48.664 216.978 47.624 216.978 46.408C216.978 45.32 217.154 44.32 217.506 43.408C217.874 42.496 218.386 41.704 219.042 41.032C219.698 40.36 220.458 39.84 221.322 39.472C222.186 39.088 223.114 38.896 224.106 38.896C225.178 38.896 226.098 39.096 226.866 39.496C227.634 39.896 228.202 40.52 228.57 41.368C228.954 42.2 229.09 43.28 228.978 44.608C228.898 46.128 228.586 47.464 228.042 48.616C227.498 49.752 226.762 50.632 225.834 51.256C224.922 51.88 223.826 52.192 222.546 52.192ZM223.698 49.096C224.434 49.096 225.082 48.92 225.642 48.568C226.218 48.2 226.666 47.704 226.986 47.08C227.322 46.44 227.49 45.696 227.49 44.848C227.49 43.968 227.226 43.272 226.698 42.76C226.186 42.248 225.466 41.992 224.538 41.992C223.818 41.992 223.17 42.176 222.594 42.544C222.018 42.896 221.562 43.392 221.226 44.032C220.906 44.656 220.746 45.392 220.746 46.24C220.746 47.12 221.002 47.816 221.514 48.328C222.042 48.84 222.77 49.096 223.698 49.096ZM226.266 52L226.77 49.432L227.61 45.592L228.114 41.752L228.642 39.088H232.386L229.818 52H226.266ZM239.164 52.192C238.172 52.192 237.252 51.968 236.404 51.52C235.556 51.056 234.876 50.392 234.364 49.528C233.852 48.664 233.596 47.624 233.596 46.408C233.596 45.32 233.772 44.32 234.124 43.408C234.492 42.496 235.004 41.704 235.66 41.032C236.316 40.36 237.076 39.84 237.94 39.472C238.804 39.088 239.732 38.896 240.724 38.896C241.732 38.896 242.604 39.072 243.34 39.424C244.076 39.776 244.644 40.32 245.044 41.056C245.46 41.776 245.668 42.688 245.668 43.792C245.668 44.976 245.524 46.08 245.236 47.104C244.964 48.112 244.548 49 243.988 49.768C243.428 50.52 242.74 51.112 241.924 51.544C241.124 51.976 240.204 52.192 239.164 52.192ZM240.316 49.096C241.052 49.096 241.7 48.92 242.26 48.568C242.836 48.2 243.284 47.704 243.604 47.08C243.94 46.44 244.108 45.696 244.108 44.848C244.108 43.968 243.844 43.272 243.316 42.76C242.804 42.248 242.084 41.992 241.156 41.992C240.436 41.992 239.788 42.176 239.212 42.544C238.636 42.896 238.18 43.392 237.844 44.032C237.524 44.656 237.364 45.392 237.364 46.24C237.364 47.12 237.62 47.816 238.132 48.328C238.66 48.84 239.388 49.096 240.316 49.096ZM242.86 52L243.388 49.432L244.204 45.592L244.708 41.752L246.22 34.192H249.964L246.412 52H242.86ZM250.789 56.848C250.133 56.848 249.485 56.744 248.845 56.536C248.189 56.328 247.669 56.056 247.285 55.72L249.013 53.032C249.285 53.272 249.589 53.464 249.925 53.608C250.277 53.752 250.661 53.824 251.077 53.824C251.557 53.824 251.973 53.704 252.325 53.464C252.693 53.224 253.053 52.816 253.405 52.24L254.437 50.608L254.773 50.224L261.589 39.088H265.285L256.693 52.864C256.053 53.872 255.437 54.664 254.845 55.24C254.269 55.832 253.653 56.248 252.997 56.488C252.357 56.728 251.621 56.848 250.789 56.848ZM253.645 52.504L250.549 39.088H254.293L256.645 49.888L253.645 52.504ZM281.122 38.896C282.21 38.896 283.138 39.128 283.906 39.592C284.674 40.04 285.218 40.704 285.538 41.584C285.874 42.464 285.914 43.552 285.658 44.848L284.218 52H280.474L281.866 45.088C282.058 44.144 281.978 43.416 281.626 42.904C281.29 42.392 280.666 42.136 279.754 42.136C278.81 42.136 278.018 42.408 277.378 42.952C276.754 43.496 276.322 44.328 276.082 45.448L274.786 52H271.042L274.594 34.192H278.338L276.634 42.736L275.89 41.632C276.514 40.688 277.282 40 278.194 39.568C279.122 39.12 280.098 38.896 281.122 38.896ZM294.547 52.192C293.203 52.192 292.035 51.952 291.043 51.472C290.067 50.992 289.307 50.32 288.763 49.456C288.219 48.592 287.947 47.576 287.947 46.408C287.947 44.968 288.267 43.688 288.907 42.568C289.563 41.432 290.459 40.536 291.595 39.88C292.747 39.224 294.067 38.896 295.555 38.896C296.819 38.896 297.907 39.136 298.819 39.616C299.731 40.08 300.435 40.736 300.931 41.584C301.443 42.416 301.699 43.416 301.699 44.584C301.699 44.92 301.675 45.256 301.627 45.592C301.595 45.928 301.547 46.248 301.483 46.552H290.803L291.187 44.368H299.731L298.195 45.04C298.323 44.32 298.283 43.72 298.075 43.24C297.867 42.744 297.531 42.368 297.067 42.112C296.603 41.84 296.043 41.704 295.387 41.704C294.571 41.704 293.875 41.904 293.299 42.304C292.739 42.688 292.315 43.224 292.027 43.912C291.739 44.6 291.595 45.376 291.595 46.24C291.595 47.232 291.867 47.976 292.411 48.472C292.971 48.952 293.811 49.192 294.931 49.192C295.587 49.192 296.219 49.088 296.827 48.88C297.435 48.672 297.955 48.376 298.387 47.992L299.947 50.464C299.195 51.056 298.347 51.496 297.403 51.784C296.475 52.056 295.523 52.192 294.547 52.192ZM302.753 52L305.321 39.088H308.873L308.129 42.76L307.793 41.704C308.369 40.664 309.121 39.936 310.049 39.52C310.977 39.104 312.089 38.896 313.385 38.896L312.713 42.352C312.553 42.336 312.401 42.328 312.257 42.328C312.129 42.312 311.993 42.304 311.849 42.304C310.745 42.304 309.841 42.576 309.137 43.12C308.449 43.664 307.985 44.544 307.745 45.76L306.497 52H302.753ZM319.765 52.192C318.421 52.192 317.253 51.952 316.261 51.472C315.285 50.992 314.525 50.32 313.981 49.456C313.437 48.592 313.165 47.576 313.165 46.408C313.165 44.968 313.485 43.688 314.125 42.568C314.781 41.432 315.677 40.536 316.813 39.88C317.965 39.224 319.285 38.896 320.773 38.896C322.037 38.896 323.125 39.136 324.037 39.616C324.949 40.08 325.653 40.736 326.149 41.584C326.661 42.416 326.917 43.416 326.917 44.584C326.917 44.92 326.893 45.256 326.845 45.592C326.813 45.928 326.765 46.248 326.701 46.552H316.021L316.405 44.368H324.949L323.413 45.04C323.541 44.32 323.501 43.72 323.293 43.24C323.085 42.744 322.749 42.368 322.285 42.112C321.821 41.84 321.261 41.704 320.605 41.704C319.789 41.704 319.093 41.904 318.517 42.304C317.957 42.688 317.533 43.224 317.245 43.912C316.957 44.6 316.813 45.376 316.813 46.24C316.813 47.232 317.085 47.976 317.629 48.472C318.189 48.952 319.029 49.192 320.149 49.192C320.805 49.192 321.437 49.088 322.045 48.88C322.653 48.672 323.173 48.376 323.605 47.992L325.165 50.464C324.413 51.056 323.565 51.496 322.621 51.784C321.693 52.056 320.741 52.192 319.765 52.192Z" fill="white"/>
</svg>
