<svg width="247" height="190" viewBox="0 0 247 190" fill="none" xmlns="http://www.w3.org/2000/svg">
<path d="M210.679 94.6967C210.679 98.0017 210.523 101.265 210.21 104.486C209.911 107.665 209.455 110.802 208.869 113.896C207.449 121.291 205.234 128.363 202.317 135.001C199.321 141.849 195.569 148.249 191.205 154.075C186.75 160.026 181.631 165.376 175.964 170.011C168.266 176.327 159.564 181.313 150.172 184.632C141.51 187.713 132.235 189.365 122.609 189.365C109.752 189.365 97.5465 186.396 86.5393 181.075C75.2977 175.641 65.3196 167.757 57.1782 158.038C44.1389 142.479 35.8281 122.229 34.6948 99.9342C34.6037 98.1977 34.5646 96.4472 34.5646 94.6827C34.5646 86.3361 35.5676 78.2417 37.4564 70.5253C38.8632 64.7556 40.7781 59.2099 43.1098 53.9304C57.2694 22.0427 87.5424 0 122.622 0C151.71 0 177.515 15.1666 193.537 38.5397C196.116 42.3068 198.448 46.298 200.506 50.4573C206.172 61.9688 209.702 74.8947 210.497 88.6188C210.614 90.6495 210.679 92.6661 210.679 94.6967Z" fill="url(#paint0_radial_21603_104015)"/>
<path d="M85.5718 143.223C85.4597 143.25 85.3476 143.278 85.2356 143.305C82.2596 143.849 81.774 139.526 82.7577 135.733C83.5172 132.824 85.2107 130.106 86.8045 130.079C87.2901 130.065 87.7633 130.31 88.1991 130.867C93.4538 137.636 88.5851 142.408 85.5718 143.223Z" fill="#3D3789"/>
<path d="M87.1434 180.517C75.8349 175.122 65.7974 167.294 57.6076 157.645C59.0883 157.033 60.8049 156.672 62.7967 156.63C63.3601 156.616 63.9498 156.63 64.5526 156.672C80.1853 157.784 80.7095 168.282 84.8764 173.815C85.8199 175.067 86.4096 176.165 86.7634 177.138C87.3006 178.57 87.3006 179.697 87.1434 180.517Z" fill="#4A3E9E"/>
<g opacity="0.75">
<path d="M106.016 173.237C98.5813 165.814 90.204 163.373 90.5359 157.484C90.5624 157.101 90.6155 156.717 90.7085 156.306C92.2883 149.536 108.18 155.398 114.991 156.306C123.435 157.441 130.829 157.441 132.409 169.291C133.989 181.142 113.929 181.142 106.016 173.237Z" fill="#4A3E9E"/>
<path d="M154.586 152.237C148.741 154.176 141.712 152.677 140.197 148.869C140.006 148.387 139.904 147.865 139.904 147.315C139.904 142.392 150.664 141.897 154.586 138.569C158.406 135.324 161.806 133 164.442 132.753C166.696 132.547 168.377 133.88 169.268 137.469C171.293 145.678 161.169 150.051 154.586 152.237Z" fill="#4A3E9E"/>
<path d="M189.284 88.0059C186.041 89.9533 182.052 91.6225 181.216 88.604C180.856 87.3243 181.062 85.21 182.13 81.9272C184.87 73.4559 192.36 69.5333 196.902 71.1468C198.292 71.6337 199.411 72.6352 200.029 74.1792C203.606 83.0261 193.891 85.2378 189.284 88.0059Z" fill="#4A3E9E"/>
<path d="M71.6646 121.502C71.6249 121.53 71.5852 121.558 71.5455 121.586C61.7226 127.263 48.3782 114.338 49.4373 109.319C49.6227 108.478 49.8477 107.847 50.1654 107.371C51.7275 105.03 55.2357 106.726 63.1258 107.651C72.5251 108.758 77.2645 118.109 71.6646 121.502Z" fill="#4A3E9E"/>
<path d="M49.1337 91.3696C48.7876 91.6089 48.4543 91.7778 48.1339 91.8904C44.8781 93.0162 43.904 87.0209 42.5068 82.4188C41.2122 78.1686 42.4684 76.7049 44.1091 77.0286C44.4167 77.0849 44.7371 77.2116 45.0576 77.3804C50.1591 80.167 53.2098 88.569 49.1337 91.3696Z" fill="#4A3E9E"/>
<path d="M177.761 169.927C169.772 176.413 160.743 181.532 150.998 184.941C150.606 184.509 150.241 184.035 149.944 183.517C148.727 181.504 148.389 178.843 150.363 175.492C154.81 167.914 160.027 170.315 167.569 168.633C170.381 168 172.57 168.014 174.287 168.388C175.787 168.705 176.923 169.294 177.761 169.927Z" fill="#4A3E9E"/>
<path d="M209.856 114.071C206.975 128.965 200.795 142.566 192.178 153.97C191.135 153.4 190.196 152.607 189.44 151.509C189.414 151.481 189.388 151.439 189.375 151.411C184.186 143.665 191.969 136.475 195.072 122.651C196.949 114.279 202.256 113 206.141 113.306C207.718 113.417 209.061 113.807 209.856 114.071Z" fill="#4A3E9E"/>
<path d="M211.502 94.5722C211.502 97.8958 211.347 101.177 211.036 104.416C210.052 104.304 209.067 103.951 208.42 103.022C208.2 102.698 208.018 102.318 207.889 101.839C206.853 97.9239 203.226 99.4308 204.288 95.6847C205.324 92.0231 207.28 90.2064 208.951 89.3051C209.896 88.7981 210.764 88.5728 211.321 88.4883C211.438 90.5022 211.502 92.5301 211.502 94.5722Z" fill="#4A3E9E"/>
<path d="M129.105 140.03C129.105 140.043 129.105 140.057 129.093 140.071C128.021 144.944 117.556 143.223 114.73 142.218C111.645 141.117 104.483 135.928 106.522 130.724C107.245 128.88 108.329 128.233 109.619 128.316C112.884 128.481 117.427 133.23 120.382 134.014C125.957 135.487 129.893 136.258 129.105 140.03Z" fill="#4A3E9E"/>
<path d="M58.0671 138.505C57.7352 139.143 57.3542 139.631 56.9118 139.984C54.7979 141.695 51.6147 140.12 48.7756 137.432C46.4159 135.192 45.445 131.405 46.5265 130.359C47.0059 129.884 47.9031 129.966 49.2673 130.957C53.6672 134.188 60.0212 134.717 58.0671 138.505Z" fill="#4A3E9E"/>
<path d="M175.613 134.71C173.953 136.315 172.041 134.81 171.06 132.89C170.72 132.23 170.494 131.543 170.418 130.898C170.116 128.375 170.808 127.415 174.066 129.292C175.462 130.095 176.355 130.826 176.733 131.571C177.211 132.531 176.859 133.506 175.613 134.71Z" fill="#4A3E9E"/>
<path d="M176.561 114.545C176.535 114.488 176.496 114.416 176.47 114.359C174.663 110.541 180.24 109.939 182.295 107.126C184.088 104.672 187.871 101.156 189.835 103.323C190.149 103.668 190.424 104.17 190.62 104.844C193.212 113.397 178.643 118.535 176.561 114.545Z" fill="#4A3E9E"/>
<path d="M137.605 175.154C136.661 174.96 135.251 174.212 134.599 171.163C134.546 170.872 134.479 170.54 134.44 170.193C133.908 166.341 133.908 161.934 136.022 161.934C137.086 161.934 137.086 165.786 140.784 169.653C141.183 170.068 141.409 170.54 141.502 171.025C141.901 173.145 139.76 175.598 137.605 175.154Z" fill="#4A3E9E"/>
<path d="M151.008 123.769C150.105 123.616 149.227 123.284 148.441 122.8C143.386 119.604 149.162 108.146 154.23 112.45C154.387 112.588 154.531 112.726 154.688 112.893C161.773 120.365 156.076 124.654 151.008 123.769Z" fill="#4A3E9E"/>
<path d="M85.4563 143.351C84.8961 142.665 84.3996 141.8 84.1067 140.702C83.2919 137.655 85.7237 132.165 86.7295 130.079C87.2261 130.065 87.7099 130.312 88.1555 130.875C93.5157 137.71 88.5375 142.528 85.4563 143.351Z" fill="#4A3E9E"/>
</g>
<g opacity="0.7">
<path d="M93.3518 138.042C92.2171 138.042 91.664 142.721 92.7845 143.31C93.9192 143.898 97.8622 138.042 93.3518 138.042Z" fill="#3D3789"/>
<path d="M195.026 58.4311C190.35 57.9315 190.905 64.0886 195.27 65.3376C199.635 66.5867 203.323 59.3128 195.026 58.4311Z" fill="#3D3789"/>
<path d="M172.483 154.854C169.542 154.854 169.748 157.263 172.483 159.672C175.204 162.081 182.859 154.854 172.483 154.854Z" fill="#3D3789"/>
<path d="M56.144 91.5114C52.4609 93.0511 55.0363 96.0873 57.7918 97.2385C60.5611 98.3753 61.655 89.2234 56.144 91.5114Z" fill="#3D3789"/>
<path d="M46.2836 63.8402C44.3213 64.269 45.3086 67.5656 48.2216 68.1016C51.1224 68.6376 51.1224 62.7816 46.2836 63.8402Z" fill="#3D3789"/>
<path d="M195.136 49.6397C192.724 50.1899 195.621 55.6509 197.548 53.4637C199.476 51.2766 197.548 49.0894 195.136 49.6397Z" fill="#3D3789"/>
<path d="M104.531 118.402C102.219 119.855 105.053 124.879 108.684 123.708C112.327 122.537 109.206 115.453 104.531 118.402Z" fill="#3D3789"/>
</g>
<path d="M142.322 170.783C142.747 173.026 140.465 175.621 138.169 175.152C137.163 174.947 135.661 174.155 134.966 170.93C137.843 172.469 140.423 171.824 142.322 170.783Z" fill="#3D3789"/>
<path d="M42.5422 82.7384C41.162 78.2381 42.5013 76.6884 44.2504 77.0311C42.5286 81.1142 46.5325 89.161 48.555 92.7671C45.0703 93.9592 44.0318 87.6112 42.5422 82.7384Z" fill="#3D3789"/>
<path d="M57.6077 139.08C55.3578 140.837 51.9701 139.22 48.9485 136.459C46.4371 134.158 45.4038 130.267 46.5549 129.193C47.7975 135.148 53.9321 137.937 57.6077 139.08Z" fill="#3D3789"/>
<path d="M71.5981 121.473C71.5585 121.501 71.5189 121.53 71.4793 121.558C61.6857 127.345 48.3812 114.172 49.4371 109.057C49.6219 108.2 49.8463 107.557 50.1631 107.071C51.6281 109.214 54.0039 111.957 57.8316 115.315C63.7711 120.53 68.5095 121.601 71.5981 121.473Z" fill="#3D3789"/>
<path d="M106.52 130.724C107.246 128.88 108.336 128.233 109.633 128.316C107.778 130.958 107.168 134.345 111.163 137.841C117.415 143.292 125.224 141.53 129.206 140.071C128.129 144.944 117.61 143.223 114.769 142.218C111.682 141.117 104.483 135.928 106.52 130.724Z" fill="#3D3789"/>
<path d="M132.409 168.418C133.989 180.254 113.929 180.254 106.016 172.359C98.5813 164.946 90.204 162.508 90.5359 156.625C95.5676 159.814 103.852 166.647 113.411 172.926C127.125 181.941 132.409 168.418 132.409 168.418Z" fill="#3D3789"/>
<path d="M151.426 122.893C155.785 121.813 155.145 115.696 154.455 112.381C154.603 112.509 154.739 112.638 154.886 112.792C161.549 119.731 156.192 123.715 151.426 122.893Z" fill="#3D3789"/>
<path d="M169.265 137.469C171.31 145.665 161.086 150.051 154.437 152.237C148.534 154.176 141.435 152.677 139.904 148.869C141.525 149.804 143.814 150.849 146.257 151.137C150.862 151.687 161.6 149.501 165.176 141.842C167.246 137.428 165.896 134.458 164.391 132.753C166.668 132.547 168.365 133.867 169.265 137.469Z" fill="#3D3789"/>
<path d="M175.906 130.963C176.387 131.84 176.042 132.757 174.82 133.874C173.192 135.363 171.316 133.967 170.354 132.186C172.735 133.395 174.771 132.066 175.906 130.963Z" fill="#3D3789"/>
<path d="M191.433 104.142C194.102 112.554 179.164 117.606 177.032 113.683C177.005 113.627 176.965 113.556 176.938 113.5C188.657 112.427 190.696 106.697 190.615 102.646C190.95 102.985 191.232 103.479 191.433 104.142Z" fill="#3D3789"/>
<path d="M190.347 87.9623C186.942 89.9474 182.754 91.6489 181.876 88.572C185.861 84.8286 195.048 83.7935 199.493 80.0785C203.047 77.1009 200.493 73.1306 198.359 70.791C199.818 71.2873 200.993 72.3082 201.642 73.8821C205.384 82.886 195.184 85.1406 190.347 87.9623Z" fill="#3D3789"/>
<path d="M86.7577 177.138C87.2948 178.584 87.3079 179.71 87.1376 180.517C75.8313 175.121 65.7958 167.292 57.6076 157.64C59.088 157.028 60.8043 156.667 62.7957 156.625C64.7346 159.462 67.4728 162.939 71.3245 167.18C74.9797 171.199 80.4036 174.509 86.7577 177.138Z" fill="#3D3789"/>
<path d="M172.813 168.128C174.259 168.419 175.321 168.986 176.115 169.609C168.552 175.85 160.004 180.776 150.778 184.056C150.407 183.641 150.061 183.184 149.78 182.686C159.428 178.977 168.424 171.906 172.813 168.128Z" fill="#3D3789"/>
<path d="M209.856 113.146C206.953 128.056 200.726 141.67 192.041 153.086C190.99 152.515 190.044 151.721 189.282 150.622C199.714 140.599 204.838 118.659 206.125 112.381C207.702 112.492 209.055 112.882 209.856 113.146Z" fill="#3D3789"/>
<path d="M211.502 94.9102C211.502 98.4184 211.336 101.882 211.004 105.301C209.953 105.182 208.902 104.811 208.211 103.829C210.949 100.187 209.663 92.9479 208.778 89.3505C209.787 88.8153 210.714 88.5775 211.309 88.4883C211.433 90.614 211.502 92.7547 211.502 94.9102Z" fill="#3D3789"/>
<path opacity="0.35" d="M211.502 94.6743C211.502 97.9801 211.346 101.244 211.033 104.466C210.733 107.645 210.277 110.783 209.69 113.879C206.809 128.881 200.63 142.58 192.014 154.066C187.555 160.02 182.432 165.37 176.762 170.007C169.057 176.324 160.35 181.311 150.951 184.631C142.282 187.712 133 189.365 123.367 189.365C110.5 189.365 98.2857 186.396 87.2704 181.073C76.0204 175.638 66.0349 167.752 57.8875 158.03C44.8385 142.468 36.5216 122.213 35.3875 99.9131C59.8819 180.162 209.69 166.799 201.321 50.4385C206.992 61.9527 210.525 74.8817 211.32 88.6091C211.437 90.6261 211.502 92.6432 211.502 94.6743Z" fill="url(#paint1_linear_21603_104015)"/>
<path opacity="0.55" d="M202.45 135.123C199.451 141.955 195.697 148.341 191.329 154.154C186.871 160.092 181.748 165.43 176.077 170.055C168.372 176.357 159.664 181.331 150.264 184.643C141.595 187.717 132.313 189.366 122.679 189.366C109.812 189.366 97.5965 186.403 86.5806 181.094C75.33 175.672 65.344 167.805 57.1961 158.108C44.1465 142.584 35.8291 122.379 34.6949 100.134C34.6037 98.4016 34.5646 96.655 34.5646 94.8944C34.5646 86.5665 35.5684 78.4901 37.4587 70.791C55.397 110.334 104.219 185.439 202.45 135.123Z" fill="url(#paint2_linear_21603_104015)"/>
<path d="M217.405 92.6927C215.409 91.7673 213.322 90.856 211.143 89.9446C210.295 89.5941 209.435 89.2296 208.561 88.8791C207.778 89.3418 206.982 89.8044 206.16 90.2531C207.908 90.912 209.591 91.5851 211.222 92.244C212.644 92.8329 214.026 93.4217 215.357 94.0106C231.546 101.161 240.86 108.564 239.999 114.944C239.059 121.94 226.002 126.412 205.482 128.025C189.293 129.301 168.447 128.782 145.241 126.356C138.549 125.641 131.648 124.786 124.617 123.763C123.064 123.538 121.499 123.3 119.921 123.047C88.2345 118.126 59.888 110.821 39.4988 102.942C38.6378 102.605 37.7899 102.269 36.955 101.932C36.3158 101.68 35.7027 101.428 35.0766 101.175C16.7224 93.576 5.98651 85.5562 6.89965 78.7421C7.79975 72.0262 19.8271 67.6517 38.8857 65.8851C39.0944 65.156 39.3162 64.427 39.551 63.7119C16.2789 66.0113 1.26424 71.9 0.0771589 80.7891C-1.03166 89.0193 9.87386 98.357 28.6846 107.078C29.4021 107.414 30.1326 107.737 30.8761 108.073C32.5589 108.817 34.3069 109.574 36.0941 110.303C54.1743 117.734 77.8899 124.52 104.515 129.469C109.159 130.338 113.907 131.151 118.72 131.895C120.899 132.231 123.051 132.554 125.204 132.848C154.32 136.97 181.114 138.05 202.038 136.451C227.841 134.488 244.721 128.431 245.986 118.982C247.121 110.751 236.216 101.4 217.405 92.6927Z" fill="url(#paint3_linear_21603_104015)"/>
<path d="M242.469 62.4868C240.143 53.9672 224.789 50.394 201.818 51.529C202.145 52.2156 202.458 52.8882 202.759 53.5889C221.47 52.5659 233.675 55.0882 235.426 61.5059C237.203 68.0217 227.899 77.4101 211.134 87.5412C210.337 88.0316 209.514 88.5221 208.678 89.0125C207.894 89.4749 207.097 89.9373 206.274 90.3857C187.092 101.273 159.939 112.792 129.154 122.46C127.625 122.937 126.109 123.413 124.606 123.876C117.759 125.963 111.043 127.855 104.484 129.565C82.1393 135.394 61.8205 139.023 45.7092 140.27C24.737 141.896 10.8993 139.472 9.03073 132.605C7.34512 126.426 15.6033 117.696 30.7216 108.168C29.9768 107.831 29.245 107.509 28.5264 107.173C11.0169 118.635 1.42586 129.537 3.59495 137.496C6.11684 146.744 23.966 150.149 50.2303 148.075C71.0718 146.422 97.2184 141.321 125.207 132.928C127.298 132.297 129.402 131.667 131.506 130.994C136.184 129.523 140.77 128.009 145.278 126.454C171.398 117.388 194.318 106.934 211.344 96.6913C212.768 95.8366 214.153 94.9818 215.499 94.1271C216.191 93.6927 216.871 93.2443 217.55 92.8099C235.06 81.3617 244.651 70.4599 242.469 62.4868Z" fill="url(#paint4_linear_21603_104015)"/>
<path d="M194.22 38.5878C185.117 29.2807 162.386 5.66269 116.219 10.3162C74.382 14.5492 52.2246 40.9425 43.6172 53.978C57.7933 22.0621 88.1016 0 123.222 0C152.344 0.0140166 178.179 15.194 194.22 38.5878Z" fill="url(#paint5_linear_21603_104015)"/>
<defs>
<radialGradient id="paint0_radial_21603_104015" cx="0" cy="0" r="1" gradientUnits="userSpaceOnUse" gradientTransform="translate(110.189 44.5787) scale(155.235 166.89)">
<stop stop-color="#31E7C2"/>
<stop offset="1" stop-color="#652FB0"/>
</radialGradient>
<linearGradient id="paint1_linear_21603_104015" x1="168.504" y1="228.393" x2="93.2432" y2="35.2354" gradientUnits="userSpaceOnUse">
<stop stop-color="#4A3E9E"/>
<stop offset="1" stop-color="#4AE09E" stop-opacity="0.5"/>
</linearGradient>
<linearGradient id="paint2_linear_21603_104015" x1="126.047" y1="209.46" x2="112.167" y2="61.4555" gradientUnits="userSpaceOnUse">
<stop stop-color="#3D3789"/>
<stop offset="1" stop-color="#3DCC5E" stop-opacity="0.2"/>
</linearGradient>
<linearGradient id="paint3_linear_21603_104015" x1="120.323" y1="152.307" x2="125.714" y2="62.5864" gradientUnits="userSpaceOnUse">
<stop stop-color="#83ECEC"/>
<stop offset="1" stop-color="#8EE2D3" stop-opacity="0.3"/>
</linearGradient>
<linearGradient id="paint4_linear_21603_104015" x1="130.969" y1="130.979" x2="114.411" y2="74.7343" gradientUnits="userSpaceOnUse">
<stop stop-color="#83ECEC"/>
<stop offset="1" stop-color="#8EE2D3" stop-opacity="0.3"/>
</linearGradient>
<linearGradient id="paint5_linear_21603_104015" x1="118.626" y1="-14.5293" x2="118.923" y2="38.2141" gradientUnits="userSpaceOnUse">
<stop stop-color="#C7F1F6"/>
<stop offset="1" stop-color="#D3F4F9" stop-opacity="0"/>
</linearGradient>
</defs>
</svg>
