<svg width="1376" height="900" viewBox="0 0 1376 900" fill="none" xmlns="http://www.w3.org/2000/svg">
<rect width="1376" height="900" fill="black"/>
<rect x="0.411483" y="0.411483" width="1375.18" height="899.177" stroke="white" stroke-opacity="0.1" stroke-width="0.822967"/>
<path d="M441.448 426.266V298.333H467.949V317.635L467.376 345.674L469.095 373.43V426.407H441.448V426.266ZM497.888 393.86C490.01 393.86 482.99 392.169 476.974 388.647C470.957 385.124 466.23 379.77 462.792 372.585C459.354 365.399 457.778 356.382 457.778 345.392C457.778 334.261 459.354 325.244 462.649 318.058C465.8 311.013 470.528 305.659 476.544 302.137C482.704 298.615 489.723 296.924 498.032 296.924C507.2 296.924 515.365 298.896 522.528 302.982C529.69 307.068 535.42 312.563 539.575 319.89C543.729 327.075 545.878 335.67 545.878 345.392C545.878 355.255 543.729 363.849 539.575 371.035C535.42 378.221 529.69 383.856 522.528 387.801C515.079 391.747 507.057 393.86 497.888 393.86ZM493.304 371.458C497.888 371.458 502.043 370.471 505.624 368.358C509.205 366.244 512.07 363.286 514.362 359.341C516.511 355.396 517.657 350.746 517.657 345.392C517.657 339.897 516.511 335.247 514.362 331.443C512.214 327.639 509.205 324.68 505.624 322.567C502.043 320.594 497.888 319.467 493.304 319.467C488.72 319.467 484.566 320.453 480.842 322.567C477.117 324.539 474.252 327.498 472.103 331.443C469.955 335.247 468.808 339.897 468.808 345.392C468.808 350.746 469.955 355.396 472.103 359.341C474.252 363.286 477.26 366.244 480.842 368.358C484.423 370.33 488.577 371.458 493.304 371.458Z" fill="white"/>
<path d="M605.037 393.626C594.192 393.626 584.631 391.515 576.497 387.292C568.363 383.069 562.085 377.298 557.518 370.119C553.094 362.8 550.811 354.495 550.811 345.205C550.811 335.915 552.952 327.61 557.233 320.29C561.514 312.971 567.507 307.199 575.356 303.117C583.062 299.035 591.766 296.924 601.47 296.924C610.745 296.924 619.165 298.894 626.728 302.836C634.291 306.777 640.142 312.408 644.566 319.586C648.989 326.765 651.13 335.492 651.13 345.627C651.13 346.612 651.13 347.879 650.987 349.146C650.844 350.554 650.702 351.68 650.702 352.947H601.042V337.041H636.146L625.301 341.826C625.444 336.9 624.445 332.677 622.447 329.017C620.449 325.357 617.595 322.542 614.17 320.572C610.603 318.601 606.464 317.475 601.755 317.475C597.046 317.475 592.908 318.46 589.34 320.572C585.773 322.542 582.919 325.498 580.921 329.158C578.923 332.818 577.924 337.181 577.924 342.108V346.331C577.924 351.539 579.066 356.184 581.492 359.985C583.918 363.785 587.057 366.741 591.195 368.853C595.334 370.823 600.328 371.949 606.036 371.949C611.031 371.949 615.455 371.245 619.165 369.697C623.018 368.149 626.585 365.897 629.725 362.941L644.423 378.706C639.999 383.632 634.576 387.292 628.012 389.967C621.305 392.219 613.599 393.626 605.037 393.626Z" fill="white"/>
<path d="M295.037 393.626C284.191 393.626 274.63 391.515 266.496 387.292C258.363 383.069 252.084 377.298 247.517 370.119C243.094 362.8 240.81 354.495 240.81 345.205C240.81 335.915 242.951 327.61 247.232 320.29C251.513 312.971 257.506 307.199 265.355 303.117C273.061 299.035 281.765 296.924 291.469 296.924C300.745 296.924 309.164 298.894 316.727 302.836C324.29 306.777 330.141 312.408 334.565 319.586C338.988 326.765 341.129 335.492 341.129 345.627C341.129 346.612 341.129 347.879 340.986 349.146C340.844 350.554 340.701 351.68 340.701 352.947H291.041V337.041H326.145L315.3 341.826C315.443 336.9 314.444 332.677 312.446 329.017C310.448 325.357 307.594 322.542 304.169 320.572C300.602 318.601 296.464 317.475 291.754 317.475C287.045 317.475 282.907 318.46 279.34 320.572C275.772 322.542 272.918 325.498 270.92 329.158C268.922 332.818 267.923 337.181 267.923 342.108V346.331C267.923 351.539 269.065 356.184 271.491 359.985C273.917 363.785 277.056 366.741 281.195 368.853C285.333 370.823 290.327 371.949 296.036 371.949C301.03 371.949 305.454 371.245 309.164 369.697C313.017 368.149 316.584 365.897 319.724 362.941L334.422 378.706C329.998 383.632 324.576 387.292 318.011 389.967C311.304 392.219 303.741 393.626 295.037 393.626Z" fill="white"/>
<path d="M818.831 393.626C807.986 393.626 798.425 391.515 790.291 387.292C782.157 383.069 775.878 377.298 771.312 370.119C766.888 362.8 764.605 354.495 764.605 345.205C764.605 335.915 766.745 327.61 771.027 320.29C775.308 312.971 781.301 307.199 789.15 303.117C796.855 299.035 805.56 296.924 815.264 296.924C824.539 296.924 832.959 298.894 840.522 302.836C848.085 306.777 853.936 312.408 858.359 319.586C862.783 326.765 864.924 335.492 864.924 345.627C864.924 346.612 864.924 347.879 864.781 349.146C864.638 350.554 864.496 351.68 864.496 352.947H814.836V337.041H849.94L839.095 341.826C839.237 336.9 838.239 332.677 836.241 329.017C834.243 325.357 831.389 322.542 827.964 320.572C824.397 318.601 820.258 317.475 815.549 317.475C810.84 317.475 806.702 318.46 803.134 320.572C799.567 322.542 796.713 325.498 794.715 329.158C792.717 332.818 791.718 337.181 791.718 342.108V346.331C791.718 351.539 792.86 356.184 795.286 359.985C797.712 363.785 800.851 366.741 804.989 368.853C809.128 370.823 814.122 371.949 819.83 371.949C824.825 371.949 829.248 371.245 832.959 369.697C836.812 368.149 840.379 365.897 843.518 362.941L858.217 378.706C853.793 383.632 848.37 387.292 841.806 389.967C835.099 392.219 827.536 393.626 818.831 393.626Z" fill="white"/>
<path d="M704.266 393.628C695.275 393.628 687.14 391.656 680.005 387.572C672.869 383.487 667.161 377.995 663.022 370.671C658.884 363.488 656.886 354.897 656.886 345.179C656.886 335.32 658.884 326.87 663.022 319.687C667.161 312.504 672.869 306.87 680.005 302.786C687.14 298.702 695.275 296.73 704.266 296.73C712.257 296.73 719.25 298.42 725.387 301.941C731.381 305.462 736.09 310.673 739.372 317.856C742.655 324.898 744.367 334.053 744.367 345.179C744.367 356.165 742.798 365.178 739.515 372.502C736.376 379.685 731.809 385.037 725.815 388.558C719.821 391.938 712.686 393.628 704.266 393.628ZM708.832 371.234C713.399 371.234 717.538 370.249 721.248 368.136C724.959 366.164 727.813 363.066 729.954 359.122C732.094 355.179 733.236 350.531 733.236 345.179C733.236 339.686 732.094 335.038 729.954 331.236C727.813 327.433 724.816 324.475 721.248 322.363C717.538 320.391 713.399 319.264 708.832 319.264C704.408 319.264 700.27 320.25 696.559 322.363C692.849 324.335 689.995 327.292 687.854 331.236C685.713 335.038 684.572 339.686 684.572 345.179C684.572 350.531 685.713 355.179 687.854 359.122C689.995 363.066 692.992 366.023 696.559 368.136C700.27 370.249 704.408 371.234 708.832 371.234ZM733.949 392.22V372.924L734.52 344.897L732.808 317.152V262.506H760.494V392.22H733.949Z" fill="white"/>
<path d="M1059.85 426.408C1055.56 426.408 1051.12 425.702 1046.83 424.431C1042.54 423.019 1038.82 421.183 1035.96 418.782L1044.97 401.128C1046.83 402.964 1049.12 404.235 1051.55 405.224C1053.98 406.213 1056.56 406.636 1059.13 406.636C1062.57 406.636 1065.29 405.789 1067.29 404.235C1069.29 402.541 1071.29 399.857 1072.87 396.185L1077.3 385.876L1079.16 383.193L1110.06 310.32H1133.81L1095.18 399.999C1092.47 406.919 1089.32 412.285 1085.74 416.098C1082.17 419.912 1078.3 422.595 1074.01 424.148C1069.72 425.561 1065 426.408 1059.85 426.408ZM1074.44 397.88L1036.39 310.037H1061.85L1091.61 380.933L1074.44 397.88Z" fill="white"/>
<path d="M870.68 338.555V392.667H898.423V345.46C898.423 339.682 899.281 335.173 901.14 331.509C901.712 330.382 902.427 329.254 903.142 328.409L870.68 338.555ZM944.471 314.458L924.021 321.363C927.739 322.068 930.599 323.759 932.887 326.295C936.033 329.959 937.606 335.455 937.606 343.064V392.667H965.349V345.46C965.349 345.037 965.349 344.755 965.349 344.333L944.471 314.458ZM1026.84 315.444C1025.41 312.767 1023.7 310.371 1021.69 308.399L997.955 325.027C998.527 325.45 998.956 326.013 999.385 326.436C1002.53 330.1 1004.1 335.596 1004.1 343.205V392.808H1031.85V338.978C1031.85 329.395 1030.13 321.504 1026.84 315.444Z" fill="white"/>
<path d="M870.68 332.761L953.973 267.206L977.832 295.726L1012.55 272.314L1004.26 260.962L1058.98 258.408L1037.55 307.078L1029.41 295.585L968.117 338.72L945.401 305.659L870.68 332.761Z" fill="#A6CBD6"/>
<path d="M434.869 392.81L397.818 344.56L433.439 298.566H403.826L383.226 326.078L363.056 298.566H332.156L367.49 345.406L367.204 345.688L383.226 326.078L397.818 344.56L382.511 363.888L367.204 345.688L330.439 392.81H361.053L382.511 363.888L403.54 392.81H434.869Z" fill="white"/>
<path d="M515.85 651.273H517.163V657.46C517.163 658.02 517.052 658.499 516.83 658.896C516.612 659.294 516.303 659.598 515.906 659.808C515.508 660.016 515.042 660.119 514.508 660.119C514.016 660.119 513.575 660.03 513.183 659.851C512.793 659.672 512.485 659.412 512.258 659.071C512.034 658.727 511.921 658.31 511.921 657.818H513.23C513.23 658.06 513.285 658.268 513.396 658.445C513.509 658.621 513.664 658.759 513.86 658.858C514.059 658.955 514.286 659.003 514.542 659.003C514.82 659.003 515.056 658.945 515.249 658.828C515.445 658.709 515.595 658.534 515.697 658.304C515.799 658.074 515.85 657.793 515.85 657.46V651.273ZM521.494 660.132C520.881 660.132 520.345 659.991 519.888 659.71C519.43 659.429 519.075 659.036 518.822 658.53C518.569 658.024 518.443 657.433 518.443 656.757C518.443 656.078 518.569 655.484 518.822 654.976C519.075 654.467 519.43 654.072 519.888 653.791C520.345 653.51 520.881 653.369 521.494 653.369C522.108 653.369 522.643 653.51 523.101 653.791C523.558 654.072 523.913 654.467 524.166 654.976C524.419 655.484 524.545 656.078 524.545 656.757C524.545 657.433 524.419 658.024 524.166 658.53C523.913 659.036 523.558 659.429 523.101 659.71C522.643 659.991 522.108 660.132 521.494 660.132ZM521.498 659.062C521.896 659.062 522.226 658.957 522.487 658.747C522.748 658.537 522.942 658.257 523.067 657.908C523.194 657.558 523.258 657.173 523.258 656.753C523.258 656.335 523.194 655.952 523.067 655.602C522.942 655.25 522.748 654.967 522.487 654.754C522.226 654.541 521.896 654.435 521.498 654.435C521.098 654.435 520.765 654.541 520.501 654.754C520.24 654.967 520.045 655.25 519.917 655.602C519.792 655.952 519.73 656.335 519.73 656.753C519.73 657.173 519.792 657.558 519.917 657.908C520.045 658.257 520.24 658.537 520.501 658.747C520.765 658.957 521.098 659.062 521.498 659.062ZM525.728 660V653.455H527.002V660H525.728ZM526.371 652.445C526.149 652.445 525.959 652.371 525.8 652.223C525.644 652.072 525.566 651.893 525.566 651.686C525.566 651.476 525.644 651.297 525.8 651.149C525.959 650.999 526.149 650.923 526.371 650.923C526.593 650.923 526.782 650.999 526.938 651.149C527.097 651.297 527.176 651.476 527.176 651.686C527.176 651.893 527.097 652.072 526.938 652.223C526.782 652.371 526.593 652.445 526.371 652.445ZM529.75 656.114V660H528.476V653.455H529.699V654.52H529.78C529.93 654.173 530.166 653.895 530.487 653.685C530.811 653.474 531.219 653.369 531.71 653.369C532.156 653.369 532.547 653.463 532.882 653.651C533.217 653.835 533.477 654.111 533.662 654.477C533.847 654.844 533.939 655.297 533.939 655.837V660H532.665V655.99C532.665 655.516 532.541 655.145 532.294 654.878C532.047 654.608 531.707 654.473 531.276 654.473C530.98 654.473 530.717 654.537 530.487 654.665C530.26 654.793 530.08 654.98 529.946 655.227C529.815 655.472 529.75 655.767 529.75 656.114ZM538.326 660V659.045L541.28 655.986C541.595 655.653 541.855 655.362 542.059 655.112C542.267 654.859 542.422 654.619 542.524 654.392C542.626 654.165 542.677 653.923 542.677 653.668C542.677 653.378 542.609 653.128 542.473 652.918C542.336 652.705 542.15 652.541 541.915 652.428C541.679 652.311 541.413 652.253 541.118 652.253C540.805 652.253 540.532 652.317 540.299 652.445C540.066 652.572 539.888 652.753 539.763 652.986C539.638 653.219 539.575 653.491 539.575 653.804H538.318C538.318 653.273 538.44 652.808 538.684 652.411C538.929 652.013 539.264 651.705 539.69 651.486C540.116 651.264 540.601 651.153 541.143 651.153C541.691 651.153 542.174 651.263 542.592 651.482C543.013 651.697 543.341 651.993 543.576 652.368C543.812 652.74 543.93 653.161 543.93 653.629C543.93 653.953 543.869 654.27 543.747 654.58C543.628 654.889 543.419 655.234 543.12 655.615C542.822 655.993 542.407 656.452 541.876 656.991L540.142 658.807V658.871H544.071V660H538.326ZM548.395 660.119C547.784 660.119 547.244 660.014 546.775 659.804C546.309 659.594 545.944 659.304 545.68 658.935C545.416 658.565 545.285 658.145 545.288 657.673C545.285 657.304 545.361 656.964 545.514 656.655C545.67 656.342 545.882 656.082 546.149 655.875C546.416 655.665 546.714 655.531 547.044 655.474V655.423C546.609 655.318 546.261 655.085 546 654.724C545.738 654.364 545.609 653.949 545.612 653.48C545.609 653.034 545.727 652.636 545.966 652.287C546.207 651.935 546.538 651.658 546.959 651.456C547.379 651.254 547.858 651.153 548.395 651.153C548.926 651.153 549.4 651.256 549.818 651.46C550.238 651.662 550.569 651.939 550.811 652.291C551.052 652.641 551.175 653.037 551.177 653.48C551.175 653.949 551.041 654.364 550.777 654.724C550.513 655.085 550.169 655.318 549.746 655.423V655.474C550.072 655.531 550.366 655.665 550.628 655.875C550.892 656.082 551.102 656.342 551.258 656.655C551.417 656.964 551.498 657.304 551.501 657.673C551.498 658.145 551.365 658.565 551.101 658.935C550.836 659.304 550.47 659.594 550.001 659.804C549.535 660.014 549 660.119 548.395 660.119ZM548.395 659.041C548.755 659.041 549.068 658.982 549.332 658.862C549.596 658.74 549.801 658.571 549.946 658.355C550.091 658.136 550.165 657.881 550.167 657.588C550.165 657.284 550.085 657.016 549.929 656.783C549.775 656.55 549.567 656.366 549.302 656.233C549.038 656.099 548.736 656.033 548.395 656.033C548.051 656.033 547.746 656.099 547.478 656.233C547.211 656.366 547.001 656.55 546.848 656.783C546.694 657.016 546.619 657.284 546.622 657.588C546.619 657.881 546.689 658.136 546.831 658.355C546.976 658.571 547.182 658.74 547.449 658.862C547.716 658.982 548.031 659.041 548.395 659.041ZM548.395 654.98C548.684 654.98 548.942 654.922 549.166 654.805C549.39 654.689 549.567 654.527 549.694 654.32C549.825 654.112 549.892 653.869 549.895 653.591C549.892 653.318 549.826 653.08 549.699 652.875C549.574 652.67 549.399 652.513 549.175 652.402C548.95 652.288 548.69 652.232 548.395 652.232C548.094 652.232 547.829 652.288 547.602 652.402C547.378 652.513 547.203 652.67 547.078 652.875C546.953 653.08 546.892 653.318 546.895 653.591C546.892 653.869 546.954 654.112 547.082 654.32C547.21 654.527 547.386 654.689 547.611 654.805C547.838 654.922 548.099 654.98 548.395 654.98ZM554.205 658.807L554.141 659.271C554.098 659.612 554.026 659.967 553.923 660.337C553.824 660.709 553.72 661.054 553.612 661.372C553.507 661.69 553.421 661.943 553.352 662.131H552.449C552.486 661.955 552.537 661.716 552.602 661.415C552.668 661.116 552.732 660.783 552.794 660.413C552.857 660.044 552.904 659.668 552.935 659.284L552.977 658.807H554.205ZM558.469 660.145C557.796 660.142 557.22 659.964 556.743 659.612C556.266 659.26 555.901 658.747 555.648 658.074C555.395 657.401 555.269 656.589 555.269 655.641C555.269 654.695 555.395 653.886 555.648 653.216C555.904 652.545 556.27 652.034 556.747 651.682C557.228 651.33 557.801 651.153 558.469 651.153C559.137 651.153 559.709 651.331 560.186 651.686C560.664 652.038 561.029 652.55 561.282 653.22C561.537 653.888 561.665 654.695 561.665 655.641C561.665 656.592 561.539 657.405 561.286 658.078C561.033 658.749 560.668 659.261 560.191 659.616C559.713 659.969 559.139 660.145 558.469 660.145ZM558.469 659.007C559.06 659.007 559.522 658.719 559.854 658.142C560.189 657.565 560.357 656.732 560.357 655.641C560.357 654.916 560.28 654.304 560.127 653.804C559.976 653.301 559.759 652.92 559.475 652.662C559.193 652.401 558.858 652.27 558.469 652.27C557.881 652.27 557.419 652.56 557.084 653.139C556.749 653.719 556.58 654.553 556.577 655.641C556.577 656.368 556.652 656.983 556.803 657.486C556.956 657.986 557.174 658.365 557.455 658.624C557.736 658.879 558.074 659.007 558.469 659.007ZM565.975 660.145C565.302 660.142 564.727 659.964 564.249 659.612C563.772 659.26 563.407 658.747 563.154 658.074C562.901 657.401 562.775 656.589 562.775 655.641C562.775 654.695 562.901 653.886 563.154 653.216C563.41 652.545 563.776 652.034 564.254 651.682C564.734 651.33 565.307 651.153 565.975 651.153C566.643 651.153 567.215 651.331 567.692 651.686C568.17 652.038 568.535 652.55 568.788 653.22C569.043 653.888 569.171 654.695 569.171 655.641C569.171 656.592 569.045 657.405 568.792 658.078C568.539 658.749 568.174 659.261 567.697 659.616C567.219 659.969 566.646 660.145 565.975 660.145ZM565.975 659.007C566.566 659.007 567.028 658.719 567.36 658.142C567.695 657.565 567.863 656.732 567.863 655.641C567.863 654.916 567.786 654.304 567.633 653.804C567.482 653.301 567.265 652.92 566.981 652.662C566.7 652.401 566.364 652.27 565.975 652.27C565.387 652.27 564.925 652.56 564.59 653.139C564.255 653.719 564.086 654.553 564.083 655.641C564.083 656.368 564.158 656.983 564.309 657.486C564.462 657.986 564.68 658.365 564.961 658.624C565.242 658.879 565.58 659.007 565.975 659.007ZM573.481 660.145C572.808 660.142 572.233 659.964 571.755 659.612C571.278 659.26 570.913 658.747 570.66 658.074C570.407 657.401 570.281 656.589 570.281 655.641C570.281 654.695 570.407 653.886 570.66 653.216C570.916 652.545 571.282 652.034 571.76 651.682C572.24 651.33 572.814 651.153 573.481 651.153C574.149 651.153 574.721 651.331 575.199 651.686C575.676 652.038 576.041 652.55 576.294 653.22C576.549 653.888 576.677 654.695 576.677 655.641C576.677 656.592 576.551 657.405 576.298 658.078C576.045 658.749 575.68 659.261 575.203 659.616C574.726 659.969 574.152 660.145 573.481 660.145ZM573.481 659.007C574.072 659.007 574.534 658.719 574.866 658.142C575.201 657.565 575.369 656.732 575.369 655.641C575.369 654.916 575.292 654.304 575.139 653.804C574.988 653.301 574.771 652.92 574.487 652.662C574.206 652.401 573.87 652.27 573.481 652.27C572.893 652.27 572.431 652.56 572.096 653.139C571.761 653.719 571.592 654.553 571.589 655.641C571.589 656.368 571.664 656.983 571.815 657.486C571.968 657.986 572.186 658.365 572.467 658.624C572.748 658.879 573.086 659.007 573.481 659.007ZM580.531 658.534V652.773H581.678V658.534H580.531ZM578.226 656.224V655.082H583.987V656.224H578.226ZM588.756 660V651.273H594.228V652.406H590.073V655.065H593.942V656.195H590.073V658.866H594.279V660H588.756ZM596.65 653.455L598.095 656.003L599.552 653.455H600.946L598.904 656.727L600.963 660H599.569L598.095 657.554L596.625 660H595.227L597.264 656.727L595.252 653.455H596.65ZM602.014 662.455V653.455H603.258V654.516H603.365C603.439 654.379 603.545 654.222 603.684 654.043C603.823 653.864 604.017 653.707 604.264 653.574C604.511 653.438 604.838 653.369 605.244 653.369C605.772 653.369 606.244 653.503 606.659 653.77C607.073 654.037 607.399 654.422 607.635 654.925C607.873 655.428 607.992 656.033 607.992 656.74C607.992 657.447 607.875 658.054 607.639 658.56C607.403 659.062 607.079 659.45 606.667 659.723C606.255 659.993 605.785 660.128 605.257 660.128C604.859 660.128 604.534 660.061 604.281 659.928C604.031 659.794 603.835 659.638 603.693 659.459C603.551 659.28 603.441 659.121 603.365 658.982H603.288V662.455H602.014ZM603.262 656.727C603.262 657.187 603.329 657.591 603.463 657.938C603.596 658.284 603.789 658.555 604.042 658.751C604.295 658.945 604.605 659.041 604.971 659.041C605.352 659.041 605.67 658.94 605.926 658.739C606.181 658.534 606.375 658.257 606.505 657.908C606.639 657.558 606.706 657.165 606.706 656.727C606.706 656.295 606.64 655.908 606.51 655.564C606.382 655.22 606.189 654.949 605.93 654.75C605.674 654.551 605.355 654.452 604.971 654.452C604.602 654.452 604.289 654.547 604.034 654.737C603.781 654.928 603.589 655.193 603.458 655.534C603.328 655.875 603.262 656.273 603.262 656.727ZM610.454 651.273V660H609.18V651.273H610.454ZM614.685 660.132C614.072 660.132 613.536 659.991 613.079 659.71C612.622 659.429 612.266 659.036 612.014 658.53C611.761 658.024 611.634 657.433 611.634 656.757C611.634 656.078 611.761 655.484 612.014 654.976C612.266 654.467 612.622 654.072 613.079 653.791C613.536 653.51 614.072 653.369 614.685 653.369C615.299 653.369 615.835 653.51 616.292 653.791C616.749 654.072 617.104 654.467 617.357 654.976C617.61 655.484 617.737 656.078 617.737 656.757C617.737 657.433 617.61 658.024 617.357 658.53C617.104 659.036 616.749 659.429 616.292 659.71C615.835 659.991 615.299 660.132 614.685 660.132ZM614.69 659.062C615.087 659.062 615.417 658.957 615.678 658.747C615.94 658.537 616.133 658.257 616.258 657.908C616.386 657.558 616.45 657.173 616.45 656.753C616.45 656.335 616.386 655.952 616.258 655.602C616.133 655.25 615.94 654.967 615.678 654.754C615.417 654.541 615.087 654.435 614.69 654.435C614.289 654.435 613.957 654.541 613.693 654.754C613.431 654.967 613.237 655.25 613.109 655.602C612.984 655.952 612.921 656.335 612.921 656.753C612.921 657.173 612.984 657.558 613.109 657.908C613.237 658.257 613.431 658.537 613.693 658.747C613.957 658.957 614.289 659.062 614.69 659.062ZM618.919 660V653.455H620.15V654.494H620.219C620.338 654.142 620.548 653.865 620.849 653.663C621.153 653.459 621.497 653.357 621.88 653.357C621.96 653.357 622.054 653.359 622.162 653.365C622.272 653.371 622.359 653.378 622.422 653.386V654.605C622.371 654.591 622.28 654.575 622.149 654.558C622.018 654.538 621.888 654.528 621.757 654.528C621.456 654.528 621.187 654.592 620.951 654.72C620.719 654.845 620.534 655.02 620.397 655.244C620.261 655.466 620.193 655.719 620.193 656.003V660H618.919ZM625.871 660.132C625.226 660.132 624.671 659.994 624.205 659.719C623.742 659.44 623.384 659.05 623.131 658.547C622.881 658.041 622.756 657.449 622.756 656.77C622.756 656.099 622.881 655.509 623.131 654.997C623.384 654.486 623.736 654.087 624.188 653.8C624.642 653.513 625.173 653.369 625.781 653.369C626.151 653.369 626.509 653.43 626.855 653.553C627.202 653.675 627.513 653.866 627.789 654.128C628.064 654.389 628.281 654.729 628.441 655.146C628.6 655.561 628.679 656.065 628.679 656.659V657.111H623.476V656.156H627.431C627.431 655.821 627.362 655.524 627.226 655.266C627.09 655.004 626.898 654.798 626.651 654.648C626.406 654.497 626.119 654.422 625.79 654.422C625.432 654.422 625.119 654.51 624.852 654.686C624.588 654.859 624.384 655.087 624.239 655.368C624.097 655.646 624.026 655.949 624.026 656.276V657.021C624.026 657.459 624.102 657.831 624.256 658.138C624.412 658.445 624.629 658.679 624.908 658.841C625.186 659 625.512 659.08 625.884 659.08C626.125 659.08 626.345 659.045 626.544 658.977C626.743 658.906 626.915 658.801 627.06 658.662C627.205 658.523 627.316 658.351 627.392 658.146L628.598 658.364C628.502 658.719 628.328 659.03 628.078 659.297C627.831 659.561 627.52 659.767 627.145 659.915C626.773 660.06 626.348 660.132 625.871 660.132ZM629.853 660V653.455H631.084V654.494H631.153C631.272 654.142 631.482 653.865 631.783 653.663C632.087 653.459 632.431 653.357 632.815 653.357C632.894 653.357 632.988 653.359 633.096 653.365C633.207 653.371 633.293 653.378 633.356 653.386V654.605C633.305 654.591 633.214 654.575 633.083 654.558C632.952 654.538 632.822 654.528 632.691 654.528C632.39 654.528 632.121 654.592 631.886 654.72C631.653 654.845 631.468 655.02 631.332 655.244C631.195 655.466 631.127 655.719 631.127 656.003V660H629.853ZM639.123 655.053L637.968 655.257C637.92 655.109 637.843 654.969 637.738 654.835C637.636 654.702 637.497 654.592 637.321 654.507C637.144 654.422 636.924 654.379 636.66 654.379C636.299 654.379 635.998 654.46 635.757 654.622C635.515 654.781 635.394 654.987 635.394 655.24C635.394 655.459 635.475 655.635 635.637 655.768C635.799 655.902 636.061 656.011 636.421 656.097L637.461 656.335C638.063 656.474 638.512 656.689 638.808 656.979C639.103 657.268 639.251 657.645 639.251 658.108C639.251 658.5 639.137 658.849 638.91 659.156C638.686 659.46 638.372 659.699 637.968 659.872C637.568 660.045 637.103 660.132 636.575 660.132C635.842 660.132 635.244 659.976 634.781 659.663C634.318 659.348 634.034 658.901 633.929 658.321L635.16 658.134C635.237 658.455 635.394 658.697 635.633 658.862C635.872 659.024 636.183 659.105 636.566 659.105C636.984 659.105 637.318 659.018 637.568 658.845C637.818 658.669 637.943 658.455 637.943 658.202C637.943 657.997 637.866 657.825 637.713 657.686C637.562 657.547 637.331 657.442 637.018 657.371L635.91 657.128C635.299 656.989 634.848 656.767 634.555 656.463C634.265 656.159 634.12 655.774 634.12 655.308C634.12 654.922 634.228 654.584 634.444 654.294C634.66 654.004 634.958 653.778 635.339 653.616C635.72 653.452 636.156 653.369 636.647 653.369C637.355 653.369 637.912 653.523 638.318 653.83C638.724 654.134 638.992 654.541 639.123 655.053ZM647.494 657.286V653.455H648.772V660H647.52V658.866H647.451C647.301 659.216 647.059 659.507 646.727 659.74C646.397 659.97 645.987 660.085 645.495 660.085C645.075 660.085 644.703 659.993 644.379 659.808C644.058 659.621 643.805 659.344 643.62 658.977C643.439 658.611 643.348 658.158 643.348 657.618V653.455H644.622V657.464C644.622 657.911 644.745 658.266 644.993 658.53C645.24 658.794 645.561 658.926 645.956 658.926C646.194 658.926 646.432 658.866 646.667 658.747C646.906 658.628 647.103 658.447 647.26 658.206C647.419 657.964 647.497 657.658 647.494 657.286ZM651.519 656.114V660H650.244V653.455H651.467V654.52H651.548C651.699 654.173 651.935 653.895 652.256 653.685C652.58 653.474 652.987 653.369 653.479 653.369C653.925 653.369 654.315 653.463 654.651 653.651C654.986 653.835 655.246 654.111 655.431 654.477C655.615 654.844 655.707 655.297 655.707 655.837V660H654.433V655.99C654.433 655.516 654.31 655.145 654.063 654.878C653.815 654.608 653.476 654.473 653.044 654.473C652.749 654.473 652.486 654.537 652.256 654.665C652.029 654.793 651.848 654.98 651.715 655.227C651.584 655.472 651.519 655.767 651.519 656.114ZM658.45 651.273V660H657.176V651.273H658.45ZM662.682 660.132C662.068 660.132 661.533 659.991 661.075 659.71C660.618 659.429 660.263 659.036 660.01 658.53C659.757 658.024 659.631 657.433 659.631 656.757C659.631 656.078 659.757 655.484 660.01 654.976C660.263 654.467 660.618 654.072 661.075 653.791C661.533 653.51 662.068 653.369 662.682 653.369C663.295 653.369 663.831 653.51 664.288 653.791C664.746 654.072 665.101 654.467 665.354 654.976C665.606 655.484 665.733 656.078 665.733 656.757C665.733 657.433 665.606 658.024 665.354 658.53C665.101 659.036 664.746 659.429 664.288 659.71C663.831 659.991 663.295 660.132 662.682 660.132ZM662.686 659.062C663.084 659.062 663.413 658.957 663.675 658.747C663.936 658.537 664.129 658.257 664.254 657.908C664.382 657.558 664.446 657.173 664.446 656.753C664.446 656.335 664.382 655.952 664.254 655.602C664.129 655.25 663.936 654.967 663.675 654.754C663.413 654.541 663.084 654.435 662.686 654.435C662.285 654.435 661.953 654.541 661.689 654.754C661.427 654.967 661.233 655.25 661.105 655.602C660.98 655.952 660.917 656.335 660.917 656.753C660.917 657.173 660.98 657.558 661.105 657.908C661.233 658.257 661.427 658.537 661.689 658.747C661.953 658.957 662.285 659.062 662.686 659.062ZM669.672 660.132C669.039 660.132 668.493 659.989 668.036 659.702C667.581 659.412 667.232 659.013 666.987 658.504C666.743 657.996 666.621 657.413 666.621 656.757C666.621 656.092 666.746 655.506 666.996 654.997C667.246 654.486 667.598 654.087 668.053 653.8C668.507 653.513 669.043 653.369 669.659 653.369C670.157 653.369 670.6 653.462 670.989 653.646C671.378 653.828 671.692 654.084 671.931 654.413C672.172 654.743 672.316 655.128 672.361 655.568H671.121C671.053 655.261 670.897 654.997 670.652 654.776C670.411 654.554 670.087 654.443 669.681 654.443C669.326 654.443 669.014 654.537 668.747 654.724C668.483 654.909 668.277 655.173 668.13 655.517C667.982 655.858 667.908 656.261 667.908 656.727C667.908 657.205 667.98 657.616 668.125 657.963C668.27 658.31 668.475 658.578 668.739 658.768C669.006 658.959 669.32 659.054 669.681 659.054C669.922 659.054 670.141 659.01 670.337 658.922C670.536 658.831 670.702 658.702 670.836 658.534C670.972 658.366 671.067 658.165 671.121 657.929H672.361C672.316 658.352 672.178 658.73 671.948 659.062C671.718 659.395 671.409 659.656 671.023 659.847C670.639 660.037 670.189 660.132 669.672 660.132ZM674.656 657.78L674.647 656.224H674.869L677.477 653.455H679.002L676.028 656.608H675.827L674.656 657.78ZM673.484 660V651.273H674.758V660H673.484ZM677.617 660L675.273 656.889L676.151 655.999L679.181 660H677.617ZM679.923 660V653.455H681.197V660H679.923ZM680.567 652.445C680.345 652.445 680.155 652.371 679.996 652.223C679.84 652.072 679.761 651.893 679.761 651.686C679.761 651.476 679.84 651.297 679.996 651.149C680.155 650.999 680.345 650.923 680.567 650.923C680.788 650.923 680.977 650.999 681.134 651.149C681.293 651.297 681.372 651.476 681.372 651.686C681.372 651.893 681.293 652.072 681.134 652.223C680.977 652.371 680.788 652.445 680.567 652.445ZM683.946 656.114V660H682.672V653.455H683.895V654.52H683.976C684.126 654.173 684.362 653.895 684.683 653.685C685.007 653.474 685.415 653.369 685.906 653.369C686.352 653.369 686.743 653.463 687.078 653.651C687.413 653.835 687.673 654.111 687.858 654.477C688.042 654.844 688.135 655.297 688.135 655.837V660H686.861V655.99C686.861 655.516 686.737 655.145 686.49 654.878C686.243 654.608 685.903 654.473 685.471 654.473C685.176 654.473 684.913 654.537 684.683 654.665C684.456 654.793 684.275 654.98 684.142 655.227C684.011 655.472 683.946 655.767 683.946 656.114ZM692.348 662.591C691.828 662.591 691.38 662.523 691.005 662.386C690.633 662.25 690.329 662.07 690.094 661.845C689.858 661.621 689.682 661.375 689.565 661.108L690.66 660.656C690.737 660.781 690.839 660.913 690.967 661.053C691.098 661.195 691.274 661.315 691.496 661.415C691.72 661.514 692.008 661.564 692.361 661.564C692.844 661.564 693.243 661.446 693.558 661.21C693.873 660.977 694.031 660.605 694.031 660.094V658.807H693.95C693.873 658.946 693.763 659.101 693.618 659.271C693.476 659.442 693.28 659.589 693.03 659.714C692.78 659.839 692.454 659.902 692.054 659.902C691.537 659.902 691.071 659.781 690.656 659.54C690.244 659.295 689.917 658.936 689.676 658.462C689.437 657.984 689.318 657.398 689.318 656.702C689.318 656.006 689.436 655.409 689.672 654.912C689.91 654.415 690.237 654.034 690.652 653.77C691.067 653.503 691.537 653.369 692.062 653.369C692.469 653.369 692.797 653.438 693.047 653.574C693.297 653.707 693.491 653.864 693.63 654.043C693.773 654.222 693.882 654.379 693.959 654.516H694.052V653.455H695.301V660.145C695.301 660.707 695.17 661.169 694.909 661.53C694.648 661.891 694.294 662.158 693.848 662.331C693.405 662.504 692.905 662.591 692.348 662.591ZM692.335 658.845C692.701 658.845 693.011 658.76 693.264 658.589C693.52 658.416 693.713 658.169 693.844 657.848C693.977 657.524 694.044 657.136 694.044 656.685C694.044 656.244 693.978 655.857 693.848 655.521C693.717 655.186 693.525 654.925 693.273 654.737C693.02 654.547 692.707 654.452 692.335 654.452C691.951 654.452 691.632 654.551 691.376 654.75C691.121 654.946 690.927 655.213 690.797 655.551C690.669 655.889 690.605 656.267 690.605 656.685C690.605 657.114 690.67 657.49 690.801 657.814C690.932 658.138 691.125 658.391 691.38 658.572C691.639 658.754 691.957 658.845 692.335 658.845ZM700.545 660H699.147L702.288 651.273H703.809L706.95 660H705.552L703.085 652.858H703.017L700.545 660ZM700.779 656.582H705.313V657.69H700.779V656.582ZM709.287 651.273V660H707.97V651.273H709.287ZM713.798 660V653.455H715.021V654.52H715.102C715.238 654.159 715.461 653.878 715.771 653.676C716.081 653.472 716.451 653.369 716.883 653.369C717.321 653.369 717.687 653.472 717.983 653.676C718.281 653.881 718.501 654.162 718.643 654.52H718.711C718.868 654.17 719.116 653.892 719.457 653.685C719.798 653.474 720.204 653.369 720.676 653.369C721.27 653.369 721.754 653.555 722.129 653.928C722.507 654.3 722.696 654.861 722.696 655.611V660H721.422V655.73C721.422 655.287 721.301 654.966 721.059 654.767C720.818 654.568 720.53 654.469 720.194 654.469C719.78 654.469 719.457 654.597 719.227 654.852C718.997 655.105 718.882 655.43 718.882 655.828V660H717.612V655.649C717.612 655.294 717.501 655.009 717.28 654.793C717.058 654.577 716.77 654.469 716.414 654.469C716.173 654.469 715.95 654.533 715.745 654.661C715.544 654.786 715.38 654.96 715.255 655.185C715.133 655.409 715.072 655.669 715.072 655.964V660H713.798ZM726.068 660.145C725.654 660.145 725.279 660.068 724.943 659.915C724.608 659.759 724.342 659.533 724.146 659.237C723.953 658.942 723.857 658.58 723.857 658.151C723.857 657.781 723.928 657.477 724.07 657.239C724.212 657 724.404 656.811 724.645 656.672C724.886 656.533 725.156 656.428 725.455 656.357C725.753 656.286 726.057 656.232 726.367 656.195C726.759 656.149 727.077 656.112 727.321 656.084C727.565 656.053 727.743 656.003 727.854 655.935C727.965 655.866 728.02 655.756 728.02 655.602V655.572C728.02 655.2 727.915 654.912 727.705 654.707C727.497 654.503 727.188 654.401 726.776 654.401C726.347 654.401 726.009 654.496 725.761 654.686C725.517 654.874 725.348 655.082 725.254 655.312L724.057 655.04C724.199 654.642 724.406 654.321 724.679 654.077C724.955 653.83 725.271 653.651 725.629 653.54C725.987 653.426 726.364 653.369 726.759 653.369C727.02 653.369 727.297 653.401 727.59 653.463C727.885 653.523 728.161 653.634 728.416 653.795C728.675 653.957 728.886 654.189 729.051 654.49C729.216 654.788 729.298 655.176 729.298 655.653V660H728.054V659.105H728.003C727.921 659.27 727.797 659.432 727.632 659.591C727.467 659.75 727.256 659.882 726.997 659.987C726.739 660.092 726.429 660.145 726.068 660.145ZM726.345 659.122C726.698 659.122 726.999 659.053 727.249 658.913C727.502 658.774 727.693 658.592 727.824 658.368C727.958 658.141 728.024 657.898 728.024 657.639V656.795C727.979 656.841 727.891 656.884 727.76 656.923C727.632 656.96 727.486 656.993 727.321 657.021C727.156 657.047 726.996 657.071 726.84 657.094C726.683 657.114 726.553 657.131 726.448 657.145C726.2 657.176 725.975 657.229 725.77 657.303C725.568 657.376 725.406 657.483 725.284 657.622C725.165 657.759 725.105 657.94 725.105 658.168C725.105 658.483 725.222 658.722 725.455 658.884C725.688 659.043 725.985 659.122 726.345 659.122ZM735.66 655.053L734.506 655.257C734.457 655.109 734.381 654.969 734.275 654.835C734.173 654.702 734.034 654.592 733.858 654.507C733.682 654.422 733.461 654.379 733.197 654.379C732.836 654.379 732.535 654.46 732.294 654.622C732.052 654.781 731.932 654.987 731.932 655.24C731.932 655.459 732.013 655.635 732.175 655.768C732.336 655.902 732.598 656.011 732.959 656.097L733.998 656.335C734.601 656.474 735.05 656.689 735.345 656.979C735.64 657.268 735.788 657.645 735.788 658.108C735.788 658.5 735.675 658.849 735.447 659.156C735.223 659.46 734.909 659.699 734.506 659.872C734.105 660.045 733.64 660.132 733.112 660.132C732.379 660.132 731.781 659.976 731.318 659.663C730.855 659.348 730.571 658.901 730.466 658.321L731.697 658.134C731.774 658.455 731.932 658.697 732.17 658.862C732.409 659.024 732.72 659.105 733.104 659.105C733.521 659.105 733.855 659.018 734.105 658.845C734.355 658.669 734.48 658.455 734.48 658.202C734.48 657.997 734.403 657.825 734.25 657.686C734.099 657.547 733.868 657.442 733.555 657.371L732.447 657.128C731.836 656.989 731.385 656.767 731.092 656.463C730.802 656.159 730.658 655.774 730.658 655.308C730.658 654.922 730.765 654.584 730.981 654.294C731.197 654.004 731.496 653.778 731.876 653.616C732.257 653.452 732.693 653.369 733.184 653.369C733.892 653.369 734.449 653.523 734.855 653.83C735.261 654.134 735.53 654.541 735.66 655.053ZM740.005 653.455V654.477H736.429V653.455H740.005ZM737.388 651.886H738.662V658.078C738.662 658.325 738.699 658.511 738.773 658.636C738.847 658.759 738.942 658.842 739.058 658.888C739.178 658.93 739.307 658.952 739.446 658.952C739.549 658.952 739.638 658.945 739.715 658.93C739.791 658.916 739.851 658.905 739.894 658.896L740.124 659.949C740.05 659.977 739.945 660.006 739.808 660.034C739.672 660.065 739.502 660.082 739.297 660.085C738.962 660.091 738.649 660.031 738.36 659.906C738.07 659.781 737.835 659.588 737.656 659.327C737.478 659.065 737.388 658.737 737.388 658.342V651.886ZM743.925 660.132C743.28 660.132 742.724 659.994 742.258 659.719C741.795 659.44 741.437 659.05 741.185 658.547C740.935 658.041 740.81 657.449 740.81 656.77C740.81 656.099 740.935 655.509 741.185 654.997C741.437 654.486 741.79 654.087 742.241 653.8C742.696 653.513 743.227 653.369 743.835 653.369C744.204 653.369 744.562 653.43 744.909 653.553C745.256 653.675 745.567 653.866 745.842 654.128C746.118 654.389 746.335 654.729 746.494 655.146C746.653 655.561 746.733 656.065 746.733 656.659V657.111H741.53V656.156H745.484C745.484 655.821 745.416 655.524 745.28 655.266C745.143 655.004 744.952 654.798 744.704 654.648C744.46 654.497 744.173 654.422 743.844 654.422C743.486 654.422 743.173 654.51 742.906 654.686C742.642 654.859 742.437 655.087 742.293 655.368C742.151 655.646 742.079 655.949 742.079 656.276V657.021C742.079 657.459 742.156 657.831 742.31 658.138C742.466 658.445 742.683 658.679 742.962 658.841C743.24 659 743.565 659.08 743.937 659.08C744.179 659.08 744.399 659.045 744.598 658.977C744.797 658.906 744.969 658.801 745.114 658.662C745.258 658.523 745.369 658.351 745.446 658.146L746.652 658.364C746.555 658.719 746.382 659.03 746.132 659.297C745.885 659.561 745.574 659.767 745.199 659.915C744.827 660.06 744.402 660.132 743.925 660.132ZM747.907 660V653.455H749.138V654.494H749.206C749.326 654.142 749.536 653.865 749.837 653.663C750.141 653.459 750.485 653.357 750.868 653.357C750.948 653.357 751.042 653.359 751.15 653.365C751.26 653.371 751.347 653.378 751.409 653.386V654.605C751.358 654.591 751.267 654.575 751.137 654.558C751.006 654.538 750.875 654.528 750.745 654.528C750.444 654.528 750.175 654.592 749.939 654.72C749.706 654.845 749.522 655.02 749.385 655.244C749.249 655.466 749.181 655.719 749.181 656.003V660H747.907ZM753.277 662.455C753.086 662.455 752.913 662.439 752.757 662.408C752.601 662.379 752.484 662.348 752.407 662.314L752.714 661.27C752.947 661.332 753.155 661.359 753.336 661.351C753.518 661.342 753.679 661.274 753.818 661.146C753.96 661.018 754.085 660.81 754.193 660.52L754.351 660.085L751.956 653.455H753.319L754.977 658.534H755.045L756.703 653.455H758.071L755.373 660.874C755.248 661.214 755.089 661.503 754.896 661.739C754.703 661.977 754.473 662.156 754.206 662.276C753.939 662.395 753.629 662.455 753.277 662.455ZM765.82 655.76V656.864H761.951V655.76H765.82ZM772.972 660.132C772.358 660.132 771.822 659.991 771.365 659.71C770.908 659.429 770.552 659.036 770.3 658.53C770.047 658.024 769.92 657.433 769.92 656.757C769.92 656.078 770.047 655.484 770.3 654.976C770.552 654.467 770.908 654.072 771.365 653.791C771.822 653.51 772.358 653.369 772.972 653.369C773.585 653.369 774.121 653.51 774.578 653.791C775.035 654.072 775.391 654.467 775.643 654.976C775.896 655.484 776.023 656.078 776.023 656.757C776.023 657.433 775.896 658.024 775.643 658.53C775.391 659.036 775.035 659.429 774.578 659.71C774.121 659.991 773.585 660.132 772.972 660.132ZM772.976 659.062C773.374 659.062 773.703 658.957 773.964 658.747C774.226 658.537 774.419 658.257 774.544 657.908C774.672 657.558 774.736 657.173 774.736 656.753C774.736 656.335 774.672 655.952 774.544 655.602C774.419 655.25 774.226 654.967 773.964 654.754C773.703 654.541 773.374 654.435 772.976 654.435C772.575 654.435 772.243 654.541 771.979 654.754C771.717 654.967 771.523 655.25 771.395 655.602C771.27 655.952 771.207 656.335 771.207 656.753C771.207 657.173 771.27 657.558 771.395 657.908C771.523 658.257 771.717 658.537 771.979 658.747C772.243 658.957 772.575 659.062 772.976 659.062ZM778.479 656.114V660H777.205V653.455H778.428V654.52H778.509C778.659 654.173 778.895 653.895 779.216 653.685C779.54 653.474 779.948 653.369 780.439 653.369C780.885 653.369 781.276 653.463 781.611 653.651C781.946 653.835 782.206 654.111 782.391 654.477C782.576 654.844 782.668 655.297 782.668 655.837V660H781.394V655.99C781.394 655.516 781.27 655.145 781.023 654.878C780.776 654.608 780.436 654.473 780.005 654.473C779.709 654.473 779.446 654.537 779.216 654.665C778.989 654.793 778.809 654.98 778.675 655.227C778.544 655.472 778.479 655.767 778.479 656.114ZM786.958 660.132C786.313 660.132 785.758 659.994 785.292 659.719C784.829 659.44 784.471 659.05 784.218 658.547C783.968 658.041 783.843 657.449 783.843 656.77C783.843 656.099 783.968 655.509 784.218 654.997C784.471 654.486 784.823 654.087 785.275 653.8C785.729 653.513 786.26 653.369 786.868 653.369C787.238 653.369 787.596 653.43 787.942 653.553C788.289 653.675 788.6 653.866 788.875 654.128C789.151 654.389 789.368 654.729 789.527 655.146C789.686 655.561 789.766 656.065 789.766 656.659V657.111H784.563V656.156H788.517C788.517 655.821 788.449 655.524 788.313 655.266C788.177 655.004 787.985 654.798 787.738 654.648C787.493 654.497 787.206 654.422 786.877 654.422C786.519 654.422 786.206 654.51 785.939 654.686C785.675 654.859 785.471 655.087 785.326 655.368C785.184 655.646 785.113 655.949 785.113 656.276V657.021C785.113 657.459 785.189 657.831 785.343 658.138C785.499 658.445 785.716 658.679 785.995 658.841C786.273 659 786.598 659.08 786.971 659.08C787.212 659.08 787.432 659.045 787.631 658.977C787.83 658.906 788.002 658.801 788.147 658.662C788.292 658.523 788.402 658.351 788.479 658.146L789.685 658.364C789.588 658.719 789.415 659.03 789.165 659.297C788.918 659.561 788.607 659.767 788.232 659.915C787.86 660.06 787.435 660.132 786.958 660.132ZM796.931 653.455V654.477H793.356V653.455H796.931ZM794.314 651.886H795.589V658.078C795.589 658.325 795.626 658.511 795.699 658.636C795.773 658.759 795.868 658.842 795.985 658.888C796.104 658.93 796.233 658.952 796.373 658.952C796.475 658.952 796.564 658.945 796.641 658.93C796.718 658.916 796.778 658.905 796.82 658.896L797.05 659.949C796.976 659.977 796.871 660.006 796.735 660.034C796.599 660.065 796.428 660.082 796.224 660.085C795.888 660.091 795.576 660.031 795.286 659.906C794.996 659.781 794.762 659.588 794.583 659.327C794.404 659.065 794.314 658.737 794.314 658.342V651.886ZM800.787 660.132C800.174 660.132 799.638 659.991 799.181 659.71C798.723 659.429 798.368 659.036 798.115 658.53C797.862 658.024 797.736 657.433 797.736 656.757C797.736 656.078 797.862 655.484 798.115 654.976C798.368 654.467 798.723 654.072 799.181 653.791C799.638 653.51 800.174 653.369 800.787 653.369C801.401 653.369 801.936 653.51 802.394 653.791C802.851 654.072 803.206 654.467 803.459 654.976C803.712 655.484 803.838 656.078 803.838 656.757C803.838 657.433 803.712 658.024 803.459 658.53C803.206 659.036 802.851 659.429 802.394 659.71C801.936 659.991 801.401 660.132 800.787 660.132ZM800.791 659.062C801.189 659.062 801.519 658.957 801.78 658.747C802.041 658.537 802.235 658.257 802.36 657.908C802.487 657.558 802.551 657.173 802.551 656.753C802.551 656.335 802.487 655.952 802.36 655.602C802.235 655.25 802.041 654.967 801.78 654.754C801.519 654.541 801.189 654.435 800.791 654.435C800.391 654.435 800.058 654.541 799.794 654.754C799.533 654.967 799.338 655.25 799.21 655.602C799.085 655.952 799.023 656.335 799.023 656.753C799.023 657.173 799.085 657.558 799.21 657.908C799.338 658.257 799.533 658.537 799.794 658.747C800.058 658.957 800.391 659.062 800.791 659.062ZM807.778 660.132C807.164 660.132 806.628 659.991 806.171 659.71C805.714 659.429 805.359 659.036 805.106 658.53C804.853 658.024 804.726 657.433 804.726 656.757C804.726 656.078 804.853 655.484 805.106 654.976C805.359 654.467 805.714 654.072 806.171 653.791C806.628 653.51 807.164 653.369 807.778 653.369C808.391 653.369 808.927 653.51 809.384 653.791C809.842 654.072 810.197 654.467 810.449 654.976C810.702 655.484 810.829 656.078 810.829 656.757C810.829 657.433 810.702 658.024 810.449 658.53C810.197 659.036 809.842 659.429 809.384 659.71C808.927 659.991 808.391 660.132 807.778 660.132ZM807.782 659.062C808.18 659.062 808.509 658.957 808.771 658.747C809.032 658.537 809.225 658.257 809.35 657.908C809.478 657.558 809.542 657.173 809.542 656.753C809.542 656.335 809.478 655.952 809.35 655.602C809.225 655.25 809.032 654.967 808.771 654.754C808.509 654.541 808.18 654.435 807.782 654.435C807.381 654.435 807.049 654.541 806.785 654.754C806.523 654.967 806.329 655.25 806.201 655.602C806.076 655.952 806.013 656.335 806.013 656.753C806.013 657.173 806.076 657.558 806.201 657.908C806.329 658.257 806.523 658.537 806.785 658.747C807.049 658.957 807.381 659.062 807.782 659.062ZM813.285 651.273V660H812.011V651.273H813.285ZM819.6 660.145C819.185 660.145 818.81 660.068 818.475 659.915C818.14 659.759 817.874 659.533 817.678 659.237C817.485 658.942 817.388 658.58 817.388 658.151C817.388 657.781 817.459 657.477 817.601 657.239C817.743 657 817.935 656.811 818.177 656.672C818.418 656.533 818.688 656.428 818.986 656.357C819.285 656.286 819.589 656.232 819.898 656.195C820.29 656.149 820.608 656.112 820.853 656.084C821.097 656.053 821.275 656.003 821.385 655.935C821.496 655.866 821.552 655.756 821.552 655.602V655.572C821.552 655.2 821.446 654.912 821.236 654.707C821.029 654.503 820.719 654.401 820.307 654.401C819.878 654.401 819.54 654.496 819.293 654.686C819.049 654.874 818.88 655.082 818.786 655.312L817.589 655.04C817.731 654.642 817.938 654.321 818.211 654.077C818.486 653.83 818.803 653.651 819.161 653.54C819.519 653.426 819.895 653.369 820.29 653.369C820.552 653.369 820.829 653.401 821.121 653.463C821.417 653.523 821.692 653.634 821.948 653.795C822.206 653.957 822.418 654.189 822.583 654.49C822.748 654.788 822.83 655.176 822.83 655.653V660H821.586V659.105H821.535C821.452 659.27 821.329 659.432 821.164 659.591C820.999 659.75 820.787 659.882 820.529 659.987C820.27 660.092 819.961 660.145 819.6 660.145ZM819.877 659.122C820.229 659.122 820.53 659.053 820.78 658.913C821.033 658.774 821.225 658.592 821.356 658.368C821.489 658.141 821.556 657.898 821.556 657.639V656.795C821.51 656.841 821.422 656.884 821.292 656.923C821.164 656.96 821.017 656.993 820.853 657.021C820.688 657.047 820.527 657.071 820.371 657.094C820.215 657.114 820.084 657.131 819.979 657.145C819.732 657.176 819.506 657.229 819.302 657.303C819.1 657.376 818.938 657.483 818.816 657.622C818.696 657.759 818.637 657.94 818.637 658.168C818.637 658.483 818.753 658.722 818.986 658.884C819.219 659.043 819.516 659.122 819.877 659.122ZM827.342 653.455V654.477H823.767V653.455H827.342ZM824.726 651.886H826V658.078C826 658.325 826.037 658.511 826.111 658.636C826.185 658.759 826.28 658.842 826.396 658.888C826.516 658.93 826.645 658.952 826.784 658.952C826.887 658.952 826.976 658.945 827.053 658.93C827.129 658.916 827.189 658.905 827.232 658.896L827.462 659.949C827.388 659.977 827.283 660.006 827.146 660.034C827.01 660.065 826.84 660.082 826.635 660.085C826.3 660.091 825.987 660.031 825.698 659.906C825.408 659.781 825.173 659.588 824.994 659.327C824.815 659.065 824.726 658.737 824.726 658.342V651.886ZM833.353 660.145C832.938 660.145 832.563 660.068 832.228 659.915C831.892 659.759 831.627 659.533 831.431 659.237C831.237 658.942 831.141 658.58 831.141 658.151C831.141 657.781 831.212 657.477 831.354 657.239C831.496 657 831.688 656.811 831.929 656.672C832.171 656.533 832.441 656.428 832.739 656.357C833.037 656.286 833.341 656.232 833.651 656.195C834.043 656.149 834.361 656.112 834.605 656.084C834.85 656.053 835.027 656.003 835.138 655.935C835.249 655.866 835.304 655.756 835.304 655.602V655.572C835.304 655.2 835.199 654.912 834.989 654.707C834.781 654.503 834.472 654.401 834.06 654.401C833.631 654.401 833.293 654.496 833.046 654.686C832.801 654.874 832.632 655.082 832.539 655.312L831.341 655.04C831.483 654.642 831.691 654.321 831.963 654.077C832.239 653.83 832.556 653.651 832.914 653.54C833.272 653.426 833.648 653.369 834.043 653.369C834.304 653.369 834.581 653.401 834.874 653.463C835.169 653.523 835.445 653.634 835.701 653.795C835.959 653.957 836.171 654.189 836.335 654.49C836.5 654.788 836.583 655.176 836.583 655.653V660H835.338V659.105H835.287C835.205 659.27 835.081 659.432 834.916 659.591C834.752 659.75 834.54 659.882 834.281 659.987C834.023 660.092 833.713 660.145 833.353 660.145ZM833.63 659.122C833.982 659.122 834.283 659.053 834.533 658.913C834.786 658.774 834.978 658.592 835.108 658.368C835.242 658.141 835.308 657.898 835.308 657.639V656.795C835.263 656.841 835.175 656.884 835.044 656.923C834.916 656.96 834.77 656.993 834.605 657.021C834.441 657.047 834.28 657.071 834.124 657.094C833.968 657.114 833.837 657.131 833.732 657.145C833.485 657.176 833.259 657.229 833.054 657.303C832.853 657.376 832.691 657.483 832.568 657.622C832.449 657.759 832.389 657.94 832.389 658.168C832.389 658.483 832.506 658.722 832.739 658.884C832.972 659.043 833.269 659.122 833.63 659.122ZM844.031 653.455V654.477H840.456V653.455H844.031ZM841.414 651.886H842.689V658.078C842.689 658.325 842.726 658.511 842.799 658.636C842.873 658.759 842.968 658.842 843.085 658.888C843.204 658.93 843.333 658.952 843.473 658.952C843.575 658.952 843.664 658.945 843.741 658.93C843.818 658.916 843.878 658.905 843.92 658.896L844.15 659.949C844.076 659.977 843.971 660.006 843.835 660.034C843.699 660.065 843.528 660.082 843.324 660.085C842.988 660.091 842.676 660.031 842.386 659.906C842.096 659.781 841.862 659.588 841.683 659.327C841.504 659.065 841.414 658.737 841.414 658.342V651.886ZM845.2 660V653.455H846.474V660H845.2ZM845.844 652.445C845.622 652.445 845.432 652.371 845.273 652.223C845.117 652.072 845.038 651.893 845.038 651.686C845.038 651.476 845.117 651.297 845.273 651.149C845.432 650.999 845.622 650.923 845.844 650.923C846.065 650.923 846.254 650.999 846.411 651.149C846.57 651.297 846.649 651.476 846.649 651.686C846.649 651.893 846.57 652.072 846.411 652.223C846.254 652.371 846.065 652.445 845.844 652.445ZM847.949 660V653.455H849.172V654.52H849.253C849.389 654.159 849.612 653.878 849.922 653.676C850.231 653.472 850.602 653.369 851.034 653.369C851.471 653.369 851.838 653.472 852.133 653.676C852.432 653.881 852.652 654.162 852.794 654.52H852.862C853.018 654.17 853.267 653.892 853.608 653.685C853.949 653.474 854.355 653.369 854.826 653.369C855.42 653.369 855.905 653.555 856.28 653.928C856.657 654.3 856.846 654.861 856.846 655.611V660H855.572V655.73C855.572 655.287 855.451 654.966 855.21 654.767C854.969 654.568 854.68 654.469 854.345 654.469C853.93 654.469 853.608 654.597 853.378 654.852C853.148 655.105 853.032 655.43 853.032 655.828V660H851.763V655.649C851.763 655.294 851.652 655.009 851.43 654.793C851.209 654.577 850.92 654.469 850.565 654.469C850.324 654.469 850.101 654.533 849.896 654.661C849.694 654.786 849.531 654.96 849.406 655.185C849.284 655.409 849.223 655.669 849.223 655.964V660H847.949ZM861.135 660.132C860.49 660.132 859.935 659.994 859.469 659.719C859.006 659.44 858.648 659.05 858.395 658.547C858.145 658.041 858.02 657.449 858.02 656.77C858.02 656.099 858.145 655.509 858.395 654.997C858.648 654.486 859 654.087 859.452 653.8C859.906 653.513 860.438 653.369 861.046 653.369C861.415 653.369 861.773 653.43 862.12 653.553C862.466 653.675 862.777 653.866 863.053 654.128C863.328 654.389 863.546 654.729 863.705 655.146C863.864 655.561 863.943 656.065 863.943 656.659V657.111H858.74V656.156H862.695C862.695 655.821 862.627 655.524 862.49 655.266C862.354 655.004 862.162 654.798 861.915 654.648C861.671 654.497 861.384 654.422 861.054 654.422C860.696 654.422 860.384 654.51 860.117 654.686C859.852 654.859 859.648 655.087 859.503 655.368C859.361 655.646 859.29 655.949 859.29 656.276V657.021C859.29 657.459 859.367 657.831 859.52 658.138C859.676 658.445 859.894 658.679 860.172 658.841C860.45 659 860.776 659.08 861.148 659.08C861.389 659.08 861.61 659.045 861.808 658.977C862.007 658.906 862.179 658.801 862.324 658.662C862.469 658.523 862.58 658.351 862.656 658.146L863.862 658.364C863.766 658.719 863.593 659.03 863.343 659.297C863.095 659.561 862.784 659.767 862.409 659.915C862.037 660.06 861.612 660.132 861.135 660.132Z" fill="white" fill-opacity="0.6"/>
</svg>
