<svg width="1248" height="494" viewBox="0 0 1248 494" fill="none" xmlns="http://www.w3.org/2000/svg">
<path d="M772.305 319.837V482.849L649.351 509.658L772.305 319.837Z" fill="#567EB9"/>
<path d="M-19.0515 448.804C-19.0515 448.804 208.892 375.531 384.502 319.471C560.112 263.411 707.538 230.189 757.402 283.401C807.266 336.613 718.593 413.188 693.553 460.276C668.513 507.365 817.54 478.925 929.476 453.303C1041.41 427.681 1329.22 333.791 1225.42 623.204H-19.0552L-19.0515 448.804Z" fill="#6B96D7"/>
<path d="M598.374 374.343L562.847 374.238C562.248 372.26 564.244 363.221 563.682 359.94C551.734 290.228 559.849 265.491 559.648 262.73L593.559 259.96L577.785 356.032C577.388 359.296 579.242 362.39 582.196 363.424C588.777 366.17 596.822 364.678 600.57 370.809C601.318 372.451 600.098 374.348 598.374 374.343Z" fill="#F9BAA4"/>
<path d="M562.172 370.568C562.316 371.855 562.651 373.107 563.262 374.236L599.815 374.343C601.592 374.348 602.884 372.513 602.3 370.748C600.924 366.625 596.123 360.632 579.277 359.656C579.277 359.656 573.54 361.433 564.121 359.612C564.121 359.612 561.582 365.349 562.172 370.568Z" fill="#779AED"/>
<path d="M591.315 369.813C592.542 366.505 595.297 364.497 595.398 364.674C596.29 364.295 595.743 362.742 594.855 363.144C594.729 363.2 591.753 364.53 590.15 368.875C589.839 369.643 590.764 370.371 591.315 369.813Z" fill="white"/>
<path d="M585.58 368.96C586.726 365.364 590.413 362.617 590.507 362.803C591.388 362.363 590.677 360.969 589.808 361.44C589.646 361.526 585.78 363.581 584.363 368.146C584.116 368.855 585.04 369.459 585.58 368.96Z" fill="white"/>
<path d="M579.002 368.083C580.762 362.702 584.954 361.187 584.241 359.878C583.198 358.597 579.779 362.077 577.783 367.196C577.505 367.95 578.448 368.62 579.002 368.083Z" fill="white"/>
<path d="M598.997 370.984L562.083 370.876C562.216 372.059 562.523 373.208 563.086 374.245L596.729 374.343C598.388 374.351 599.581 372.612 598.997 370.984Z" fill="#506FB9"/>
<path d="M601.618 178.506C601.618 178.506 601.046 195.205 600.392 215.449C600.15 222.933 599.894 230.9 599.651 238.687C599.234 252.136 598.856 265.052 598.645 274.005C598.289 288.99 593.383 328.717 591.364 344.529C590.837 348.662 590.507 351.16 590.507 351.16C590.507 351.16 588.262 351.948 584.393 352.618C577.539 353.804 565.587 354.623 551.979 350.048C551.979 350.048 552.128 347.115 552.315 342.143C552.871 327.463 553.764 295.031 552.118 268.063C550.743 245.502 546.509 205.928 548.699 181.833L574.117 180.236L601.618 178.506Z" fill="#5D58A6"/>
<path d="M612.864 94.219C626.883 102.394 642.897 112.061 649.079 128.299C651.383 139.217 639.209 147.981 631.915 154.224C629.253 157.565 623.612 165.189 628.198 167.642C633.45 170.081 645.426 162.252 650.211 159.805C670.38 147.442 676.109 126.437 662.771 105.558C653.188 90.2328 639.005 78.9471 623.625 70.7386C608.669 63.4016 598.032 86.5864 612.864 94.219Z" fill="#EEB6A3"/>
<path d="M600.795 215.261C600.126 235.834 599.37 260.042 599.034 274.293C598.581 293.348 590.831 352.075 590.831 352.075C590.831 352.075 588.569 352.87 584.669 353.545C586.658 337.766 597.075 253.059 592.876 241.008C588.246 227.709 582.674 211.434 582.674 211.434L600.795 215.261Z" fill="#3F3B76"/>
<path d="M647.63 161.855C645.092 163.143 643.425 163.775 643.425 163.775C643.425 163.775 636.291 158.398 635.623 150.675C652.6 131.285 632.246 125.975 620.827 114.791C600.892 95.2681 600.897 67.1329 599.971 65.8851C638.088 64.2867 710.741 131.482 647.63 161.855Z" fill="#B9DBE4"/>
<path d="M575.547 95.9176C561.528 104.081 545.513 113.734 539.332 129.949C537.028 140.852 549.202 149.604 556.496 155.839C559.158 159.175 560.685 165.097 556.099 167.546C550.847 169.981 542.985 163.855 538.2 161.412C518.031 149.066 512.302 128.091 525.64 107.24C535.223 91.9371 549.406 80.6675 564.786 72.4702C579.742 65.1437 590.379 88.2961 575.547 95.9176Z" fill="#F99370"/>
<path d="M567.214 115.885C556.662 126.203 539.339 131.838 550.005 147.85C550.915 149.214 552.029 150.654 553.366 152.18C552.693 159.911 547.794 166.374 547.794 166.374C547.794 166.374 547.209 166.12 546.25 165.694C544.855 165.078 542.665 164.094 540.331 163.006C477.033 132.595 540.48 69.7935 579.255 66.7229C577.748 66.8424 587.21 96.3343 567.214 115.885Z" fill="#B9DBE4"/>
<path d="M681.396 363.223L646.135 364.811C646.221 362.89 647.965 357.826 646.351 350.43C637.63 310.479 629.27 270.264 628.798 263.568L659.266 255.628L660.384 345.828C660.127 349.121 662.128 352.134 665.149 353.029C671.738 355.287 678.754 353.861 683.379 358.606C684.773 360.412 683.605 363.123 681.396 363.223Z" fill="#F9BAA4"/>
<path d="M645.44 360.473C645.632 361.702 646.003 362.888 646.635 363.944L681.582 362.365C683.281 362.288 684.44 360.467 683.808 358.8C682.32 354.906 677.481 349.374 661.337 349.213C661.337 349.213 655.926 351.182 646.846 349.867C646.846 349.867 644.658 355.491 645.44 360.473Z" fill="#779AED"/>
<path d="M674.093 358.742C674.394 358.724 674.669 358.524 674.776 358.213C676.023 354.596 678.493 353.397 678.597 353.348C679.509 352.938 678.873 351.457 677.968 351.891C677.839 351.95 674.803 353.386 673.323 357.678C673.129 358.2 673.557 358.785 674.093 358.742Z" fill="white"/>
<path d="M668.261 357.876C668.559 357.858 668.826 357.64 668.906 357.318C669.877 353.417 673.001 351.46 673.033 351.44C674.54 347.871 668.579 351.893 667.535 356.936C667.406 357.418 667.791 357.912 668.261 357.876Z" fill="white"/>
<path d="M553.847 151.766C553.146 159.723 548.043 166.374 548.043 166.374C548.043 166.374 547.433 166.112 546.434 165.674C547.235 161.489 548.838 153.353 550.346 147.31C551.294 148.714 552.455 150.196 553.847 151.766Z" fill="#E5C1AE"/>
<path d="M661.681 357.01C661.973 356.992 662.237 356.777 662.326 356.454C663.5 352.196 666.5 349.768 666.53 349.744C667.67 345.863 662.232 350.759 660.953 356.003C660.803 356.511 661.196 357.05 661.681 357.01Z" fill="white"/>
<path d="M683.784 358.745L645.271 360.476C645.463 361.704 645.837 362.889 646.471 363.944L681.571 362.366C683.302 362.291 684.468 360.416 683.784 358.745Z" fill="#506FB9"/>
<path d="M674.923 336.673C652.909 348.082 637.249 340.939 637.249 340.939C637.249 340.939 637.064 338.532 636.707 334.558C635.286 318.933 631.137 279.107 624.699 266.372C622.401 261.824 611.445 252.539 600.229 238.628C589.607 225.451 578.748 208.124 574.791 186.737C574.385 184.547 574.339 182.344 574.602 180.165C577.537 156.042 618.668 135.219 634.685 178.456C634.776 178.7 655.111 214.977 665.489 241.277C672.021 257.822 674.176 310.924 674.748 329.874C674.874 334.136 674.923 336.673 674.923 336.673Z" fill="#5D58A6"/>
<path d="M582.674 57.0366V65.8521C582.674 65.8521 588.079 71.7115 596.676 65.8509V51.9918L582.674 57.0366Z" fill="#EEB6A3"/>
<path d="M634.557 179.137C591.004 197.005 549.353 182.449 549.353 182.449C543.401 173.665 551.91 160.426 552.988 132.925C554.092 104.785 567.29 79.0719 579.544 66.8758C579.544 66.8758 582.834 66.8758 582.834 66.4757C582.834 66.4757 587.755 73.8402 597.096 65.8571L600.272 65.9341C609.543 70.4888 619.115 86.7534 625.911 109.847C626.221 110.9 626.732 113.035 627.366 115.934C628.14 119.495 629.099 124.207 630.077 129.469C630.329 130.823 630.583 132.214 630.834 133.633C630.922 134.122 631.01 134.618 631.097 135.116C634.104 152.323 636.804 172.838 634.557 179.137Z" fill="#B9DBE4"/>
<path d="M630.446 132.579C628.899 128.423 627.07 124.314 625.401 122.581C621.469 118.505 618.915 112.649 618.915 112.649L628.077 120.409C628.846 123.866 628.721 123.427 629.694 128.536C629.944 129.851 630.196 131.202 630.446 132.579Z" fill="#759CA6"/>
<path d="M580.746 56.9177C591.082 62.9857 600.682 62.8438 606.899 57.7579C616.941 49.5439 609.784 37.2649 610.738 27.2004C610.871 24.4691 611.209 22.5427 611.209 22.5427C573.705 21.7871 578.814 56.4812 580.746 56.9177Z" fill="#EEB6A3"/>
<path d="M588.754 56.3249C590.679 56.3369 598.28 56.1312 599.436 52.1026C600.591 48.0701 601.598 46.506 601.598 46.506L606.293 40.1724C606.135 33.7278 610.884 27.3792 611.033 27.1839C611.036 27.1787 611.036 27.1787 611.036 27.1787C611.167 24.453 611.502 22.5306 611.502 22.5306C610.579 22.5606 609.682 22.6078 608.81 22.6728L602.133 26.1437L594.373 32.4605C594.373 32.4605 586.832 56.3121 588.754 56.3249Z" fill="#F1A18B"/>
<path d="M605.216 37.1871C605.216 37.1871 606.748 28.3135 611.667 23.9282C622.198 14.5388 612.983 8.47546 606.334 6.51784C599.684 4.5599 574.499 8.84961 576.229 21.5928C576.229 21.5928 567.359 23.6481 573.047 44.5421C575.03 51.8268 581.408 56.3247 581.408 56.3247C581.408 56.3247 584.711 55.6708 588.899 55.8148C591.916 55.9187 596.874 54.2654 597.692 51.2315C599.102 46.0024 601.605 39.0474 605.216 37.1871Z" fill="#8C4225"/>
<path d="M604.509 3.28317C606.868 3.35054 611.768 1.96332 615.066 6.21084C617.539 9.39757 615.628 9.91196 617.029 15.336C618.017 19.1614 615.867 22.0641 611.892 24.8546C607.917 27.6451 605.672 30.9751 605.771 35.3177C605.869 39.6603 599.66 45.2043 598.491 47.8896C597.321 50.5748 598.031 53.2025 595.328 55.677C592.624 58.1515 589.739 55.9985 586.916 55.9976C584.092 55.9967 582.33 58.1057 577.614 56.719C572.898 55.3324 572.784 52.0319 572.195 49.3325C571.607 46.6331 568.261 45.5957 567.389 41.9081C566.516 38.2205 568.68 36.4622 568.535 32.7793C568.39 29.0963 564.844 25.0244 569.151 20.5566C573.457 16.0891 574.225 15.7732 574.99 11.3453C575.754 6.91753 579.315 4.24491 582.844 4.30859C586.373 4.37228 589.204 2.54787 592.789 0.511174C596.374 -1.52521 600.64 3.17272 604.509 3.28317Z" fill="#8C4225"/>
<path d="M599.298 42.2076C599.965 45.7495 602.65 48.1517 605.296 47.5732C607.942 46.9947 609.547 43.6544 608.88 40.1128C608.213 36.5709 605.528 34.1687 602.882 34.7472C600.236 35.3253 598.631 38.6657 599.298 42.2076Z" fill="#EEB6A3"/>
<path d="M605.494 37.6838C605.393 37.6395 602.998 36.5928 601.638 37.9667C601.291 38.316 601.059 38.7907 600.926 39.3723C600.925 39.3737 600.925 39.375 600.925 39.3763C600.912 39.4306 600.895 39.4792 600.884 39.5358C600.884 39.5368 600.884 39.5375 600.884 39.5381V39.5388C600.682 40.6224 600.822 42.074 601.306 43.885C601.361 44.0868 601.538 44.213 601.722 44.1903C601.744 44.1877 601.767 44.1823 601.79 44.1754C601.995 44.1078 602.113 43.8674 602.052 43.64C601.659 42.1719 601.513 40.9797 601.6 40.0808C603.836 40.5425 604.941 43.3301 604.952 43.36C605.02 43.5405 605.187 43.6427 605.354 43.6224C605.389 43.618 605.425 43.6071 605.461 43.5907C605.659 43.5005 605.752 43.2488 605.67 43.0288C605.617 42.8896 604.416 39.7752 601.79 39.2162C601.885 38.9732 602.003 38.7624 602.16 38.6036C603.159 37.5939 605.185 38.4745 605.204 38.4828C605.406 38.57 605.629 38.4621 605.71 38.2424C605.789 38.0223 605.693 37.773 605.494 37.6838Z" fill="#EB9E94"/>
<path d="M579.38 66.0616C579.38 66.0616 580.774 68.7228 583.52 70.0506C587.758 72.1004 596.767 71.2777 599.971 65.1317C597.994 64.8677 596.817 65.0542 596.817 65.0542C593.135 68.0911 586.21 68.7355 582.652 65.6659C582.652 65.6659 581.471 65.7139 579.38 66.0616Z" fill="#759CA6"/>
<path d="M590.911 343.771C590.393 347.854 590.068 350.322 590.068 350.322C590.068 350.322 587.862 351.101 584.059 351.762C577.322 352.934 565.575 353.744 552.2 349.224C552.2 349.224 552.346 346.326 552.53 341.414C558.956 343.839 571.168 346.515 590.911 343.771Z" fill="#3F3B76"/>
<path d="M673.275 335.941C651.925 347.113 636.737 340.119 636.737 340.119C636.737 340.119 636.558 337.762 636.211 333.87C642.937 334.979 657.212 336.027 673.105 329.283C673.228 333.457 673.275 335.941 673.275 335.941Z" fill="#3F3B76"/>
<path d="M601.269 93.5862C601.269 93.5862 611.2 75.8462 618.915 69.4537C618.915 69.4537 611.835 65.0594 604.234 65.9853C604.234 65.9853 593.888 79.6339 592.558 91.323L601.269 93.5862Z" fill="#1A2E50"/>
<path d="M576.905 89.2528C576.905 89.2528 577.08 76.0405 574.985 66.8263C574.985 66.8263 567.743 65.7788 562.907 70.3518C562.907 70.3518 565.961 81.1715 569.998 89.2528H576.905Z" fill="#1A2E50"/>
<path d="M632.616 143.426C632.616 143.426 614.88 134.466 609.855 116.115L614.197 142.417C614.197 142.417 620.722 150.364 633.909 152.51C633.909 152.51 636.039 150.265 632.616 143.426Z" fill="#1A2E50"/>
<path d="M553.348 140.379L552.009 141.123C552.009 141.123 549.624 145.224 550.958 149.044C550.958 149.044 556.859 148.083 559.612 142.797L553.348 140.379Z" fill="#F49F9F"/>
<path d="M584.067 84.9204C609.896 84.9204 614.542 96.8408 619.823 123.032C628.61 166.612 626.423 194.541 578.337 192.238C542 190.498 549.612 140.233 552.176 119.614C554.291 102.611 560.005 84.9204 584.067 84.9204Z" fill="#26406D"/>
<path d="M568.144 86.6292C562.722 89.619 556.98 92.8229 550.665 103.228C543.866 114.428 539.655 128.77 557.244 132.64C574.833 136.511 603.954 132.898 611.194 129.544C618.434 126.19 616.039 103.414 609.433 93.3876C602.826 83.3611 580.204 79.9784 568.144 86.6292Z" fill="#1A2E50"/>
<path d="M562.939 123.048C558.058 123.048 556.62 137.392 559.292 143.185C561.965 148.978 567.623 146.415 566.581 140.452C565.367 133.501 570.145 123.048 562.939 123.048Z" fill="#12223E"/>
<path d="M593.414 121.315C588.533 121.315 587.095 135.659 589.767 141.453C592.44 147.246 598.098 144.682 597.056 138.719C595.841 131.768 600.619 121.315 593.414 121.315Z" fill="#12223E"/>
<path d="M581.085 153.303C565.526 153.527 558.348 152.468 555.925 156.014C552.652 160.803 555.672 178.676 566.298 185.029C576.119 190.901 591.017 188.836 598.079 186.993C605.141 185.151 613.282 179.795 614.386 169.762C615.489 159.73 614.631 152.353 608.562 151.753C602.493 151.154 588.373 153.198 581.085 153.303Z" fill="#1A2E50"/>
</svg>
