<svg width="607" height="470" viewBox="0 0 607 470" fill="none" xmlns="http://www.w3.org/2000/svg">
<path d="M586.469 102.139H162.593H146.24C116.228 101.847 114.745 133.704 112.091 146.421L69.5516 423.123C68.8101 427.627 67.4832 435.382 67.4832 443.347C67.4832 457.065 71.3859 471.284 88.8701 469.908H523.557C550.954 469.908 550.915 460.526 558.135 425.625L605.397 146.421C612.305 109.311 585.22 102.097 586.43 102.097L586.469 102.139Z" fill="#C3A9CF" fill-opacity="0.31"/>
<path d="M21.3451 135.637C19.3153 132.782 18.3785 127.776 18.1053 124.259C24.8191 118.218 33.6408 121.818 40.706 118.963C45.5462 116.977 52.0258 113.419 57.2564 113.543C63.4628 113.667 66.039 114.991 67.4832 122.19L56.6709 138.409L32.9772 146.105C30.1668 143.623 24.3897 139.94 21.3451 135.637Z" fill="#11192E"/>
<path d="M571.619 86.2556C570.409 86.2556 597.465 93.4177 590.593 130.263H97.11C99.7649 117.595 101.248 86.0071 131.271 86.2969H571.619V86.2556Z" fill="#313A5B"/>
<path d="M590.89 130.263L543.601 409.74C536.377 444.675 536.416 454.066 509.003 454.066H74.069C56.5748 455.443 52.6699 441.21 52.6699 427.479C52.6699 413.747 53.9976 411.743 54.7395 407.236L97.3035 130.263H590.89Z" fill="#DAD1EF"/>
<path d="M158.01 114.861C158.01 118.519 155.258 121.462 151.837 121.462C148.417 121.462 145.665 118.519 145.665 114.861C145.665 111.203 148.417 108.259 151.837 108.259C155.258 108.259 158.01 111.203 158.01 114.861Z" fill="#DAD1EF"/>
<path d="M185.99 115.741C185.99 119.399 183.238 122.342 179.818 122.342C176.398 122.342 173.646 119.399 173.646 115.741C173.646 112.083 176.398 109.139 179.818 109.139C183.238 109.139 185.99 112.083 185.99 115.741Z" fill="#DAD1EF"/>
<path d="M213.971 115.741C213.971 119.399 211.219 122.342 207.799 122.342C204.379 122.342 201.627 119.399 201.627 115.741C201.627 112.083 204.379 109.139 207.799 109.139C211.219 109.139 213.971 112.083 213.971 115.741Z" fill="#DAD1EF"/>
<path d="M16.9606 29.3295C9.12522 19.7241 -1.57004 72.4914 0.192923 79.3108C3.71886 92.9912 15.5111 104.759 22.6805 116.527C27.0292 123.679 30.4767 130.456 31.2995 139.064L59.076 127.92C59.6244 108.792 59.4286 97.7316 50.5354 80.7662C45.2465 70.7034 42.3474 59.0605 38.3121 48.4156C35.6873 41.3882 29.7716 28.9137 28.4004 44.0911C27.7736 51.0352 34.6687 60.9733 32.1222 67.6679C28.753 76.4001 17.6659 56.7319 16.6081 51.3679C15.7462 46.9186 19.8206 32.9056 16.9606 29.4127V29.3295Z" fill="#E7A98B"/>
<path d="M58.1922 118.012L58.0384 127.258L30.7344 139.064C30.7344 139.064 29.8114 132.831 27.1579 125.772C27.1579 125.772 44.694 126.433 58.1922 117.393C71.6904 108.353 58.1922 118.053 58.1922 118.053V118.012Z" fill="#B96C53"/>
<path d="M19.2026 95.057L19.7512 94.6392C18.9674 93.4696 18.0661 92.2164 17.0864 90.9215C13.8337 86.4936 10.15 81.4809 9.83647 76.3429C9.75809 75.1733 10.6202 72.5416 11.5215 69.7428C13.3242 64.1453 15.3621 57.8376 12.6188 56.5009C11.9526 56.2085 11.2472 56.2921 10.5027 56.7516C5.91755 59.7174 0.117567 78.2644 0 81.272H0.70542C0.822987 78.7239 6.4662 60.2604 10.8945 57.3781C11.4432 57.0022 11.9134 56.9604 12.3445 57.1693C14.4607 58.2136 12.3837 64.7301 10.8553 69.4922C9.91479 72.4998 9.05267 75.0479 9.13105 76.3847C9.44456 81.7315 13.2067 86.8696 16.5377 91.381C17.4783 92.676 18.3796 93.8873 19.1634 95.057H19.2026Z" fill="#B96C53"/>
<path d="M12.0885 57.127C12.246 56.7116 12.443 56.13 12.7186 55.4239C14.7268 49.8991 18.8612 38.3926 14.6086 36.4402C13.5454 35.9418 12.5216 35.9833 11.5766 36.4818C9.72594 37.5203 8.62341 40.345 8.22964 42.4635L8.89902 42.5881C9.29278 40.4696 10.356 37.9772 11.8916 37.1464C12.6398 36.731 13.4667 36.731 14.2936 37.1464C17.9556 38.808 13.821 50.3145 12.0491 55.2162C11.7735 55.9223 11.5767 56.5039 11.4192 56.9608L12.0885 57.2101V57.127Z" fill="#B96C53"/>
<path d="M26.0133 80.0944C26.0893 80.0944 26.1653 80.0944 26.2412 79.9301C26.3931 79.7246 26.3551 79.6424 26.1653 79.3959C26.1653 79.3959 26.1652 79.3959 26.0893 79.3548C26.0133 79.2727 25.8614 79.1905 25.7096 79.0672C24.5325 78.1222 20.9635 75.246 19.9383 74.2188C17.4323 71.6714 14.2809 67.316 12.9899 63.3716L12.3445 63.6182C13.6734 67.6859 16.9007 72.1644 19.4447 74.753C20.4698 75.7802 23.963 78.5742 25.254 79.6425C25.3679 79.7247 25.4818 79.8068 25.5577 79.889C25.5957 79.889 25.6337 79.9712 25.6717 79.9712C25.7476 80.0122 25.8235 80.0534 25.8994 80.0534L26.0133 80.0944Z" fill="#B96C53"/>
<path d="M24.2601 88.0156L24.689 87.4288C23.7144 86.6325 22.7398 85.8781 21.7653 85.1237C17.3213 81.6869 12.7603 78.1663 10.4993 72.1729L9.87558 72.4663C12.2145 78.6273 16.8535 82.2318 21.3755 85.7104C22.35 86.4648 23.3246 87.2193 24.2992 88.0156H24.2601Z" fill="#B96C53"/>
<path d="M43.1375 107.379L43.6172 106.821C38.0199 101.196 34.4216 90.6346 35.4211 82.8206L34.7414 82.7347C33.7019 90.9351 37.3402 101.54 43.1375 107.379Z" fill="#B96C53"/>
<path d="M64.1079 114.462C64.1079 114.462 30.0562 147.452 18.0288 123.816C11.7027 194.473 46.8478 291.605 75.5886 327.644C122.292 368.902 182.469 323.76 219.136 290.436C237.021 274.192 259.358 258.323 272.01 236.901C285.99 213.181 274.353 167.33 283.1 153.048C268.066 177.602 234.132 164.49 212.42 167.789C186.217 171.714 167.708 195.893 148.807 213.474C140.763 220.949 128.111 232.85 120.223 240.492C108.352 201.029 90.5447 146.45 64.1079 114.42V114.462Z" fill="#6560A7"/>
<path d="M253.474 259.645C253.083 259.979 240.419 268.164 235.064 271.546C187.104 302.03 119.875 369.845 58.4306 300.401C58.4306 300.401 64.4108 313.972 75.3942 327.335C75.3942 327.335 131.288 385.546 224.588 285.285L253.474 259.645Z" fill="#3E3B6F"/>
<path d="M368.296 92.6796C373.61 77.9429 383.496 32.0675 355.832 33.9824C352.588 5.63296 324.69 -3.40058 301.246 1.09537C276.63 5.8411 268.229 47.8033 271.394 69.4921C275.028 94.5113 285.187 129.147 307.85 139.304C332.857 150.503 358.254 120.405 368.296 92.638V92.6796Z" fill="#0F1326"/>
<path d="M313.967 16.777C326.812 17.6497 335.608 42.0037 339.033 52.3936C344.443 68.6849 341.836 88.9245 348.335 104.218C350.982 102.348 353.901 101.766 356.47 102.14C362.269 103.013 366.317 108.915 361.841 116.562C357.638 123.751 346.74 130.11 338.566 128.614C334.363 136.261 334.012 166.683 336.503 178.07C339.578 192.034 328.563 196.896 324.165 199.182C306.3 192.075 292.21 234.716 274.15 228.149C277.537 220.211 277.264 157.373 279.483 155.96C285.671 152.012 296.997 142.744 298.905 134.973C278.587 136.884 266.483 106.255 268.507 86.9712C270.881 64.238 286.06 14.8652 313.967 16.777Z" fill="#EEBB9C"/>
<path d="M359.559 76.4125C335.966 88.7846 283.695 38.1674 291.246 16.6415C306.192 -25.8669 370.749 54.385 359.05 74.5734C357.29 77.5828 361.828 75.2003 359.559 76.4125Z" fill="#0F1326"/>
<path d="M299.082 134.88C299.082 134.88 311.657 138.089 325.072 131.143C325.072 131.143 307.58 152.062 290.507 147.106C290.507 147.106 296.567 140.851 299.044 134.839L299.082 134.88Z" fill="#B96C53"/>
<path d="M300.383 67.5239C298.369 75.112 296.394 82.7002 294.381 90.2471C293.916 91.9379 293.49 93.6287 293.025 95.3195C292.987 95.1546 292.909 94.9484 292.87 94.7835C294.342 95.7732 295.852 96.763 297.324 97.7527C297.827 98.0826 297.285 98.825 296.781 98.495C295.31 97.5053 293.8 96.5155 292.328 95.5257C292.135 95.402 292.135 95.1546 292.173 94.9897C294.187 87.4015 296.162 79.8134 298.176 72.2665C298.64 70.5757 299.066 68.8848 299.531 67.194C299.686 66.6166 300.499 66.9466 300.344 67.5239H300.383Z" fill="#B96C53"/>
<path d="M308.156 84.3494C307.434 86.2105 307.817 88.167 308.963 88.7396C310.11 89.3122 311.638 88.2624 312.36 86.4013C313.082 84.5403 312.7 82.5838 311.554 82.0111C310.407 81.4385 308.878 82.4883 308.156 84.3494Z" fill="#0F1326"/>
<path d="M281.646 76.3137C281.171 77.9603 281.61 79.607 282.634 80.0186C283.658 80.3891 284.902 79.36 285.378 77.7134C285.853 76.0668 285.414 74.4202 284.39 74.0085C283.366 73.638 282.122 74.6671 281.646 76.3137Z" fill="#0F1326"/>
<path d="M271.025 86.8857C270.035 89.727 271.863 93.1448 275.1 94.5037C278.375 95.8626 281.841 94.6273 282.831 91.7859C283.822 88.9446 281.993 85.5268 278.756 84.1679C275.481 82.809 272.015 84.0444 271.025 86.8857Z" fill="#B96C53"/>
<path d="M312.996 100.968C312.006 103.809 313.834 107.227 317.071 108.586C320.347 109.945 323.812 108.71 324.803 105.868C325.793 103.027 323.965 99.6093 320.728 98.2504C317.452 96.8915 313.987 98.1268 312.996 100.968Z" fill="#B96C53"/>
<path d="M288.071 112.981C287.942 113.366 288.393 113.906 289.069 114.214C289.745 114.523 290.389 114.484 290.485 114.099C290.614 113.713 290.163 113.174 289.487 112.865C288.811 112.557 288.167 112.595 288.038 112.981H288.071Z" fill="#B96C53"/>
<path d="M324.09 76.9564C323.297 78.3717 320.879 76.5275 317.786 74.426C314.694 72.3673 312.078 70.8663 312.871 69.4509C313.663 68.0356 316.835 68.5503 319.927 70.609C323.019 72.6676 324.883 75.4982 324.05 76.9135L324.09 76.9564Z" fill="#0F1326"/>
<path d="M293.744 63.293C293.464 64.8771 290.581 64.1684 286.977 63.5015C283.373 62.8345 280.369 62.5427 280.65 60.9169C280.93 59.3329 284.053 58.5409 287.698 59.2079C291.302 59.8748 294.025 61.6673 293.784 63.293H293.744Z" fill="#0F1326"/>
<path d="M303.522 107.699C300.596 110.444 296.149 111.413 292.387 110.646C287.332 109.596 283.076 105.6 282.353 100.069C282.315 99.7059 282.277 99.3425 282.277 98.9792C282.277 98.3737 283.152 98.4948 283.152 99.06C283.152 99.2214 283.152 99.06 283.152 99.2618C283.152 99.5444 283.19 99.827 283.228 100.069C283.342 100.957 283.608 101.845 283.912 102.693C284.976 105.519 287.142 107.618 289.727 108.829C293.983 110.848 299.304 110.282 302.914 107.093C302.914 107.093 302.952 107.093 302.99 107.053C303.409 106.649 303.941 107.376 303.522 107.78V107.699Z" fill="#B96C53"/>
<path d="M348.15 117.694C348.478 118.324 350.554 117.694 352.776 116.394C355.035 115.055 356.601 113.479 356.31 112.889C355.982 112.298 353.905 112.889 351.683 114.188C349.425 115.527 347.858 117.103 348.15 117.694Z" fill="#B96C53"/>
<path d="M286.014 149.537C281.765 154.666 276.736 159.336 272.564 163.547C264.261 171.886 255.294 175.097 244.769 179.683C242.274 180.768 218.415 182.519 218.493 181.727C218.454 182.143 218.376 182.602 218.337 183.061C218.22 183.895 218.103 184.687 217.986 185.521C217.986 185.604 217.986 185.688 217.986 185.771C217.792 187.397 217.597 189.023 217.402 190.608C217.012 194.194 216.661 197.779 216.349 201.407C215.764 208.37 215.336 215.333 215.063 222.338C214.79 229.01 212.763 253.61 210.852 284.507C206.603 353.847 202.938 454.875 221.183 455.376C239.662 455.084 422.927 454.583 423.005 455.918C422.81 449.872 419.808 418.517 419.535 412.512C418.132 382.45 417.079 352.429 416.611 322.325C416.183 294.43 417.352 266.16 412.947 238.516C411.193 227.509 407.567 216.918 406.436 205.785C405.462 196.32 415.871 193.777 407.84 186.855C401.407 181.31 382.89 173.512 374.937 172.137C358.018 169.26 346.479 165.799 336.382 148.745C336.382 148.745 311.12 154.958 286.053 149.537H286.014Z" fill="#6560A7"/>
<path d="M242.775 451.403L212.624 255.244C212.624 255.244 196.885 421.237 216.139 453.277L242.775 451.403Z" fill="#3E3B6F"/>
<path d="M407.373 258.828C407.373 258.787 407.374 258.745 407.413 258.662C404.011 256.702 387.981 197.86 387.785 201.738C387.316 212.456 373.944 231.847 390.522 345.068C346.614 355.577 309.197 375.469 274.048 401.158C315.609 430.975 441.428 389.731 422.778 324.634C417.187 305.118 402.134 279.179 407.334 258.828H407.373Z" fill="#3E3B6F"/>
<path d="M274.048 401.278C274.048 401.278 297.367 416.119 291.977 445.552C363.184 447.345 419.47 458.476 483.881 380.642C489.74 373.555 478.413 331.657 476.85 323.194C473.101 302.516 467.945 282.505 458.609 263.62C449.235 244.693 439.899 225.182 426.814 208.507C420.174 200.044 413.65 189.371 404.12 184.077C385.917 173.946 382.441 186.245 384.433 204.755C386.035 219.888 387.831 235.021 389.12 250.154C391.464 277.461 391.425 305.101 395.682 332.241C395.956 333.866 397.596 350.417 401.346 349.667C344.357 361.34 312.015 377.182 274.048 401.278Z" fill="#6560A7"/>
<path d="M324.249 342.379L328.968 347.442L368.689 450.637L344.817 448.921L324.249 342.379Z" fill="#B5B4C2"/>
<path d="M429.237 454.158H343.529C340.607 454.158 338.239 452.576 338.239 450.637C338.239 448.699 340.607 447.117 343.529 447.117H429.237C432.159 447.117 434.526 448.699 434.526 450.637V453.921L429.237 454.119V454.158Z" fill="#B5B4C2"/>
<path d="M365.397 454.158H192.051L153.895 342.378H324.465L365.397 454.158Z" fill="#FCFBFF"/>
<path d="M247.093 390.349C248.135 389.665 249.253 389.221 250.381 389.027C248.274 392.127 248.008 396.413 250.008 399.879C252.009 403.344 255.701 404.997 259.234 404.37C258.564 405.373 257.691 406.25 256.659 406.934C252.381 409.761 246.773 408.348 244.134 403.766C241.495 399.183 242.815 393.176 247.093 390.349Z" fill="#A5BBD1"/>
<path d="M153.895 342.378C153.895 342.378 207.455 452.158 365.397 454.158H192.051L153.895 342.378Z" fill="#EDEDF2"/>
</svg>
