<svg width="151" height="34" viewBox="0 0 151 34" fill="none" xmlns="http://www.w3.org/2000/svg">
<rect width="151" height="34" rx="17" fill="url(#paint0_linear_40_7875)"/>
<path d="M24.2751 14.9393C24.2252 14.4967 24.0195 14.1538 23.6579 13.9106C23.2963 13.6643 22.8412 13.5412 22.2925 13.5412C21.8997 13.5412 21.56 13.6036 21.2732 13.7283C20.9864 13.8498 20.7635 14.0182 20.6045 14.2333C20.4486 14.4452 20.3707 14.6868 20.3707 14.958C20.3707 15.1856 20.4237 15.382 20.5297 15.5472C20.6388 15.7124 20.7806 15.8511 20.9552 15.9634C21.1329 16.0725 21.323 16.1644 21.5257 16.2392C21.7283 16.3109 21.9231 16.3702 22.1102 16.4169L23.0453 16.6601C23.3508 16.7349 23.6641 16.8362 23.9852 16.964C24.3063 17.0918 24.604 17.2601 24.8783 17.469C25.1526 17.6779 25.374 17.9366 25.5423 18.2452C25.7138 18.5538 25.7995 18.9232 25.7995 19.3534C25.7995 19.8958 25.6592 20.3774 25.3786 20.7983C25.1012 21.2191 24.6975 21.5511 24.1676 21.7943C23.6407 22.0374 23.0033 22.159 22.2551 22.159C21.5381 22.159 20.9178 22.0452 20.3941 21.8176C19.8704 21.5901 19.4605 21.2674 19.1643 20.8497C18.8682 20.4289 18.7045 19.9301 18.6733 19.3534H20.1229C20.1509 19.6994 20.2632 19.9878 20.4595 20.2185C20.6591 20.446 20.9131 20.6159 21.2217 20.7281C21.5335 20.8372 21.8748 20.8918 22.2458 20.8918C22.6541 20.8918 23.0173 20.8279 23.3353 20.7001C23.6563 20.5692 23.9088 20.3884 24.0928 20.1577C24.2767 19.9239 24.3686 19.6511 24.3686 19.3394C24.3686 19.0557 24.2876 18.8235 24.1255 18.6427C23.9665 18.4619 23.7499 18.3122 23.4755 18.1938C23.2043 18.0753 22.8973 17.9709 22.5544 17.8805L21.4228 17.5719C20.6559 17.363 20.0481 17.056 19.5992 16.6507C19.1534 16.2455 18.9305 15.7093 18.9305 15.0422C18.9305 14.4904 19.0801 14.0088 19.3794 13.5973C19.6787 13.1858 20.0839 12.8663 20.5952 12.6388C21.1064 12.4081 21.6831 12.2927 22.3253 12.2927C22.9736 12.2927 23.5457 12.4065 24.0413 12.6341C24.5401 12.8616 24.9329 13.1749 25.2197 13.5739C25.5065 13.9698 25.6561 14.425 25.6686 14.9393H24.2751ZM30.7665 14.8177V15.94H26.8434V14.8177H30.7665ZM27.8955 13.097H29.2936V19.8911C29.2936 20.1624 29.3341 20.3665 29.4152 20.5037C29.4962 20.6377 29.6006 20.7297 29.7284 20.7796C29.8594 20.8263 30.0012 20.8497 30.154 20.8497C30.2662 20.8497 30.3644 20.8419 30.4485 20.8263C30.5327 20.8108 30.5982 20.7983 30.6449 20.7889L30.8974 21.9439C30.8164 21.9751 30.701 22.0062 30.5514 22.0374C30.4018 22.0717 30.2147 22.0904 29.9903 22.0935C29.6225 22.0998 29.2796 22.0343 28.9616 21.8971C28.6436 21.76 28.3864 21.548 28.1901 21.2612C27.9937 20.9744 27.8955 20.6144 27.8955 20.1811V13.097ZM34.4032 22.159C33.9481 22.159 33.5366 22.0748 33.1688 21.9065C32.8009 21.735 32.5095 21.4872 32.2944 21.163C32.0824 20.8388 31.9764 20.4414 31.9764 19.9706C31.9764 19.5654 32.0543 19.2318 32.2102 18.97C32.3661 18.7081 32.5765 18.5008 32.8415 18.3481C33.1064 18.1953 33.4026 18.08 33.7299 18.0021C34.0572 17.9241 34.3908 17.8649 34.7305 17.8244C35.1607 17.7745 35.5099 17.734 35.7779 17.7028C36.046 17.6685 36.2409 17.614 36.3624 17.5391C36.484 17.4643 36.5448 17.3428 36.5448 17.1744V17.1417C36.5448 16.7333 36.4295 16.4169 36.1988 16.1925C35.9712 15.968 35.6314 15.8558 35.1794 15.8558C34.7087 15.8558 34.3378 15.9602 34.0666 16.1691C33.7985 16.3748 33.613 16.604 33.5101 16.8565L32.1962 16.5572C32.352 16.1208 32.5796 15.7685 32.8789 15.5004C33.1812 15.2292 33.5288 15.0328 33.9216 14.9113C34.3144 14.7866 34.7274 14.7242 35.1607 14.7242C35.4475 14.7242 35.7515 14.7585 36.0725 14.8271C36.3967 14.8926 36.6991 15.0141 36.9797 15.1918C37.2633 15.3695 37.4956 15.6236 37.6764 15.954C37.8572 16.2813 37.9476 16.7068 37.9476 17.2305V22H36.5822V21.0181H36.5261C36.4357 21.1989 36.3001 21.3765 36.1193 21.5511C35.9385 21.7257 35.7062 21.8706 35.4226 21.986C35.1389 22.1013 34.7991 22.159 34.4032 22.159ZM34.7072 21.0368C35.0937 21.0368 35.4241 20.9604 35.6985 20.8076C35.9759 20.6549 36.1863 20.4554 36.3297 20.2091C36.4762 19.9597 36.5495 19.6932 36.5495 19.4095V18.4837C36.4996 18.5336 36.403 18.5803 36.2596 18.624C36.1193 18.6645 35.9588 18.7003 35.7779 18.7315C35.5971 18.7596 35.421 18.7861 35.2496 18.811C35.0781 18.8328 34.9347 18.8515 34.8194 18.8671C34.5482 18.9014 34.3003 18.9591 34.0759 19.0401C33.8546 19.1212 33.6769 19.2381 33.5428 19.3908C33.4119 19.5405 33.3465 19.74 33.3465 19.9893C33.3465 20.3354 33.4743 20.5972 33.7299 20.7749C33.9855 20.9495 34.3113 21.0368 34.7072 21.0368ZM39.8098 22V14.8177H41.1611V15.9587H41.2359C41.3669 15.5721 41.5976 15.2682 41.928 15.0469C42.2615 14.8224 42.6387 14.7102 43.0596 14.7102C43.1468 14.7102 43.2497 14.7133 43.3682 14.7196C43.4898 14.7258 43.5848 14.7336 43.6534 14.7429V16.0803C43.5973 16.0647 43.4975 16.0475 43.3541 16.0288C43.2108 16.007 43.0674 15.9961 42.924 15.9961C42.5935 15.9961 42.2989 16.0662 42.0402 16.2065C41.7846 16.3437 41.582 16.5354 41.4323 16.7816C41.2827 17.0248 41.2079 17.3022 41.2079 17.614V22H39.8098ZM48.6403 14.8177V15.94H44.7172V14.8177H48.6403ZM45.7693 13.097H47.1674V19.8911C47.1674 20.1624 47.2079 20.3665 47.289 20.5037C47.37 20.6377 47.4744 20.7297 47.6022 20.7796C47.7332 20.8263 47.875 20.8497 48.0278 20.8497C48.14 20.8497 48.2382 20.8419 48.3223 20.8263C48.4065 20.8108 48.472 20.7983 48.5187 20.7889L48.7712 21.9439C48.6902 21.9751 48.5748 22.0062 48.4252 22.0374C48.2756 22.0717 48.0885 22.0904 47.8641 22.0935C47.4963 22.0998 47.1534 22.0343 46.8354 21.8971C46.5174 21.76 46.2602 21.548 46.0639 21.2612C45.8675 20.9744 45.7693 20.6144 45.7693 20.1811V13.097ZM53.7838 22V12.4237H59.7878V13.6675H55.2287V16.5853H59.4745V17.8244H55.2287V20.7562H59.8439V22H53.7838ZM62.7091 14.8177L64.2942 17.614L65.8934 14.8177H67.4224L65.1826 18.4089L67.4411 22H65.9121L64.2942 19.316L62.681 22H61.1473L63.3824 18.4089L61.1754 14.8177H62.7091ZM68.8579 24.6933V14.8177H70.2233V15.9821H70.3402C70.4213 15.8324 70.5382 15.6594 70.6909 15.463C70.8436 15.2666 71.0556 15.0952 71.3268 14.9487C71.598 14.799 71.9565 14.7242 72.4023 14.7242C72.9821 14.7242 73.4996 14.8707 73.9547 15.1638C74.4098 15.4568 74.7668 15.8792 75.0255 16.4309C75.2874 16.9827 75.4183 17.6467 75.4183 18.4229C75.4183 19.1991 75.2889 19.8647 75.0302 20.4195C74.7714 20.9713 74.4161 21.3968 73.9641 21.6961C73.5121 21.9922 72.9961 22.1403 72.4163 22.1403C71.9799 22.1403 71.623 22.067 71.3455 21.9205C71.0712 21.774 70.8561 21.6025 70.7003 21.4062C70.5444 21.2098 70.4244 21.0352 70.3402 20.8824H70.256V24.6933H68.8579ZM70.228 18.4089C70.228 18.9139 70.3012 19.3565 70.4478 19.7368C70.5943 20.1172 70.8062 20.4149 71.0837 20.6299C71.3611 20.8419 71.7009 20.9479 72.103 20.9479C72.5208 20.9479 72.8699 20.8372 73.1504 20.6159C73.431 20.3915 73.643 20.0875 73.7864 19.7041C73.9329 19.3207 74.0061 18.8889 74.0061 18.4089C74.0061 17.935 73.9344 17.5095 73.7911 17.1323C73.6508 16.7551 73.4388 16.4574 73.1551 16.2392C72.8746 16.021 72.5239 15.9119 72.103 15.9119C71.6978 15.9119 71.3549 16.0163 71.0743 16.2252C70.7969 16.4341 70.5865 16.7255 70.4431 17.0996C70.2997 17.4737 70.228 17.9101 70.228 18.4089ZM78.3828 12.4237V22H76.9847V12.4237H78.3828ZM83.2891 22.145C82.6157 22.145 82.0281 21.9906 81.5262 21.682C81.0243 21.3734 80.6347 20.9417 80.3572 20.3868C80.0798 19.8319 79.9411 19.1835 79.9411 18.4416C79.9411 17.6966 80.0798 17.0451 80.3572 16.4871C80.6347 15.9291 81.0243 15.4958 81.5262 15.1871C82.0281 14.8785 82.6157 14.7242 83.2891 14.7242C83.9624 14.7242 84.55 14.8785 85.0519 15.1871C85.5538 15.4958 85.9434 15.9291 86.2209 16.4871C86.4983 17.0451 86.637 17.6966 86.637 18.4416C86.637 19.1835 86.4983 19.8319 86.2209 20.3868C85.9434 20.9417 85.5538 21.3734 85.0519 21.682C84.55 21.9906 83.9624 22.145 83.2891 22.145ZM83.2937 20.9713C83.7302 20.9713 84.0918 20.856 84.3786 20.6253C84.6654 20.3946 84.8773 20.0875 85.0145 19.7041C85.1548 19.3207 85.2249 18.8983 85.2249 18.4369C85.2249 17.9787 85.1548 17.5579 85.0145 17.1744C84.8773 16.7879 84.6654 16.4777 84.3786 16.2439C84.0918 16.0101 83.7302 15.8932 83.2937 15.8932C82.8542 15.8932 82.4895 16.0101 82.1996 16.2439C81.9128 16.4777 81.6992 16.7879 81.559 17.1744C81.4218 17.5579 81.3532 17.9787 81.3532 18.4369C81.3532 18.8983 81.4218 19.3207 81.559 19.7041C81.6992 20.0875 81.9128 20.3946 82.1996 20.6253C82.4895 20.856 82.8542 20.9713 83.2937 20.9713ZM88.1976 22V14.8177H89.549V15.9587H89.6238C89.7547 15.5721 89.9854 15.2682 90.3158 15.0469C90.6494 14.8224 91.0266 14.7102 91.4474 14.7102C91.5347 14.7102 91.6376 14.7133 91.756 14.7196C91.8776 14.7258 91.9727 14.7336 92.0413 14.7429V16.0803C91.9852 16.0647 91.8854 16.0475 91.742 16.0288C91.5986 16.007 91.4552 15.9961 91.3118 15.9961C90.9814 15.9961 90.6868 16.0662 90.4281 16.2065C90.1724 16.3437 89.9698 16.5354 89.8202 16.7816C89.6706 17.0248 89.5957 17.3022 89.5957 17.614V22H88.1976ZM93.2512 22V14.8177H94.6493V22H93.2512ZM93.9572 13.7095C93.7141 13.7095 93.5052 13.6285 93.3307 13.4664C93.1592 13.3012 93.0735 13.1048 93.0735 12.8772C93.0735 12.6465 93.1592 12.4502 93.3307 12.2881C93.5052 12.1228 93.7141 12.0402 93.9572 12.0402C94.2004 12.0402 94.4077 12.1228 94.5791 12.2881C94.7537 12.4502 94.841 12.6465 94.841 12.8772C94.841 13.1048 94.7537 13.3012 94.5791 13.4664C94.4077 13.6285 94.2004 13.7095 93.9572 13.7095ZM97.9283 17.7355V22H96.5302V14.8177H97.8722V15.9867H97.961C98.1262 15.6064 98.385 15.3009 98.7372 15.0702C99.0926 14.8396 99.5399 14.7242 100.079 14.7242C100.569 14.7242 100.997 14.8271 101.365 15.0328C101.733 15.2355 102.018 15.5378 102.221 15.94C102.423 16.3421 102.525 16.8393 102.525 17.4316V22H101.127V17.5999C101.127 17.0793 100.991 16.6725 100.72 16.3795C100.449 16.0834 100.076 15.9353 99.6023 15.9353C99.2781 15.9353 98.9897 16.0054 98.7372 16.1457C98.4878 16.286 98.2899 16.4917 98.1434 16.7629C98 17.031 97.9283 17.3552 97.9283 17.7355ZM107.411 24.843C106.841 24.843 106.35 24.7682 105.938 24.6185C105.53 24.4689 105.196 24.271 104.938 24.0247C104.679 23.7784 104.486 23.5088 104.358 23.2157L105.559 22.7201C105.644 22.8573 105.756 23.0022 105.896 23.155C106.039 23.3108 106.233 23.4433 106.476 23.5524C106.722 23.6615 107.039 23.7161 107.425 23.7161C107.955 23.7161 108.393 23.5867 108.739 23.328C109.085 23.0724 109.258 22.664 109.258 22.1029V20.6907H109.169C109.085 20.8435 108.964 21.0134 108.805 21.2004C108.649 21.3875 108.434 21.5496 108.159 21.6867C107.885 21.8239 107.528 21.8925 107.088 21.8925C106.521 21.8925 106.01 21.76 105.555 21.495C105.103 21.2269 104.744 20.8326 104.479 20.312C104.217 19.7883 104.087 19.1446 104.087 18.3808C104.087 17.6171 104.216 16.9624 104.475 16.4169C104.736 15.8714 105.095 15.4537 105.55 15.1638C106.005 14.8707 106.521 14.7242 107.098 14.7242C107.544 14.7242 107.904 14.799 108.178 14.9487C108.452 15.0952 108.666 15.2666 108.819 15.463C108.974 15.6594 109.094 15.8324 109.179 15.9821H109.281V14.8177H110.652V22.159C110.652 22.7762 110.508 23.2828 110.221 23.6787C109.935 24.0746 109.546 24.3676 109.057 24.5577C108.571 24.7479 108.022 24.843 107.411 24.843ZM107.397 20.7328C107.799 20.7328 108.139 20.6393 108.416 20.4523C108.697 20.2621 108.909 19.9909 109.052 19.6386C109.199 19.2833 109.272 18.8578 109.272 18.3621C109.272 17.8789 109.2 17.4534 109.057 17.0856C108.914 16.7177 108.703 16.4309 108.426 16.2252C108.148 16.0163 107.805 15.9119 107.397 15.9119C106.976 15.9119 106.626 16.021 106.345 16.2392C106.064 16.4543 105.852 16.7474 105.709 17.1183C105.569 17.4893 105.499 17.9039 105.499 18.3621C105.499 18.8328 105.57 19.2459 105.714 19.6012C105.857 19.9566 106.069 20.2341 106.35 20.4336C106.633 20.6331 106.982 20.7328 107.397 20.7328Z" fill="white"/>
<path d="M126.137 21.0153L125.855 20.5131V20.5131L126.137 21.0153ZM130.257 20.5373L129.699 20.3956V20.3956L130.257 20.5373ZM127.626 23.9133L127.223 23.5009L127.223 23.5009L127.626 23.9133ZM127.125 23.794L127.668 23.601V23.601L127.125 23.794ZM121.985 16.8625L122.487 17.1447V17.1447L121.985 16.8625ZM122.463 12.7426L122.604 13.301V13.301L122.463 12.7426ZM119.087 15.3744L119.499 15.7766H119.499L119.087 15.3744ZM119.206 15.8746L119.399 15.3318V15.3318L119.206 15.8746ZM121.418 17.9545L120.899 17.7059L121.418 17.9545ZM121.257 18.3898L120.682 18.3457V18.3457L121.257 18.3898ZM121.308 18.6907L121.835 18.4579V18.4579L121.308 18.6907ZM133 10.8259L132.424 10.822L133 10.8259ZM132.933 10.3424L132.419 10.6025V10.6025L132.933 10.3424ZM132.174 10.0004L132.17 9.42437V9.42437L132.174 10.0004ZM132.658 10.0665L132.918 9.55251L132.658 10.0665ZM125.045 21.5817L125.294 22.1014L125.045 21.5817ZM124.61 21.7432L124.654 22.3175H124.654L124.61 21.7432ZM124.309 21.6916L124.542 21.1647V21.1647L124.309 21.6916ZM119.674 22.9777L119.098 22.9965V22.9965L119.674 22.9777ZM120.022 23.3262L120.003 23.9019H120.003L120.022 23.3262ZM133 10.8259L132.424 10.822C132.412 12.5716 131.719 15.3367 129.335 17.8457L129.753 18.2425L130.171 18.6393C132.772 15.9007 133.562 12.8473 133.576 10.8299L133 10.8259ZM129.753 18.2425L129.335 17.8457C128.438 18.7908 127.297 19.7033 125.855 20.5131L126.137 21.0153L126.42 21.5175C127.958 20.6532 129.191 19.6704 130.171 18.6393L129.753 18.2425ZM126.137 21.0153L125.855 20.5131C125.519 20.7019 125.167 20.8852 124.797 21.0621L125.045 21.5817L125.294 22.1014C125.686 21.9139 126.061 21.7189 126.42 21.5175L126.137 21.0153ZM129.753 18.2425L129.241 18.5073C129.363 18.7419 129.521 19.0698 129.626 19.4256C129.734 19.7884 129.768 20.1242 129.699 20.3956L130.257 20.5373L130.816 20.6791C130.957 20.1218 130.866 19.5546 130.731 19.0994C130.595 18.6371 130.396 18.2319 130.265 17.9777L129.753 18.2425ZM130.257 20.5373L129.699 20.3956C129.662 20.5417 129.556 20.7631 129.367 21.0505C129.184 21.3288 128.949 21.6331 128.69 21.9397C128.174 22.5524 127.591 23.1421 127.223 23.5009L127.626 23.9133L128.028 24.3257C128.408 23.9551 129.02 23.336 129.571 22.6826C129.846 22.3561 130.114 22.0131 130.33 21.6825C130.541 21.361 130.731 21.012 130.816 20.6791L130.257 20.5373ZM127.125 23.794L127.668 23.601L126.68 20.8223L126.137 21.0153L125.595 21.2083L126.583 23.9869L127.125 23.794ZM127.626 23.9133L127.223 23.5009C127.372 23.3561 127.606 23.4271 127.668 23.601L127.125 23.794L126.583 23.9869C126.795 24.583 127.558 24.7836 128.028 24.3257L127.626 23.9133ZM132.174 10.0004L132.17 9.42437C130.153 9.4382 127.099 10.2278 124.361 12.8293L124.757 13.2469L125.154 13.6646C127.663 11.2812 130.428 10.5885 132.178 10.5765L132.174 10.0004ZM124.757 13.2469L124.361 12.8293C123.33 13.8088 122.347 15.0418 121.482 16.5804L121.985 16.8625L122.487 17.1447C123.297 15.7033 124.209 14.5623 125.154 13.6646L124.757 13.2469ZM121.985 16.8625L121.482 16.5804C121.281 16.9389 121.086 17.3138 120.899 17.7059L121.418 17.9545L121.938 18.2031C122.115 17.8334 122.298 17.4808 122.487 17.1447L121.985 16.8625ZM124.757 13.2469L125.022 12.7353C124.768 12.6038 124.363 12.405 123.901 12.2685C123.445 12.1342 122.878 12.0428 122.321 12.1843L122.463 12.7426L122.604 13.301C122.876 13.2321 123.212 13.2664 123.574 13.3736C123.93 13.4786 124.258 13.6371 124.493 13.7585L124.757 13.2469ZM122.463 12.7426L122.321 12.1843C121.988 12.2688 121.639 12.4587 121.318 12.6696C120.987 12.8865 120.644 13.1535 120.317 13.429C119.664 13.9802 119.045 14.5922 118.674 14.9721L119.087 15.3744L119.499 15.7766C119.858 15.4087 120.448 14.8265 121.06 14.3096C121.367 14.051 121.671 13.8155 121.949 13.633C122.237 13.4445 122.458 13.3381 122.604 13.301L122.463 12.7426ZM119.206 15.8746L119.013 16.4174L121.792 17.4053L121.985 16.8625L122.178 16.3197L119.399 15.3318L119.206 15.8746ZM119.087 15.3744L118.674 14.9721C118.216 15.4416 118.417 16.2055 119.013 16.4174L119.206 15.8746L119.399 15.3318C119.573 15.3936 119.644 15.6281 119.499 15.7766L119.087 15.3744ZM123.941 21.3828L124.348 20.9755L122.025 18.6519L121.617 19.0592L121.21 19.4666L123.533 21.7902L123.941 21.3828ZM121.418 17.9545L120.899 17.7059C120.815 17.8801 120.702 18.0971 120.682 18.3457L121.257 18.3898L121.831 18.434C121.83 18.4509 121.825 18.4532 121.839 18.4183C121.856 18.3746 121.884 18.3166 121.938 18.2031L121.418 17.9545ZM121.617 19.0592L122.025 18.6519C121.932 18.5592 121.883 18.5101 121.85 18.4718C121.822 18.4398 121.827 18.4401 121.835 18.4579L121.308 18.6907L120.781 18.9234C120.882 19.1522 121.068 19.3246 121.21 19.4666L121.617 19.0592ZM121.257 18.3898L120.682 18.3457C120.667 18.5406 120.702 18.7446 120.781 18.9234L121.308 18.6907L121.835 18.4579C121.836 18.4584 121.835 18.4574 121.834 18.4549C121.834 18.4526 121.833 18.4495 121.832 18.4461C121.832 18.4427 121.831 18.4396 121.831 18.4371C121.831 18.4346 121.831 18.4335 121.831 18.434L121.257 18.3898ZM133 10.8259L133.576 10.8299C133.577 10.6268 133.59 10.3637 133.447 10.0822L132.933 10.3424L132.419 10.6025C132.421 10.6052 132.42 10.6035 132.419 10.5998C132.418 10.5966 132.419 10.5985 132.42 10.6101C132.422 10.6233 132.423 10.6445 132.424 10.6812C132.424 10.7186 132.424 10.762 132.424 10.822L133 10.8259ZM132.174 10.0004L132.178 10.5765C132.238 10.5761 132.281 10.5758 132.319 10.5765C132.356 10.5771 132.377 10.5785 132.39 10.5799C132.401 10.5812 132.403 10.5821 132.4 10.5812C132.396 10.5802 132.395 10.5792 132.398 10.5805L132.658 10.0665L132.918 9.55251C132.636 9.41009 132.373 9.42298 132.17 9.42437L132.174 10.0004ZM132.933 10.3424L133.447 10.0822C133.386 9.96008 133.298 9.85501 133.221 9.77861C133.145 9.70221 133.04 9.61433 132.918 9.55251L132.658 10.0665L132.398 10.5805C132.389 10.5763 132.384 10.5733 132.383 10.5725C132.382 10.5716 132.382 10.5719 132.385 10.5737C132.39 10.5776 132.398 10.5843 132.407 10.5933C132.416 10.6023 132.422 10.6102 132.426 10.6153C132.428 10.6176 132.428 10.6182 132.428 10.6168C132.427 10.6156 132.424 10.6108 132.419 10.6025L132.933 10.3424ZM125.045 21.5817L124.797 21.0621C124.683 21.1163 124.625 21.1437 124.582 21.1608C124.547 21.1745 124.549 21.1701 124.566 21.1688L124.61 21.7432L124.654 22.3175C124.903 22.2984 125.12 22.1847 125.294 22.1014L125.045 21.5817ZM123.941 21.3828L123.533 21.7902C123.675 21.9322 123.848 22.1176 124.077 22.2186L124.309 21.6916L124.542 21.1647C124.56 21.1725 124.56 21.1779 124.528 21.15C124.49 21.1168 124.441 21.0682 124.348 20.9755L123.941 21.3828ZM124.61 21.7432L124.566 21.1688C124.567 21.1687 124.565 21.1688 124.563 21.1687C124.56 21.1686 124.557 21.1683 124.554 21.1677C124.55 21.1671 124.547 21.1664 124.545 21.1657C124.543 21.1649 124.542 21.1645 124.542 21.1647L124.309 21.6916L124.077 22.2186C124.255 22.2976 124.459 22.3325 124.654 22.3175L124.61 21.7432ZM120.588 20.0661L120.104 19.7537C119.911 20.0524 119.654 20.5367 119.449 21.0984C119.245 21.6565 119.076 22.3307 119.098 22.9965L119.674 22.9777L120.25 22.9589C120.235 22.4968 120.354 21.9786 120.531 21.4944C120.707 21.014 120.925 20.6064 121.072 20.3785L120.588 20.0661ZM122.934 22.4118L122.622 21.9278C122.394 22.0749 121.986 22.2934 121.506 22.4693C121.021 22.6465 120.503 22.7655 120.041 22.7504L120.022 23.3262L120.003 23.9019C120.669 23.9237 121.344 23.7555 121.902 23.5512C122.463 23.3456 122.948 23.0886 123.246 22.8958L122.934 22.4118ZM119.674 22.9777L119.098 22.9965C119.114 23.4908 119.509 23.8858 120.003 23.9019L120.022 23.3262L120.041 22.7504C120.154 22.7541 120.246 22.8464 120.25 22.9589L119.674 22.9777ZM129.75 15.2419L129.342 14.8346C129.017 15.1596 128.49 15.1596 128.165 14.8346L127.758 15.2419L127.351 15.6493C128.126 16.4242 129.382 16.4242 130.157 15.6493L129.75 15.2419ZM127.758 15.2419L128.165 14.8346C127.84 14.5096 127.84 13.9827 128.165 13.6577L127.758 13.2503L127.351 12.843C126.576 13.6179 126.576 14.8743 127.351 15.6493L127.758 15.2419ZM127.758 13.2503L128.165 13.6577C128.49 13.3327 129.017 13.3327 129.342 13.6577L129.75 13.2503L130.157 12.843C129.382 12.068 128.126 12.068 127.351 12.843L127.758 13.2503ZM129.75 13.2503L129.342 13.6577C129.667 13.9827 129.667 14.5096 129.342 14.8346L129.75 15.2419L130.157 15.6493C130.932 14.8743 130.932 13.6179 130.157 12.843L129.75 13.2503Z" fill="white"/>
<defs>
<linearGradient id="paint0_linear_40_7875" x1="169.505" y1="-3.69566" x2="-19.4952" y2="174.91" gradientUnits="userSpaceOnUse">
<stop stop-color="#2548C3"/>
<stop offset="1" stop-color="#90CAB5"/>
</linearGradient>
</defs>
</svg>
