<svg width="150" height="34" viewBox="0 0 150 34" fill="none" xmlns="http://www.w3.org/2000/svg">
<rect x="0.411483" y="0.411483" width="149.177" height="33.177" rx="16.5885" stroke="white" stroke-width="0.822967"/>
<path d="M25.1953 15.0291C25.1461 14.5921 24.9429 14.2536 24.5859 14.0135C24.2289 13.7704 23.7796 13.6488 23.2379 13.6488C22.8501 13.6488 22.5147 13.7103 22.2315 13.8335C21.9484 13.9535 21.7283 14.1197 21.5714 14.332C21.4175 14.5413 21.3406 14.7798 21.3406 15.0476C21.3406 15.2723 21.3929 15.4661 21.4975 15.6293C21.6052 15.7924 21.7453 15.9293 21.9176 16.0401C22.093 16.1478 22.2808 16.2386 22.4808 16.3125C22.6809 16.3833 22.8732 16.4418 23.0579 16.4879L23.9812 16.728C24.2828 16.8018 24.5921 16.9019 24.9091 17.0281C25.2261 17.1542 25.52 17.3204 25.7908 17.5266C26.0617 17.7328 26.2802 17.9883 26.4464 18.293C26.6156 18.5977 26.7003 18.9624 26.7003 19.3871C26.7003 19.9226 26.5618 20.3981 26.2848 20.8136C26.0109 21.229 25.6123 21.5568 25.0891 21.7969C24.569 22.0369 23.9396 22.157 23.201 22.157C22.4931 22.157 21.8807 22.0446 21.3636 21.82C20.8466 21.5953 20.4419 21.2768 20.1495 20.8643C19.8571 20.4489 19.6955 19.9564 19.6648 19.3871H21.0959C21.1236 19.7287 21.2344 20.0134 21.4283 20.2411C21.6252 20.4658 21.8761 20.6335 22.1808 20.7443C22.4885 20.852 22.8255 20.9059 23.1918 20.9059C23.5949 20.9059 23.9535 20.8428 24.2674 20.7166C24.5844 20.5874 24.8337 20.4089 25.0153 20.1811C25.1969 19.9503 25.2876 19.681 25.2876 19.3732C25.2876 19.0932 25.2076 18.8639 25.0476 18.6854C24.8906 18.5069 24.6767 18.3591 24.4059 18.2422C24.1381 18.1252 23.835 18.0221 23.4964 17.9329L22.3793 17.6282C21.6222 17.422 21.022 17.1188 20.5788 16.7188C20.1387 16.3187 19.9187 15.7893 19.9187 15.1307C19.9187 14.5859 20.0664 14.1104 20.3619 13.7042C20.6573 13.2979 21.0574 12.9825 21.5621 12.7578C22.0669 12.5301 22.6362 12.4162 23.2702 12.4162C23.9104 12.4162 24.4751 12.5285 24.9645 12.7532C25.4569 12.9779 25.8447 13.2872 26.1278 13.6811C26.411 14.072 26.5587 14.5213 26.571 15.0291H25.1953ZM31.6041 14.9091V16.017H27.7309V14.9091H31.6041ZM28.7696 13.2102H30.1499V19.918C30.1499 20.1857 30.19 20.3873 30.27 20.5227C30.35 20.6551 30.4531 20.7459 30.5793 20.7951C30.7085 20.8413 30.8486 20.8643 30.9994 20.8643C31.1102 20.8643 31.2071 20.8567 31.2902 20.8413C31.3733 20.8259 31.4379 20.8136 31.4841 20.8043L31.7334 21.9446C31.6534 21.9754 31.5395 22.0062 31.3918 22.0369C31.2441 22.0708 31.0594 22.0893 30.8378 22.0923C30.4746 22.0985 30.1361 22.0339 29.8222 21.8984C29.5083 21.763 29.2544 21.5537 29.0605 21.2706C28.8666 20.9875 28.7696 20.632 28.7696 20.2042V13.2102ZM35.1946 22.157C34.7453 22.157 34.339 22.0739 33.9759 21.9077C33.6127 21.7384 33.3249 21.4937 33.1126 21.1737C32.9033 20.8536 32.7987 20.4612 32.7987 19.9964C32.7987 19.5964 32.8756 19.267 33.0295 19.0085C33.1834 18.75 33.3911 18.5453 33.6527 18.3945C33.9143 18.2437 34.2067 18.1299 34.5298 18.0529C34.853 17.976 35.1823 17.9175 35.5178 17.8775C35.9425 17.8282 36.2872 17.7882 36.5518 17.7575C36.8165 17.7236 37.0089 17.6697 37.1289 17.5959C37.2489 17.522 37.3089 17.402 37.3089 17.2358V17.2035C37.3089 16.8003 37.1951 16.4879 36.9673 16.2663C36.7427 16.0447 36.4072 15.9339 35.9609 15.9339C35.4962 15.9339 35.13 16.037 34.8622 16.2433C34.5975 16.4464 34.4144 16.6726 34.3129 16.9219L33.0156 16.6264C33.1695 16.1955 33.3942 15.8478 33.6896 15.5831C33.9882 15.3153 34.3313 15.1214 34.7191 15.0014C35.1069 14.8783 35.5147 14.8168 35.9425 14.8168C36.2256 14.8168 36.5257 14.8506 36.8427 14.9183C37.1628 14.983 37.4613 15.103 37.7383 15.2784C38.0183 15.4538 38.2476 15.7047 38.4261 16.0309C38.6046 16.354 38.6939 16.7741 38.6939 17.2912V22H37.3459V21.0305H37.2905C37.2012 21.209 37.0674 21.3845 36.8888 21.5568C36.7103 21.7292 36.4811 21.8723 36.201 21.9862C35.9209 22.1 35.5855 22.157 35.1946 22.157ZM35.4947 21.049C35.8763 21.049 36.2025 20.9736 36.4734 20.8228C36.7473 20.672 36.955 20.475 37.0966 20.2319C37.2412 19.9857 37.3136 19.7225 37.3136 19.4425V18.5284C37.2643 18.5777 37.1689 18.6238 37.0273 18.6669C36.8888 18.7069 36.7304 18.7423 36.5518 18.7731C36.3733 18.8008 36.1995 18.8269 36.0302 18.8516C35.8609 18.8731 35.7193 18.8916 35.6055 18.907C35.3377 18.9408 35.093 18.9978 34.8714 19.0778C34.6529 19.1578 34.4775 19.2732 34.3452 19.424C34.2159 19.5717 34.1513 19.7687 34.1513 20.0149C34.1513 20.3565 34.2775 20.6151 34.5298 20.7905C34.7822 20.9628 35.1038 21.049 35.4947 21.049ZM40.5324 22V14.9091H41.8666V16.0355H41.9404C42.0697 15.6539 42.2974 15.3538 42.6237 15.1353C42.953 14.9137 43.3254 14.8029 43.7409 14.8029C43.827 14.8029 43.9286 14.806 44.0455 14.8121C44.1656 14.8183 44.2594 14.826 44.3271 14.8352V16.1555C44.2718 16.1402 44.1733 16.1232 44.0317 16.1048C43.8901 16.0832 43.7485 16.0724 43.607 16.0724C43.2807 16.0724 42.9899 16.1417 42.7345 16.2802C42.4821 16.4156 42.282 16.6049 42.1343 16.848C41.9866 17.0881 41.9127 17.362 41.9127 17.6697V22H40.5324ZM49.2506 14.9091V16.017H45.3774V14.9091H49.2506ZM46.4161 13.2102H47.7964V19.918C47.7964 20.1857 47.8364 20.3873 47.9165 20.5227C47.9965 20.6551 48.0996 20.7459 48.2258 20.7951C48.355 20.8413 48.4951 20.8643 48.6459 20.8643C48.7567 20.8643 48.8536 20.8567 48.9367 20.8413C49.0198 20.8259 49.0844 20.8136 49.1306 20.8043L49.3799 21.9446C49.2999 21.9754 49.186 22.0062 49.0383 22.0369C48.8905 22.0708 48.7059 22.0893 48.4843 22.0923C48.1211 22.0985 47.7826 22.0339 47.4687 21.8984C47.1547 21.763 46.9008 21.5537 46.7069 21.2706C46.5131 20.9875 46.4161 20.632 46.4161 20.2042V13.2102ZM53.8625 13.7734V12.5455H61.1796V13.7734H58.2297V22H56.8078V13.7734H53.8625ZM64.7135 22.1431C64.0149 22.1431 63.4132 21.9938 62.9085 21.6953C62.4068 21.3937 62.019 20.9705 61.7451 20.4258C61.4743 19.878 61.3389 19.2363 61.3389 18.5007C61.3389 17.7744 61.4743 17.1342 61.7451 16.5803C62.019 16.0263 62.4007 15.5939 62.89 15.283C63.3824 14.9722 63.9579 14.8168 64.6166 14.8168C65.0167 14.8168 65.4044 14.8829 65.7799 15.0153C66.1554 15.1476 66.4924 15.3554 66.7909 15.6385C67.0895 15.9216 67.3249 16.2894 67.4972 16.7418C67.6696 17.1912 67.7558 17.7375 67.7558 18.3807V18.87H62.1191V17.8359H66.4031C66.4031 17.4728 66.3293 17.1512 66.1816 16.8711C66.0338 16.5879 65.8261 16.3648 65.5583 16.2017C65.2936 16.0386 64.9828 15.957 64.6258 15.957C64.238 15.957 63.8995 16.0524 63.6102 16.2433C63.324 16.431 63.1024 16.6772 62.9454 16.9819C62.7915 17.2835 62.7146 17.6113 62.7146 17.9652V18.7731C62.7146 19.247 62.7977 19.6502 62.9639 19.9826C63.1331 20.315 63.3686 20.5689 63.6702 20.7443C63.9718 20.9167 64.3242 21.0028 64.7274 21.0028C64.989 21.0028 65.2275 20.9659 65.4429 20.892C65.6584 20.8151 65.8445 20.7012 66.0015 20.5504C66.1585 20.3996 66.2785 20.2134 66.3616 19.9918L67.6681 20.2273C67.5634 20.612 67.3757 20.949 67.1048 21.2383C66.8371 21.5245 66.5001 21.7476 66.0938 21.9077C65.6907 22.0646 65.2306 22.1431 64.7135 22.1431ZM71.3509 22.157C70.9015 22.157 70.4953 22.0739 70.1321 21.9077C69.7689 21.7384 69.4812 21.4937 69.2688 21.1737C69.0595 20.8536 68.9549 20.4612 68.9549 19.9964C68.9549 19.5964 69.0318 19.267 69.1857 19.0085C69.3396 18.75 69.5473 18.5453 69.8089 18.3945C70.0705 18.2437 70.3629 18.1299 70.6861 18.0529C71.0092 17.976 71.3385 17.9175 71.674 17.8775C72.0987 17.8282 72.4434 17.7882 72.7081 17.7575C72.9728 17.7236 73.1651 17.6697 73.2852 17.5959C73.4052 17.522 73.4652 17.402 73.4652 17.2358V17.2035C73.4652 16.8003 73.3513 16.4879 73.1236 16.2663C72.8989 16.0447 72.5634 15.9339 72.1172 15.9339C71.6525 15.9339 71.2862 16.037 71.0185 16.2433C70.7538 16.4464 70.5707 16.6726 70.4691 16.9219L69.1719 16.6264C69.3258 16.1955 69.5504 15.8478 69.8459 15.5831C70.1444 15.3153 70.4876 15.1214 70.8754 15.0014C71.2631 14.8783 71.6709 14.8168 72.0987 14.8168C72.3819 14.8168 72.6819 14.8506 72.9989 14.9183C73.319 14.983 73.6175 15.103 73.8945 15.2784C74.1746 15.4538 74.4039 15.7047 74.5824 16.0309C74.7609 16.354 74.8501 16.7741 74.8501 17.2912V22H73.5021V21.0305H73.4467C73.3575 21.209 73.2236 21.3845 73.0451 21.5568C72.8666 21.7292 72.6373 21.8723 72.3572 21.9862C72.0772 22.1 71.7417 22.157 71.3509 22.157ZM71.6509 21.049C72.0326 21.049 72.3588 20.9736 72.6296 20.8228C72.9035 20.672 73.1113 20.475 73.2528 20.2319C73.3975 19.9857 73.4698 19.7225 73.4698 19.4425V18.5284C73.4206 18.5777 73.3252 18.6238 73.1836 18.6669C73.0451 18.7069 72.8866 18.7423 72.7081 18.7731C72.5296 18.8008 72.3557 18.8269 72.1864 18.8516C72.0172 18.8731 71.8756 18.8916 71.7617 18.907C71.494 18.9408 71.2493 18.9978 71.0277 19.0778C70.8092 19.1578 70.6338 19.2732 70.5014 19.424C70.3722 19.5717 70.3075 19.7687 70.3075 20.0149C70.3075 20.3565 70.4337 20.6151 70.6861 20.7905C70.9384 20.9628 71.2601 21.049 71.6509 21.049ZM79.6755 22.1431C78.9892 22.1431 78.3983 21.9877 77.9028 21.6768C77.4104 21.3629 77.0318 20.9305 76.7671 20.3796C76.5025 19.8287 76.3701 19.1978 76.3701 18.4869C76.3701 17.7667 76.5055 17.1312 76.7764 16.5803C77.0472 16.0263 77.4288 15.5939 77.9213 15.283C78.4137 14.9722 78.9938 14.8168 79.6617 14.8168C80.2003 14.8168 80.6804 14.9168 81.102 15.1168C81.5236 15.3138 81.8637 15.5908 82.1222 15.9478C82.3838 16.3048 82.5393 16.7218 82.5885 17.1989H81.2451C81.1713 16.8665 81.002 16.5803 80.7373 16.3402C80.4757 16.1001 80.1249 15.9801 79.6847 15.9801C79.3 15.9801 78.963 16.0817 78.6737 16.2848C78.3875 16.4848 78.1644 16.7711 78.0044 17.1435C77.8443 17.5128 77.7643 17.9498 77.7643 18.4545C77.7643 18.9716 77.8428 19.4179 77.9997 19.7933C78.1567 20.1688 78.3783 20.4596 78.6645 20.6658C78.9538 20.872 79.2939 20.9751 79.6847 20.9751C79.9463 20.9751 80.1833 20.9274 80.3957 20.832C80.6111 20.7335 80.7912 20.5935 80.9358 20.4119C81.0835 20.2304 81.1866 20.0118 81.2451 19.7564H82.5885C82.5393 20.215 82.39 20.6243 82.1407 20.9844C81.8914 21.3445 81.5575 21.6276 81.1389 21.8338C80.7235 22.04 80.2356 22.1431 79.6755 22.1431ZM85.445 17.7898V22H84.0646V12.5455H85.4265V16.0632H85.5142C85.6804 15.6816 85.9343 15.3784 86.2759 15.1538C86.6175 14.9291 87.0638 14.8168 87.6147 14.8168C88.101 14.8168 88.5257 14.9168 88.8888 15.1168C89.2551 15.3169 89.5382 15.6154 89.7383 16.0124C89.9414 16.4064 90.043 16.8988 90.043 17.4897V22H88.6626V17.6559C88.6626 17.1358 88.5288 16.7326 88.261 16.4464C87.9933 16.1571 87.6209 16.0124 87.1438 16.0124C86.8176 16.0124 86.5252 16.0817 86.2667 16.2202C86.0112 16.3587 85.8097 16.5618 85.6619 16.8295C85.5173 17.0942 85.445 17.4143 85.445 17.7898ZM91.8849 22V14.9091H93.2653V22H91.8849ZM92.582 13.815C92.342 13.815 92.1358 13.735 91.9634 13.5749C91.7942 13.4118 91.7095 13.2179 91.7095 12.9933C91.7095 12.7655 91.7942 12.5716 91.9634 12.4116C92.1358 12.2485 92.342 12.1669 92.582 12.1669C92.8221 12.1669 93.0268 12.2485 93.196 12.4116C93.3684 12.5716 93.4545 12.7655 93.4545 12.9933C93.4545 13.2179 93.3684 13.4118 93.196 13.5749C93.0268 13.735 92.8221 13.815 92.582 13.815ZM96.5026 17.7898V22H95.1222V14.9091H96.4472V16.0632H96.5349C96.698 15.6877 96.9535 15.3861 97.3012 15.1584C97.6521 14.9306 98.0937 14.8168 98.6262 14.8168C99.1093 14.8168 99.5325 14.9183 99.8957 15.1214C100.259 15.3215 100.54 15.62 100.741 16.017C100.941 16.4141 101.041 16.9049 101.041 17.4897V22H99.6602V17.6559C99.6602 17.1419 99.5264 16.7403 99.2586 16.451C98.9909 16.1586 98.6231 16.0124 98.1553 16.0124C97.8352 16.0124 97.5505 16.0817 97.3012 16.2202C97.055 16.3587 96.8596 16.5618 96.7149 16.8295C96.5734 17.0942 96.5026 17.4143 96.5026 17.7898ZM105.865 24.8068C105.302 24.8068 104.817 24.733 104.411 24.5852C104.007 24.4375 103.678 24.2421 103.423 23.9989C103.167 23.7558 102.976 23.4896 102.85 23.2003L104.037 22.7109C104.12 22.8464 104.231 22.9895 104.369 23.1403C104.511 23.2942 104.701 23.425 104.941 23.5327C105.185 23.6404 105.497 23.6942 105.879 23.6942C106.402 23.6942 106.834 23.5665 107.176 23.3111C107.517 23.0587 107.688 22.6555 107.688 22.1016V20.7074H107.601C107.517 20.8582 107.397 21.0259 107.241 21.2106C107.087 21.3952 106.874 21.5553 106.603 21.6907C106.333 21.8261 105.98 21.8938 105.546 21.8938C104.986 21.8938 104.481 21.763 104.032 21.5014C103.586 21.2367 103.232 20.8474 102.97 20.3335C102.712 19.8164 102.582 19.1809 102.582 18.4268C102.582 17.6728 102.71 17.0265 102.966 16.4879C103.224 15.9493 103.578 15.5369 104.027 15.2507C104.477 14.9614 104.986 14.8168 105.555 14.8168C105.996 14.8168 106.351 14.8906 106.622 15.0384C106.893 15.183 107.104 15.3523 107.254 15.5462C107.408 15.7401 107.527 15.9109 107.61 16.0586H107.711V14.9091H109.064V22.157C109.064 22.7663 108.922 23.2665 108.639 23.6573C108.356 24.0482 107.973 24.3375 107.49 24.5252C107.01 24.7129 106.468 24.8068 105.865 24.8068ZM105.851 20.7489C106.248 20.7489 106.583 20.6566 106.857 20.4719C107.134 20.2842 107.344 20.0165 107.485 19.6687C107.63 19.3178 107.702 18.8977 107.702 18.4084C107.702 17.9313 107.631 17.5112 107.49 17.1481C107.348 16.7849 107.14 16.5018 106.867 16.2987C106.593 16.0924 106.254 15.9893 105.851 15.9893C105.435 15.9893 105.089 16.0971 104.812 16.3125C104.535 16.5249 104.326 16.8142 104.184 17.1804C104.046 17.5466 103.977 17.956 103.977 18.4084C103.977 18.8731 104.047 19.2809 104.189 19.6317C104.331 19.9826 104.54 20.2565 104.817 20.4535C105.097 20.6504 105.442 20.7489 105.851 20.7489Z" fill="white"/>
<path d="M116.443 23.3513C116.361 23.6587 116.544 23.9744 116.851 24.0566C117.159 24.1387 117.474 23.9561 117.557 23.6487L117 23.5L116.443 23.3513ZM121.903 21.0852L121.935 20.5101L121.919 20.5092H121.903V21.0852ZM125.431 18.687C125.431 18.3689 125.173 18.1109 124.855 18.1109C124.537 18.1109 124.279 18.3689 124.279 18.687H124.855H125.431ZM127.182 18.326C126.864 18.326 126.606 18.5839 126.606 18.902C126.606 19.2202 126.864 19.4781 127.182 19.4781V18.902V18.326ZM120.774 12.9375C120.774 13.2557 121.032 13.5136 121.35 13.5136C121.668 13.5136 121.926 13.2557 121.926 12.9375H121.35H120.774ZM122.284 10.6803L122.017 10.1697L122.284 10.6803ZM121.579 11.4031L121.063 11.1467V11.1467L121.579 11.4031ZM130.824 11.4031L131.34 11.1467V11.1467L130.824 11.4031ZM130.119 10.6803L129.853 11.1909L129.853 11.1909L130.119 10.6803ZM130.119 18.7218L129.853 18.2112H129.853L130.119 18.7218ZM130.824 17.999L130.308 17.7426V17.7426L130.824 17.999ZM123.79 12.686C123.472 12.686 123.214 12.9439 123.214 13.2621C123.214 13.5802 123.472 13.8382 123.79 13.8382V13.2621V12.686ZM128.694 13.8382C129.012 13.8382 129.27 13.5802 129.27 13.2621C129.27 12.9439 129.012 12.686 128.694 12.686V13.2621V13.8382ZM125.855 15.5804C125.537 15.5804 125.279 15.8383 125.279 16.1565C125.279 16.4746 125.537 16.7326 125.855 16.7326V16.1565V15.5804ZM128.694 16.7326C129.012 16.7326 129.27 16.4746 129.27 16.1565C129.27 15.8383 129.012 15.5804 128.694 15.5804V16.1565V16.7326ZM117 23.5L117.557 23.6487C117.645 23.317 117.873 22.7973 118.248 22.372C118.616 21.9557 119.093 21.6613 119.71 21.6613V21.0852V20.5092C118.675 20.5092 117.905 21.0197 117.384 21.6095C116.871 22.1904 116.57 22.8781 116.443 23.3513L117 23.5ZM119.71 21.0852V21.6613H121.903V21.0852V20.5092H119.71V21.0852ZM121.903 21.0852L121.871 21.6604C122.439 21.6922 123.295 21.5966 124.033 21.1765C124.809 20.7349 125.431 19.9407 125.431 18.687H124.855H124.279C124.279 19.4843 123.917 19.9167 123.463 20.1753C122.971 20.4554 122.352 20.5334 121.935 20.5101L121.903 21.0852ZM127.182 18.902V19.4781H128.419V18.902V18.326H127.182V18.902ZM131 16.2557H131.576V13.1463H131H130.424V16.2557H131ZM128.419 10.5V9.92392H123.984V10.5V11.0761H128.419V10.5ZM123.984 10.5V9.92392C123.542 9.92392 123.175 9.92345 122.876 9.94847C122.571 9.97408 122.286 10.0294 122.017 10.1697L122.284 10.6803L122.551 11.1909C122.627 11.1509 122.74 11.1161 122.973 11.0966C123.212 11.0765 123.522 11.0761 123.984 11.0761V10.5ZM121.35 12.9375H121.926C121.926 12.4772 121.94 12.221 121.967 12.0456C121.992 11.8919 122.027 11.7961 122.095 11.6594L121.579 11.4031L121.063 11.1467C120.955 11.3638 120.876 11.5721 120.829 11.8656C120.786 12.1373 120.774 12.4715 120.774 12.9375H121.35ZM122.284 10.6803L122.017 10.1697C121.604 10.3855 121.271 10.7283 121.063 11.1467L121.579 11.4031L122.095 11.6594C122.196 11.4554 122.357 11.2922 122.551 11.1909L122.284 10.6803ZM131 13.1463H131.576C131.576 12.6924 131.577 12.3182 131.552 12.0142C131.528 11.7039 131.474 11.4171 131.34 11.1467L130.824 11.4031L130.308 11.6594C130.35 11.7429 130.385 11.8645 130.404 12.1058C130.423 12.3534 130.424 12.6739 130.424 13.1463H131ZM128.419 10.5V11.0761C128.881 11.0761 129.191 11.0765 129.431 11.0966C129.663 11.1161 129.776 11.1509 129.853 11.1909L130.119 10.6803L130.386 10.1697C130.118 10.0294 129.833 9.97408 129.527 9.94847C129.228 9.92345 128.861 9.92392 128.419 9.92392V10.5ZM130.824 11.4031L131.34 11.1467C131.132 10.7283 130.799 10.3855 130.386 10.1697L130.119 10.6803L129.853 11.1909C130.047 11.2922 130.207 11.4554 130.308 11.6594L130.824 11.4031ZM128.419 18.902V19.4781C128.861 19.4781 129.228 19.4786 129.527 19.4536C129.833 19.428 130.118 19.3726 130.386 19.2324L130.119 18.7218L129.853 18.2112C129.776 18.2512 129.663 18.286 129.431 18.3054C129.191 18.3255 128.881 18.326 128.419 18.326V18.902ZM131 16.2557H130.424C130.424 16.7281 130.423 17.0487 130.404 17.2963C130.385 17.5376 130.35 17.6592 130.308 17.7426L130.824 17.999L131.34 18.2553C131.474 17.985 131.528 17.6981 131.552 17.3878C131.577 17.0838 131.576 16.7096 131.576 16.2557H131ZM130.119 18.7218L130.386 19.2324C130.799 19.0166 131.132 18.6737 131.34 18.2553L130.824 17.999L130.308 17.7426C130.207 17.9467 130.047 18.1098 129.853 18.2112L130.119 18.7218ZM123.79 13.2621V13.8382H128.694V13.2621V12.686H123.79V13.2621ZM125.855 16.1565V16.7326L128.694 16.7326V16.1565V15.5804L125.855 15.5804V16.1565ZM122.758 17.1158H122.182C122.182 17.7979 121.646 18.326 121.016 18.326V18.902V19.4781C122.31 19.4781 123.334 18.4067 123.334 17.1158H122.758ZM121.016 18.902V18.326C120.386 18.326 119.85 17.7979 119.85 17.1158H119.274H118.698C118.698 18.4067 119.722 19.4781 121.016 19.4781V18.902ZM119.274 17.1158H119.85C119.85 16.4337 120.386 15.9056 121.016 15.9056V15.3295V14.7534C119.722 14.7534 118.698 15.8248 118.698 17.1158H119.274ZM121.016 15.3295V15.9056C121.646 15.9056 122.182 16.4337 122.182 17.1158H122.758H123.334C123.334 15.8248 122.31 14.7534 121.016 14.7534V15.3295Z" fill="white"/>
</svg>
