<svg width="574" height="92" viewBox="0 0 574 92" fill="none" xmlns="http://www.w3.org/2000/svg">
<path d="M12.48 38.8965V7.02048H-7.80262e-06V2.49648H30.108V7.02048H17.628V38.8965H12.48ZM48.1995 11.0765C50.4529 11.0765 52.4289 11.5098 54.1275 12.3765C55.8609 13.2431 57.2129 14.5605 58.1835 16.3285C59.1542 18.0965 59.6395 20.3325 59.6395 23.0365V38.8965H54.6475V23.6085C54.6475 20.9392 53.9889 18.9285 52.6715 17.5765C51.3889 16.2245 49.5689 15.5485 47.2115 15.5485C45.4435 15.5485 43.9009 15.8951 42.5835 16.5885C41.2662 17.2818 40.2435 18.3045 39.5155 19.6565C38.8222 21.0085 38.4755 22.6898 38.4755 24.7005V38.8965H33.4835V0.312482H38.4755V18.7725L37.4875 16.7965C38.3889 14.9938 39.7755 13.5898 41.6475 12.5845C43.5195 11.5791 45.7035 11.0765 48.1995 11.0765ZM79.5901 39.2085C76.6434 39.2085 74.0434 38.6018 71.7901 37.3885C69.5714 36.1752 67.8381 34.5112 66.5901 32.3965C65.3767 30.2818 64.7701 27.8552 64.7701 25.1165C64.7701 22.3778 65.3594 19.9512 66.5381 17.8365C67.7514 15.7218 69.3981 14.0752 71.4781 12.8965C73.5927 11.6832 75.9674 11.0765 78.6021 11.0765C81.2714 11.0765 83.6287 11.6658 85.6741 12.8445C87.7194 14.0231 89.3141 15.6872 90.4581 17.8365C91.6367 19.9512 92.2261 22.4298 92.2261 25.2725C92.2261 25.4805 92.2087 25.7232 92.1741 26.0005C92.1741 26.2778 92.1567 26.5378 92.1221 26.7805H68.6701V23.1925H89.5221L87.4941 24.4405C87.5287 22.6725 87.1647 21.0951 86.4021 19.7085C85.6394 18.3218 84.5821 17.2472 83.2301 16.4845C81.9127 15.6871 80.3701 15.2885 78.6021 15.2885C76.8687 15.2885 75.3261 15.6871 73.9741 16.4845C72.6221 17.2472 71.5647 18.3392 70.8021 19.7605C70.0394 21.1472 69.6581 22.7418 69.6581 24.5445V25.3765C69.6581 27.2138 70.0741 28.8605 70.9061 30.3165C71.7727 31.7378 72.9687 32.8472 74.4941 33.6445C76.0194 34.4418 77.7701 34.8405 79.7461 34.8405C81.3754 34.8405 82.8487 34.5632 84.1661 34.0085C85.5181 33.4538 86.6967 32.6218 87.7021 31.5125L90.4581 34.7365C89.2101 36.1925 87.6501 37.3018 85.7781 38.0645C83.9407 38.8272 81.8781 39.2085 79.5901 39.2085ZM98.2861 49.2965C96.9688 49.2965 95.6861 49.0712 94.4381 48.6205C93.1901 48.2045 92.1154 47.5805 91.2141 46.7485L93.3461 43.0045C94.0394 43.6632 94.8021 44.1658 95.6341 44.5125C96.4661 44.8592 97.3501 45.0325 98.2861 45.0325C99.4994 45.0325 100.505 44.7205 101.302 44.0965C102.099 43.4725 102.845 42.3632 103.538 40.7685L105.254 36.9725L105.774 36.3485L116.59 11.3365H121.478L108.114 41.6525C107.317 43.5938 106.415 45.1192 105.41 46.2285C104.439 47.3378 103.365 48.1178 102.186 48.5685C101.007 49.0538 99.7074 49.2965 98.2861 49.2965ZM104.838 39.7805L92.2541 11.3365H97.4541L108.166 35.8805L104.838 39.7805ZM123.464 14.5085L126.064 3.95248L126.74 6.96848C125.735 6.96848 124.886 6.65648 124.192 6.03248C123.534 5.40848 123.204 4.57648 123.204 3.53648C123.204 2.46182 123.534 1.61248 124.192 0.988483C124.886 0.329816 125.718 0.000483036 126.688 0.000483036C127.694 0.000483036 128.508 0.347149 129.132 1.04048C129.756 1.69915 130.068 2.53115 130.068 3.53648C130.068 3.84848 130.051 4.17782 130.016 4.52448C129.982 4.83648 129.895 5.20048 129.756 5.61648C129.652 6.03248 129.479 6.56982 129.236 7.22848L126.74 14.5085H123.464ZM135.661 38.8965V11.3365H140.445V18.8245L139.977 16.9525C140.74 15.0458 142.023 13.5898 143.825 12.5845C145.628 11.5791 147.847 11.0765 150.481 11.0765V15.9125C150.273 15.8778 150.065 15.8605 149.857 15.8605C149.684 15.8605 149.511 15.8605 149.337 15.8605C146.668 15.8605 144.553 16.6578 142.993 18.2525C141.433 19.8472 140.653 22.1525 140.653 25.1685V38.8965H135.661ZM167.092 39.2085C164.146 39.2085 161.546 38.6018 159.292 37.3885C157.074 36.1752 155.34 34.5112 154.092 32.3965C152.879 30.2818 152.272 27.8552 152.272 25.1165C152.272 22.3778 152.862 19.9512 154.04 17.8365C155.254 15.7218 156.9 14.0752 158.98 12.8965C161.095 11.6832 163.47 11.0765 166.104 11.0765C168.774 11.0765 171.131 11.6658 173.176 12.8445C175.222 14.0231 176.816 15.6872 177.96 17.8365C179.139 19.9512 179.728 22.4298 179.728 25.2725C179.728 25.4805 179.711 25.7232 179.676 26.0005C179.676 26.2778 179.659 26.5378 179.624 26.7805H156.172V23.1925H177.024L174.996 24.4405C175.031 22.6725 174.667 21.0951 173.904 19.7085C173.142 18.3218 172.084 17.2472 170.732 16.4845C169.415 15.6871 167.872 15.2885 166.104 15.2885C164.371 15.2885 162.828 15.6871 161.476 16.4845C160.124 17.2472 159.067 18.3392 158.304 19.7605C157.542 21.1472 157.16 22.7418 157.16 24.5445V25.3765C157.16 27.2138 157.576 28.8605 158.408 30.3165C159.275 31.7378 160.471 32.8472 161.996 33.6445C163.522 34.4418 165.272 34.8405 167.248 34.8405C168.878 34.8405 170.351 34.5632 171.668 34.0085C173.02 33.4538 174.199 32.6218 175.204 31.5125L177.96 34.7365C176.712 36.1925 175.152 37.3018 173.28 38.0645C171.443 38.8272 169.38 39.2085 167.092 39.2085ZM212.221 11.0765C214.474 11.0765 216.45 11.5098 218.149 12.3765C219.882 13.2431 221.234 14.5605 222.205 16.3285C223.176 18.0965 223.661 20.3325 223.661 23.0365V38.8965H218.669V23.6085C218.669 20.9392 218.01 18.9285 216.693 17.5765C215.41 16.2245 213.59 15.5485 211.233 15.5485C209.465 15.5485 207.922 15.8951 206.605 16.5885C205.288 17.2818 204.265 18.3045 203.537 19.6565C202.844 21.0085 202.497 22.6898 202.497 24.7005V38.8965H197.505V11.3365H202.289V18.7725L201.509 16.7965C202.41 14.9938 203.797 13.5898 205.669 12.5845C207.541 11.5791 209.725 11.0765 212.221 11.0765ZM243.143 39.2085C240.37 39.2085 237.909 38.6018 235.759 37.3885C233.61 36.1752 231.911 34.5112 230.663 32.3965C229.415 30.2472 228.791 27.8205 228.791 25.1165C228.791 22.3778 229.415 19.9512 230.663 17.8365C231.911 15.7218 233.61 14.0752 235.759 12.8965C237.909 11.6832 240.37 11.0765 243.143 11.0765C245.882 11.0765 248.326 11.6832 250.475 12.8965C252.659 14.0752 254.358 15.7218 255.571 17.8365C256.819 19.9165 257.443 22.3431 257.443 25.1165C257.443 27.8552 256.819 30.2818 255.571 32.3965C254.358 34.5112 252.659 36.1752 250.475 37.3885C248.326 38.6018 245.882 39.2085 243.143 39.2085ZM243.143 34.8405C244.911 34.8405 246.489 34.4418 247.875 33.6445C249.297 32.8472 250.406 31.7205 251.203 30.2645C252.001 28.7738 252.399 27.0578 252.399 25.1165C252.399 23.1405 252.001 21.4418 251.203 20.0205C250.406 18.5645 249.297 17.4378 247.875 16.6405C246.489 15.8431 244.911 15.4445 243.143 15.4445C241.375 15.4445 239.798 15.8431 238.411 16.6405C237.025 17.4378 235.915 18.5645 235.083 20.0205C234.251 21.4418 233.835 23.1405 233.835 25.1165C233.835 27.0578 234.251 28.7738 235.083 30.2645C235.915 31.7205 237.025 32.8472 238.411 33.6445C239.798 34.4418 241.375 34.8405 243.143 34.8405ZM272.251 39.2085C269.478 39.2085 267.329 38.4632 265.803 36.9725C264.278 35.4818 263.515 33.3498 263.515 30.5765V5.30448H268.507V30.3685C268.507 31.8592 268.871 33.0032 269.599 33.8005C270.362 34.5978 271.437 34.9965 272.823 34.9965C274.383 34.9965 275.683 34.5632 276.723 33.6965L278.283 37.2845C277.521 37.9432 276.602 38.4285 275.527 38.7405C274.487 39.0525 273.395 39.2085 272.251 39.2085ZM258.835 15.4445V11.3365H276.411V15.4445H258.835ZM306.551 39.2085C303.882 39.2085 301.49 38.6192 299.375 37.4405C297.295 36.2618 295.649 34.6152 294.435 32.5005C293.222 30.3858 292.615 27.9245 292.615 25.1165C292.615 22.3085 293.222 19.8645 294.435 17.7845C295.649 15.6698 297.295 14.0231 299.375 12.8445C301.49 11.6658 303.882 11.0765 306.551 11.0765C308.874 11.0765 310.971 11.5965 312.843 12.6365C314.715 13.6765 316.206 15.2365 317.315 17.3165C318.459 19.3965 319.031 21.9965 319.031 25.1165C319.031 28.2365 318.477 30.8365 317.367 32.9165C316.293 34.9965 314.819 36.5738 312.947 37.6485C311.075 38.6885 308.943 39.2085 306.551 39.2085ZM306.967 34.8405C308.701 34.8405 310.261 34.4418 311.647 33.6445C313.069 32.8472 314.178 31.7205 314.975 30.2645C315.807 28.7738 316.223 27.0578 316.223 25.1165C316.223 23.1405 315.807 21.4418 314.975 20.0205C314.178 18.5645 313.069 17.4378 311.647 16.6405C310.261 15.8431 308.701 15.4445 306.967 15.4445C305.199 15.4445 303.622 15.8431 302.235 16.6405C300.849 17.4378 299.739 18.5645 298.907 20.0205C298.075 21.4418 297.659 23.1405 297.659 25.1165C297.659 27.0578 298.075 28.7738 298.907 30.2645C299.739 31.7205 300.849 32.8472 302.235 33.6445C303.622 34.4418 305.199 34.8405 306.967 34.8405ZM316.379 38.8965V31.4605L316.691 25.0645L316.171 18.6685V0.312482H321.163V38.8965H316.379ZM341.321 39.2085C338.374 39.2085 335.774 38.6018 333.521 37.3885C331.302 36.1752 329.569 34.5112 328.321 32.3965C327.107 30.2818 326.501 27.8552 326.501 25.1165C326.501 22.3778 327.09 19.9512 328.269 17.8365C329.482 15.7218 331.129 14.0752 333.209 12.8965C335.323 11.6832 337.698 11.0765 340.333 11.0765C343.002 11.0765 345.359 11.6658 347.405 12.8445C349.45 14.0231 351.045 15.6872 352.189 17.8365C353.367 19.9512 353.957 22.4298 353.957 25.2725C353.957 25.4805 353.939 25.7232 353.905 26.0005C353.905 26.2778 353.887 26.5378 353.853 26.7805H330.401V23.1925H351.253L349.225 24.4405C349.259 22.6725 348.895 21.0951 348.133 19.7085C347.37 18.3218 346.313 17.2472 344.961 16.4845C343.643 15.6871 342.101 15.2885 340.333 15.2885C338.599 15.2885 337.057 15.6871 335.705 16.4845C334.353 17.2472 333.295 18.3392 332.533 19.7605C331.77 21.1472 331.389 22.7418 331.389 24.5445V25.3765C331.389 27.2138 331.805 28.8605 332.637 30.3165C333.503 31.7378 334.699 32.8472 336.225 33.6445C337.75 34.4418 339.501 34.8405 341.477 34.8405C343.106 34.8405 344.579 34.5632 345.897 34.0085C347.249 33.4538 348.427 32.6218 349.433 31.5125L352.189 34.7365C350.941 36.1925 349.381 37.3018 347.509 38.0645C345.671 38.8272 343.609 39.2085 341.321 39.2085ZM366.049 38.8965L353.985 11.3365H359.185L369.897 36.2965H367.401L378.321 11.3365H383.209L371.145 38.8965H366.049ZM397.818 39.2085C394.871 39.2085 392.271 38.6018 390.018 37.3885C387.799 36.1752 386.066 34.5112 384.818 32.3965C383.605 30.2818 382.998 27.8552 382.998 25.1165C382.998 22.3778 383.587 19.9512 384.766 17.8365C385.979 15.7218 387.626 14.0752 389.706 12.8965C391.821 11.6832 394.195 11.0765 396.83 11.0765C399.499 11.0765 401.857 11.6658 403.902 12.8445C405.947 14.0231 407.542 15.6872 408.686 17.8365C409.865 19.9512 410.454 22.4298 410.454 25.2725C410.454 25.4805 410.437 25.7232 410.402 26.0005C410.402 26.2778 410.385 26.5378 410.35 26.7805H386.898V23.1925H407.75L405.722 24.4405C405.757 22.6725 405.393 21.0951 404.63 19.7085C403.867 18.3218 402.81 17.2472 401.458 16.4845C400.141 15.6871 398.598 15.2885 396.83 15.2885C395.097 15.2885 393.554 15.6871 392.202 16.4845C390.85 17.2472 389.793 18.3392 389.03 19.7605C388.267 21.1472 387.886 22.7418 387.886 24.5445V25.3765C387.886 27.2138 388.302 28.8605 389.134 30.3165C390.001 31.7378 391.197 32.8472 392.722 33.6445C394.247 34.4418 395.998 34.8405 397.974 34.8405C399.603 34.8405 401.077 34.5632 402.394 34.0085C403.746 33.4538 404.925 32.6218 405.93 31.5125L408.686 34.7365C407.438 36.1925 405.878 37.3018 404.006 38.0645C402.169 38.8272 400.106 39.2085 397.818 39.2085ZM415.826 38.8965V0.312482H420.818V38.8965H415.826ZM440.593 39.2085C437.82 39.2085 435.358 38.6018 433.209 37.3885C431.06 36.1752 429.361 34.5112 428.113 32.3965C426.865 30.2472 426.241 27.8205 426.241 25.1165C426.241 22.3778 426.865 19.9512 428.113 17.8365C429.361 15.7218 431.06 14.0752 433.209 12.8965C435.358 11.6832 437.82 11.0765 440.593 11.0765C443.332 11.0765 445.776 11.6832 447.925 12.8965C450.109 14.0752 451.808 15.7218 453.021 17.8365C454.269 19.9165 454.893 22.3431 454.893 25.1165C454.893 27.8552 454.269 30.2818 453.021 32.3965C451.808 34.5112 450.109 36.1752 447.925 37.3885C445.776 38.6018 443.332 39.2085 440.593 39.2085ZM440.593 34.8405C442.361 34.8405 443.938 34.4418 445.325 33.6445C446.746 32.8472 447.856 31.7205 448.653 30.2645C449.45 28.7738 449.849 27.0578 449.849 25.1165C449.849 23.1405 449.45 21.4418 448.653 20.0205C447.856 18.5645 446.746 17.4378 445.325 16.6405C443.938 15.8431 442.361 15.4445 440.593 15.4445C438.825 15.4445 437.248 15.8431 435.861 16.6405C434.474 17.4378 433.365 18.5645 432.533 20.0205C431.701 21.4418 431.285 23.1405 431.285 25.1165C431.285 27.0578 431.701 28.7738 432.533 30.2645C433.365 31.7205 434.474 32.8472 435.861 33.6445C437.248 34.4418 438.825 34.8405 440.593 34.8405ZM474.849 39.2085C472.561 39.2085 470.464 38.6885 468.557 37.6485C466.685 36.5738 465.177 34.9965 464.033 32.9165C462.924 30.8365 462.369 28.2365 462.369 25.1165C462.369 21.9965 462.906 19.3965 463.981 17.3165C465.09 15.2365 466.581 13.6765 468.453 12.6365C470.36 11.5965 472.492 11.0765 474.849 11.0765C477.553 11.0765 479.945 11.6658 482.025 12.8445C484.105 14.0231 485.752 15.6698 486.965 17.7845C488.178 19.8645 488.785 22.3085 488.785 25.1165C488.785 27.9245 488.178 30.3858 486.965 32.5005C485.752 34.6152 484.105 36.2618 482.025 37.4405C479.945 38.6192 477.553 39.2085 474.849 39.2085ZM460.237 48.9845V11.3365H465.021V18.7725L464.709 25.1685L465.229 31.5645V48.9845H460.237ZM474.433 34.8405C476.201 34.8405 477.778 34.4418 479.165 33.6445C480.586 32.8472 481.696 31.7205 482.493 30.2645C483.325 28.7738 483.741 27.0578 483.741 25.1165C483.741 23.1405 483.325 21.4418 482.493 20.0205C481.696 18.5645 480.586 17.4378 479.165 16.6405C477.778 15.8431 476.201 15.4445 474.433 15.4445C472.7 15.4445 471.122 15.8431 469.701 16.6405C468.314 17.4378 467.205 18.5645 466.373 20.0205C465.576 21.4418 465.177 23.1405 465.177 25.1165C465.177 27.0578 465.576 28.7738 466.373 30.2645C467.205 31.7205 468.314 32.8472 469.701 33.6445C471.122 34.4418 472.7 34.8405 474.433 34.8405ZM506.394 39.2085C503.448 39.2085 500.848 38.6018 498.594 37.3885C496.376 36.1752 494.642 34.5112 493.394 32.3965C492.181 30.2818 491.574 27.8552 491.574 25.1165C491.574 22.3778 492.164 19.9512 493.342 17.8365C494.556 15.7218 496.202 14.0752 498.282 12.8965C500.397 11.6832 502.772 11.0765 505.406 11.0765C508.076 11.0765 510.433 11.6658 512.478 12.8445C514.524 14.0231 516.118 15.6872 517.262 17.8365C518.441 19.9512 519.03 22.4298 519.03 25.2725C519.03 25.4805 519.013 25.7232 518.978 26.0005C518.978 26.2778 518.961 26.5378 518.926 26.7805H495.474V23.1925H516.326L514.298 24.4405C514.333 22.6725 513.969 21.0951 513.206 19.7085C512.444 18.3218 511.386 17.2472 510.034 16.4845C508.717 15.6871 507.174 15.2885 505.406 15.2885C503.673 15.2885 502.13 15.6871 500.778 16.4845C499.426 17.2472 498.369 18.3392 497.606 19.7605C496.844 21.1472 496.462 22.7418 496.462 24.5445V25.3765C496.462 27.2138 496.878 28.8605 497.71 30.3165C498.577 31.7378 499.773 32.8472 501.298 33.6445C502.824 34.4418 504.574 34.8405 506.55 34.8405C508.18 34.8405 509.653 34.5632 510.97 34.0085C512.322 33.4538 513.501 32.6218 514.506 31.5125L517.262 34.7365C516.014 36.1925 514.454 37.3018 512.582 38.0645C510.745 38.8272 508.682 39.2085 506.394 39.2085ZM524.402 38.8965V11.3365H529.186V18.8245L528.718 16.9525C529.481 15.0458 530.763 13.5898 532.566 12.5845C534.369 11.5791 536.587 11.0765 539.222 11.0765V15.9125C539.014 15.8778 538.806 15.8605 538.598 15.8605C538.425 15.8605 538.251 15.8605 538.078 15.8605C535.409 15.8605 533.294 16.6578 531.734 18.2525C530.174 19.8472 529.394 22.1525 529.394 25.1685V38.8965H524.402ZM552.023 39.2085C549.735 39.2085 547.551 38.8965 545.471 38.2725C543.426 37.6485 541.814 36.8858 540.635 35.9845L542.715 32.0325C543.894 32.8298 545.35 33.5058 547.083 34.0605C548.817 34.6152 550.585 34.8925 552.387 34.8925C554.71 34.8925 556.374 34.5632 557.379 33.9045C558.419 33.2458 558.939 32.3272 558.939 31.1485C558.939 30.2818 558.627 29.6058 558.003 29.1205C557.379 28.6352 556.547 28.2712 555.507 28.0285C554.502 27.7858 553.375 27.5778 552.127 27.4045C550.879 27.1965 549.631 26.9538 548.383 26.6765C547.135 26.3645 545.991 25.9485 544.951 25.4285C543.911 24.8738 543.079 24.1285 542.455 23.1925C541.831 22.2218 541.519 20.9392 541.519 19.3445C541.519 17.6805 541.987 16.2245 542.923 14.9765C543.859 13.7285 545.177 12.7751 546.875 12.1165C548.609 11.4231 550.654 11.0765 553.011 11.0765C554.814 11.0765 556.634 11.3018 558.471 11.7525C560.343 12.1685 561.869 12.7751 563.047 13.5725L560.915 17.5245C559.667 16.6925 558.367 16.1205 557.015 15.8085C555.663 15.4965 554.311 15.3405 552.959 15.3405C550.775 15.3405 549.146 15.7045 548.071 16.4325C546.997 17.1258 546.459 18.0271 546.459 19.1365C546.459 20.0725 546.771 20.8005 547.395 21.3205C548.054 21.8058 548.886 22.1872 549.891 22.4645C550.931 22.7418 552.075 22.9845 553.323 23.1925C554.571 23.3658 555.819 23.6085 557.067 23.9205C558.315 24.1978 559.442 24.5965 560.447 25.1165C561.487 25.6365 562.319 26.3645 562.943 27.3005C563.602 28.2365 563.931 29.4845 563.931 31.0445C563.931 32.7085 563.446 34.1472 562.475 35.3605C561.505 36.5738 560.135 37.5272 558.367 38.2205C556.599 38.8792 554.485 39.2085 552.023 39.2085ZM569.806 39.2085C568.836 39.2085 568.004 38.8792 567.31 38.2205C566.617 37.5272 566.27 36.6605 566.27 35.6205C566.27 34.5805 566.617 33.7312 567.31 33.0725C568.004 32.4138 568.836 32.0845 569.806 32.0845C570.742 32.0845 571.54 32.4138 572.198 33.0725C572.892 33.7312 573.238 34.5805 573.238 35.6205C573.238 36.6605 572.892 37.5272 572.198 38.2205C571.54 38.8792 570.742 39.2085 569.806 39.2085ZM150.503 90.8965V54.4965H154.767L178.843 84.3965H176.607V54.4965H181.807V90.8965H177.543L153.467 60.9965H155.703V90.8965H150.503ZM202.218 91.2085C199.445 91.2085 196.983 90.6018 194.834 89.3885C192.685 88.1752 190.986 86.5112 189.738 84.3965C188.49 82.2472 187.866 79.8205 187.866 77.1165C187.866 74.3778 188.49 71.9512 189.738 69.8365C190.986 67.7218 192.685 66.0752 194.834 64.8965C196.983 63.6832 199.445 63.0765 202.218 63.0765C204.957 63.0765 207.401 63.6832 209.55 64.8965C211.734 66.0752 213.433 67.7218 214.646 69.8365C215.894 71.9165 216.518 74.3431 216.518 77.1165C216.518 79.8552 215.894 82.2818 214.646 84.3965C213.433 86.5112 211.734 88.1752 209.55 89.3885C207.401 90.6018 204.957 91.2085 202.218 91.2085ZM202.218 86.8405C203.986 86.8405 205.563 86.4418 206.95 85.6445C208.371 84.8472 209.481 83.7205 210.278 82.2645C211.075 80.7738 211.474 79.0578 211.474 77.1165C211.474 75.1405 211.075 73.4418 210.278 72.0205C209.481 70.5645 208.371 69.4378 206.95 68.6405C205.563 67.8431 203.986 67.4445 202.218 67.4445C200.45 67.4445 198.873 67.8431 197.486 68.6405C196.099 69.4378 194.99 70.5645 194.158 72.0205C193.326 73.4418 192.91 75.1405 192.91 77.1165C192.91 79.0578 193.326 80.7738 194.158 82.2645C194.99 83.7205 196.099 84.8472 197.486 85.6445C198.873 86.4418 200.45 86.8405 202.218 86.8405ZM231.326 91.2085C228.552 91.2085 226.403 90.4632 224.878 88.9725C223.352 87.4818 222.59 85.3498 222.59 82.5765V57.3045H227.582V82.3685C227.582 83.8592 227.946 85.0032 228.674 85.8005C229.436 86.5978 230.511 86.9965 231.898 86.9965C233.458 86.9965 234.758 86.5632 235.798 85.6965L237.358 89.2845C236.595 89.9432 235.676 90.4285 234.602 90.7405C233.562 91.0525 232.47 91.2085 231.326 91.2085ZM217.91 67.4445V63.3365H235.486V67.4445H217.91ZM266.25 91.2085C263.442 91.2085 260.928 90.6018 258.71 89.3885C256.526 88.1752 254.81 86.5112 253.562 84.3965C252.314 82.2818 251.69 79.8552 251.69 77.1165C251.69 74.3778 252.314 71.9512 253.562 69.8365C254.81 67.7218 256.526 66.0752 258.71 64.8965C260.928 63.6832 263.442 63.0765 266.25 63.0765C268.746 63.0765 270.964 63.5791 272.906 64.5845C274.882 65.5551 276.407 67.0112 277.482 68.9525L273.686 71.3965C272.784 70.0445 271.675 69.0565 270.358 68.4325C269.075 67.7738 267.688 67.4445 266.198 67.4445C264.395 67.4445 262.783 67.8431 261.362 68.6405C259.94 69.4378 258.814 70.5645 257.982 72.0205C257.15 73.4418 256.734 75.1405 256.734 77.1165C256.734 79.0925 257.15 80.8085 257.982 82.2645C258.814 83.7205 259.94 84.8472 261.362 85.6445C262.783 86.4418 264.395 86.8405 266.198 86.8405C267.688 86.8405 269.075 86.5285 270.358 85.9045C271.675 85.2458 272.784 84.2405 273.686 82.8885L277.482 85.2805C276.407 87.1872 274.882 88.6605 272.906 89.7005C270.964 90.7058 268.746 91.2085 266.25 91.2085ZM293.783 91.2085C291.009 91.2085 288.548 90.6018 286.399 89.3885C284.249 88.1752 282.551 86.5112 281.303 84.3965C280.055 82.2472 279.431 79.8205 279.431 77.1165C279.431 74.3778 280.055 71.9512 281.303 69.8365C282.551 67.7218 284.249 66.0752 286.399 64.8965C288.548 63.6832 291.009 63.0765 293.783 63.0765C296.521 63.0765 298.965 63.6832 301.115 64.8965C303.299 66.0752 304.997 67.7218 306.211 69.8365C307.459 71.9165 308.083 74.3431 308.083 77.1165C308.083 79.8552 307.459 82.2818 306.211 84.3965C304.997 86.5112 303.299 88.1752 301.115 89.3885C298.965 90.6018 296.521 91.2085 293.783 91.2085ZM293.783 86.8405C295.551 86.8405 297.128 86.4418 298.515 85.6445C299.936 84.8472 301.045 83.7205 301.843 82.2645C302.64 80.7738 303.039 79.0578 303.039 77.1165C303.039 75.1405 302.64 73.4418 301.843 72.0205C301.045 70.5645 299.936 69.4378 298.515 68.6405C297.128 67.8431 295.551 67.4445 293.783 67.4445C292.015 67.4445 290.437 67.8431 289.051 68.6405C287.664 69.4378 286.555 70.5645 285.723 72.0205C284.891 73.4418 284.475 75.1405 284.475 77.1165C284.475 79.0578 284.891 80.7738 285.723 82.2645C286.555 83.7205 287.664 84.8472 289.051 85.6445C290.437 86.4418 292.015 86.8405 293.783 86.8405ZM324.814 91.2085C322.145 91.2085 319.753 90.6192 317.638 89.4405C315.558 88.2618 313.912 86.6152 312.698 84.5005C311.485 82.3858 310.878 79.9245 310.878 77.1165C310.878 74.3085 311.485 71.8645 312.698 69.7845C313.912 67.6698 315.558 66.0231 317.638 64.8445C319.753 63.6658 322.145 63.0765 324.814 63.0765C327.137 63.0765 329.234 63.5965 331.106 64.6365C332.978 65.6765 334.469 67.2365 335.578 69.3165C336.722 71.3965 337.294 73.9965 337.294 77.1165C337.294 80.2365 336.74 82.8365 335.63 84.9165C334.556 86.9965 333.082 88.5738 331.21 89.6485C329.338 90.6885 327.206 91.2085 324.814 91.2085ZM325.23 86.8405C326.964 86.8405 328.524 86.4418 329.91 85.6445C331.332 84.8472 332.441 83.7205 333.238 82.2645C334.07 80.7738 334.486 79.0578 334.486 77.1165C334.486 75.1405 334.07 73.4418 333.238 72.0205C332.441 70.5645 331.332 69.4378 329.91 68.6405C328.524 67.8431 326.964 67.4445 325.23 67.4445C323.462 67.4445 321.885 67.8431 320.498 68.6405C319.112 69.4378 318.002 70.5645 317.17 72.0205C316.338 73.4418 315.922 75.1405 315.922 77.1165C315.922 79.0578 316.338 80.7738 317.17 82.2645C318.002 83.7205 319.112 84.8472 320.498 85.6445C321.885 86.4418 323.462 86.8405 325.23 86.8405ZM334.642 90.8965V83.4605L334.954 77.0645L334.434 70.6685V52.3125H339.426V90.8965H334.642ZM359.584 91.2085C356.637 91.2085 354.037 90.6018 351.784 89.3885C349.565 88.1752 347.832 86.5112 346.584 84.3965C345.37 82.2818 344.764 79.8552 344.764 77.1165C344.764 74.3778 345.353 71.9512 346.532 69.8365C347.745 67.7218 349.392 66.0752 351.472 64.8965C353.586 63.6832 355.961 63.0765 358.596 63.0765C361.265 63.0765 363.622 63.6658 365.668 64.8445C367.713 66.0231 369.308 67.6872 370.452 69.8365C371.63 71.9512 372.22 74.4298 372.22 77.2725C372.22 77.4805 372.202 77.7232 372.168 78.0005C372.168 78.2778 372.15 78.5378 372.116 78.7805H348.664V75.1925H369.516L367.488 76.4405C367.522 74.6725 367.158 73.0951 366.396 71.7085C365.633 70.3218 364.576 69.2472 363.224 68.4845C361.906 67.6871 360.364 67.2885 358.596 67.2885C356.862 67.2885 355.32 67.6871 353.968 68.4845C352.616 69.2472 351.558 70.3392 350.796 71.7605C350.033 73.1472 349.652 74.7418 349.652 76.5445V77.3765C349.652 79.2138 350.068 80.8605 350.9 82.3165C351.766 83.7378 352.962 84.8472 354.488 85.6445C356.013 86.4418 357.764 86.8405 359.74 86.8405C361.369 86.8405 362.842 86.5632 364.16 86.0085C365.512 85.4538 366.69 84.6218 367.696 83.5125L370.452 86.7365C369.204 88.1925 367.644 89.3018 365.772 90.0645C363.934 90.8272 361.872 91.2085 359.584 91.2085ZM377.591 90.8965V63.3365H382.375V70.8245L381.907 68.9525C382.67 67.0458 383.953 65.5898 385.755 64.5845C387.558 63.5791 389.777 63.0765 392.411 63.0765V67.9125C392.203 67.8778 391.995 67.8605 391.787 67.8605C391.614 67.8605 391.441 67.8605 391.267 67.8605C388.598 67.8605 386.483 68.6578 384.923 70.2525C383.363 71.8472 382.583 74.1525 382.583 77.1685V90.8965H377.591ZM405.213 91.2085C402.925 91.2085 400.741 90.8965 398.661 90.2725C396.616 89.6485 395.004 88.8858 393.825 87.9845L395.905 84.0325C397.084 84.8298 398.54 85.5058 400.273 86.0605C402.006 86.6152 403.774 86.8925 405.577 86.8925C407.9 86.8925 409.564 86.5632 410.569 85.9045C411.609 85.2458 412.129 84.3272 412.129 83.1485C412.129 82.2818 411.817 81.6058 411.193 81.1205C410.569 80.6352 409.737 80.2712 408.697 80.0285C407.692 79.7858 406.565 79.5778 405.317 79.4045C404.069 79.1965 402.821 78.9538 401.573 78.6765C400.325 78.3645 399.181 77.9485 398.141 77.4285C397.101 76.8738 396.269 76.1285 395.645 75.1925C395.021 74.2218 394.709 72.9392 394.709 71.3445C394.709 69.6805 395.177 68.2245 396.113 66.9765C397.049 65.7285 398.366 64.7751 400.065 64.1165C401.798 63.4231 403.844 63.0765 406.201 63.0765C408.004 63.0765 409.824 63.3018 411.661 63.7525C413.533 64.1685 415.058 64.7751 416.237 65.5725L414.105 69.5245C412.857 68.6925 411.557 68.1205 410.205 67.8085C408.853 67.4965 407.501 67.3405 406.149 67.3405C403.965 67.3405 402.336 67.7045 401.261 68.4325C400.186 69.1258 399.649 70.0271 399.649 71.1365C399.649 72.0725 399.961 72.8005 400.585 73.3205C401.244 73.8058 402.076 74.1872 403.081 74.4645C404.121 74.7418 405.265 74.9845 406.513 75.1925C407.761 75.3658 409.009 75.6085 410.257 75.9205C411.505 76.1978 412.632 76.5965 413.637 77.1165C414.677 77.6365 415.509 78.3645 416.133 79.3005C416.792 80.2365 417.121 81.4845 417.121 83.0445C417.121 84.7085 416.636 86.1472 415.665 87.3605C414.694 88.5738 413.325 89.5272 411.557 90.2205C409.789 90.8792 407.674 91.2085 405.213 91.2085ZM422.996 91.2085C422.025 91.2085 421.193 90.8792 420.5 90.2205C419.806 89.5272 419.46 88.6605 419.46 87.6205C419.46 86.5805 419.806 85.7312 420.5 85.0725C421.193 84.4138 422.025 84.0845 422.996 84.0845C423.932 84.0845 424.729 84.4138 425.388 85.0725C426.081 85.7312 426.428 86.5805 426.428 87.6205C426.428 88.6605 426.081 89.5272 425.388 90.2205C424.729 90.8792 423.932 91.2085 422.996 91.2085Z" fill="white"/>
</svg>
