<svg width="316" height="530" viewBox="0 0 316 530" fill="none" xmlns="http://www.w3.org/2000/svg">
<foreignObject x="-32.9187" y="-32.9187" width="381.033" height="595.005"><div xmlns="http://www.w3.org/1999/xhtml" style="backdrop-filter:blur(29.22px);clip-path:url(#bgblur_0_32_18023_clip_path);height:100%;width:100%"></div></foreignObject><g filter="url(#filter0_d_32_18023)" data-figma-bg-blur-radius="58.4306">
<rect width="264.172" height="478.144" rx="31.2727" transform="matrix(-1 0 0 1 289.684 25.512)" fill="white" fill-opacity="0.27" shape-rendering="crispEdges"/>
</g>
<foreignObject x="-32.9187" y="-32.9187" width="381.033" height="595.005"><div xmlns="http://www.w3.org/1999/xhtml" style="backdrop-filter:blur(13.99px);clip-path:url(#bgblur_1_32_18023_clip_path);height:100%;width:100%"></div></foreignObject><g data-figma-bg-blur-radius="27.9809">
<rect width="241.129" height="454.278" rx="19.7512" transform="matrix(-1 0 0 1 278.163 37.0333)" fill="white"/>
<rect x="-3.39621" y="3.39621" width="234.337" height="447.485" rx="16.355" transform="matrix(-1 0 0 1 271.37 37.0333)" stroke="white" stroke-opacity="0.64" stroke-width="6.79243"/>
</g>
<defs>
<filter id="filter0_d_32_18023" x="-32.9187" y="-32.9187" width="381.033" height="595.005" filterUnits="userSpaceOnUse" color-interpolation-filters="sRGB">
<feFlood flood-opacity="0" result="BackgroundImageFix"/>
<feColorMatrix in="SourceAlpha" type="matrix" values="0 0 0 0 0 0 0 0 0 0 0 0 0 0 0 0 0 0 127 0" result="hardAlpha"/>
<feMorphology radius="1.64593" operator="dilate" in="SourceAlpha" result="effect1_dropShadow_32_18023"/>
<feOffset/>
<feGaussianBlur stdDeviation="11.933"/>
<feComposite in2="hardAlpha" operator="out"/>
<feColorMatrix type="matrix" values="0 0 0 0 1 0 0 0 0 1 0 0 0 0 1 0 0 0 1 0"/>
<feBlend mode="normal" in2="BackgroundImageFix" result="effect1_dropShadow_32_18023"/>
<feBlend mode="normal" in="SourceGraphic" in2="effect1_dropShadow_32_18023" result="shape"/>
</filter>
<clipPath id="bgblur_0_32_18023_clip_path" transform="translate(32.9187 32.9187)"><rect width="264.172" height="478.144" rx="31.2727" transform="matrix(-1 0 0 1 289.684 25.512)"/>
</clipPath><clipPath id="bgblur_1_32_18023_clip_path" transform="translate(32.9187 32.9187)"><rect width="241.129" height="454.278" rx="19.7512" transform="matrix(-1 0 0 1 278.163 37.0333)"/>
</clipPath></defs>
</svg>
