<svg width="434" height="49" viewBox="0 0 434 49" fill="none" xmlns="http://www.w3.org/2000/svg">
<path d="M12.48 38.584V6.70798H7.45617e-06V2.18398H30.108V6.70798H17.628V38.584H12.48ZM48.1995 10.764C50.4529 10.764 52.4289 11.1973 54.1275 12.064C55.8609 12.9306 57.2129 14.248 58.1835 16.016C59.1542 17.784 59.6395 20.02 59.6395 22.724V38.584H54.6475V23.296C54.6475 20.6267 53.9889 18.616 52.6715 17.264C51.3889 15.912 49.5689 15.236 47.2115 15.236C45.4435 15.236 43.9009 15.5826 42.5835 16.276C41.2662 16.9693 40.2435 17.992 39.5155 19.344C38.8222 20.696 38.4755 22.3773 38.4755 24.388V38.584H33.4835V-1.78814e-05H38.4755V18.46L37.4875 16.484C38.3889 14.6813 39.7755 13.2773 41.6475 12.272C43.5195 11.2666 45.7035 10.764 48.1995 10.764ZM79.5901 38.896C76.6434 38.896 74.0434 38.2893 71.7901 37.076C69.5714 35.8627 67.8381 34.1987 66.5901 32.084C65.3767 29.9693 64.7701 27.5427 64.7701 24.804C64.7701 22.0653 65.3594 19.6387 66.5381 17.524C67.7514 15.4093 69.3981 13.7627 71.4781 12.584C73.5927 11.3707 75.9674 10.764 78.6021 10.764C81.2714 10.764 83.6287 11.3533 85.6741 12.532C87.7194 13.7106 89.3141 15.3747 90.4581 17.524C91.6367 19.6387 92.2261 22.1173 92.2261 24.96C92.2261 25.168 92.2087 25.4107 92.1741 25.688C92.1741 25.9653 92.1567 26.2253 92.1221 26.468H68.6701V22.88H89.5221L87.4941 24.128C87.5287 22.36 87.1647 20.7826 86.4021 19.396C85.6394 18.0093 84.5821 16.9347 83.2301 16.172C81.9127 15.3746 80.3701 14.976 78.6021 14.976C76.8687 14.976 75.3261 15.3746 73.9741 16.172C72.6221 16.9347 71.5647 18.0267 70.8021 19.448C70.0394 20.8347 69.6581 22.4293 69.6581 24.232V25.064C69.6581 26.9013 70.0741 28.548 70.9061 30.004C71.7727 31.4253 72.9687 32.5347 74.4941 33.332C76.0194 34.1293 77.7701 34.528 79.7461 34.528C81.3754 34.528 82.8487 34.2507 84.1661 33.696C85.5181 33.1413 86.6967 32.3093 87.7021 31.2L90.4581 34.424C89.2101 35.88 87.6501 36.9893 85.7781 37.752C83.9407 38.5147 81.8781 38.896 79.5901 38.896ZM98.2861 48.984C96.9688 48.984 95.6861 48.7587 94.4381 48.308C93.1901 47.892 92.1154 47.268 91.2141 46.436L93.3461 42.692C94.0394 43.3507 94.8021 43.8533 95.6341 44.2C96.4661 44.5467 97.3501 44.72 98.2861 44.72C99.4994 44.72 100.505 44.408 101.302 43.784C102.099 43.16 102.845 42.0507 103.538 40.456L105.254 36.66L105.774 36.036L116.59 11.024H121.478L108.114 41.34C107.317 43.2813 106.415 44.8067 105.41 45.916C104.439 47.0253 103.365 47.8053 102.186 48.256C101.007 48.7413 99.7074 48.984 98.2861 48.984ZM104.838 39.468L92.2541 11.024H97.4541L108.166 35.568L104.838 39.468ZM123.433 16.224L123.121 2.18398H127.489L127.125 16.224H123.433ZM133.935 38.584V11.024H138.719V18.512L138.251 16.64C139.014 14.7333 140.296 13.2773 142.099 12.272C143.902 11.2666 146.12 10.764 148.755 10.764V15.6C148.547 15.5653 148.339 15.548 148.131 15.548C147.958 15.548 147.784 15.548 147.611 15.548C144.942 15.548 142.827 16.3453 141.267 17.94C139.707 19.5347 138.927 21.84 138.927 24.856V38.584H133.935ZM165.366 38.896C162.419 38.896 159.819 38.2893 157.566 37.076C155.347 35.8627 153.614 34.1987 152.366 32.084C151.152 29.9693 150.546 27.5427 150.546 24.804C150.546 22.0653 151.135 19.6387 152.314 17.524C153.527 15.4093 155.174 13.7627 157.254 12.584C159.368 11.3707 161.743 10.764 164.378 10.764C167.047 10.764 169.404 11.3533 171.45 12.532C173.495 13.7106 175.09 15.3747 176.234 17.524C177.412 19.6387 178.002 22.1173 178.002 24.96C178.002 25.168 177.984 25.4107 177.95 25.688C177.95 25.9653 177.932 26.2253 177.898 26.468H154.446V22.88H175.298L173.27 24.128C173.304 22.36 172.94 20.7826 172.178 19.396C171.415 18.0093 170.358 16.9347 169.006 16.172C167.688 15.3746 166.146 14.976 164.378 14.976C162.644 14.976 161.102 15.3746 159.75 16.172C158.398 16.9347 157.34 18.0267 156.578 19.448C155.815 20.8347 155.434 22.4293 155.434 24.232V25.064C155.434 26.9013 155.85 28.548 156.682 30.004C157.548 31.4253 158.744 32.5347 160.27 33.332C161.795 34.1293 163.546 34.528 165.522 34.528C167.151 34.528 168.624 34.2507 169.942 33.696C171.294 33.1413 172.472 32.3093 173.478 31.2L176.234 34.424C174.986 35.88 173.426 36.9893 171.554 37.752C169.716 38.5147 167.654 38.896 165.366 38.896ZM204.67 16.848H222.194L220.894 23.4H203.37L204.67 16.848ZM202.278 31.824H222.142L220.738 38.584H192.554L199.834 2.18398H227.342L225.938 8.94398H206.854L202.278 31.824ZM221.312 38.584L237.432 22.048L236.392 26.156L227.864 10.608H236.288L242.112 21.372L238.368 21.32L248.508 10.608H257.452L242.06 26.624L242.736 22.308L251.784 38.584H243.204L237.224 27.456H241.02L230.568 38.584H221.312ZM272.31 39C270.057 39 268.081 38.5667 266.382 37.7C264.718 36.8333 263.47 35.4987 262.638 33.696C261.806 31.8587 261.512 29.5013 261.754 26.624C261.962 23.296 262.638 20.4013 263.782 17.94C264.961 15.4786 266.556 13.572 268.566 12.22C270.577 10.868 272.952 10.192 275.69 10.192C277.874 10.192 279.885 10.6947 281.722 11.7C283.56 12.6706 285.033 14.092 286.142 15.964C287.252 17.8013 287.806 20.0546 287.806 22.724C287.806 25.0467 287.408 27.2133 286.61 29.224C285.813 31.2 284.704 32.916 283.282 34.372C281.896 35.828 280.266 36.972 278.394 37.804C276.522 38.6013 274.494 39 272.31 39ZM252.394 48.672L259.986 10.608H267.682L266.538 16.172L264.77 24.492L263.678 32.812L260.506 48.672H252.394ZM271.374 32.292C273.004 32.292 274.425 31.9107 275.638 31.148C276.852 30.3507 277.805 29.276 278.498 27.924C279.226 26.5373 279.59 24.9253 279.59 23.088C279.59 21.1813 279.036 19.6733 277.926 18.564C276.817 17.4546 275.24 16.9 273.194 16.9C271.634 16.9 270.23 17.2986 268.982 18.096C267.734 18.8587 266.764 19.9333 266.07 21.32C265.377 22.672 265.03 24.2667 265.03 26.104C265.03 28.0107 265.585 29.5187 266.694 30.628C267.804 31.7373 269.364 32.292 271.374 32.292ZM288.765 38.584L296.461 -1.78814e-05H304.573L296.877 38.584H288.765ZM317.457 39C314.615 39 312.136 38.48 310.021 37.44C307.907 36.4 306.26 34.944 305.081 33.072C303.937 31.2 303.365 28.9987 303.365 26.468C303.365 23.348 304.093 20.5747 305.549 18.148C307.005 15.6867 308.999 13.7453 311.529 12.324C314.095 10.9027 317.007 10.192 320.265 10.192C323.143 10.192 325.621 10.712 327.701 11.752C329.816 12.792 331.445 14.248 332.589 16.12C333.768 17.9573 334.357 20.1587 334.357 22.724C334.357 25.8093 333.629 28.5827 332.173 31.044C330.717 33.5053 328.724 35.4467 326.193 36.868C323.663 38.2893 320.751 39 317.457 39ZM317.977 32.344C319.572 32.344 320.976 31.9627 322.189 31.2C323.437 30.4027 324.408 29.3107 325.101 27.924C325.795 26.5373 326.141 24.9253 326.141 23.088C326.141 21.216 325.587 19.708 324.477 18.564C323.368 17.42 321.808 16.848 319.797 16.848C318.203 16.848 316.781 17.2467 315.533 18.044C314.32 18.8066 313.349 19.8813 312.621 21.268C311.928 22.6547 311.581 24.2667 311.581 26.104C311.581 28.0107 312.136 29.536 313.245 30.68C314.355 31.7893 315.932 32.344 317.977 32.344ZM335.309 38.584L340.873 10.608H348.569L346.957 18.564L346.229 16.276C347.477 14.0227 349.106 12.4453 351.117 11.544C353.127 10.6427 355.537 10.192 358.345 10.192L356.889 17.68C356.542 17.6453 356.213 17.628 355.901 17.628C355.623 17.5933 355.329 17.576 355.017 17.576C352.625 17.576 350.666 18.1653 349.141 19.344C347.65 20.5227 346.645 22.4293 346.125 25.064L343.421 38.584H335.309ZM370.609 39C367.697 39 365.166 38.48 363.017 37.44C360.902 36.4 359.256 34.944 358.077 33.072C356.898 31.2 356.309 28.9987 356.309 26.468C356.309 23.348 357.002 20.5747 358.389 18.148C359.81 15.6867 361.752 13.7453 364.213 12.324C366.709 10.9027 369.569 10.192 372.793 10.192C375.532 10.192 377.889 10.712 379.865 11.752C381.841 12.7573 383.366 14.1787 384.441 16.016C385.55 17.8186 386.105 19.9853 386.105 22.516C386.105 23.244 386.053 23.972 385.949 24.7C385.88 25.428 385.776 26.1213 385.637 26.78H362.497L363.329 22.048H381.841L378.513 23.504C378.79 21.944 378.704 20.644 378.253 19.604C377.802 18.5293 377.074 17.7146 376.069 17.16C375.064 16.5706 373.85 16.276 372.429 16.276C370.661 16.276 369.153 16.7093 367.905 17.576C366.692 18.408 365.773 19.5693 365.149 21.06C364.525 22.5507 364.213 24.232 364.213 26.104C364.213 28.2533 364.802 29.8653 365.981 30.94C367.194 31.98 369.014 32.5 371.441 32.5C372.862 32.5 374.232 32.2747 375.549 31.824C376.866 31.3733 377.993 30.732 378.929 29.9L382.309 35.256C380.68 36.5387 378.842 37.492 376.797 38.116C374.786 38.7053 372.724 39 370.609 39ZM386.829 38.584L392.393 10.608H400.089L398.477 18.564L397.749 16.276C398.997 14.0227 400.627 12.4453 402.637 11.544C404.648 10.6427 407.057 10.192 409.865 10.192L408.409 17.68C408.063 17.6453 407.733 17.628 407.421 17.628C407.144 17.5933 406.849 17.576 406.537 17.576C404.145 17.576 402.187 18.1653 400.661 19.344C399.171 20.5227 398.165 22.4293 397.645 25.064L394.941 38.584H386.829ZM417.856 39C415.394 39 413.072 38.7227 410.888 38.168C408.738 37.6133 407.074 36.92 405.896 36.088L409.016 30.212C410.229 31.0093 411.702 31.6507 413.436 32.136C415.204 32.6213 416.972 32.864 418.74 32.864C420.646 32.864 422.033 32.6213 422.9 32.136C423.766 31.6507 424.2 30.992 424.2 30.16C424.2 29.5013 423.836 29.016 423.108 28.704C422.38 28.3573 421.461 28.08 420.352 27.872C419.242 27.664 418.046 27.4213 416.764 27.144C415.516 26.8667 414.32 26.4853 413.176 26C412.066 25.48 411.148 24.752 410.42 23.816C409.726 22.8453 409.38 21.58 409.38 20.02C409.38 17.9053 409.969 16.12 411.148 14.664C412.361 13.208 414.025 12.0986 416.14 11.336C418.289 10.5733 420.716 10.192 423.42 10.192C425.361 10.192 427.25 10.4 429.088 10.816C430.925 11.232 432.485 11.804 433.768 12.532L430.856 18.46C429.538 17.628 428.152 17.0733 426.696 16.796C425.274 16.484 423.905 16.328 422.588 16.328C420.681 16.328 419.294 16.6053 418.428 17.16C417.596 17.68 417.18 18.3213 417.18 19.084C417.18 19.7427 417.526 20.2627 418.22 20.644C418.948 20.9907 419.866 21.2853 420.976 21.528C422.085 21.736 423.281 21.9786 424.564 22.256C425.846 22.4987 427.042 22.88 428.152 23.4C429.261 23.8853 430.162 24.596 430.856 25.532C431.584 26.4333 431.948 27.664 431.948 29.224C431.948 31.3387 431.324 33.1413 430.076 34.632C428.862 36.088 427.198 37.18 425.084 37.908C422.969 38.636 420.56 39 417.856 39Z" fill="white"/>
</svg>
