<svg width="784" height="279" viewBox="0 0 784 279" fill="none" xmlns="http://www.w3.org/2000/svg">
<path d="M783.464 169.943C783.464 230.165 608.08 278.986 391.732 278.986C175.384 278.986 0 230.165 0 169.943V109.455H783.464V169.943Z" fill="url(#paint0_linear_32_18286)"/>
<path d="M391.732 2.46875C499.748 2.46878 597.448 14.6589 668.066 34.3164C703.393 44.15 731.802 55.8145 751.322 68.6611C770.942 81.5732 780.995 95.2707 780.995 109.043C780.995 122.815 770.942 136.513 751.322 149.425C731.802 162.271 703.393 173.936 668.066 183.77C597.448 203.427 499.748 215.617 391.732 215.617C283.717 215.617 186.016 203.427 115.397 183.77C80.071 173.936 51.6618 162.271 32.1416 149.425C12.522 136.513 2.46875 122.815 2.46875 109.043C2.46879 95.2707 12.522 81.5732 32.1416 68.6611C51.6618 55.8145 80.0709 44.15 115.397 34.3164C186.016 14.6589 283.717 2.46875 391.732 2.46875Z" fill="url(#paint1_linear_32_18286)" stroke="white" stroke-width="4.9378"/>
<defs>
<linearGradient id="paint0_linear_32_18286" x1="0" y1="194.22" x2="783.464" y2="194.22" gradientUnits="userSpaceOnUse">
<stop stop-color="#E4F1F7"/>
<stop offset="1" stop-color="#BAD7E8"/>
</linearGradient>
<linearGradient id="paint1_linear_32_18286" x1="308.201" y1="-58.8421" x2="363.751" y2="218.086" gradientUnits="userSpaceOnUse">
<stop stop-color="#C2DCEA"/>
<stop offset="1" stop-color="white"/>
</linearGradient>
</defs>
</svg>
