<svg width="150" height="150" viewBox="0 0 150 150" fill="none" xmlns="http://www.w3.org/2000/svg">
<path d="M75.0325 150C46.7633 150 22.1348 134.328 9.38481 111.187C-18.7439 60.1639 20.0543 -1.77576 76.6913 0.038959C112.72 0.770475 143.154 27.3442 148.96 62.682C156.579 108.289 121.365 150 75.0325 150Z" fill="url(#paint0_radial_21603_104065)"/>
<g opacity="0.75">
<path d="M104.843 86.7715C101.667 85.9687 100.791 89.9825 102.587 90.8875C104.383 91.807 108.895 94.551 109.8 92.7119C110.705 90.8875 108.449 87.691 104.843 86.7715Z" fill="#168E19"/>
<path d="M135.239 54.5952C132.422 55.2524 129.052 56.7008 131.935 58.8065C134.831 60.9122 139.36 60.0672 139.781 57.5458C140.189 55.0109 140.61 53.3345 135.239 54.5952Z" fill="#168E19"/>
<path d="M74.8783 125.344C68.5257 121.476 59.2867 120.075 58.4167 124.026C57.5466 127.978 63.6092 134.13 70.97 133.247C78.3446 132.378 79.2147 127.978 74.8783 125.344Z" fill="#168E19"/>
<path d="M97.5 146.898C91.3909 148.68 84.9725 149.752 78.3334 149.999C79.8496 140.538 88.9913 143.522 93.8787 144.826C95.3066 145.218 96.499 145.985 97.5 146.898Z" fill="#168E19"/>
<path d="M34.3499 125.664C37.2419 126.945 39.2649 120.697 35.2474 115.285C31.23 109.873 29.435 103.093 24.52 101.74C19.605 100.387 16.9267 117.991 34.3499 125.664Z" fill="#168E19"/>
<path d="M14.5701 103.432C13.0338 103.719 12.3971 107.028 15.8712 107.472C19.3452 107.93 19.3452 102.544 14.5701 103.432Z" fill="#168E19"/>
<path d="M54.537 85.0315C51.2009 84.7409 47.91 86.3974 48.3779 90.0447C48.8459 93.6919 54.054 90.0447 56.424 90.0447C58.7941 90.0447 59.7451 85.482 54.537 85.0315Z" fill="#168E19"/>
<path d="M84.776 44.3553C82.1384 43.0468 81.722 48.9204 83.9014 49.8218C86.0809 50.7377 92.175 47.9899 84.776 44.3553Z" fill="#168E19"/>
</g>
<path d="M56.2209 72.9093C41.2306 75.5454 39.0228 75.9801 25.3543 87.4217C16.3123 94.9794 6.87648 92.5396 1.53282 90.0157C0.534404 85.1362 0 80.0744 0 74.8864C0 53.6296 8.90144 34.434 23.1887 20.833C26.1277 22.5717 29.1651 24.9273 31.5276 28.0682C38.1369 36.8597 36.815 40.3791 56.2209 50.4887C75.6128 60.5983 71.2113 70.2733 56.2209 72.9093Z" fill="url(#paint1_linear_21603_104065)"/>
<path d="M142.5 43.3077C128.718 40.4067 119.32 56.0804 109.937 54.9397C98.956 53.616 102.037 37.2804 92.8074 20.0576C88.1855 11.4392 87.8634 5.46826 88.6897 1.66602C112.542 6.08789 132.402 21.9165 142.5 43.3077Z" fill="url(#paint2_linear_21603_104065)"/>
<path d="M150 74.6168C150 103.847 133.421 129.177 109.185 141.666C103.654 132.893 112.619 126.38 123.302 119.585C136.545 111.165 124.188 107.619 126.384 93.8867C128.593 80.1548 120.205 79.2647 124.174 67.7508C127.003 59.5286 141.753 67.327 149.958 72.4694C149.986 73.1758 150 73.8963 150 74.6168Z" fill="url(#paint3_linear_21603_104065)"/>
<path d="M79.6605 97.6846C71.6035 100.174 67.2499 90.6254 57.0586 92.8332C46.8672 95.0409 38.4427 113.111 52.182 112.675C65.9212 112.239 69.4691 110.467 79.6605 117.526C89.8518 124.586 101.824 119.734 105.372 108.709C108.906 97.6846 106.687 89.3036 79.6605 97.6846Z" fill="url(#paint4_linear_21603_104065)"/>
<path d="M96.2973 64.9494C91.9548 66.3187 90.8547 68.5296 92.2154 71.2112C93.576 73.8928 99.0186 73.4506 101.74 77.473C104.461 81.4954 111.279 86.4164 113.088 77.473C114.912 68.5296 106.285 61.8113 96.2973 64.9494Z" fill="url(#paint5_linear_21603_104065)"/>
<path opacity="0.5" d="M80.7231 41.6391C79.9387 47.4614 74.5742 41.6391 65.792 39.898C57.0098 38.1569 53.4941 32.9057 57.444 29.4096C61.3939 25.9135 66.6604 23.2948 71.9409 26.3453C77.2074 29.4096 81.5915 35.0926 80.7231 41.6391Z" fill="#168E19"/>
<path d="M72.1604 6.89898C61.0445 6.89898 55.7134 13.1308 45.4907 16.6939C39.394 18.809 34.5733 16.3532 31.6667 14.0251C44.0303 5.19553 59.1588 0 75.5066 0C76.0737 0 76.6267 -1.5595e-05 77.1796 0.0283753C77.9594 3.23655 77.6758 6.89898 72.1604 6.89898Z" fill="url(#paint6_linear_21603_104065)"/>
<path opacity="0.45" d="M146.667 97.9145C140.536 116.989 126.964 132.741 109.376 141.764C105.275 143.862 100.963 145.593 96.4812 146.93C90.6326 148.662 84.488 149.704 78.132 149.943C77.1314 149.985 76.1308 149.999 75.1161 149.999C46.7749 149.999 22.0839 134.317 9.30144 111.161C5.7218 104.685 3.07233 97.6188 1.53618 90.144C0.535575 85.2452 0 80.1634 0 74.955C0 65.8894 1.60663 57.2039 4.55208 49.166C13.0502 74.5186 32.4987 107.233 76.7086 113.301C85.3336 114.483 93.3948 114.638 100.92 113.99C119.382 112.371 134.575 105.924 146.667 97.9145Z" fill="url(#paint7_linear_21603_104065)"/>
<path opacity="0.45" d="M150 74.7165C150 82.7518 148.747 90.4906 146.423 97.7492C140.298 116.884 126.737 132.687 109.162 141.739C105.065 143.843 100.756 145.58 96.2775 146.922C90.4335 148.659 84.2938 149.704 77.9428 149.944C76.943 149.986 75.9432 150 74.9293 150C46.6105 150 21.939 134.268 9.16669 111.038C22.1502 116.39 37.6122 120.048 55.9469 120.768C73.7323 121.474 88.4902 118.72 100.713 113.862C126.99 103.44 141.635 83.2743 149.578 66.667C149.789 68.6017 149.916 70.5788 149.972 72.5558C149.986 73.276 150 73.9963 150 74.7165Z" fill="url(#paint8_linear_21603_104065)"/>
<path d="M148.333 62.4999C148.333 62.4999 137.694 23.5204 88.7718 10.6908C59.4466 2.9931 39.0927 9.93369 27.5 16.72C64.521 -13.5101 121.139 -1.50777 142.137 42.7157C147.016 52.9653 147.983 61.0697 148.333 62.4999Z" fill="url(#paint9_linear_21603_104065)"/>
<defs>
<radialGradient id="paint0_radial_21603_104065" cx="0" cy="0" r="1" gradientUnits="userSpaceOnUse" gradientTransform="translate(78.7528 45.6577) scale(90.9429 91.0094)">
<stop stop-color="#C3E533"/>
<stop offset="1" stop-color="#1CC61C"/>
</radialGradient>
<linearGradient id="paint1_linear_21603_104065" x1="25.6994" y1="-40.3543" x2="42.7969" y2="174.643" gradientUnits="userSpaceOnUse">
<stop stop-color="#F2F236"/>
<stop offset="1" stop-color="#F2F236" stop-opacity="0"/>
</linearGradient>
<linearGradient id="paint2_linear_21603_104065" x1="109.745" y1="-46.9867" x2="127.059" y2="168.92" gradientUnits="userSpaceOnUse">
<stop stop-color="#F2F236"/>
<stop offset="1" stop-color="#F2F236" stop-opacity="0"/>
</linearGradient>
<linearGradient id="paint3_linear_21603_104065" x1="116.55" y1="-48.7691" x2="133.89" y2="167.833" gradientUnits="userSpaceOnUse">
<stop stop-color="#F2F236"/>
<stop offset="1" stop-color="#F2F236" stop-opacity="0"/>
</linearGradient>
<linearGradient id="paint4_linear_21603_104065" x1="63.957" y1="-43.652" x2="81.0656" y2="171.974" gradientUnits="userSpaceOnUse">
<stop stop-color="#F2F236"/>
<stop offset="1" stop-color="#F2F236" stop-opacity="0"/>
</linearGradient>
<linearGradient id="paint5_linear_21603_104065" x1="92.8543" y1="-47.2136" x2="110.046" y2="171.529" gradientUnits="userSpaceOnUse">
<stop stop-color="#F2F236"/>
<stop offset="1" stop-color="#F2F236" stop-opacity="0"/>
</linearGradient>
<linearGradient id="paint6_linear_21603_104065" x1="50.514" y1="-42.9644" x2="67.8937" y2="174.687" gradientUnits="userSpaceOnUse">
<stop stop-color="#F2F236"/>
<stop offset="1" stop-color="#F2F236" stop-opacity="0"/>
</linearGradient>
<linearGradient id="paint7_linear_21603_104065" x1="63.6968" y1="172.104" x2="74.9395" y2="69.4788" gradientUnits="userSpaceOnUse">
<stop stop-color="#168E26"/>
<stop offset="1" stop-color="#168E26" stop-opacity="0.3"/>
</linearGradient>
<linearGradient id="paint8_linear_21603_104065" x1="71.0891" y1="167.75" x2="83.7435" y2="60.1589" gradientUnits="userSpaceOnUse">
<stop stop-color="#166F38"/>
<stop offset="1" stop-color="#16653B" stop-opacity="0.3"/>
</linearGradient>
<linearGradient id="paint9_linear_21603_104065" x1="128.87" y1="-41.1738" x2="81.8182" y2="51.586" gradientUnits="userSpaceOnUse">
<stop stop-color="#E2FFB5"/>
<stop offset="1" stop-color="#FFFFB3" stop-opacity="0"/>
</linearGradient>
</defs>
</svg>
