<svg width="71" height="71" viewBox="0 0 71 71" fill="none" xmlns="http://www.w3.org/2000/svg">
<path d="M30.5 2.88675C33.594 1.10042 37.406 1.10042 40.5 2.88675L61.2439 14.8632C64.3379 16.6496 66.2439 19.9508 66.2439 23.5235V47.4765C66.2439 51.0492 64.3379 54.3504 61.2439 56.1368L40.5 68.1132C37.406 69.8996 33.594 69.8996 30.5 68.1132L9.7561 56.1368C6.66209 54.3504 4.7561 51.0492 4.7561 47.4765V23.5235C4.7561 19.9508 6.66209 16.6496 9.7561 14.8632L30.5 2.88675Z" fill="white" fill-opacity="0.37"/>
<path d="M30.6348 3.12012C33.6455 1.38189 37.3545 1.38189 40.3652 3.12012L61.1094 15.0967C64.12 16.8349 65.9746 20.047 65.9746 23.5234V47.4766C65.9746 50.953 64.12 54.1651 61.1094 55.9033L40.3652 67.8799C37.3545 69.6181 33.6455 69.6181 30.6348 67.8799L9.89062 55.9033C6.88002 54.1651 5.02541 50.953 5.02539 47.4766V23.5234C5.02541 20.047 6.88002 16.8349 9.89062 15.0967L30.6348 3.12012Z" stroke="white" stroke-opacity="0.45" stroke-width="0.538331"/>
<path fill-rule="evenodd" clip-rule="evenodd" d="M40.9848 47.2253C38.1263 47.4876 35.7507 44.1459 33.9193 42.4562C32.9929 49.1173 22.9274 48.4941 22.9274 41.7303V29.192C22.9274 28.2058 23.1887 27.1993 23.7124 26.3545C24.6785 24.7238 26.5506 23.6563 28.4431 23.6777H40.9848C47.7494 23.6777 48.3942 33.7404 41.7099 34.6452L44.8909 37.805C48.3739 41.0857 45.7563 47.3655 40.9859 47.2242L40.9848 47.2253ZM39.4554 43.2411C41.4283 45.2733 44.5685 42.1339 42.5357 40.1616L37.0392 34.6666H33.9589V37.7461L38.71 42.4958L39.4554 43.2411ZM26.269 41.711C26.2293 44.5292 30.6784 44.5292 30.6173 41.711V29.1727C30.658 27.7636 29.1682 26.6565 27.8198 27.0794C27.7588 27.0998 27.6988 27.119 27.6591 27.1394C26.813 27.4617 26.2293 28.3065 26.2486 29.2123V41.711H26.269ZM40.9848 31.3463C43.8038 31.3859 43.8038 26.9584 40.9848 26.9991H33.5166C34.0799 28.1865 33.9396 30.0582 33.9589 31.3463H40.9848Z" fill="black"/>
</svg>
