<svg width="97" height="97" viewBox="0 0 97 97" fill="none" xmlns="http://www.w3.org/2000/svg">
<path d="M41.0933 4.27626C45.6766 1.6301 51.3234 1.6301 55.9067 4.27626L83.0955 19.9737C87.6788 22.6199 90.5022 27.5102 90.5022 32.8025V64.1975C90.5022 69.4898 87.6788 74.3801 83.0955 77.0263L55.9067 92.7237C51.3234 95.3699 45.6766 95.3699 41.0933 92.7237L13.9045 77.0263C9.32119 74.3801 6.49777 69.4898 6.49777 64.1975V32.8025C6.49777 27.5102 9.32119 22.6199 13.9045 19.9737L41.0933 4.27626Z" fill="white" fill-opacity="0.37"/>
<path d="M41.2754 4.59277C45.7457 2.01183 51.2543 2.01183 55.7246 4.59277L82.9131 20.29C87.3833 22.871 90.1367 27.6409 90.1367 32.8027V64.1973C90.1367 69.3591 87.3833 74.129 82.9131 76.71L55.7246 92.4072C51.2543 94.9882 45.7457 94.9882 41.2754 92.4072L14.0869 76.71C9.61666 74.129 6.86328 69.3591 6.86328 64.1973V32.8027C6.86328 27.6409 9.61666 22.871 14.0869 20.29L41.2754 4.59277Z" stroke="white" stroke-opacity="0.45" stroke-width="0.730151"/>
<g clip-path="url(#clip0_32_18456)">
<path fill-rule="evenodd" clip-rule="evenodd" d="M74.0003 40.2004C74.0003 43.0712 71.6126 45.4004 68.666 45.4004C66.183 45.4004 64.0943 43.7429 63.5006 41.5004H56.056C54.7516 41.5004 53.6401 42.419 53.4256 43.6735L53.2068 44.9562C53.0019 46.1421 52.3888 47.219 51.4735 48.0004C52.3661 48.7674 52.9988 49.829 53.2068 51.0445L53.4235 52.3272C53.5354 52.9421 53.8614 53.4976 54.3436 53.8954C54.8258 54.2931 55.4331 54.5074 56.0581 54.5004H58.1706C58.7621 52.2579 60.8508 50.6004 63.336 50.6004C66.2826 50.6004 68.6681 52.9295 68.6681 55.8004C68.6681 58.6712 66.2783 61.0004 63.336 61.0004C60.8508 61.0004 58.7643 59.3429 58.1706 57.1004H56.0581C53.4495 57.1004 51.2265 55.263 50.7975 52.7562L50.5786 51.4735C50.4668 50.8593 50.1415 50.3044 49.6602 49.9068C49.1789 49.5091 48.5726 49.2944 47.9483 49.3004H45.7686C45.1013 51.4324 43.069 52.9837 40.664 52.9837C38.259 52.9837 36.2266 51.4324 35.5615 49.3004H32.4371C31.7698 51.4324 29.7375 52.9837 27.3346 52.9837C24.388 52.9837 22.0003 50.6545 22.0003 47.7837C22.0003 44.9129 24.388 42.5837 27.3346 42.5837C29.8978 42.5837 32.0406 44.3495 32.552 46.7004H35.4488C35.9601 44.3495 38.103 42.5837 40.6661 42.5837C43.2315 42.5837 45.3721 44.3495 45.8835 46.7004H47.9461C49.2483 46.7004 50.362 45.7817 50.5743 44.5272L50.7953 43.2445C51.2243 40.7377 53.4495 38.9004 56.056 38.9004H63.5006C64.0943 36.6579 66.183 35.0004 68.666 35.0004C71.6126 35.0004 74.0003 37.3295 74.0003 40.2004ZM71.3353 40.2004C71.3353 41.6369 70.1393 42.8004 68.666 42.8004C67.1926 42.8004 66.001 41.6369 66.001 40.2004C66.001 38.7639 67.1926 37.6004 68.666 37.6004C70.1393 37.6004 71.3331 38.7639 71.3331 40.2004H71.3353ZM27.3325 50.3837C28.8058 50.3837 29.9975 49.2202 29.9975 47.7837C29.9975 46.3472 28.8058 45.1837 27.3325 45.1837C25.8591 45.1837 24.6653 46.3472 24.6653 47.7837C24.6653 49.2202 25.8591 50.3837 27.3325 50.3837ZM40.664 50.3837C42.1373 50.3837 43.3311 49.2202 43.3311 47.7837C43.3311 46.3472 42.1395 45.1837 40.6661 45.1837C39.1928 45.1837 37.999 46.3472 37.999 47.7837C37.999 49.2202 39.1906 50.3837 40.664 50.3837ZM63.3316 58.4004C64.805 58.4004 65.9966 57.2369 65.9966 55.8004C65.9966 54.3639 64.805 53.2004 63.3316 53.2004C61.8583 53.2004 60.6666 54.3639 60.6666 55.8004C60.6666 57.2369 61.8583 58.4004 63.3316 58.4004Z" fill="#EA4B71"/>
</g>
<defs>
<clipPath id="clip0_32_18456">
<rect width="52" height="52" fill="white" transform="translate(22 22)"/>
</clipPath>
</defs>
</svg>
