<svg width="49" height="50" viewBox="0 0 49 50" fill="none" xmlns="http://www.w3.org/2000/svg">
<path d="M20.9468 2.09328C23.1395 0.801513 25.8605 0.801515 28.0532 2.09329L42.2708 10.4694C44.4066 11.7276 45.7176 14.0216 45.7176 16.5005V33.4995C45.7176 35.9784 44.4066 38.2724 42.2708 39.5306L28.0532 47.9067C25.8605 49.1985 23.1395 49.1985 20.9468 47.9067L6.72921 39.5306C4.59341 38.2724 3.28238 35.9784 3.28238 33.4995V16.5005C3.28238 14.0216 4.59342 11.7276 6.72922 10.4694L20.9468 2.09328Z" fill="white" fill-opacity="0.37"/>
<path d="M21.041 2.25293C23.1755 0.995487 25.8245 0.995488 27.959 2.25293L42.1768 10.6289C44.2559 11.8538 45.5322 14.0878 45.5322 16.501V33.499C45.5322 35.9122 44.2559 38.1462 42.1768 39.3711L27.959 47.7471C25.8245 49.0045 23.1755 49.0045 21.041 47.7471L6.82324 39.3711C4.74408 38.1462 3.46777 35.9122 3.46777 33.499V16.501C3.46777 14.0878 4.74408 11.8538 6.82324 10.6289L21.041 2.25293Z" stroke="white" stroke-opacity="0.45" stroke-width="0.371263"/>
<g clip-path="url(#clip0_32_18450)">
<path fill-rule="evenodd" clip-rule="evenodd" d="M20.8839 16.0137C20.8583 15.9103 20.8524 15.8025 20.8664 15.6966C20.8805 15.5907 20.9143 15.4888 20.9658 15.3968C21.0174 15.3048 21.0856 15.2245 21.1667 15.1606C21.2478 15.0967 21.34 15.0504 21.4381 15.0245C21.5362 14.9986 21.6381 14.9935 21.7381 15.0095C21.838 15.0255 21.934 15.0624 22.0204 15.1179C22.1068 15.1734 22.1819 15.2465 22.2415 15.3329C22.301 15.4194 22.3437 15.5174 22.3672 15.6215C22.4186 15.8426 22.475 16.0604 22.5305 16.2781L22.5346 16.2919C22.6637 16.7931 22.7919 17.2942 22.8744 17.8221C22.8908 17.9269 22.8874 18.034 22.8647 18.1375C22.8419 18.2409 22.8 18.3386 22.7416 18.4249C22.6831 18.5112 22.6091 18.5845 22.5238 18.6406C22.4386 18.6967 22.3437 18.7345 22.2447 18.7518C22.1456 18.7691 22.0443 18.7656 21.9465 18.7415C21.8487 18.7173 21.7564 18.6731 21.6748 18.6112C21.51 18.4863 21.3988 18.2972 21.3658 18.0856C21.2964 17.6389 21.2 17.2657 21.0832 16.8129V16.8112C21.0219 16.5745 20.9549 16.3161 20.8839 16.0137ZM17.3087 17.3875C17.2196 17.58 17.2063 17.8021 17.2719 18.0049C17.3374 18.2078 17.4764 18.3748 17.6583 18.4692C18.2031 18.7518 18.6752 19.0309 19.1433 19.5881C19.2792 19.743 19.467 19.8354 19.6665 19.8456C19.866 19.8558 20.0614 19.783 20.2108 19.6428C20.3603 19.5025 20.4519 19.306 20.4661 19.0953C20.4803 18.8845 20.4159 18.6763 20.2868 18.515C19.6203 17.7201 18.9342 17.3305 18.3314 17.0177C18.1494 16.9234 17.9395 16.9094 17.7477 16.9787C17.5559 17.048 17.3981 17.1951 17.3087 17.3875Z" fill="black"/>
<path fill-rule="evenodd" clip-rule="evenodd" d="M27.3814 33.6299C27.2344 33.5985 27.0735 33.5644 26.9092 33.5278C26.3038 33.3951 25.4823 33.2092 25.0957 33.08L25.0672 33.0704L25.0395 33.06C24.8683 32.9954 24.5777 32.9238 24.0969 32.813L24.0078 32.7929C23.5927 32.6969 23.0825 32.5799 22.5982 32.4324C22.0983 32.2788 21.4791 32.0511 20.9524 31.6801C20.4007 31.2909 19.7729 30.6049 19.7383 29.575C19.7334 29.4266 19.736 29.2781 19.7461 29.1299C19.4682 28.825 19.2744 28.4518 19.1839 28.0477C19.1021 27.6802 19.111 27.2981 19.2099 26.9349C19.2817 26.6583 19.3915 26.4165 19.4832 26.2367C19.5143 26.1756 19.5463 26.1145 19.5783 26.0569C19.2756 25.9601 18.9323 25.8405 18.5985 25.6974C18.1635 25.5097 17.5451 25.1999 17.0833 24.7015C16.7777 24.3793 16.5653 23.9788 16.4693 23.5434C16.3669 23.0465 16.4358 22.5291 16.6648 22.0772C17.1871 21.0229 18.1842 20.6502 19.0706 20.6179C19.8714 20.5891 20.7241 20.8151 21.4878 21.0857C22.1831 21.3318 23.1784 21.79 24.0242 22.1889C24.3027 21.7272 24.6702 21.2061 25.0179 20.7855L25.0871 20.7026L25.1666 20.6292C25.6577 20.177 26.2851 19.9044 26.9481 19.8551C27.2551 19.832 27.5638 19.8556 27.8639 19.9249L27.8951 19.9319L27.915 19.938H27.9176L27.9193 19.9389C27.9193 19.9389 27.921 19.9389 27.5068 21.4976L27.921 19.9389L28.1009 19.9895L28.2652 20.0785C29.0989 20.5289 29.3358 21.3056 29.3981 21.7158C29.4366 21.9773 29.4342 22.2432 29.3912 22.5039L29.3886 22.5196V22.524L27.7818 22.2011L29.3877 22.5249L29.3791 22.572L29.1196 23.6106C29.0695 23.8654 29.0634 24.0112 29.066 24.088C29.0647 24.1197 29.0694 24.1514 29.0799 24.1814C29.0911 24.2076 29.117 24.2652 29.213 24.4118C29.2502 24.4694 29.2891 24.5261 29.3376 24.5986L29.3877 24.6719C29.4569 24.7749 29.5382 24.8962 29.6247 25.0314C30.1634 25.878 30.2162 26.6914 30.2127 27.2125V27.2352L30.4186 27.3032L30.5076 27.3312L30.64 27.3739C30.7057 27.3949 30.7896 27.4228 30.8709 27.4525C30.966 27.2762 31.2228 26.8974 31.6881 26.8974C32.2952 26.8974 32.5442 27.7588 32.5442 27.7588C32.7821 29.363 31.6967 34.7522 30.128 35.7568C28.9294 36.5248 28.0412 35.3841 27.3814 33.6299ZM21.3693 26.2847C21.4713 26.1809 21.7757 25.9618 22.3517 25.8964C23.0106 25.829 23.6753 25.9389 24.2785 26.2149C24.8172 26.4558 25.1891 27.0074 25.3448 27.6698C25.4209 27.9936 25.4347 28.3078 25.4019 28.5644C25.3673 28.8349 25.2912 28.9702 25.2557 29.0104C25.2125 29.061 25.0585 29.1474 24.6322 29.0566C24.4036 29.0059 24.1818 28.928 23.9715 28.8245L23.9663 28.8218C23.7761 28.7261 23.5562 28.7097 23.3541 28.7762C23.1521 28.8426 22.984 28.9866 22.8862 29.1771C22.7885 29.3675 22.7689 29.5892 22.8316 29.7941C22.8944 29.999 23.0345 30.1708 23.2217 30.2724L23.2251 30.2741L23.2321 30.2776L23.2528 30.2881C23.3491 30.3361 23.4472 30.3803 23.5469 30.4207C23.7328 30.4958 23.9965 30.5901 24.2958 30.6538C24.8276 30.7672 25.8092 30.8545 26.4751 30.0847C26.795 29.7147 26.949 29.2294 27.0069 28.7747C27.0658 28.2798 27.0366 27.7782 26.9204 27.2936C26.6887 26.3092 26.0764 25.2322 24.934 24.7207C24.0684 24.3276 23.115 24.1731 22.171 24.273C21.6356 24.3341 21.1237 24.4842 20.7094 24.7129L20.6921 24.7077H20.6887C19.6656 24.4127 17.6307 23.8262 18.1323 22.8138C18.5128 22.0457 19.5532 22.1094 20.9646 22.6095C21.5379 22.812 22.3344 23.1742 23.0859 23.5268C23.3194 23.6359 23.5477 23.745 23.7639 23.8471L24.6062 24.2433C25.2055 23.5172 25.4382 23.1175 25.644 22.764C25.785 22.5214 25.9138 22.3015 26.1395 22.0117L26.1611 21.9838C26.2026 21.9309 26.2447 21.8785 26.2874 21.8267C26.2931 21.8216 26.2989 21.8167 26.3047 21.8118C26.8599 21.317 27.5059 21.4976 27.5059 21.4976C27.8752 21.6966 27.7818 22.2011 27.7818 22.2011L27.5249 23.2292C27.2793 24.4388 27.5509 24.8394 27.998 25.4984C28.0758 25.6145 28.1606 25.7384 28.2488 25.8763C28.6051 26.4375 28.5878 26.976 28.5748 27.4167C28.5662 27.6995 28.5584 27.9421 28.6526 28.1228C28.8464 28.4937 29.5693 28.725 30.045 28.8751C30.1591 28.9117 30.2586 28.9432 30.3329 28.9711L30.384 28.9912C30.3165 29.2006 30.256 29.4179 30.1954 29.6344C29.9248 30.597 29.6567 31.5562 28.855 31.8425C28.3084 32.0388 27.7628 32.0292 27.3762 31.9786C26.6965 31.8302 25.8922 31.6478 25.5895 31.5466C25.2756 31.4288 24.8363 31.3284 24.358 31.2176C23.22 30.9557 21.8648 30.645 21.4774 29.9416C21.4108 29.8222 21.3737 29.6884 21.3693 29.5515C21.3468 28.9056 21.5716 28.3261 21.5716 28.3261C21.5716 28.3261 21.2231 28.3279 20.9793 28.0905C20.8755 27.9882 20.8039 27.8574 20.7734 27.7143C20.7475 27.6009 20.7371 27.4699 20.7518 27.3303C20.7587 27.3303 20.7622 27.3233 20.7622 27.3059C20.7622 27.1016 20.9646 26.6932 21.3693 26.2847Z" fill="black"/>
<path fill-rule="evenodd" clip-rule="evenodd" d="M26.5288 15.9379C26.7145 16.061 26.8478 16.2597 26.8995 16.4903C26.9512 16.7208 26.9171 16.9644 26.8046 17.1674C26.4938 17.7263 26.3134 18.2975 26.1165 19.1587C26.0913 19.2739 26.0455 19.3825 25.9817 19.4782C25.9179 19.574 25.8374 19.6549 25.7448 19.7164C25.6522 19.7779 25.5493 19.8187 25.4422 19.8364C25.3351 19.8542 25.2258 19.8485 25.1207 19.8198C25.0156 19.7911 24.9167 19.7398 24.8298 19.6691C24.7429 19.5983 24.6697 19.5094 24.6145 19.4075C24.5593 19.3056 24.523 19.1928 24.508 19.0755C24.4929 18.9582 24.4992 18.8389 24.5267 18.7243C24.7394 17.7951 24.9679 17.023 25.4039 16.2383C25.5167 16.0355 25.6985 15.89 25.9095 15.8337C26.1204 15.7773 26.3431 15.8148 26.5288 15.9379Z" fill="black"/>
</g>
<defs>
<clipPath id="clip0_32_18450">
<rect width="21" height="21" fill="white" transform="translate(14 15)"/>
</clipPath>
</defs>
</svg>
