<svg width="157" height="168" viewBox="0 0 157 168" fill="none" xmlns="http://www.w3.org/2000/svg">
<path d="M79.341 13.3452C86.8477 10.003 95.5672 10.9195 102.215 15.7494L142.214 44.8106C148.862 49.6405 152.428 57.6501 151.569 65.8222L146.401 114.993C145.542 123.165 140.389 130.258 132.882 133.601L87.7147 153.71C80.208 157.053 71.4885 156.136 64.8407 151.306L24.8414 122.245C18.1936 117.415 14.6275 109.406 15.4864 101.234L20.6545 52.0625C21.5134 43.8904 26.6669 36.7973 34.1736 33.4551L79.341 13.3452Z" fill="white" fill-opacity="0.37"/>
<path d="M79.5737 13.8686C86.8935 10.6097 95.3963 11.5033 101.879 16.213L141.877 45.2739C148.36 49.9836 151.837 57.7939 151 65.7625L145.832 114.933C144.994 122.902 139.969 129.818 132.649 133.077L87.482 153.187C80.1622 156.446 71.6594 155.552 65.1771 150.843L25.1783 121.782C18.696 117.072 15.2186 109.262 16.0561 101.293L21.2241 52.1226C22.0617 44.1539 27.087 37.2373 34.4068 33.9783L79.5737 13.8686Z" stroke="white" stroke-opacity="0.45" stroke-width="1.14517"/>
<g clip-path="url(#clip0_32_18488)">
<path fill-rule="evenodd" clip-rule="evenodd" d="M105.579 98.5319C102.244 100.968 98.0712 103.007 93.0851 104.783C93.1748 104.859 93.2608 104.928 93.3515 104.995L93.3887 105.021L93.4276 105.052C93.8736 105.371 94.3075 105.551 94.7927 105.602C95.2801 105.654 95.7421 105.567 96.2446 105.348L96.2867 105.328L96.3309 105.308C96.6577 105.156 96.9559 104.98 97.4954 104.62L97.9203 104.337C98.5863 103.894 98.9344 103.687 99.3975 103.483C100.105 103.172 100.802 103.042 101.542 103.12C102.282 103.197 102.937 103.47 103.565 103.921L103.612 103.957C104 104.239 104.295 104.514 104.832 105.064L105.189 105.429C105.632 105.883 105.885 106.117 106.167 106.329L106.224 106.372L106.261 106.398C106.695 106.709 107.113 106.888 107.58 106.946L107.628 106.951C107.723 106.954 107.816 106.976 107.901 107.016C107.987 107.055 108.064 107.113 108.126 107.183C108.188 107.254 108.235 107.337 108.264 107.427C108.293 107.517 108.302 107.612 108.293 107.705C108.283 107.799 108.254 107.89 108.207 107.972C108.16 108.053 108.097 108.125 108.021 108.181C107.945 108.237 107.859 108.277 107.767 108.299C107.675 108.32 107.579 108.322 107.486 108.305C106.746 108.227 106.091 107.954 105.462 107.503C105.399 107.458 105.337 107.411 105.276 107.364L105.231 107.328L105.186 107.295L105.145 107.259C104.798 106.966 104.467 106.652 104.156 106.321L103.837 105.995C103.536 105.67 103.209 105.369 102.86 105.095L102.804 105.052L102.765 105.026C102.368 104.722 101.897 104.531 101.4 104.473C100.913 104.421 100.451 104.508 99.9504 104.728L99.904 104.747L99.8619 104.767C99.5352 104.919 99.2369 105.095 98.6974 105.455L98.3202 105.707C97.9328 105.978 97.5289 106.224 97.1106 106.444L97.0591 106.469L97.0076 106.495L96.7975 106.592C96.1275 106.903 95.386 107.029 94.6505 106.956C93.9105 106.878 93.2577 106.605 92.628 106.154C92.5655 106.109 92.5038 106.062 92.4428 106.015L92.3978 105.979L92.3524 105.946L92.2993 105.903C91.9985 105.649 91.712 105.378 91.4409 105.093C91.3409 105.033 91.258 104.948 91.2005 104.846L91.0039 104.646C90.7022 104.321 90.3753 104.02 90.0263 103.747L89.9709 103.703L89.9315 103.677C89.5348 103.373 89.0632 103.182 88.5667 103.124C88.0792 103.073 87.6173 103.159 87.1147 103.379L87.0727 103.399L87.0284 103.418C86.7017 103.57 86.4034 103.747 85.8639 104.106L85.4866 104.359C85.0993 104.629 84.6953 104.875 84.2771 105.095L84.2234 105.12L84.1719 105.146L83.9618 105.243C83.2925 105.554 82.5518 105.679 81.817 105.607C81.077 105.529 80.4219 105.256 79.7945 104.805C79.732 104.76 79.6703 104.714 79.6093 104.666L79.5642 104.631L79.5189 104.597L79.476 104.561C79.1285 104.268 78.7983 103.954 78.4869 103.623L78.1704 103.297C77.8687 102.972 77.5418 102.672 77.1928 102.398L77.1352 102.354L77.098 102.328C76.7007 102.024 76.2283 101.833 75.7309 101.775C75.2457 101.724 74.7838 101.81 74.2812 102.03L74.2369 102.049L74.1949 102.069C73.866 102.221 73.5699 102.398 73.0304 102.757L72.6531 103.01C72.2651 103.28 71.8604 103.526 71.4414 103.746L71.3899 103.771L71.3383 103.797L71.1283 103.894C70.4336 104.215 69.6629 104.336 68.9027 104.245C67.2854 103.876 66.0941 103.108 64.9522 101.913L64.8822 101.839C64.7885 101.738 64.6476 101.579 64.5007 101.414L64.112 100.972L63.9001 100.728L63.8783 100.704C63.682 100.463 63.4533 100.251 63.1988 100.072C63.1366 100.033 63.0686 100.003 62.9971 99.9848L62.9861 99.9836C62.7197 100.004 62.45 100.058 62.1682 100.141C62.1137 100.189 62.0519 100.228 61.985 100.257L61.9663 100.266C61.8758 100.301 61.7789 100.317 61.6819 100.311C61.0503 100.58 60.4421 100.899 59.8632 101.267L58.8753 101.88L58.7446 101.962C58.494 102.117 58.2386 102.264 57.9789 102.404C57.2616 102.787 56.6944 102.966 56.1499 102.909C55.9801 102.88 55.8273 102.789 55.7221 102.653C55.6168 102.517 55.5668 102.346 55.5819 102.175C55.5971 102.004 55.6764 101.845 55.804 101.73C55.9315 101.615 56.098 101.552 56.2702 101.553L56.2921 101.556C56.4897 101.577 56.8224 101.474 57.2994 101.223L57.3934 101.173C57.5749 101.073 57.7782 100.955 58.0321 100.8L58.9466 100.23L59.0892 100.141C59.725 99.7516 60.286 99.4408 60.8082 99.2035L59.6969 96.4081C59.6552 96.3028 59.6406 96.1888 59.6543 96.0765C59.668 95.9642 59.7096 95.8571 59.7753 95.7648C59.8409 95.6726 59.9286 95.5982 60.0305 95.5483C60.1323 95.4984 60.245 95.4747 60.3583 95.4792L105.202 97.3035C105.343 97.3091 105.479 97.3584 105.591 97.4446C105.703 97.5307 105.786 97.6495 105.827 97.7845C105.869 97.9194 105.867 98.0639 105.822 98.1978C105.778 98.3317 105.693 98.4484 105.579 98.5319ZM103.092 98.5804L61.3542 96.8811L62.0968 98.7501C62.3882 98.6811 62.6768 98.6384 62.9717 98.6207C63.0101 98.6178 63.0487 98.6181 63.0871 98.6217C63.3769 98.6522 63.6506 98.7518 63.9132 98.9144C64.2323 99.1096 64.5175 99.3742 64.8931 99.7922L64.9248 99.8288L65.107 100.038L65.3923 100.365L65.5848 100.582C65.7137 100.729 65.8331 100.861 65.903 100.934C66.8717 101.962 67.833 102.594 69.1456 102.905L69.1698 102.907C69.6351 102.943 70.102 102.861 70.5268 102.669L70.5754 102.65L70.6197 102.63L70.6617 102.61C70.9906 102.459 71.2867 102.282 71.8262 101.922L72.2511 101.639C72.917 101.196 73.2651 100.989 73.7283 100.785C74.438 100.474 75.1332 100.344 75.8754 100.422C76.6131 100.499 77.2682 100.772 77.8956 101.223L77.9429 101.259C78.3306 101.541 78.628 101.816 79.1651 102.366L79.5197 102.731C79.9648 103.185 80.2154 103.419 80.4996 103.631L80.5549 103.674L80.5943 103.701C81.0379 104.022 81.4739 104.203 81.9592 104.254C82.4466 104.305 82.9086 104.218 83.4089 103.999L83.4532 103.979L83.4952 103.959C83.8241 103.808 84.1224 103.631 84.6619 103.271L85.0846 102.988C85.7528 102.545 86.1008 102.338 86.564 102.134C87.2715 101.823 87.969 101.693 88.7089 101.771C89.4488 101.848 90.1017 102.121 90.7313 102.572L90.7828 102.611C91.1683 102.893 91.4655 103.17 92.0048 103.72C96.3061 102.228 99.9921 100.55 103.042 98.6106L103.092 98.5804ZM68.0866 59.9462C73.1621 62.7687 78.4752 67.4912 82.5748 73.0513C87.3547 79.5308 90.2555 86.7603 90.6505 94.1536C90.6562 94.2737 90.6301 94.3932 90.5746 94.4999C90.5192 94.6066 90.4365 94.6968 90.3349 94.7614C90.2332 94.826 90.1163 94.8626 89.9959 94.8677C89.8754 94.8727 89.7558 94.8459 89.649 94.79C84.7111 92.179 79.9703 90.9878 75.4145 91.0359C71.5503 91.0725 67.9054 91.9999 64.4484 93.6533C63.761 93.9839 63.129 93.1117 63.6636 92.5658C68.2807 87.8377 70.4789 82.2355 70.6017 76.041C70.701 70.9776 69.3989 65.7093 67.1308 60.8242C67.0717 60.6937 67.0553 60.5479 67.0839 60.4075C67.1125 60.2672 67.1846 60.1394 67.2901 60.0423C67.3956 59.9451 67.529 59.8836 67.6716 59.8663C67.8141 59.849 67.9586 59.8769 68.0844 59.946L68.0866 59.9462ZM81.5523 66.7276C85.3312 68.3269 89.614 72.2282 93.2711 77.3522C97.1099 82.7322 99.9345 88.9752 101.071 94.9566C101.094 95.0804 101.082 95.2081 101.037 95.3256C100.991 95.4431 100.914 95.5458 100.814 95.6223C100.714 95.6988 100.594 95.7462 100.469 95.7593C100.343 95.7723 100.217 95.7504 100.103 95.6961L100.057 95.6691L99.2447 95.2429C99.0418 95.1358 98.8374 95.0316 98.6315 94.9305L98.5978 94.9137C97.1616 94.2159 96.0322 93.9998 94.3527 94.2439C94.1755 94.2694 93.9953 94.2246 93.8508 94.1192C93.7063 94.0138 93.6089 93.8562 93.5795 93.68C91.737 82.5704 87.5613 73.6153 80.8439 67.8707C80.2512 67.3635 80.8361 66.4243 81.5545 66.7279L81.5523 66.7276ZM69.2247 62.2132L69.2388 62.2479C71.0494 66.7328 72.0613 71.4681 71.9708 76.0676C71.8601 81.6191 70.1611 86.738 66.6654 91.2099L66.6143 91.2731L66.6211 91.2716C69.3852 90.276 72.2674 89.72 75.28 89.6758L75.4021 89.6753C79.8046 89.6289 84.3602 90.681 89.0618 92.9639L89.2009 93.0339L89.1945 92.9469C88.5714 86.3508 85.8864 79.8989 81.6136 74.0439L81.4778 73.8569C78.0097 69.1535 73.6467 65.0644 69.3434 62.2876L69.2247 62.2132ZM85.869 71.1307L85.9633 71.2468C90.3468 76.7881 93.2435 84.0349 94.7693 92.5189L94.8223 92.8167L94.8716 92.813C96.4611 92.6856 97.7053 92.9714 99.1402 93.6601L99.1972 93.6883L99.3366 93.756L99.4334 93.8061L99.3953 93.6405C98.1456 88.402 95.6106 83.0152 92.2708 78.2942L92.1584 78.1385C90.1846 75.3742 88.0316 72.9851 85.8994 71.1582L85.869 71.1307Z" fill="black"/>
</g>
<defs>
<clipPath id="clip0_32_18488">
<rect width="53" height="53" fill="white" transform="translate(60.5401 55) rotate(6)"/>
</clipPath>
</defs>
</svg>
