<svg xmlns="http://www.w3.org/2000/svg" width="209" height="231" viewBox="0 0 209 231" fill="none">
  <g data-figma-bg-blur-radius="23.0431">
    <path d="M86.3547 4.88095C97.5831 -1.62698 111.417 -1.62698 122.645 4.88095L190.855 44.415C202.083 50.9229 209 62.9501 209 75.9659V155.034C209 168.05 202.083 180.077 190.855 186.585L122.645 226.119C111.417 232.627 97.5831 232.627 86.3547 226.119L18.1453 186.585C6.91695 180.077 0 168.05 0 155.034V75.9659C0 62.9501 6.91695 50.9229 18.1453 44.415L86.3547 4.88095Z" fill="white" fill-opacity="0.3"/>
    <path d="M86.6416 5.37695C97.6922 -1.02797 111.308 -1.02797 122.358 5.37695L190.567 44.9111C201.618 51.3162 208.427 63.1537 208.427 75.9658V155.034C208.427 167.846 201.618 179.684 190.567 186.089L122.358 225.623C111.308 232.028 97.6922 232.028 86.6416 225.623L18.4326 186.089C7.38187 179.684 0.573285 167.846 0.573242 155.034V75.9658C0.573285 63.1537 7.38187 51.3162 18.4326 44.9111L86.6416 5.37695Z" stroke="white" stroke-opacity="0.4" stroke-width="1.14606"/>
  </g>
  <path d="M135.718 122.549V169L101.191 136.346V88.8737L135.718 122.549ZM108.644 132.719L128.264 151.273V126.098L108.644 106.963V132.719Z" fill="#779AED"/>
  <path d="M147 93.9113V140.216H128.264V126.098L95.2599 93.9113H147ZM135.718 122.549V132.199H139.546V101.927H114.575L135.718 122.549Z" fill="#779AED"/>
  <path d="M108.642 136.346L74.1152 169V122.549L108.642 88.8737V136.346ZM81.5675 126.1V151.275L101.19 132.719V106.963L81.5675 126.1Z" fill="#779AED"/>
  <path d="M114.576 93.9113L81.5629 126.1V140.216H63V93.9113H114.576ZM70.4523 132.199H74.109V122.547L95.2569 101.927H70.4523V132.199Z" fill="#779AED"/>
  <path d="M135.718 101.927H95.3603L135.718 62V101.927ZM114.474 93.9097H128.264V80.2668L114.474 93.9097Z" fill="#779AED"/>
  <path d="M114.473 101.927H74.1152V62L114.473 101.927ZM81.5675 93.9097H95.3588L81.5675 80.2652V93.9097Z" fill="#779AED"/>
  <path d="M108.644 66.7901V164.904H101.191V66.7901H108.644Z" fill="#779AED"/>
  <defs>
    <clipPath id="bgblur_0_21603_102291_clip_path" transform="translate(23.0431 23.0431)"><path d="M86.3547 4.88095C97.5831 -1.62698 111.417 -1.62698 122.645 4.88095L190.855 44.415C202.083 50.9229 209 62.9501 209 75.9659V155.034C209 168.05 202.083 180.077 190.855 186.585L122.645 226.119C111.417 232.627 97.5831 232.627 86.3547 226.119L18.1453 186.585C6.91695 180.077 0 168.05 0 155.034V75.9659C0 62.9501 6.91695 50.9229 18.1453 44.415L86.3547 4.88095Z"/>
  </clipPath></defs>
</svg>