<svg width="122" height="122" viewBox="0 0 122 122" fill="none" xmlns="http://www.w3.org/2000/svg">
<path d="M60.5015 11.5262C65.7168 9.52429 71.6039 10.4567 75.9453 13.9723L103.102 35.9637C107.444 39.4793 109.58 45.044 108.706 50.5615L103.239 85.076C102.366 90.5935 98.6145 95.2258 93.3992 97.2277L60.7755 109.751C55.5602 111.753 49.6731 110.82 45.3317 107.305L18.1746 85.3133C13.8332 81.7977 11.6971 76.2331 12.571 70.7155L18.0375 36.201C18.9114 30.6835 22.6625 26.0513 27.8778 24.0493L60.5015 11.5262Z" fill="white" fill-opacity="0.37"/>
<path d="M60.645 11.8988C65.7269 9.94823 71.4633 10.8568 75.6937 14.2823L102.851 36.2741C107.082 39.6999 109.163 45.1222 108.312 50.4987L102.845 85.0138C101.993 90.3903 98.3384 94.904 93.2564 96.8549L60.632 109.378C55.5501 111.329 49.8137 110.42 45.5833 106.995L18.4255 85.0029C14.1952 81.5771 12.1139 76.1548 12.9654 70.7783L18.432 36.2632C19.2837 30.8867 22.9387 26.373 28.0206 24.4221L60.645 11.8988Z" stroke="white" stroke-opacity="0.45" stroke-width="0.798216"/>
<g clip-path="url(#clip0_32_18481)">
<path d="M79.1762 50.3703C78.9473 50.0564 78.6578 49.7919 78.3243 49.5925C77.9908 49.3932 77.6207 49.2631 77.2359 49.2102L77.2201 49.2077C74.9619 48.85 73.4419 46.729 73.799 44.4748C73.8643 44.0997 73.8548 43.7155 73.7711 43.3442C73.6874 42.9729 73.5311 42.6218 73.3112 42.311C73.0913 42.0003 72.8122 41.7361 72.4898 41.5337C72.1675 41.3312 71.8083 41.1945 71.4329 41.1313L48.4786 37.4957C48.1024 37.4398 47.7189 37.4588 47.35 37.5515C46.9812 37.6443 46.6344 37.8089 46.3293 38.0361C46.0243 38.2632 45.7671 38.5484 45.5726 38.8752C45.3781 39.202 45.2501 39.564 45.1958 39.9404C44.8381 42.1986 42.7185 43.7351 40.4603 43.3774L40.4597 43.3814C40.0806 43.3137 39.6919 43.3226 39.3163 43.4074C38.9407 43.4923 38.5859 43.6513 38.2727 43.8753C37.9595 44.0992 37.6942 44.3836 37.4925 44.7116C37.2908 45.0396 37.1567 45.4046 37.0981 45.7851L35.9354 53.1262C35.874 53.5064 35.8893 53.8949 35.9803 54.2691C36.0713 54.6432 36.2362 54.9954 36.4653 55.3049C36.6944 55.6144 36.983 55.8749 37.3143 56.0712C37.6456 56.2675 38.0128 56.3955 38.3942 56.4478C39.4751 56.619 40.4439 57.212 41.088 58.0968C41.7321 58.9815 41.9989 60.0856 41.8298 61.1668L40.6489 68.6228C40.4983 69.5736 41.6316 70.1877 42.3432 69.5409L47.3027 65.0226L67.151 68.1663C67.5272 68.2222 67.9107 68.2032 68.2795 68.1105C68.6483 68.0177 68.9952 67.8531 69.3003 67.6259C69.6053 67.3988 69.8624 67.1136 70.057 66.7868C70.2515 66.46 70.3796 66.098 70.4338 65.7216L70.4344 65.7176C70.7921 63.4594 72.9044 61.9178 75.1626 62.2754L75.1665 62.276C75.5455 62.3448 75.9346 62.3369 76.3106 62.2528C76.6865 62.1687 77.0418 62.0102 77.3554 61.7865C77.669 61.5629 77.9346 61.2787 78.1368 60.9507C78.3386 60.6227 78.4728 60.2576 78.5314 59.8769L79.6948 52.5318C79.8109 51.7989 79.6496 51.022 79.1762 50.3703ZM72.7988 59.0461C72.617 60.1193 72.0195 61.0776 71.1358 61.7131C70.2521 62.3486 69.1534 62.61 68.0782 62.4407L45.0802 58.7982C44.0053 58.627 43.0412 58.0388 42.3971 57.1613C41.753 56.2838 41.4808 55.1878 41.6397 54.1109L42.8275 46.6114C43.0092 45.5381 43.6067 44.5798 44.4905 43.9443C45.3742 43.3089 46.4728 43.0474 47.5481 43.2167L47.5494 43.2087L47.5692 43.2119L47.5685 43.2158L70.5387 46.854C72.7811 47.2091 74.3134 49.3037 73.9833 51.5419L72.7948 59.0454L72.7988 59.0461Z" fill="white"/>
<path d="M52.1455 47.5228C50.5608 47.2718 49.0779 48.3527 48.8269 49.9374L48.3732 52.8017C48.2978 53.1848 48.3005 53.5792 48.3811 53.9613C48.4616 54.3433 48.6183 54.7052 48.8419 55.0253C49.0655 55.3454 49.3513 55.6171 49.6824 55.8242C50.0134 56.0313 50.3827 56.1695 50.7684 56.2306C51.154 56.2917 51.548 56.2744 51.9268 56.1797C52.3056 56.085 52.6614 55.9149 52.973 55.6796C53.2845 55.4443 53.5455 55.1485 53.7401 54.8101C53.9348 54.4716 54.0592 54.0973 54.1059 53.7097L54.5595 50.8454C54.8105 49.2607 53.7302 47.7738 52.1455 47.5228ZM64.8429 49.5338C63.2582 49.2828 61.7713 50.3631 61.5203 51.9478L61.0667 54.8122C60.9462 55.5729 61.1328 56.3503 61.5856 56.9734C62.0382 57.5965 62.72 58.0143 63.4807 58.1348C64.2414 58.2553 65.0188 58.0686 65.6419 57.6159C66.265 57.1632 66.6828 56.4815 66.8033 55.7208L67.2569 52.8564C67.5079 51.2717 66.4276 49.7848 64.8429 49.5338Z" fill="white"/>
<path d="M47.0897 77.879L51.9026 73.4917L71.7509 76.6354C72.1273 76.6919 72.5112 76.6733 72.8805 76.5809C73.2497 76.4884 73.5969 76.3239 73.9026 76.0968C74.2078 75.8697 74.4654 75.5844 74.6601 75.2574C74.8553 74.9304 74.9833 74.5681 75.0377 74.1914C75.3902 71.9405 77.4985 70.3981 79.75 70.7466L79.7698 70.7498C80.1489 70.8179 80.5381 70.8096 80.9141 70.725C81.2902 70.6405 81.6455 70.4816 81.9592 70.2577C82.2728 70.0337 82.5384 69.7492 82.7406 69.4211C82.9425 69.0928 83.0767 68.7275 83.1354 68.3466L84.2837 61.0966C84.3929 60.4073 84.2697 59.6974 83.937 59.0802L83.2984 57.9069L81.9807 66.2266C81.9217 66.6071 81.7871 66.9719 81.585 67.2996C81.3828 67.6274 81.1169 67.9113 80.8033 68.1348C80.4901 68.3584 80.1349 68.5169 79.7592 68.6013C79.3836 68.6856 78.9949 68.6939 78.6158 68.6258L78.6 68.6233C77.5173 68.4561 76.4127 68.7253 75.5282 69.3717C74.644 70.0182 74.0524 70.9891 73.8831 72.0713C73.8287 72.4477 73.7007 72.8097 73.506 73.1365C73.3117 73.4633 73.0545 73.7485 72.7495 73.9756C72.4445 74.2027 72.0976 74.3674 71.7287 74.4602C71.3599 74.5529 70.9764 74.5719 70.6002 74.516L50.7519 71.3723L45.5122 76.1468C45.2825 76.356 45.1453 76.6479 45.1308 76.9582C45.1163 77.2686 45.2257 77.572 45.4349 77.8016C45.6441 78.0313 45.9359 78.1685 46.2462 78.1832C46.5567 78.1974 46.86 78.0883 47.0897 77.879Z" fill="url(#paint0_linear_32_18481)"/>
<path d="M43.3209 71.8035L48.4467 67.1329L68.2951 70.2765C68.6713 70.3324 69.0547 70.3134 69.4236 70.2207C69.7924 70.128 70.1393 69.9633 70.4443 69.7362C70.7493 69.509 71.0065 69.2239 71.201 68.897C71.3955 68.5703 71.5236 68.2082 71.5779 67.8318C71.7469 66.7506 72.3381 65.7807 73.2216 65.1349C74.105 64.489 75.2087 64.2201 76.2901 64.3871L76.3099 64.3902C76.6889 64.459 77.078 64.4511 77.454 64.367C77.83 64.2829 78.1852 64.1244 78.4988 63.9007C78.8124 63.6771 79.078 63.3929 79.2802 63.0649C79.482 62.7369 79.6162 62.3718 79.6749 61.9911L80.9938 53.6635L81.8272 55.1965C82.162 55.8136 82.2834 56.5237 82.1732 57.2169L81.0262 64.459C80.9672 64.8392 80.8327 65.2037 80.631 65.5312C80.4289 65.8586 80.1638 66.1425 79.8506 66.366C79.5374 66.5896 79.1829 66.7484 78.8077 66.833C78.4324 66.9176 78.044 66.9264 77.6652 66.8588L77.6454 66.8557C76.5626 66.6896 75.4583 66.9598 74.5748 67.6072C73.6909 68.2544 73.1001 69.2259 72.9319 70.3083C72.8776 70.6848 72.7496 71.0468 72.5551 71.3736C72.3605 71.7004 72.1034 71.9855 71.7984 72.2127C71.4933 72.4398 71.1465 72.6045 70.7776 72.6972C70.4088 72.7899 70.0253 72.8089 69.6491 72.753L49.8008 69.6094L45.1686 73.8303C45.0355 73.9516 44.8798 74.0455 44.7104 74.1067C44.5411 74.1678 44.3613 74.195 44.1814 74.1867C44.0015 74.1784 43.8251 74.1347 43.6621 74.0582C43.499 73.9817 43.3527 73.8738 43.2314 73.7407C43.11 73.6076 43.0161 73.452 42.955 73.2826C42.8938 73.1132 42.8666 72.9335 42.8749 72.7536C42.8833 72.5737 42.9269 72.3972 43.0034 72.2342C43.0799 72.0712 43.1878 71.9248 43.3209 71.8035Z" fill="url(#paint1_linear_32_18481)"/>
</g>
<defs>
<linearGradient id="paint0_linear_32_18481" x1="100.358" y1="42.3784" x2="27.4438" y2="73.0211" gradientUnits="userSpaceOnUse">
<stop stop-color="#46A6F7"/>
<stop offset="1" stop-color="#8364FF"/>
</linearGradient>
<linearGradient id="paint1_linear_32_18481" x1="42.0149" y1="78.8702" x2="85.6751" y2="56.7482" gradientUnits="userSpaceOnUse">
<stop stop-color="#FF44D3"/>
<stop offset="1" stop-color="#CF4BFF"/>
</linearGradient>
<clipPath id="clip0_32_18481">
<rect x="36.7604" y="27.999" width="56" height="56" rx="25.5441" transform="rotate(9 36.7604 27.999)" fill="white"/>
</clipPath>
</defs>
</svg>
