<svg width="505" height="77" viewBox="0 0 505 77" fill="none" xmlns="http://www.w3.org/2000/svg">
<path d="M17.556 61.523C13.4493 61.523 9.90734 60.83 6.93001 59.444C3.95268 58.058 1.64268 56.056 1.00657e-05 53.438L8.23901 45.584C9.31701 47.3807 10.6517 48.7923 12.243 49.819C13.8343 50.7943 15.6567 51.282 17.71 51.282C20.0713 51.282 21.9963 50.6147 23.485 49.28C25.025 47.9453 26.0773 45.815 26.642 42.889L31.801 16.709H12.859L14.938 6.699H46.2L39.039 42.273C38.115 46.9957 36.7033 50.7687 34.804 53.592C32.956 56.364 30.5947 58.3917 27.72 59.675C24.8453 60.907 21.4573 61.523 17.556 61.523ZM64.6042 61.215C61.2162 61.215 58.2902 60.4963 55.8262 59.059C53.3622 57.5703 51.6169 55.4143 50.5902 52.591C49.5635 49.7677 49.4609 46.277 50.2822 42.119L54.8252 19.173H66.8372L62.4482 41.349C61.8322 44.3777 62.0632 46.7133 63.1412 48.356C64.2705 49.9987 66.2469 50.82 69.0702 50.82C72.0475 50.82 74.5372 49.9473 76.5392 48.202C78.5925 46.4567 79.9529 43.7873 80.6202 40.194L84.8552 19.173H96.8672L88.6282 60.599H77.2322L79.5422 48.895L81.2362 52.437C79.2855 55.4657 76.8472 57.6987 73.9212 59.136C70.9952 60.522 67.8895 61.215 64.6042 61.215ZM114.849 61.215C111.204 61.215 107.765 60.8043 104.531 59.983C101.348 59.1617 98.8839 58.135 97.1385 56.903L101.759 48.202C103.555 49.3827 105.737 50.3323 108.304 51.051C110.922 51.7697 113.54 52.129 116.158 52.129C118.981 52.129 121.034 51.7697 122.318 51.051C123.601 50.3323 124.243 49.357 124.243 48.125C124.243 47.1497 123.704 46.431 122.626 45.969C121.548 45.4557 120.187 45.045 118.545 44.737C116.902 44.429 115.131 44.0697 113.232 43.659C111.384 43.2483 109.613 42.6837 107.919 41.965C106.276 41.195 104.916 40.117 103.838 38.731C102.811 37.2937 102.298 35.42 102.298 33.11C102.298 29.9787 103.17 27.335 104.916 25.179C106.712 23.023 109.176 21.3803 112.308 20.251C115.49 19.1217 119.084 18.557 123.088 18.557C125.962 18.557 128.76 18.865 131.481 19.481C134.201 20.097 136.511 20.944 138.411 22.022L134.099 30.8C132.148 29.568 130.095 28.7467 127.939 28.336C125.834 27.874 123.806 27.643 121.856 27.643C119.032 27.643 116.979 28.0537 115.696 28.875C114.464 29.645 113.848 30.5947 113.848 31.724C113.848 32.6993 114.361 33.4693 115.388 34.034C116.466 34.5473 117.826 34.9837 119.469 35.343C121.111 35.651 122.882 36.0103 124.782 36.421C126.681 36.7803 128.452 37.345 130.095 38.115C131.737 38.8337 133.072 39.886 134.099 41.272C135.177 42.6067 135.716 44.429 135.716 46.739C135.716 49.8703 134.792 52.5397 132.944 54.747C131.147 56.903 128.683 58.52 125.552 59.598C122.42 60.676 118.853 61.215 114.849 61.215ZM157.526 61.215C154.548 61.215 152.007 60.6247 149.903 59.444C147.798 58.212 146.284 56.4667 145.36 54.208C144.487 51.898 144.359 49.1773 144.975 46.046L152.136 10.01H164.148L156.987 45.969C156.679 47.7143 156.858 49.1003 157.526 50.127C158.193 51.1537 159.425 51.667 161.222 51.667C162.043 51.667 162.864 51.5387 163.686 51.282C164.558 51.0253 165.354 50.666 166.073 50.204L167.844 58.751C166.355 59.675 164.712 60.3167 162.916 60.676C161.119 61.0353 159.322 61.215 157.526 61.215ZM141.895 29.337L143.743 20.097H172.464L170.616 29.337H141.895ZM205.787 60.599L198.472 19.173H209.406L215.258 54.824H209.637L229.503 19.173H239.821L245.827 54.824H240.206L259.918 19.173H271.237L248.368 60.599H236.51L230.889 30.03H234.431L217.491 60.599H205.787ZM286.003 61.215C282.82 61.215 279.868 60.4963 277.148 59.059C274.427 57.5703 272.245 55.44 270.603 52.668C268.96 49.896 268.139 46.5593 268.139 42.658C268.139 39.1673 268.703 35.959 269.833 33.033C271.013 30.107 272.656 27.566 274.761 25.41C276.865 23.254 279.304 21.5857 282.076 20.405C284.848 19.173 287.825 18.557 291.008 18.557C294.447 18.557 297.399 19.1987 299.863 20.482C302.327 21.7653 304.149 23.7673 305.33 26.488C306.562 29.1573 306.998 32.6223 306.639 36.883C306.382 41.7597 305.381 46.046 303.636 49.742C301.89 53.3867 299.529 56.21 296.552 58.212C293.626 60.214 290.109 61.215 286.003 61.215ZM289.699 51.282C292.06 51.282 294.139 50.7173 295.936 49.588C297.784 48.4073 299.221 46.816 300.248 44.814C301.326 42.7607 301.865 40.3737 301.865 37.653C301.865 34.8297 301.018 32.5967 299.324 30.954C297.681 29.3113 295.371 28.49 292.394 28.49C290.084 28.49 288.005 29.0803 286.157 30.261C284.309 31.3903 282.846 32.9817 281.768 35.035C280.741 37.037 280.228 39.3983 280.228 42.119C280.228 44.9423 281.049 47.1753 282.692 48.818C284.386 50.4607 286.721 51.282 289.699 51.282ZM297.938 60.599L299.555 52.36L302.25 40.04L303.867 27.72L305.561 19.173H317.573L309.334 60.599H297.938ZM320.455 60.599L328.694 19.173H340.629L332.39 60.599H320.455ZM336.702 13.398C334.597 13.398 332.903 12.8077 331.62 11.627C330.336 10.395 329.695 8.90633 329.695 7.161C329.695 5.10766 330.413 3.41366 331.851 2.079C333.339 0.692995 335.264 -5.60284e-06 337.626 -5.60284e-06C339.73 -5.60284e-06 341.424 0.590328 342.708 1.77099C344.042 2.90033 344.71 4.312 344.71 6.006C344.71 8.21333 343.965 10.01 342.477 11.396C341.039 12.7307 339.114 13.398 336.702 13.398ZM360.403 61.215C357.425 61.215 354.884 60.6247 352.78 59.444C350.675 58.212 349.161 56.4667 348.237 54.208C347.364 51.898 347.236 49.1773 347.852 46.046L355.013 10.01H367.025L359.864 45.969C359.556 47.7143 359.735 49.1003 360.403 50.127C361.07 51.1537 362.302 51.667 364.099 51.667C364.92 51.667 365.741 51.5387 366.563 51.282C367.435 51.0253 368.231 50.666 368.95 50.204L370.721 58.751C369.232 59.675 367.589 60.3167 365.793 60.676C363.996 61.0353 362.199 61.215 360.403 61.215ZM344.772 29.337L346.62 20.097H375.341L373.493 29.337H344.772ZM377.002 60.599L385.241 19.173H397.176L388.937 60.599H377.002ZM393.249 13.398C391.144 13.398 389.45 12.8077 388.167 11.627C386.883 10.395 386.242 8.90633 386.242 7.161C386.242 5.10766 386.96 3.41366 388.398 2.079C389.886 0.692995 391.811 -5.60284e-06 394.173 -5.60284e-06C396.277 -5.60284e-06 397.971 0.590328 399.255 1.77099C400.589 2.90033 401.257 4.312 401.257 6.006C401.257 8.21333 400.512 10.01 399.024 11.396C397.586 12.7307 395.661 13.398 393.249 13.398ZM432.427 18.557C435.969 18.557 438.972 19.3013 441.436 20.79C443.9 22.2273 445.645 24.3577 446.672 27.181C447.698 30.0043 447.801 33.495 446.98 37.653L442.36 60.599H430.348L434.814 38.423C435.43 35.3943 435.173 33.0587 434.044 31.416C432.966 29.7733 430.964 28.952 428.038 28.952C425.009 28.952 422.468 29.8247 420.415 31.57C418.413 33.3153 417.027 35.9847 416.257 39.578L412.099 60.599H400.087L408.326 19.173H419.722L417.335 30.877L415.641 27.335C417.643 24.3063 420.107 22.099 423.033 20.713C426.01 19.2757 429.141 18.557 432.427 18.557ZM471.108 76.153C467.104 76.153 463.408 75.691 460.02 74.767C456.684 73.843 453.809 72.4827 451.396 70.686L457.094 61.985C458.737 63.3197 460.842 64.3977 463.408 65.219C466.026 66.0403 468.773 66.451 471.647 66.451C475.805 66.451 478.911 65.5527 480.964 63.756C483.069 61.9593 484.481 59.29 485.199 55.748L486.662 48.279L489.434 38.577L491.282 28.105L492.976 19.173H504.449L497.596 53.669C496.005 61.6257 492.976 67.3493 488.51 70.84C484.096 74.382 478.295 76.153 471.108 76.153ZM472.879 58.597C469.491 58.597 466.411 57.904 463.639 56.518C460.867 55.132 458.66 53.1557 457.017 50.589C455.375 47.971 454.553 44.8397 454.553 41.195C454.553 38.0123 455.118 35.0607 456.247 32.34C457.428 29.6193 459.045 27.2323 461.098 25.179C463.203 23.0743 465.641 21.4573 468.413 20.328C471.237 19.1473 474.317 18.557 477.653 18.557C480.682 18.557 483.428 19.1217 485.892 20.251C488.356 21.3803 490.256 23.2027 491.59 25.718C492.976 28.2333 493.49 31.5957 493.13 35.805C492.822 40.3737 491.821 44.3777 490.127 47.817C488.433 51.205 486.123 53.8487 483.197 55.748C480.323 57.6473 476.883 58.597 472.879 58.597ZM476.113 48.741C478.475 48.741 480.554 48.2277 482.35 47.201C484.147 46.1743 485.559 44.7627 486.585 42.966C487.612 41.118 488.125 39.0133 488.125 36.652C488.125 34.1367 487.304 32.1603 485.661 30.723C484.019 29.2343 481.734 28.49 478.808 28.49C476.447 28.49 474.342 29.0033 472.494 30.03C470.698 31.0567 469.26 32.494 468.182 34.342C467.156 36.1387 466.642 38.2177 466.642 40.579C466.642 43.0943 467.489 45.0963 469.183 46.585C470.877 48.0223 473.187 48.741 476.113 48.741Z" fill="white"/>
</svg>
