<svg width="256" height="213" viewBox="0 0 256 213" fill="none" xmlns="http://www.w3.org/2000/svg">
<path d="M71.325 59.5672L71.3846 97.8636L70.622 97.5074L70.5641 59.2111L71.325 59.5672Z" fill="#6C6E73"/>
<path d="M231.336 64.6662C231.321 54.537 223.912 44.5225 209.805 37.8981L184.2 25.8718C160.062 14.536 125.323 17.3482 106.761 32.1356L71.3846 60.3141L71.4347 92.6886L106.809 64.5101C125.372 49.7227 160.112 46.9111 184.248 58.2469L209.853 70.2718C223.96 76.8984 231.371 86.91 231.385 97.0407L231.336 64.6662Z" fill="#20364F"/>
<path d="M232.155 64.145C232.168 71.4504 228.404 78.814 220.619 85.0466L185.436 113.206L185.484 145.562L220.668 117.4C228.453 111.168 232.215 103.803 232.205 96.4993C232.189 85.715 232.173 74.9307 232.155 64.145Z" fill="#334B66"/>
<path d="M210.327 37.1885C234.853 48.697 239.455 70.2761 220.588 85.293L185.161 113.488L184.519 113.188L219.946 84.9917C238.537 70.1941 234.002 48.9275 209.829 37.5851L184.186 25.5511C160.013 14.208 125.223 17.0221 106.633 31.819L71.2047 60.0156L70.5641 59.7136L105.99 31.5177C124.859 16.5007 160.159 13.6467 184.684 25.1545L210.327 37.1885Z" fill="#567EAB"/>
<path d="M125.16 141.013C134.714 145.424 142.23 156.209 141.941 165.099L141.242 186.567C140.951 195.457 132.962 199.085 123.408 194.673L34.0186 153.402C24.4651 148.99 16.9479 138.203 17.2389 129.314L17.9379 107.847C18.2289 98.9565 26.216 95.3296 35.7701 99.7408L125.16 141.013Z" fill="#E2E9FB"/>
<path d="M125.112 141.157L35.4596 99.7396C30.2119 97.3171 25.4487 97.3241 22.1539 99.2789C25.1338 98.5705 28.791 99.0082 32.7226 100.826L122.375 142.242C131.958 146.669 139.497 157.492 139.206 166.413L138.503 187.956C138.372 191.994 136.649 194.935 133.924 196.551C138.202 195.534 141.068 192.13 141.24 186.871L141.941 165.328C142.232 156.407 134.693 145.585 125.112 141.157Z" fill="#C3C7CF"/>
<path d="M138.368 194.083C156.267 177.884 174.164 161.685 192.063 145.487C198.6 139.567 199.168 135.285 200.355 125.922C201.541 116.557 202.817 102.698 188.371 94.5077C173.929 86.3184 160.298 89.6044 120.871 75.3037C87.9089 63.346 81.0117 52.1865 79.8501 50.7641C78.6913 49.3424 77.7338 48.8908 76.6703 49.8504C58.224 66.545 39.7783 83.2411 21.3333 99.9357C24.573 97.0025 29.9827 96.5822 36.0163 99.3762L125.438 140.793C134.994 145.221 142.513 156.043 142.224 164.964L141.524 186.507C141.415 189.797 140.263 192.369 138.368 194.083Z" fill="#92B2FC"/>
<path d="M147.971 184.117L148.504 158.437C148.804 149.232 141.053 138.048 131.224 133.504L42.0879 92.2991C38.5059 90.6431 34.6185 90.1162 31.0595 90.6784C30.0043 91.6283 28.9526 92.5823 27.8975 93.5336C31.8293 91.8325 36.8947 91.9772 41.2917 94.0113L130.426 135.215C139.628 139.468 146.891 149.858 146.613 158.387L146.042 185.859C146.686 185.279 147.327 184.698 147.971 184.117Z" fill="#DADEE3"/>
<path d="M150.42 181.698L150.966 155.43C151.261 146.404 143.628 135.428 133.95 130.959L44.7767 89.791C41.1077 88.0983 37.1143 87.6093 33.5113 88.2913C33.0078 88.7444 32.5036 89.2002 32.0001 89.654C35.8087 88.4781 40.3652 88.7956 44.3759 90.648L133.553 131.816C142.916 136.139 150.302 146.717 150.019 155.404L149.456 182.569C149.777 182.28 150.097 181.988 150.42 181.698Z" fill="#DADEE3"/>
<path d="M108.779 109.21L84.3595 97.7049C82.0981 96.6417 78.8111 96.8796 77.0221 98.245L76.6088 98.5593C74.8212 99.9255 75.2141 101.896 77.4755 102.962L101.895 114.467C104.163 115.535 107.443 115.294 109.233 113.928L109.643 113.614C111.434 112.247 111.047 110.278 108.779 109.21Z" fill="#C6D0DE"/>
<g opacity="0.2">
<path d="M22.9744 98.9377L38.3173 155.764L64 167.767L47.0958 105.153L35.5187 99.7409C30.6482 97.4658 26.2006 97.3335 22.9744 98.9377Z" fill="#92B2FC"/>
<path d="M104.499 131.974L68.1026 115.134L85.0382 177.243L121.436 194.084L104.499 131.974Z" fill="#92B2FC"/>
</g>
</svg>
