<svg width="331" height="236" viewBox="0 0 331 236" fill="none" xmlns="http://www.w3.org/2000/svg">
<path d="M274.328 117.995C274.328 213.087 175.436 267.866 103.611 215.998C40.2198 170.254 38.5034 70.3516 100.591 22.2467C100.591 22.2467 100.608 22.2289 100.641 22.2112C100.723 22.1579 100.723 22.1402 100.74 22.1224C100.789 22.0692 100.839 22.0337 100.888 22.0159C172.317 -33.0474 274.328 21.1994 274.328 117.995Z" fill="url(#paint0_radial_21603_103987)"/>
<path d="M118.259 118.014C118.903 124.944 96.3189 118.014 82.1212 118.014C72.645 118.014 62.5744 119.875 55.0298 117.182C55.0958 105.999 56.6312 95.1887 59.4047 84.9632C63.2513 84.4315 69.7724 85.6189 79.5457 93.7709C96.9628 108.303 117.616 111.085 118.259 118.014Z" fill="url(#paint1_linear_21603_103987)"/>
<path d="M192.973 132.101C177.165 130.739 159.449 125.951 156.294 129.376C153.139 132.783 181.793 141.501 208.149 146.446C237.24 151.914 255.587 153.958 249.261 145.083C242.935 136.207 232.823 125.27 216.999 130.739C201.208 136.207 201.807 132.87 192.973 132.101Z" fill="url(#paint2_linear_21603_103987)"/>
<path d="M193.015 181.008C193.015 188.483 128.968 168.566 107.619 177.561C91.6646 184.277 86.5508 189.049 76.8858 188.165C65.4996 171.8 57.986 152.166 55.8511 130.817C61.4284 133.079 71.0272 137.462 86.2694 145.786C114.106 160.967 193.015 170.634 193.015 181.008Z" fill="url(#paint3_linear_21603_103987)"/>
<path d="M243.117 200.988C234.758 210.125 225.008 217.802 214.266 223.626C211.386 220.848 208.555 217.713 204.252 216.074C193.244 211.888 164.145 204.247 169.955 200.061C175.782 195.876 194.535 198.672 216.533 197.283C229.858 196.428 238.432 198.904 243.117 200.988Z" fill="url(#paint4_linear_21603_103987)"/>
<path d="M233.055 181.536C225.532 172.95 204.155 174.781 207.289 182.883C209.009 187.288 243.1 193.006 233.055 181.536Z" fill="url(#paint5_linear_21603_103987)"/>
<path d="M139.771 194.216C130.217 191.902 123.706 196.315 122.423 199.831C121.14 203.33 148.782 208.245 149.423 204.747C150.064 201.249 145.559 195.616 139.771 194.216Z" fill="url(#paint6_linear_21603_103987)"/>
<path d="M136.232 134.829C129.879 133.135 118.273 136.191 118.273 140.295C118.273 144.398 133.671 149.165 140.089 147.122C146.491 145.062 149.052 138.234 136.232 134.829Z" fill="url(#paint7_linear_21603_103987)"/>
<path d="M146.871 147.64C145.189 147.324 142.897 149.588 144.043 151.552C145.174 153.499 153.673 148.955 146.871 147.64Z" fill="url(#paint8_linear_21603_103987)"/>
<path d="M212.719 167.476C208.597 166.102 205.658 168.19 207.579 172.494C209.517 176.779 225.559 171.761 212.719 167.476Z" fill="url(#paint9_linear_21603_103987)"/>
<path d="M242.82 189.006C240.583 186.484 239.01 191.144 240.291 192.569C241.555 193.995 247.893 194.708 242.82 189.006Z" fill="url(#paint10_linear_21603_103987)"/>
<path d="M182.337 234.204C176.185 235.389 169.838 236 163.378 236C141.213 236 120.602 228.782 103.489 216.403C116.166 212.463 137.246 215.688 158.327 226.463C168.138 231.501 176.185 233.541 182.337 234.204Z" fill="url(#paint11_linear_21603_103987)"/>
<path d="M189.099 221.857C185.552 221.857 185.623 224 185.623 226.161C185.623 228.303 189.099 229.017 191.202 226.161C193.27 223.286 191.879 221.857 189.099 221.857Z" fill="url(#paint12_linear_21603_103987)"/>
<path d="M180.21 223.637C178.997 223.397 178.367 227.229 180.21 227.965C182.052 228.684 183.895 224.355 180.21 223.637Z" fill="url(#paint13_linear_21603_103987)"/>
<path d="M107.307 185.085C102.559 186.077 95.6554 189.404 101.823 193.705C107.991 198.024 120.992 182.217 107.307 185.085Z" fill="url(#paint14_linear_21603_103987)"/>
<path d="M85.3342 127.907C82.8922 125.106 81.2643 132.574 82.6325 133.349C83.966 134.123 88.0359 131.005 85.3342 127.907Z" fill="url(#paint15_linear_21603_103987)"/>
<path d="M104.806 88.0115C98.9444 84.8943 90.8976 82.3718 89.5763 85.2006C88.2549 88.0115 113.412 107.039 119.375 102.804C125.338 98.5701 110.108 90.8223 104.806 88.0115Z" fill="url(#paint16_linear_21603_103987)"/>
<path d="M199.092 117.887C195.005 115.617 195.204 125.76 201.028 128.616C206.853 131.473 201.69 119.315 199.092 117.887Z" fill="url(#paint17_linear_21603_103987)"/>
<path d="M262.015 129.942C254.18 129.542 256.819 143.451 262.015 144.869C267.211 146.287 275.644 130.651 262.015 129.942Z" fill="url(#paint18_linear_21603_103987)"/>
<path opacity="0.45" d="M226.69 215.589C222.753 218.469 218.652 221.065 214.368 223.394C205.024 228.461 194.918 232.142 184.283 234.168C177.998 235.377 171.515 236 164.916 236C142.274 236 121.22 228.639 103.738 216.016C93.3014 208.495 84.1553 199.108 76.6796 188.28C75.0587 185.934 73.504 183.516 72.0486 181.026C63.2663 166.145 57.4941 148.988 55.6583 130.587C55.2448 126.409 55.0298 122.142 55.0298 117.857C55.0298 117.573 55.0298 117.288 55.0298 117.022C55.0959 107.776 56.1379 98.7801 58.073 90.1572C71.8005 129.129 98.0316 173.79 148.063 197.828C154.281 200.815 160.864 203.482 167.827 205.775C188.683 212.638 208.381 215.518 226.69 215.589Z" fill="url(#paint19_linear_21603_103987)"/>
<path opacity="0.55" d="M268.578 157.333C263.159 173.812 254.436 188.622 243.235 200.839C238.213 206.326 232.695 211.281 226.747 215.614C222.816 218.49 218.718 221.083 214.439 223.409C205.105 228.47 195.011 232.146 184.388 234.17C178.11 235.378 171.634 235.999 165.042 235.999C142.425 235.999 121.394 228.648 103.932 216.04C93.5072 208.528 84.3712 199.152 76.9038 188.338C75.2847 185.994 73.7318 183.579 72.278 181.093C100.363 191.659 125.624 196.737 148.208 197.856C203.404 200.591 242.707 179.654 268.578 157.333Z" fill="url(#paint20_linear_21603_103987)"/>
<path d="M101.207 22.0977C101.124 22.1689 101.058 22.2045 101.025 22.2402C101.058 22.2045 101.141 22.1333 101.207 22.0977Z" fill="url(#paint21_linear_21603_103987)"/>
<path d="M273.501 132.584C273.996 127.371 277.953 68.7472 212.112 29.5698C146.502 -9.46521 104.916 19.1795 101.025 22.044C118.981 8.16643 140.978 0 164.739 0C230.63 0.0177917 281.482 62.3244 273.501 132.584Z" fill="url(#paint22_linear_21603_103987)"/>
<path d="M280.471 127.151C278.49 126.239 276.46 125.327 274.381 124.432C274.315 126.006 274.199 127.545 274.084 129.101C293.476 137.597 304.649 145.699 303.576 151.781C302.487 157.987 288.855 161.028 267.235 161.028C241.208 161.028 203.596 156.628 162.287 148.043C117.941 138.813 79.2065 126.811 55.2264 115.686C38.3265 107.851 28.7543 100.464 29.761 94.8122C30.7347 89.2673 41.6933 86.2624 59.3854 85.6721C59.4514 85.4217 59.5009 85.1892 59.5669 84.9567C59.8145 84.0266 60.0785 83.1144 60.3426 82.2021C33.3918 83.2217 17.1851 88.5161 15.7162 96.8333C14.1814 105.526 28.6552 117.564 55.441 129.87C55.5235 129.906 55.6225 129.941 55.705 129.995C83.3984 142.677 121.093 154.339 161.891 162.835C198.1 170.365 232.89 174.604 261.293 174.98C264.99 175.033 268.571 175.016 272.021 174.944C301.1 174.264 318.677 168.88 320.212 160.205C321.747 151.495 307.273 139.457 280.471 127.151Z" fill="url(#paint23_linear_21603_103987)"/>
<path d="M274.733 117.773V118.111C274.733 119.162 274.716 120.194 274.7 121.245C277.094 122.26 279.439 123.292 281.702 124.343C301.818 133.53 325.319 147.239 322.99 160.308C320.661 173.377 294.121 176.724 272.288 177.24C270.141 177.294 267.945 177.311 265.699 177.311C263.849 177.311 261.966 177.294 260.051 177.258C231.744 176.742 197.309 172.54 161.521 165.133C121.174 156.783 83.8334 145.352 56.0879 132.889C55.5429 132.64 55.0144 132.408 54.4859 132.159C34.3704 122.972 10.8692 109.262 13.1979 96.1937C15.4274 83.6414 39.969 80.0627 61.2736 79.3327C61.7196 77.9262 62.1985 76.5196 62.7105 75.1309C26.5422 75.8965 2.51255 83.0717 0.183905 96.1225C-2.29338 110.046 20.4315 127.583 57.7889 143.554C84.7913 155.091 119.457 165.81 157.772 173.75C193.544 181.157 227.202 185.021 255.162 185.555C298.548 186.374 328.225 179.145 330.818 164.563C333.246 150.818 311.182 133.566 274.733 117.773Z" fill="url(#paint24_linear_21603_103987)"/>
<defs>
<radialGradient id="paint0_radial_21603_103987" cx="0" cy="0" r="1" gradientUnits="userSpaceOnUse" gradientTransform="translate(172.412 66.9813) scale(130.774 140.655)">
<stop stop-color="#FBB6B6"/>
<stop offset="1" stop-color="#ED3558"/>
</radialGradient>
<linearGradient id="paint1_linear_21603_103987" x1="66.6718" y1="264.117" x2="113.374" y2="-40.4282" gradientUnits="userSpaceOnUse">
<stop stop-color="#BD2B3B"/>
<stop offset="1" stop-color="#E22B57" stop-opacity="0"/>
</linearGradient>
<linearGradient id="paint2_linear_21603_103987" x1="184.675" y1="279.747" x2="230.979" y2="-20.4146" gradientUnits="userSpaceOnUse">
<stop stop-color="#BD2B3B"/>
<stop offset="1" stop-color="#E22B57" stop-opacity="0"/>
</linearGradient>
<linearGradient id="paint3_linear_21603_103987" x1="109.146" y1="270.286" x2="155.486" y2="-33.4854" gradientUnits="userSpaceOnUse">
<stop stop-color="#BD2B3B"/>
<stop offset="1" stop-color="#E22B57" stop-opacity="0"/>
</linearGradient>
<linearGradient id="paint4_linear_21603_103987" x1="195.082" y1="284.527" x2="242.13" y2="-21.5267" gradientUnits="userSpaceOnUse">
<stop stop-color="#BD2B3B"/>
<stop offset="1" stop-color="#E22B57" stop-opacity="0"/>
</linearGradient>
<linearGradient id="paint5_linear_21603_103987" x1="207.687" y1="282.914" x2="253.261" y2="-13.9245" gradientUnits="userSpaceOnUse">
<stop stop-color="#BD2B3B"/>
<stop offset="1" stop-color="#E22B57" stop-opacity="0"/>
</linearGradient>
<linearGradient id="paint6_linear_21603_103987" x1="126.476" y1="274.335" x2="174.49" y2="-33.7239" gradientUnits="userSpaceOnUse">
<stop stop-color="#BD2B3B"/>
<stop offset="1" stop-color="#E22B57" stop-opacity="0"/>
</linearGradient>
<linearGradient id="paint7_linear_21603_103987" x1="114.549" y1="269.642" x2="160.168" y2="-30.562" gradientUnits="userSpaceOnUse">
<stop stop-color="#BD2B3B"/>
<stop offset="1" stop-color="#E22B57" stop-opacity="0"/>
</linearGradient>
<linearGradient id="paint8_linear_21603_103987" x1="132.138" y1="266.096" x2="178.879" y2="-19.0003" gradientUnits="userSpaceOnUse">
<stop stop-color="#BD2B3B"/>
<stop offset="1" stop-color="#E22B57" stop-opacity="0"/>
</linearGradient>
<linearGradient id="paint9_linear_21603_103987" x1="197.226" y1="288.277" x2="247.281" y2="-25.869" gradientUnits="userSpaceOnUse">
<stop stop-color="#BD2B3B"/>
<stop offset="1" stop-color="#E22B57" stop-opacity="0"/>
</linearGradient>
<linearGradient id="paint10_linear_21603_103987" x1="229.518" y1="292.518" x2="279.982" y2="-20.7922" gradientUnits="userSpaceOnUse">
<stop stop-color="#BD2B3B"/>
<stop offset="1" stop-color="#E22B57" stop-opacity="0"/>
</linearGradient>
<linearGradient id="paint11_linear_21603_103987" x1="136.373" y1="274.538" x2="182.455" y2="-25.0249" gradientUnits="userSpaceOnUse">
<stop stop-color="#BD2B3B"/>
<stop offset="1" stop-color="#E22B57" stop-opacity="0"/>
</linearGradient>
<linearGradient id="paint12_linear_21603_103987" x1="180.577" y1="284.244" x2="226.847" y2="-31.0364" gradientUnits="userSpaceOnUse">
<stop stop-color="#BD2B3B"/>
<stop offset="1" stop-color="#E22B57" stop-opacity="0"/>
</linearGradient>
<linearGradient id="paint13_linear_21603_103987" x1="173.688" y1="283.069" x2="226.348" y2="-32.1106" gradientUnits="userSpaceOnUse">
<stop stop-color="#BD2B3B"/>
<stop offset="1" stop-color="#E22B57" stop-opacity="0"/>
</linearGradient>
<linearGradient id="paint14_linear_21603_103987" x1="95.0756" y1="271.457" x2="142.454" y2="-44.7127" gradientUnits="userSpaceOnUse">
<stop stop-color="#BD2B3B"/>
<stop offset="1" stop-color="#E22B57" stop-opacity="0"/>
</linearGradient>
<linearGradient id="paint15_linear_21603_103987" x1="65.5068" y1="280.75" x2="121.246" y2="-59.4636" gradientUnits="userSpaceOnUse">
<stop stop-color="#BD2B3B"/>
<stop offset="1" stop-color="#E22B57" stop-opacity="0"/>
</linearGradient>
<linearGradient id="paint16_linear_21603_103987" x1="81.4832" y1="269.131" x2="128.551" y2="-40.6364" gradientUnits="userSpaceOnUse">
<stop stop-color="#BD2B3B"/>
<stop offset="1" stop-color="#E22B57" stop-opacity="0"/>
</linearGradient>
<linearGradient id="paint17_linear_21603_103987" x1="178.989" y1="286.609" x2="228.655" y2="-27.5814" gradientUnits="userSpaceOnUse">
<stop stop-color="#BD2B3B"/>
<stop offset="1" stop-color="#E22B57" stop-opacity="0"/>
</linearGradient>
<linearGradient id="paint18_linear_21603_103987" x1="242.403" y1="295.449" x2="291.242" y2="-16.6994" gradientUnits="userSpaceOnUse">
<stop stop-color="#BD2B3B"/>
<stop offset="1" stop-color="#E22B57" stop-opacity="0"/>
</linearGradient>
<linearGradient id="paint19_linear_21603_103987" x1="129.898" y1="230.068" x2="149.235" y2="125.597" gradientUnits="userSpaceOnUse">
<stop stop-color="#BD2B3B"/>
<stop offset="1" stop-color="#E22B57" stop-opacity="0"/>
</linearGradient>
<linearGradient id="paint20_linear_21603_103987" x1="187.317" y1="241.39" x2="164.75" y2="157.92" gradientUnits="userSpaceOnUse">
<stop stop-color="#A62B56"/>
<stop offset="1" stop-color="#AE2B57" stop-opacity="0"/>
</linearGradient>
<linearGradient id="paint21_linear_21603_103987" x1="101.204" y1="22.031" x2="101.001" y2="22.2956" gradientUnits="userSpaceOnUse">
<stop stop-color="#FAD1E2"/>
<stop offset="1" stop-color="#F9DDF9" stop-opacity="0"/>
</linearGradient>
<linearGradient id="paint22_linear_21603_103987" x1="251.17" y1="-19.406" x2="198.413" y2="49.1686" gradientUnits="userSpaceOnUse">
<stop stop-color="#FAD1E2"/>
<stop offset="1" stop-color="#F9DDF9" stop-opacity="0"/>
</linearGradient>
<linearGradient id="paint23_linear_21603_103987" x1="151.635" y1="191.086" x2="182.306" y2="91.0018" gradientUnits="userSpaceOnUse">
<stop stop-color="#FAB0B2"/>
<stop offset="1" stop-color="#F2687D"/>
</linearGradient>
<linearGradient id="paint24_linear_21603_103987" x1="149.859" y1="189.953" x2="180.255" y2="90.2378" gradientUnits="userSpaceOnUse">
<stop stop-color="#FAB0B2"/>
<stop offset="1" stop-color="#F2687D"/>
</linearGradient>
</defs>
</svg>
