<svg width="241" height="53" viewBox="0 0 241 53" fill="none" xmlns="http://www.w3.org/2000/svg">
<foreignObject x="-38" y="-38" width="317" height="129"><div xmlns="http://www.w3.org/1999/xhtml" style="backdrop-filter:blur(19px);clip-path:url(#bgblur_0_32_17291_clip_path);height:100%;width:100%"></div></foreignObject><g data-figma-bg-blur-radius="38">
<rect width="241" height="53" rx="26.5" fill="white" fill-opacity="0.25"/>
<path d="M24.9794 32V30.8864L28.4247 27.3168C28.7926 26.929 29.0959 26.5893 29.3345 26.2976C29.5765 26.0026 29.7571 25.7225 29.8764 25.4574C29.9957 25.1922 30.0554 24.9105 30.0554 24.6122C30.0554 24.2741 29.9759 23.9825 29.8168 23.7372C29.6577 23.4886 29.4406 23.2981 29.1655 23.1655C28.8904 23.0296 28.5805 22.9616 28.2358 22.9616C27.8712 22.9616 27.553 23.0362 27.2812 23.1854C27.0095 23.3345 26.8007 23.545 26.6548 23.8168C26.509 24.0885 26.4361 24.4067 26.4361 24.7713H24.9695C24.9695 24.1515 25.112 23.6096 25.397 23.1456C25.6821 22.6816 26.0732 22.322 26.5703 22.0668C27.0675 21.8082 27.6326 21.679 28.2656 21.679C28.9053 21.679 29.4688 21.8066 29.956 22.0618C30.4465 22.3137 30.8293 22.6584 31.1044 23.0959C31.3795 23.5301 31.517 24.0206 31.517 24.5675C31.517 24.9453 31.4458 25.3149 31.3033 25.6761C31.1641 26.0374 30.9205 26.4401 30.5724 26.8842C30.2244 27.325 29.7405 27.8603 29.1207 28.4901L27.0973 30.608V30.6825H31.6811V32H24.9794ZM33.5653 32V30.8864L37.0107 27.3168C37.3786 26.929 37.6818 26.5893 37.9205 26.2976C38.1624 26.0026 38.343 25.7225 38.4624 25.4574C38.5817 25.1922 38.6413 24.9105 38.6413 24.6122C38.6413 24.2741 38.5618 23.9825 38.4027 23.7372C38.2436 23.4886 38.0265 23.2981 37.7514 23.1655C37.4763 23.0296 37.1664 22.9616 36.8217 22.9616C36.4571 22.9616 36.139 23.0362 35.8672 23.1854C35.5954 23.3345 35.3866 23.545 35.2408 23.8168C35.0949 24.0885 35.022 24.4067 35.022 24.7713H33.5554C33.5554 24.1515 33.6979 23.6096 33.983 23.1456C34.268 22.6816 34.6591 22.322 35.1562 22.0668C35.6534 21.8082 36.2185 21.679 36.8516 21.679C37.4912 21.679 38.0547 21.8066 38.5419 22.0618C39.0324 22.3137 39.4152 22.6584 39.6903 23.0959C39.9654 23.5301 40.103 24.0206 40.103 24.5675C40.103 24.9453 40.0317 25.3149 39.8892 25.6761C39.75 26.0374 39.5064 26.4401 39.1584 26.8842C38.8104 27.325 38.3265 27.8603 37.7067 28.4901L35.6832 30.608V30.6825H40.267V32H33.5653ZM46.8556 32H45.225L48.889 21.8182H50.6639L54.3279 32H52.6973L49.8187 23.6676H49.7392L46.8556 32ZM47.1291 28.0128H52.4189V29.3054H47.1291V28.0128ZM57.3345 21.8182V32H55.7983V21.8182H57.3345ZM66.7221 24.3636V25.5568H62.551V24.3636H66.7221ZM63.6696 22.5341H65.1561V29.7578C65.1561 30.0462 65.1992 30.2633 65.2853 30.4091C65.3715 30.5516 65.4825 30.6494 65.6184 30.7024C65.7576 30.7521 65.9084 30.777 66.0708 30.777C66.1902 30.777 66.2946 30.7687 66.3841 30.7521C66.4735 30.7356 66.5431 30.7223 66.5929 30.7124L66.8613 31.9403C66.7752 31.9735 66.6525 32.0066 66.4934 32.0398C66.3343 32.0762 66.1355 32.0961 65.8968 32.0994C65.5057 32.1061 65.1412 32.0365 64.8031 31.8906C64.465 31.7448 64.1916 31.5194 63.9828 31.2145C63.774 30.9096 63.6696 30.5268 63.6696 30.0661V22.5341ZM71.5011 32.1541C70.7852 32.1541 70.1604 31.9901 69.6268 31.6619C69.0932 31.3338 68.6789 30.8748 68.3839 30.2848C68.0889 29.6948 67.9414 29.0054 67.9414 28.2166C67.9414 27.4245 68.0889 26.7318 68.3839 26.1385C68.6789 25.5452 69.0932 25.0845 69.6268 24.7564C70.1604 24.4283 70.7852 24.2642 71.5011 24.2642C72.217 24.2642 72.8417 24.4283 73.3754 24.7564C73.909 25.0845 74.3233 25.5452 74.6183 26.1385C74.9132 26.7318 75.0607 27.4245 75.0607 28.2166C75.0607 29.0054 74.9132 29.6948 74.6183 30.2848C74.3233 30.8748 73.909 31.3338 73.3754 31.6619C72.8417 31.9901 72.217 32.1541 71.5011 32.1541ZM71.506 30.9063C71.9701 30.9063 72.3545 30.7836 72.6594 30.5384C72.9644 30.2931 73.1897 29.9666 73.3356 29.5589C73.4847 29.1513 73.5593 28.7022 73.5593 28.2116C73.5593 27.7244 73.4847 27.277 73.3356 26.8693C73.1897 26.4583 72.9644 26.1286 72.6594 25.88C72.3545 25.6314 71.9701 25.5071 71.506 25.5071C71.0387 25.5071 70.6509 25.6314 70.3427 25.88C70.0378 26.1286 69.8107 26.4583 69.6616 26.8693C69.5157 27.277 69.4428 27.7244 69.4428 28.2116C69.4428 28.7022 69.5157 29.1513 69.6616 29.5589C69.8107 29.9666 70.0378 30.2931 70.3427 30.5384C70.6509 30.7836 71.0387 30.9063 71.506 30.9063ZM79.9366 32.1541C79.2207 32.1541 78.5959 31.9901 78.0623 31.6619C77.5287 31.3338 77.1144 30.8748 76.8194 30.2848C76.5244 29.6948 76.377 29.0054 76.377 28.2166C76.377 27.4245 76.5244 26.7318 76.8194 26.1385C77.1144 25.5452 77.5287 25.0845 78.0623 24.7564C78.5959 24.4283 79.2207 24.2642 79.9366 24.2642C80.6525 24.2642 81.2773 24.4283 81.8109 24.7564C82.3445 25.0845 82.7588 25.5452 83.0538 26.1385C83.3488 26.7318 83.4963 27.4245 83.4963 28.2166C83.4963 29.0054 83.3488 29.6948 83.0538 30.2848C82.7588 30.8748 82.3445 31.3338 81.8109 31.6619C81.2773 31.9901 80.6525 32.1541 79.9366 32.1541ZM79.9416 30.9063C80.4056 30.9063 80.7901 30.7836 81.095 30.5384C81.3999 30.2931 81.6253 29.9666 81.7711 29.5589C81.9203 29.1513 81.9949 28.7022 81.9949 28.2116C81.9949 27.7244 81.9203 27.277 81.7711 26.8693C81.6253 26.4583 81.3999 26.1286 81.095 25.88C80.7901 25.6314 80.4056 25.5071 79.9416 25.5071C79.4743 25.5071 79.0865 25.6314 78.7782 25.88C78.4733 26.1286 78.2463 26.4583 78.0971 26.8693C77.9513 27.277 77.8784 27.7244 77.8784 28.2116C77.8784 28.7022 77.9513 29.1513 78.0971 29.5589C78.2463 29.9666 78.4733 30.2931 78.7782 30.5384C79.0865 30.7836 79.4743 30.9063 79.9416 30.9063ZM86.642 21.8182V32H85.1555V21.8182H86.642ZM94.3642 26.228L93.0169 26.4666C92.9605 26.2943 92.871 26.1302 92.7484 25.9744C92.6291 25.8187 92.4667 25.6911 92.2612 25.5916C92.0557 25.4922 91.7988 25.4425 91.4906 25.4425C91.0697 25.4425 90.7183 25.5369 90.4366 25.7259C90.1549 25.9115 90.014 26.1518 90.014 26.4467C90.014 26.7019 90.1085 26.9074 90.2974 27.0632C90.4863 27.219 90.7913 27.3466 91.2122 27.446L92.4252 27.7244C93.1279 27.8868 93.6516 28.1371 93.9963 28.4751C94.341 28.8132 94.5133 29.2524 94.5133 29.7926C94.5133 30.25 94.3807 30.6577 94.1156 31.0156C93.8538 31.3703 93.4875 31.6487 93.0169 31.8509C92.5495 32.053 92.0076 32.1541 91.3912 32.1541C90.536 32.1541 89.8384 31.9718 89.2981 31.6072C88.7579 31.2393 88.4264 30.7173 88.3038 30.0412L89.7406 29.8224C89.8301 30.197 90.014 30.4804 90.2924 30.6726C90.5708 30.8615 90.9338 30.956 91.3812 30.956C91.8684 30.956 92.2579 30.8549 92.5495 30.6527C92.8412 30.4472 92.987 30.197 92.987 29.902C92.987 29.6634 92.8975 29.4628 92.7186 29.3004C92.5429 29.138 92.2728 29.0154 91.9082 28.9325L90.6156 28.6491C89.903 28.4867 89.376 28.2282 89.0346 27.8736C88.6966 27.5189 88.5275 27.0698 88.5275 26.5263C88.5275 26.0755 88.6535 25.6811 88.9054 25.343C89.1573 25.005 89.5053 24.7415 89.9494 24.5526C90.3935 24.3603 90.9023 24.2642 91.4757 24.2642C92.301 24.2642 92.9506 24.4432 93.4245 24.8011C93.8985 25.1558 94.2117 25.6314 94.3642 26.228ZM102.075 32.169C101.591 32.169 101.154 32.0795 100.763 31.9006C100.372 31.7183 100.062 31.4548 99.8329 31.1101C99.6075 30.7654 99.4949 30.3428 99.4949 29.8423C99.4949 29.4115 99.5777 29.0568 99.7434 28.7784C99.9092 28.5 100.133 28.2796 100.415 28.1172C100.696 27.9548 101.011 27.8321 101.359 27.7493C101.707 27.6664 102.062 27.6035 102.423 27.5604C102.881 27.5073 103.252 27.4643 103.537 27.4311C103.822 27.3946 104.029 27.3366 104.158 27.2571C104.287 27.1776 104.352 27.0483 104.352 26.8693V26.8345C104.352 26.4003 104.229 26.0639 103.984 25.8253C103.742 25.5866 103.381 25.4673 102.9 25.4673C102.4 25.4673 102.006 25.5784 101.717 25.8004C101.432 26.0192 101.235 26.2628 101.126 26.5313L99.7285 26.2131C99.8942 25.7491 100.136 25.3745 100.454 25.0895C100.776 24.8011 101.145 24.5923 101.563 24.4631C101.981 24.3305 102.42 24.2642 102.881 24.2642C103.185 24.2642 103.509 24.3007 103.85 24.3736C104.195 24.4432 104.516 24.5724 104.814 24.7614C105.116 24.9503 105.363 25.2204 105.555 25.5717C105.747 25.9197 105.844 26.3722 105.844 26.929V32H104.392V30.956H104.332C104.236 31.1482 104.092 31.3371 103.9 31.5227C103.707 31.7083 103.461 31.8625 103.159 31.9851C102.857 32.1077 102.496 32.169 102.075 32.169ZM102.398 30.9759C102.809 30.9759 103.161 30.8946 103.452 30.7322C103.747 30.5698 103.971 30.3577 104.123 30.0959C104.279 29.8307 104.357 29.5473 104.357 29.2457V28.2614C104.304 28.3144 104.201 28.3641 104.049 28.4105C103.9 28.4536 103.729 28.4917 103.537 28.5249C103.345 28.5547 103.157 28.5829 102.975 28.6094C102.793 28.6326 102.64 28.6525 102.518 28.669C102.229 28.7055 101.966 28.7668 101.727 28.853C101.492 28.9392 101.303 29.0634 101.16 29.2259C101.021 29.3849 100.952 29.5971 100.952 29.8622C100.952 30.2301 101.087 30.5085 101.359 30.6974C101.631 30.883 101.977 30.9759 102.398 30.9759ZM110.682 32.1491C110.066 32.1491 109.516 31.9917 109.032 31.6768C108.551 31.3587 108.173 30.9062 107.898 30.3196C107.626 29.7296 107.49 29.022 107.49 28.1967C107.49 27.3714 107.628 26.6655 107.903 26.0788C108.181 25.4922 108.563 25.0431 109.047 24.7315C109.53 24.42 110.079 24.2642 110.692 24.2642C111.166 24.2642 111.547 24.3438 111.836 24.5028C112.127 24.6586 112.353 24.8409 112.512 25.0497C112.674 25.2585 112.8 25.4425 112.89 25.6016H112.979V21.8182H114.466V32H113.014V30.8118H112.89C112.8 30.9742 112.671 31.1598 112.502 31.3686C112.336 31.5774 112.107 31.7597 111.816 31.9155C111.524 32.0713 111.146 32.1491 110.682 32.1491ZM111.01 30.8814C111.438 30.8814 111.799 30.7687 112.094 30.5433C112.392 30.3146 112.618 29.9981 112.77 29.5938C112.926 29.1894 113.004 28.7187 113.004 28.1818C113.004 27.6515 112.928 27.1875 112.775 26.7898C112.623 26.392 112.399 26.0821 112.104 25.8601C111.809 25.638 111.444 25.527 111.01 25.527C110.563 25.527 110.19 25.643 109.892 25.875C109.593 26.107 109.368 26.4235 109.216 26.8246C109.066 27.2256 108.992 27.678 108.992 28.1818C108.992 28.6922 109.068 29.1513 109.221 29.5589C109.373 29.9666 109.598 30.2898 109.897 30.5284C110.198 30.7637 110.569 30.8814 111.01 30.8814ZM119.446 32.1491C118.829 32.1491 118.279 31.9917 117.795 31.6768C117.315 31.3587 116.937 30.9062 116.662 30.3196C116.39 29.7296 116.254 29.022 116.254 28.1967C116.254 27.3714 116.392 26.6655 116.667 26.0788C116.945 25.4922 117.326 25.0431 117.81 24.7315C118.294 24.42 118.843 24.2642 119.456 24.2642C119.93 24.2642 120.311 24.3438 120.599 24.5028C120.891 24.6586 121.116 24.8409 121.275 25.0497C121.438 25.2585 121.564 25.4425 121.653 25.6016H121.743V21.8182H123.229V32H121.778V30.8118H121.653C121.564 30.9742 121.434 31.1598 121.265 31.3686C121.1 31.5774 120.871 31.7597 120.579 31.9155C120.288 32.0713 119.91 32.1491 119.446 32.1491ZM119.774 30.8814C120.202 30.8814 120.563 30.7687 120.858 30.5433C121.156 30.3146 121.381 29.9981 121.534 29.5938C121.69 29.1894 121.768 28.7187 121.768 28.1818C121.768 27.6515 121.691 27.1875 121.539 26.7898C121.386 26.392 121.163 26.0821 120.868 25.8601C120.573 25.638 120.208 25.527 119.774 25.527C119.327 25.527 118.954 25.643 118.655 25.875C118.357 26.107 118.132 26.4235 117.979 26.8246C117.83 27.2256 117.756 27.678 117.756 28.1818C117.756 28.6922 117.832 29.1513 117.984 29.5589C118.137 29.9666 118.362 30.2898 118.66 30.5284C118.962 30.7637 119.333 30.8814 119.774 30.8814ZM128.642 32.1541C127.89 32.1541 127.242 31.9934 126.698 31.6719C126.158 31.3471 125.74 30.8913 125.445 30.3047C125.154 29.7147 125.008 29.0237 125.008 28.2315C125.008 27.4493 125.154 26.7599 125.445 26.1634C125.74 25.5668 126.151 25.1011 126.678 24.7663C127.209 24.4316 127.828 24.2642 128.538 24.2642C128.969 24.2642 129.386 24.3355 129.79 24.478C130.195 24.6205 130.558 24.8442 130.879 25.1491C131.201 25.4541 131.454 25.8501 131.64 26.3374C131.826 26.8213 131.918 27.4096 131.918 28.1023V28.6293H125.848V27.5156H130.462C130.462 27.1245 130.382 26.7782 130.223 26.4766C130.064 26.1716 129.84 25.9313 129.552 25.7557C129.267 25.58 128.932 25.4922 128.548 25.4922C128.13 25.4922 127.765 25.5949 127.454 25.8004C127.146 26.0026 126.907 26.2678 126.738 26.5959C126.572 26.9207 126.489 27.2737 126.489 27.6548V28.5249C126.489 29.0353 126.579 29.4695 126.758 29.8274C126.94 30.1854 127.194 30.4588 127.518 30.6477C127.843 30.8333 128.223 30.9261 128.657 30.9261C128.939 30.9261 129.196 30.8864 129.428 30.8068C129.66 30.724 129.86 30.6013 130.029 30.4389C130.198 30.2765 130.327 30.076 130.417 29.8374L131.824 30.0909C131.711 30.5052 131.509 30.8681 131.217 31.1797C130.929 31.4879 130.566 31.7282 130.129 31.9006C129.694 32.0696 129.199 32.1541 128.642 32.1541ZM136.426 32.1491C135.81 32.1491 135.26 31.9917 134.776 31.6768C134.295 31.3587 133.917 30.9062 133.642 30.3196C133.37 29.7296 133.235 29.022 133.235 28.1967C133.235 27.3714 133.372 26.6655 133.647 26.0788C133.926 25.4922 134.307 25.0431 134.791 24.7315C135.275 24.42 135.823 24.2642 136.436 24.2642C136.91 24.2642 137.291 24.3438 137.58 24.5028C137.871 24.6586 138.097 24.8409 138.256 25.0497C138.418 25.2585 138.544 25.4425 138.634 25.6016H138.723V21.8182H140.21V32H138.758V30.8118H138.634C138.544 30.9742 138.415 31.1598 138.246 31.3686C138.08 31.5774 137.852 31.7597 137.56 31.9155C137.268 32.0713 136.89 32.1491 136.426 32.1491ZM136.754 30.8814C137.182 30.8814 137.543 30.7687 137.838 30.5433C138.137 30.3146 138.362 29.9981 138.514 29.5938C138.67 29.1894 138.748 28.7187 138.748 28.1818C138.748 27.6515 138.672 27.1875 138.519 26.7898C138.367 26.392 138.143 26.0821 137.848 25.8601C137.553 25.638 137.189 25.527 136.754 25.527C136.307 25.527 135.934 25.643 135.636 25.875C135.338 26.107 135.112 26.4235 134.96 26.8246C134.811 27.2256 134.736 27.678 134.736 28.1818C134.736 28.6922 134.812 29.1513 134.965 29.5589C135.117 29.9666 135.343 30.2898 135.641 30.5284C135.942 30.7637 136.314 30.8814 136.754 30.8814ZM149.601 24.3636V25.5568H145.43V24.3636H149.601ZM146.548 22.5341H148.035V29.7578C148.035 30.0462 148.078 30.2633 148.164 30.4091C148.25 30.5516 148.361 30.6494 148.497 30.7024C148.637 30.7521 148.787 30.777 148.95 30.777C149.069 30.777 149.173 30.7687 149.263 30.7521C149.352 30.7356 149.422 30.7223 149.472 30.7124L149.74 31.9403C149.654 31.9735 149.531 32.0066 149.372 32.0398C149.213 32.0762 149.014 32.0961 148.776 32.0994C148.385 32.1061 148.02 32.0365 147.682 31.8906C147.344 31.7448 147.07 31.5194 146.862 31.2145C146.653 30.9096 146.548 30.5268 146.548 30.0661V22.5341ZM152.896 27.4659V32H151.409V21.8182H152.876V25.6065H152.971C153.15 25.1955 153.423 24.8691 153.791 24.6271C154.159 24.3852 154.639 24.2642 155.233 24.2642C155.756 24.2642 156.214 24.3719 156.605 24.5874C156.999 24.8028 157.304 25.1243 157.52 25.5518C157.738 25.9761 157.848 26.5064 157.848 27.1428V32H156.361V27.3217C156.361 26.7616 156.217 26.3274 155.929 26.0192C155.64 25.7076 155.239 25.5518 154.725 25.5518C154.374 25.5518 154.059 25.6264 153.781 25.7756C153.506 25.9247 153.289 26.1435 153.13 26.4318C152.974 26.7169 152.896 27.0616 152.896 27.4659ZM159.831 32V24.3636H161.318V32H159.831ZM160.582 23.1854C160.324 23.1854 160.101 23.0992 159.916 22.9268C159.734 22.7512 159.642 22.5424 159.642 22.3004C159.642 22.0552 159.734 21.8464 159.916 21.674C160.101 21.4983 160.324 21.4105 160.582 21.4105C160.841 21.4105 161.061 21.4983 161.243 21.674C161.429 21.8464 161.522 22.0552 161.522 22.3004C161.522 22.5424 161.429 22.7512 161.243 22.9268C161.061 23.0992 160.841 23.1854 160.582 23.1854ZM169.04 26.228L167.693 26.4666C167.636 26.2943 167.547 26.1302 167.424 25.9744C167.305 25.8187 167.142 25.6911 166.937 25.5916C166.731 25.4922 166.475 25.4425 166.166 25.4425C165.745 25.4425 165.394 25.5369 165.112 25.7259C164.831 25.9115 164.69 26.1518 164.69 26.4467C164.69 26.7019 164.784 26.9074 164.973 27.0632C165.162 27.219 165.467 27.3466 165.888 27.446L167.101 27.7244C167.804 27.8868 168.327 28.1371 168.672 28.4751C169.017 28.8132 169.189 29.2524 169.189 29.7926C169.189 30.25 169.057 30.6577 168.791 31.0156C168.53 31.3703 168.163 31.6487 167.693 31.8509C167.225 32.053 166.683 32.1541 166.067 32.1541C165.212 32.1541 164.514 31.9718 163.974 31.6072C163.434 31.2393 163.102 30.7173 162.98 30.0412L164.416 29.8224C164.506 30.197 164.69 30.4804 164.968 30.6726C165.247 30.8615 165.61 30.956 166.057 30.956C166.544 30.956 166.934 30.8549 167.225 30.6527C167.517 30.4472 167.663 30.197 167.663 29.902C167.663 29.6634 167.573 29.4628 167.394 29.3004C167.219 29.138 166.949 29.0154 166.584 28.9325L165.291 28.6491C164.579 28.4867 164.052 28.2282 163.71 27.8736C163.372 27.5189 163.203 27.0698 163.203 26.5263C163.203 26.0755 163.329 25.6811 163.581 25.343C163.833 25.005 164.181 24.7415 164.625 24.5526C165.069 24.3603 165.578 24.2642 166.151 24.2642C166.977 24.2642 167.626 24.4432 168.1 24.8011C168.574 25.1558 168.887 25.6314 169.04 26.228ZM174.529 32V24.3636H175.955V25.6065H176.05C176.209 25.1856 176.469 24.8575 176.83 24.6222C177.192 24.3835 177.624 24.2642 178.128 24.2642C178.638 24.2642 179.066 24.3835 179.411 24.6222C179.759 24.8608 180.016 25.1889 180.181 25.6065H180.261C180.443 25.1989 180.733 24.8741 181.131 24.6321C181.529 24.3868 182.003 24.2642 182.553 24.2642C183.245 24.2642 183.811 24.4813 184.248 24.9155C184.689 25.3497 184.909 26.0043 184.909 26.8793V32H183.423V27.0185C183.423 26.5014 183.282 26.1269 183 25.8949C182.718 25.6629 182.382 25.5469 181.991 25.5469C181.507 25.5469 181.131 25.696 180.862 25.9943C180.594 26.2893 180.46 26.6688 180.46 27.1328V32H178.978V26.924C178.978 26.5097 178.849 26.1766 178.59 25.9247C178.332 25.6728 177.995 25.5469 177.581 25.5469C177.299 25.5469 177.039 25.6214 176.801 25.7706C176.565 25.9164 176.375 26.1203 176.229 26.3821C176.086 26.6439 176.015 26.9472 176.015 27.2919V32H174.529ZM190.118 32.1541C189.402 32.1541 188.778 31.9901 188.244 31.6619C187.71 31.3338 187.296 30.8748 187.001 30.2848C186.706 29.6948 186.559 29.0054 186.559 28.2166C186.559 27.4245 186.706 26.7318 187.001 26.1385C187.296 25.5452 187.71 25.0845 188.244 24.7564C188.778 24.4283 189.402 24.2642 190.118 24.2642C190.834 24.2642 191.459 24.4283 191.993 24.7564C192.526 25.0845 192.94 25.5452 193.235 26.1385C193.53 26.7318 193.678 27.4245 193.678 28.2166C193.678 29.0054 193.53 29.6948 193.235 30.2848C192.94 30.8748 192.526 31.3338 191.993 31.6619C191.459 31.9901 190.834 32.1541 190.118 32.1541ZM190.123 30.9062C190.587 30.9062 190.972 30.7836 191.277 30.5384C191.582 30.2931 191.807 29.9666 191.953 29.5589C192.102 29.1513 192.176 28.7022 192.176 28.2116C192.176 27.7244 192.102 27.277 191.953 26.8693C191.807 26.4583 191.582 26.1286 191.277 25.88C190.972 25.6314 190.587 25.5071 190.123 25.5071C189.656 25.5071 189.268 25.6314 188.96 25.88C188.655 26.1286 188.428 26.4583 188.279 26.8693C188.133 27.277 188.06 27.7244 188.06 28.2116C188.06 28.7022 188.133 29.1513 188.279 29.5589C188.428 29.9666 188.655 30.2931 188.96 30.5384C189.268 30.7836 189.656 30.9062 190.123 30.9062ZM196.824 27.4659V32H195.337V24.3636H196.764V25.6065H196.858C197.034 25.2022 197.309 24.8774 197.684 24.6321C198.062 24.3868 198.537 24.2642 199.111 24.2642C199.631 24.2642 200.087 24.3736 200.478 24.5923C200.869 24.8078 201.172 25.1293 201.388 25.5568C201.603 25.9844 201.711 26.513 201.711 27.1428V32H200.224V27.3217C200.224 26.7682 200.08 26.3357 199.792 26.0241C199.503 25.7093 199.107 25.5518 198.604 25.5518C198.259 25.5518 197.952 25.6264 197.684 25.7756C197.419 25.9247 197.208 26.1435 197.052 26.4318C196.9 26.7169 196.824 27.0616 196.824 27.4659ZM207.269 24.3636V25.5568H203.098V24.3636H207.269ZM204.216 22.5341H205.703V29.7578C205.703 30.0462 205.746 30.2633 205.832 30.4091C205.918 30.5516 206.029 30.6494 206.165 30.7024C206.305 30.7521 206.455 30.777 206.618 30.777C206.737 30.777 206.841 30.7687 206.931 30.7521C207.02 30.7356 207.09 30.7223 207.14 30.7124L207.408 31.9403C207.322 31.9735 207.199 32.0066 207.04 32.0398C206.881 32.0762 206.682 32.0961 206.444 32.0994C206.053 32.1061 205.688 32.0365 205.35 31.8906C205.012 31.7448 204.738 31.5194 204.53 31.2145C204.321 30.9096 204.216 30.5268 204.216 30.0661V22.5341ZM210.564 27.4659V32H209.077V21.8182H210.544V25.6065H210.638C210.817 25.1955 211.091 24.8691 211.459 24.6271C211.827 24.3852 212.307 24.2642 212.901 24.2642C213.424 24.2642 213.882 24.3719 214.273 24.5874C214.667 24.8028 214.972 25.1243 215.188 25.5518C215.406 25.9761 215.516 26.5064 215.516 27.1428V32H214.029V27.3217C214.029 26.7616 213.885 26.3274 213.597 26.0192C213.308 25.7076 212.907 25.5518 212.393 25.5518C212.042 25.5518 211.727 25.6264 211.449 25.7756C211.174 25.9247 210.957 26.1435 210.798 26.4318C210.642 26.7169 210.564 27.0616 210.564 27.4659Z" fill="white"/>
</g>
<defs>
<clipPath id="bgblur_0_32_17291_clip_path" transform="translate(38 38)"><rect width="241" height="53" rx="26.5"/>
</clipPath></defs>
</svg>
