<svg width="272" height="53" viewBox="0 0 272 53" fill="none" xmlns="http://www.w3.org/2000/svg">
<foreignObject x="-38" y="-38" width="348" height="129"><div xmlns="http://www.w3.org/1999/xhtml" style="backdrop-filter:blur(19px);clip-path:url(#bgblur_0_32_17288_clip_path);height:100%;width:100%"></div></foreignObject><g data-figma-bg-blur-radius="38">
<rect width="272" height="53" rx="26.5" fill="white" fill-opacity="0.25"/>
<path d="M28.3651 21.679C28.8191 21.6823 29.2666 21.7652 29.7074 21.9276C30.1482 22.09 30.5459 22.3551 30.9006 22.723C31.2585 23.0909 31.5436 23.5881 31.7557 24.2145C31.9711 24.8376 32.0805 25.6132 32.0838 26.5412C32.0838 27.4328 31.9943 28.2266 31.8153 28.9226C31.6364 29.6153 31.3795 30.2003 31.0447 30.6776C30.7133 31.1548 30.3106 31.5178 29.8366 31.7663C29.3627 32.0149 28.8291 32.1392 28.2358 32.1392C27.6293 32.1392 27.0907 32.0199 26.62 31.7813C26.1494 31.5426 25.7666 31.2128 25.4716 30.7919C25.1766 30.3677 24.9927 29.8804 24.9197 29.3303H26.4361C26.5355 29.7678 26.7377 30.1224 27.0426 30.3942C27.3509 30.6626 27.7486 30.7969 28.2358 30.7969C28.9815 30.7969 29.5632 30.4721 29.9808 29.8224C30.3984 29.1695 30.6089 28.258 30.6122 27.0881H30.5327C30.3603 27.3731 30.1449 27.6184 29.8864 27.8239C29.6312 28.0294 29.3445 28.1884 29.0263 28.3011C28.7081 28.4138 28.3684 28.4702 28.0071 28.4702C27.4205 28.4702 26.8868 28.326 26.4062 28.0376C25.9257 27.7493 25.5429 27.3532 25.2578 26.8494C24.9728 26.3456 24.8303 25.7706 24.8303 25.1243C24.8303 24.4813 24.9761 23.898 25.2678 23.3743C25.5627 22.8506 25.9737 22.4363 26.5007 22.1314C27.031 21.8232 27.6525 21.6723 28.3651 21.679ZM28.37 22.9716C27.9822 22.9716 27.6326 23.0677 27.321 23.2599C27.0128 23.4489 26.7692 23.7057 26.5902 24.0305C26.4112 24.352 26.3217 24.71 26.3217 25.1044C26.3217 25.4988 26.4079 25.8568 26.5803 26.1783C26.7559 26.4964 26.9946 26.75 27.2962 26.9389C27.6011 27.1245 27.9491 27.2173 28.3402 27.2173C28.6319 27.2173 28.9036 27.161 29.1555 27.0483C29.4074 26.9356 29.6278 26.7798 29.8168 26.581C30.0057 26.3788 30.1532 26.1501 30.2592 25.8949C30.3653 25.6397 30.4183 25.3712 30.4183 25.0895C30.4183 24.715 30.3288 24.367 30.1499 24.0455C29.9742 23.724 29.7322 23.4654 29.424 23.2699C29.1158 23.071 28.7644 22.9716 28.37 22.9716ZM37.4245 32.169C36.639 32.1657 35.9679 31.9586 35.411 31.5476C34.8542 31.1366 34.4283 30.5384 34.1333 29.7528C33.8384 28.9673 33.6909 28.0211 33.6909 26.9141C33.6909 25.8104 33.8384 24.8674 34.1333 24.0852C34.4316 23.303 34.8592 22.7064 35.416 22.2955C35.9761 21.8845 36.6457 21.679 37.4245 21.679C38.2034 21.679 38.8713 21.8861 39.4281 22.3004C39.9849 22.7114 40.4108 23.308 40.7058 24.0902C41.0041 24.8691 41.1532 25.8104 41.1532 26.9141C41.1532 28.0244 41.0057 28.9723 40.7108 29.7578C40.4158 30.54 39.9899 31.1383 39.4331 31.5526C38.8762 31.9635 38.2067 32.169 37.4245 32.169ZM37.4245 30.8416C38.1139 30.8416 38.6525 30.5052 39.0403 29.8324C39.4314 29.1596 39.627 28.1868 39.627 26.9141C39.627 26.0689 39.5375 25.3546 39.3585 24.7713C39.1828 24.1847 38.9293 23.7405 38.5978 23.4389C38.2697 23.134 37.8786 22.9815 37.4245 22.9815C36.7385 22.9815 36.1999 23.3196 35.8088 23.9957C35.4177 24.6719 35.2205 25.6446 35.2172 26.9141C35.2172 27.7625 35.305 28.4801 35.4806 29.0668C35.6596 29.6501 35.9132 30.0926 36.2413 30.3942C36.5694 30.6925 36.9638 30.8416 37.4245 30.8416ZM46.4616 32.169C45.6761 32.1657 45.005 31.9586 44.4482 31.5476C43.8913 31.1366 43.4654 30.5384 43.1705 29.7528C42.8755 28.9673 42.728 28.0211 42.728 26.9141C42.728 25.8104 42.8755 24.8674 43.1705 24.0852C43.4688 23.303 43.8963 22.7064 44.4531 22.2955C45.0133 21.8845 45.6828 21.679 46.4616 21.679C47.2405 21.679 47.9084 21.8861 48.4652 22.3004C49.022 22.7114 49.4479 23.308 49.7429 24.0902C50.0412 24.8691 50.1903 25.8104 50.1903 26.9141C50.1903 28.0244 50.0429 28.9723 49.7479 29.7578C49.4529 30.54 49.027 31.1383 48.4702 31.5526C47.9134 31.9635 47.2438 32.169 46.4616 32.169ZM46.4616 30.8416C47.151 30.8416 47.6896 30.5052 48.0774 29.8324C48.4685 29.1596 48.6641 28.1868 48.6641 26.9141C48.6641 26.0689 48.5746 25.3546 48.3956 24.7713C48.2199 24.1847 47.9664 23.7405 47.6349 23.4389C47.3068 23.134 46.9157 22.9815 46.4616 22.9815C45.7756 22.9815 45.237 23.3196 44.8459 23.9957C44.4548 24.6719 44.2576 25.6446 44.2543 26.9141C44.2543 27.7625 44.3421 28.4801 44.5178 29.0668C44.6967 29.6501 44.9503 30.0926 45.2784 30.3942C45.6065 30.6925 46.0009 30.8416 46.4616 30.8416ZM54.9668 30.2898V23.5682H56.3042V30.2898H54.9668ZM52.2772 27.5952V26.2628H58.9988V27.5952H52.2772ZM65.0032 32V24.3636H66.4897V32H65.0032ZM65.7539 23.1854C65.4954 23.1854 65.2733 23.0992 65.0877 22.9268C64.9054 22.7512 64.8143 22.5424 64.8143 22.3004C64.8143 22.0552 64.9054 21.8464 65.0877 21.674C65.2733 21.4983 65.4954 21.4105 65.7539 21.4105C66.0124 21.4105 66.2328 21.4983 66.4151 21.674C66.6007 21.8464 66.6935 22.0552 66.6935 22.3004C66.6935 22.5424 66.6007 22.7512 66.4151 22.9268C66.2328 23.0992 66.0124 23.1854 65.7539 23.1854ZM69.976 27.4659V32H68.4895V24.3636H69.9164V25.6065H70.0108C70.1865 25.2022 70.4616 24.8774 70.8361 24.6321C71.214 24.3868 71.6896 24.2642 72.263 24.2642C72.7833 24.2642 73.2391 24.3736 73.6301 24.5923C74.0212 24.8078 74.3245 25.1293 74.54 25.5568C74.7554 25.9844 74.8631 26.513 74.8631 27.1428V32H73.3766V27.3217C73.3766 26.7682 73.2324 26.3357 72.9441 26.0241C72.6557 25.7093 72.2596 25.5518 71.7559 25.5518C71.4112 25.5518 71.1046 25.6264 70.8361 25.7756C70.571 25.9247 70.3605 26.1435 70.2047 26.4318C70.0523 26.7169 69.976 27.0616 69.976 27.4659ZM82.579 26.228L81.2317 26.4666C81.1754 26.2943 81.0859 26.1302 80.9632 25.9744C80.8439 25.8187 80.6815 25.6911 80.476 25.5916C80.2705 25.4922 80.0137 25.4425 79.7054 25.4425C79.2845 25.4425 78.9332 25.5369 78.6515 25.7259C78.3697 25.9115 78.2289 26.1518 78.2289 26.4467C78.2289 26.7019 78.3233 26.9074 78.5123 27.0632C78.7012 27.219 79.0061 27.3466 79.427 27.446L80.6401 27.7244C81.3427 27.8868 81.8664 28.1371 82.2111 28.4751C82.5558 28.8132 82.7282 29.2524 82.7282 29.7926C82.7282 30.25 82.5956 30.6577 82.3304 31.0156C82.0686 31.3703 81.7024 31.6487 81.2317 31.8509C80.7644 32.053 80.2225 32.1541 79.606 32.1541C78.7509 32.1541 78.0532 31.9718 77.513 31.6072C76.9727 31.2393 76.6413 30.7173 76.5186 30.0412L77.9554 29.8224C78.0449 30.197 78.2289 30.4804 78.5073 30.6726C78.7857 30.8615 79.1486 30.956 79.5961 30.956C80.0833 30.956 80.4727 30.8549 80.7644 30.6527C81.056 30.4472 81.2019 30.197 81.2019 29.902C81.2019 29.6634 81.1124 29.4628 80.9334 29.3004C80.7578 29.138 80.4876 29.0154 80.123 28.9325L78.8304 28.6491C78.1178 28.4867 77.5908 28.2282 77.2495 27.8736C76.9114 27.5189 76.7424 27.0698 76.7424 26.5263C76.7424 26.0755 76.8683 25.6811 77.1202 25.343C77.3721 25.005 77.7201 24.7415 78.1642 24.5526C78.6084 24.3603 79.1171 24.2642 79.6905 24.2642C80.5158 24.2642 81.1654 24.4432 81.6394 24.8011C82.1133 25.1558 82.4266 25.6314 82.579 26.228ZM87.9272 24.3636V25.5568H83.756V24.3636H87.9272ZM84.8746 22.5341H86.3612V29.7578C86.3612 30.0462 86.4042 30.2633 86.4904 30.4091C86.5766 30.5516 86.6876 30.6494 86.8235 30.7024C86.9627 30.7521 87.1135 30.777 87.2759 30.777C87.3952 30.777 87.4996 30.7687 87.5891 30.7521C87.6786 30.7356 87.7482 30.7223 87.7979 30.7124L88.0664 31.9403C87.9802 31.9735 87.8576 32.0066 87.6985 32.0398C87.5394 32.0762 87.3406 32.0961 87.1019 32.0994C86.7108 32.1061 86.3462 32.0365 86.0082 31.8906C85.6701 31.7448 85.3967 31.5194 85.1879 31.2145C84.979 30.9096 84.8746 30.5268 84.8746 30.0661V22.5341ZM89.5716 32V24.3636H91.0083V25.5767H91.0879C91.2271 25.1657 91.4724 24.8426 91.8237 24.6072C92.1783 24.3686 92.5794 24.2493 93.0268 24.2493C93.1196 24.2493 93.229 24.2526 93.3549 24.2592C93.4842 24.2659 93.5853 24.2741 93.6582 24.2841V25.706C93.5985 25.6894 93.4925 25.6712 93.34 25.6513C93.1876 25.6281 93.0351 25.6165 92.8826 25.6165C92.5313 25.6165 92.2181 25.6911 91.943 25.8402C91.6712 25.986 91.4558 26.1899 91.2967 26.4517C91.1376 26.7102 91.0581 27.0052 91.0581 27.3366V32H89.5716ZM99.782 28.8331V24.3636H101.273V32H99.8118V30.6776H99.7322C99.5566 31.0852 99.2749 31.425 98.8871 31.6967C98.5026 31.9652 98.0237 32.0994 97.4503 32.0994C96.9598 32.0994 96.5256 31.9917 96.1477 31.7763C95.7732 31.5575 95.4782 31.2344 95.2628 30.8068C95.0507 30.3793 94.9446 29.8506 94.9446 29.2209V24.3636H96.4311V29.0419C96.4311 29.5623 96.5753 29.9766 96.8636 30.2848C97.152 30.593 97.5265 30.7472 97.9872 30.7472C98.2656 30.7472 98.5424 30.6776 98.8175 30.5384C99.0959 30.3991 99.3262 30.1887 99.5085 29.907C99.6941 29.6252 99.7853 29.2673 99.782 28.8331ZM106.487 32.1541C105.748 32.1541 105.112 31.9867 104.578 31.652C104.048 31.3139 103.64 30.8482 103.355 30.255C103.07 29.6617 102.928 28.9822 102.928 28.2166C102.928 27.4411 103.074 26.7566 103.365 26.1634C103.657 25.5668 104.068 25.1011 104.598 24.7663C105.128 24.4316 105.753 24.2642 106.472 24.2642C107.052 24.2642 107.57 24.3719 108.024 24.5874C108.478 24.7995 108.844 25.0978 109.122 25.4822C109.404 25.8667 109.571 26.3158 109.624 26.8295H108.178C108.098 26.4716 107.916 26.1634 107.631 25.9048C107.349 25.6463 106.971 25.517 106.497 25.517C106.083 25.517 105.72 25.6264 105.409 25.8452C105.1 26.0606 104.86 26.3688 104.688 26.7699C104.515 27.1676 104.429 27.6383 104.429 28.1818C104.429 28.7386 104.514 29.2192 104.683 29.6236C104.852 30.0279 105.09 30.3411 105.399 30.5632C105.71 30.7853 106.076 30.8963 106.497 30.8963C106.779 30.8963 107.034 30.8449 107.263 30.7422C107.495 30.6361 107.689 30.4853 107.845 30.2898C108.004 30.0942 108.115 29.8589 108.178 29.5838H109.624C109.571 30.0777 109.411 30.5185 109.142 30.9063C108.874 31.294 108.514 31.599 108.063 31.821C107.616 32.0431 107.091 32.1541 106.487 32.1541ZM114.779 24.3636V25.5568H110.608V24.3636H114.779ZM111.726 22.5341H113.213V29.7578C113.213 30.0462 113.256 30.2633 113.342 30.4091C113.428 30.5516 113.539 30.6494 113.675 30.7024C113.814 30.7521 113.965 30.777 114.127 30.777C114.247 30.777 114.351 30.7687 114.441 30.7521C114.53 30.7356 114.6 30.7223 114.65 30.7124L114.918 31.9403C114.832 31.9735 114.709 32.0066 114.55 32.0398C114.391 32.0762 114.192 32.0961 113.953 32.0994C113.562 32.1061 113.198 32.0365 112.86 31.8906C112.522 31.7448 112.248 31.5194 112.039 31.2145C111.831 30.9096 111.726 30.5268 111.726 30.0661V22.5341ZM119.558 32.1541C118.842 32.1541 118.217 31.9901 117.683 31.6619C117.15 31.3338 116.735 30.8748 116.441 30.2848C116.146 29.6948 115.998 29.0054 115.998 28.2166C115.998 27.4245 116.146 26.7318 116.441 26.1385C116.735 25.5452 117.15 25.0845 117.683 24.7564C118.217 24.4283 118.842 24.2642 119.558 24.2642C120.274 24.2642 120.898 24.4283 121.432 24.7564C121.966 25.0845 122.38 25.5452 122.675 26.1385C122.97 26.7318 123.117 27.4245 123.117 28.2166C123.117 29.0054 122.97 29.6948 122.675 30.2848C122.38 30.8748 121.966 31.3338 121.432 31.6619C120.898 31.9901 120.274 32.1541 119.558 32.1541ZM119.563 30.9063C120.027 30.9063 120.411 30.7836 120.716 30.5384C121.021 30.2931 121.246 29.9666 121.392 29.5589C121.541 29.1513 121.616 28.7022 121.616 28.2116C121.616 27.7244 121.541 27.277 121.392 26.8693C121.246 26.4583 121.021 26.1286 120.716 25.88C120.411 25.6314 120.027 25.5071 119.563 25.5071C119.095 25.5071 118.708 25.6314 118.399 25.88C118.094 26.1286 117.867 26.4583 117.718 26.8693C117.572 27.277 117.499 27.7244 117.499 28.2116C117.499 28.7022 117.572 29.1513 117.718 29.5589C117.867 29.9666 118.094 30.2931 118.399 30.5384C118.708 30.7836 119.095 30.9063 119.563 30.9063ZM124.777 32V24.3636H126.213V25.5767H126.293C126.432 25.1657 126.677 24.8426 127.029 24.6072C127.383 24.3686 127.784 24.2493 128.232 24.2493C128.325 24.2493 128.434 24.2526 128.56 24.2592C128.689 24.2659 128.79 24.2741 128.863 24.2841V25.706C128.804 25.6894 128.698 25.6712 128.545 25.6513C128.393 25.6281 128.24 25.6165 128.088 25.6165C127.736 25.6165 127.423 25.6911 127.148 25.8402C126.876 25.986 126.661 26.1899 126.502 26.4517C126.343 26.7102 126.263 27.0052 126.263 27.3366V32H124.777ZM135.872 26.228L134.525 26.4666C134.468 26.2943 134.379 26.1302 134.256 25.9744C134.137 25.8187 133.974 25.6911 133.769 25.5916C133.564 25.4922 133.307 25.4425 132.998 25.4425C132.577 25.4425 132.226 25.5369 131.944 25.7259C131.663 25.9115 131.522 26.1518 131.522 26.4467C131.522 26.7019 131.616 26.9074 131.805 27.0632C131.994 27.219 132.299 27.3466 132.72 27.446L133.933 27.7244C134.636 27.8868 135.159 28.1371 135.504 28.4751C135.849 28.8132 136.021 29.2524 136.021 29.7926C136.021 30.25 135.889 30.6577 135.623 31.0156C135.362 31.3703 134.995 31.6487 134.525 31.8509C134.057 32.053 133.515 32.1541 132.899 32.1541C132.044 32.1541 131.346 31.9718 130.806 31.6072C130.266 31.2393 129.934 30.7173 129.812 30.0412L131.248 29.8224C131.338 30.197 131.522 30.4804 131.8 30.6726C132.079 30.8615 132.442 30.956 132.889 30.956C133.376 30.956 133.766 30.8549 134.057 30.6527C134.349 30.4472 134.495 30.197 134.495 29.902C134.495 29.6634 134.405 29.4628 134.226 29.3004C134.051 29.138 133.781 29.0154 133.416 28.9325L132.123 28.6491C131.411 28.4867 130.884 28.2282 130.542 27.8736C130.204 27.5189 130.035 27.0698 130.035 26.5263C130.035 26.0755 130.161 25.6811 130.413 25.343C130.665 25.005 131.013 24.7415 131.457 24.5526C131.901 24.3603 132.41 24.2642 132.983 24.2642C133.809 24.2642 134.458 24.4432 134.932 24.8011C135.406 25.1558 135.72 25.6314 135.872 26.228ZM147.083 26.228L145.736 26.4666C145.679 26.2943 145.59 26.1302 145.467 25.9744C145.348 25.8187 145.185 25.6911 144.98 25.5916C144.774 25.4922 144.518 25.4425 144.209 25.4425C143.788 25.4425 143.437 25.5369 143.155 25.7259C142.874 25.9115 142.733 26.1518 142.733 26.4467C142.733 26.7019 142.827 26.9074 143.016 27.0632C143.205 27.219 143.51 27.3466 143.931 27.446L145.144 27.7244C145.847 27.8868 146.37 28.1371 146.715 28.4751C147.06 28.8132 147.232 29.2524 147.232 29.7926C147.232 30.25 147.099 30.6577 146.834 31.0156C146.573 31.3703 146.206 31.6487 145.736 31.8509C145.268 32.053 144.726 32.1541 144.11 32.1541C143.255 32.1541 142.557 31.9718 142.017 31.6072C141.477 31.2393 141.145 30.7173 141.023 30.0412L142.459 29.8224C142.549 30.197 142.733 30.4804 143.011 30.6726C143.29 30.8615 143.653 30.956 144.1 30.956C144.587 30.956 144.977 30.8549 145.268 30.6527C145.56 30.4472 145.706 30.197 145.706 29.902C145.706 29.6634 145.616 29.4628 145.437 29.3004C145.262 29.138 144.992 29.0154 144.627 28.9325L143.334 28.6491C142.622 28.4867 142.095 28.2282 141.753 27.8736C141.415 27.5189 141.246 27.0698 141.246 26.5263C141.246 26.0755 141.372 25.6811 141.624 25.343C141.876 25.005 142.224 24.7415 142.668 24.5526C143.112 24.3603 143.621 24.2642 144.194 24.2642C145.02 24.2642 145.669 24.4432 146.143 24.8011C146.617 25.1558 146.93 25.6314 147.083 26.228ZM150.353 27.4659V32H148.866V21.8182H150.333V25.6065H150.428C150.607 25.1955 150.88 24.8691 151.248 24.6271C151.616 24.3852 152.096 24.2642 152.69 24.2642C153.213 24.2642 153.671 24.3719 154.062 24.5874C154.456 24.8028 154.761 25.1243 154.977 25.5518C155.195 25.9761 155.305 26.5064 155.305 27.1428V32H153.818V27.3217C153.818 26.7616 153.674 26.3274 153.386 26.0192C153.097 25.7076 152.696 25.5518 152.183 25.5518C151.831 25.5518 151.516 25.6264 151.238 25.7756C150.963 25.9247 150.746 26.1435 150.587 26.4318C150.431 26.7169 150.353 27.0616 150.353 27.4659ZM159.511 32.169C159.027 32.169 158.589 32.0795 158.198 31.9006C157.807 31.7183 157.497 31.4548 157.268 31.1101C157.043 30.7654 156.93 30.3428 156.93 29.8423C156.93 29.4115 157.013 29.0568 157.179 28.7784C157.345 28.5 157.568 28.2796 157.85 28.1172C158.132 27.9548 158.447 27.8321 158.795 27.7493C159.143 27.6664 159.497 27.6035 159.859 27.5604C160.316 27.5073 160.687 27.4643 160.972 27.4311C161.257 27.3946 161.464 27.3366 161.594 27.2571C161.723 27.1776 161.788 27.0483 161.788 26.8693V26.8345C161.788 26.4003 161.665 26.0639 161.42 25.8253C161.178 25.5866 160.817 25.4673 160.336 25.4673C159.835 25.4673 159.441 25.5784 159.153 25.8004C158.868 26.0192 158.67 26.2628 158.561 26.5313L157.164 26.2131C157.33 25.7491 157.572 25.3745 157.89 25.0895C158.211 24.8011 158.581 24.5923 158.999 24.4631C159.416 24.3305 159.855 24.2642 160.316 24.2642C160.621 24.2642 160.944 24.3007 161.286 24.3736C161.63 24.4432 161.952 24.5724 162.25 24.7614C162.552 24.9503 162.799 25.2204 162.991 25.5717C163.183 25.9197 163.279 26.3722 163.279 26.929V32H161.827V30.956H161.768C161.672 31.1482 161.527 31.3371 161.335 31.5227C161.143 31.7083 160.896 31.8625 160.594 31.9851C160.293 32.1077 159.932 32.169 159.511 32.169ZM159.834 30.9759C160.245 30.9759 160.596 30.8946 160.888 30.7322C161.183 30.5698 161.406 30.3577 161.559 30.0959C161.715 29.8307 161.793 29.5473 161.793 29.2457V28.2614C161.74 28.3144 161.637 28.3641 161.484 28.4105C161.335 28.4536 161.165 28.4917 160.972 28.5249C160.78 28.5547 160.593 28.5829 160.411 28.6094C160.228 28.6326 160.076 28.6525 159.953 28.669C159.665 28.7055 159.401 28.7668 159.163 28.853C158.927 28.9392 158.738 29.0634 158.596 29.2259C158.457 29.3849 158.387 29.5971 158.387 29.8622C158.387 30.2301 158.523 30.5085 158.795 30.6974C159.067 30.883 159.413 30.9759 159.834 30.9759ZM165.259 32V24.3636H166.696V25.5767H166.775C166.915 25.1657 167.16 24.8426 167.511 24.6072C167.866 24.3686 168.267 24.2493 168.714 24.2493C168.807 24.2493 168.916 24.2526 169.042 24.2592C169.172 24.2659 169.273 24.2741 169.346 24.2841V25.706C169.286 25.6894 169.18 25.6712 169.028 25.6513C168.875 25.6281 168.723 25.6165 168.57 25.6165C168.219 25.6165 167.906 25.6911 167.631 25.8402C167.359 25.986 167.143 26.1899 166.984 26.4517C166.825 26.7102 166.746 27.0052 166.746 27.3366V32H165.259ZM170.632 32V24.3636H172.119V32H170.632ZM171.383 23.1854C171.124 23.1854 170.902 23.0992 170.717 22.9268C170.534 22.7512 170.443 22.5424 170.443 22.3004C170.443 22.0552 170.534 21.8464 170.717 21.674C170.902 21.4983 171.124 21.4105 171.383 21.4105C171.641 21.4105 171.862 21.4983 172.044 21.674C172.23 21.8464 172.322 22.0552 172.322 22.3004C172.322 22.5424 172.23 22.7512 172.044 22.9268C171.862 23.0992 171.641 23.1854 171.383 23.1854ZM175.605 27.4659V32H174.118V24.3636H175.545V25.6065H175.64C175.815 25.2022 176.09 24.8774 176.465 24.6321C176.843 24.3868 177.318 24.2642 177.892 24.2642C178.412 24.2642 178.868 24.3736 179.259 24.5923C179.65 24.8078 179.953 25.1293 180.169 25.5568C180.384 25.9844 180.492 26.513 180.492 27.1428V32H179.006V27.3217C179.006 26.7682 178.861 26.3357 178.573 26.0241C178.285 25.7093 177.889 25.5518 177.385 25.5518C177.04 25.5518 176.733 25.6264 176.465 25.7756C176.2 25.9247 175.989 26.1435 175.834 26.4318C175.681 26.7169 175.605 27.0616 175.605 27.4659ZM185.687 35.0227C185.081 35.0227 184.559 34.9432 184.121 34.7841C183.687 34.625 183.332 34.4145 183.057 34.1527C182.782 33.8909 182.577 33.6042 182.441 33.2926L183.719 32.7656C183.808 32.9115 183.927 33.0656 184.077 33.228C184.229 33.3937 184.434 33.5346 184.693 33.6506C184.955 33.7666 185.291 33.8246 185.702 33.8246C186.266 33.8246 186.731 33.687 187.099 33.4119C187.467 33.1402 187.651 32.706 187.651 32.1094V30.608H187.557C187.467 30.7704 187.338 30.951 187.169 31.1499C187.003 31.3487 186.774 31.5211 186.483 31.6669C186.191 31.8127 185.812 31.8857 185.344 31.8857C184.741 31.8857 184.198 31.7448 183.714 31.4631C183.233 31.178 182.852 30.7588 182.57 30.2053C182.292 29.6484 182.153 28.964 182.153 28.152C182.153 27.34 182.29 26.6439 182.565 26.0639C182.844 25.4839 183.225 25.0398 183.709 24.7315C184.193 24.42 184.741 24.2642 185.354 24.2642C185.828 24.2642 186.211 24.3438 186.503 24.5028C186.794 24.6586 187.021 24.8409 187.184 25.0497C187.349 25.2585 187.477 25.4425 187.567 25.6016H187.676V24.3636H189.133V32.169C189.133 32.8253 188.98 33.3639 188.675 33.7848C188.37 34.2057 187.958 34.5173 187.437 34.7195C186.92 34.9216 186.337 35.0227 185.687 35.0227ZM185.672 30.6527C186.1 30.6527 186.461 30.5533 186.756 30.3544C187.055 30.1522 187.28 29.8639 187.432 29.4893C187.588 29.1115 187.666 28.6591 187.666 28.1321C187.666 27.6184 187.59 27.166 187.437 26.7749C187.285 26.3838 187.061 26.0788 186.766 25.8601C186.471 25.638 186.107 25.527 185.672 25.527C185.225 25.527 184.852 25.643 184.554 25.875C184.256 26.1037 184.03 26.4152 183.878 26.8097C183.729 27.2041 183.654 27.6449 183.654 28.1321C183.654 28.6326 183.73 29.0717 183.883 29.4496C184.035 29.8274 184.26 30.1224 184.559 30.3345C184.86 30.5466 185.232 30.6527 185.672 30.6527ZM198.048 32.1541C197.309 32.1541 196.672 31.9867 196.139 31.652C195.609 31.3139 195.201 30.8482 194.916 30.255C194.631 29.6617 194.488 28.9822 194.488 28.2166C194.488 27.4411 194.634 26.7566 194.926 26.1634C195.217 25.5668 195.628 25.1011 196.159 24.7663C196.689 24.4316 197.314 24.2642 198.033 24.2642C198.613 24.2642 199.13 24.3719 199.584 24.5874C200.038 24.7995 200.404 25.0978 200.683 25.4822C200.965 25.8667 201.132 26.3158 201.185 26.8295H199.738C199.659 26.4716 199.476 26.1634 199.191 25.9048C198.91 25.6463 198.532 25.517 198.058 25.517C197.644 25.517 197.281 25.6264 196.969 25.8452C196.661 26.0606 196.421 26.3688 196.248 26.7699C196.076 27.1676 195.99 27.6383 195.99 28.1818C195.99 28.7386 196.074 29.2192 196.243 29.6236C196.412 30.0279 196.651 30.3411 196.959 30.5632C197.271 30.7853 197.637 30.8963 198.058 30.8963C198.34 30.8963 198.595 30.8449 198.824 30.7422C199.056 30.6361 199.249 30.4853 199.405 30.2898C199.564 30.0942 199.675 29.8589 199.738 29.5838H201.185C201.132 30.0777 200.971 30.5185 200.703 30.9062C200.434 31.294 200.075 31.599 199.624 31.821C199.176 32.0431 198.651 32.1541 198.048 32.1541ZM205.991 32.1541C205.275 32.1541 204.651 31.9901 204.117 31.6619C203.583 31.3338 203.169 30.8748 202.874 30.2848C202.579 29.6948 202.432 29.0054 202.432 28.2166C202.432 27.4245 202.579 26.7318 202.874 26.1385C203.169 25.5452 203.583 25.0845 204.117 24.7564C204.651 24.4283 205.275 24.2642 205.991 24.2642C206.707 24.2642 207.332 24.4283 207.866 24.7564C208.399 25.0845 208.814 25.5452 209.108 26.1385C209.403 26.7318 209.551 27.4245 209.551 28.2166C209.551 29.0054 209.403 29.6948 209.108 30.2848C208.814 30.8748 208.399 31.3338 207.866 31.6619C207.332 31.9901 206.707 32.1541 205.991 32.1541ZM205.996 30.9062C206.46 30.9062 206.845 30.7836 207.15 30.5384C207.455 30.2931 207.68 29.9666 207.826 29.5589C207.975 29.1513 208.05 28.7022 208.05 28.2116C208.05 27.7244 207.975 27.277 207.826 26.8693C207.68 26.4583 207.455 26.1286 207.15 25.88C206.845 25.6314 206.46 25.5071 205.996 25.5071C205.529 25.5071 205.141 25.6314 204.833 25.88C204.528 26.1286 204.301 26.4583 204.152 26.8693C204.006 27.277 203.933 27.7244 203.933 28.2116C203.933 28.7022 204.006 29.1513 204.152 29.5589C204.301 29.9666 204.528 30.2931 204.833 30.5384C205.141 30.7836 205.529 30.9062 205.996 30.9062ZM216.048 28.8331V24.3636H217.539V32H216.077V30.6776H215.998C215.822 31.0852 215.54 31.425 215.153 31.6967C214.768 31.9652 214.289 32.0994 213.716 32.0994C213.225 32.0994 212.791 31.9917 212.413 31.7763C212.039 31.5575 211.744 31.2344 211.528 30.8068C211.316 30.3793 211.21 29.8506 211.21 29.2209V24.3636H212.697V29.0419C212.697 29.5623 212.841 29.9766 213.129 30.2848C213.418 30.593 213.792 30.7472 214.253 30.7472C214.531 30.7472 214.808 30.6776 215.083 30.5384C215.362 30.3991 215.592 30.1887 215.774 29.907C215.96 29.6252 216.051 29.2673 216.048 28.8331ZM219.536 32V24.3636H220.973V25.5767H221.053C221.192 25.1657 221.437 24.8426 221.789 24.6072C222.143 24.3686 222.544 24.2493 222.992 24.2493C223.084 24.2493 223.194 24.2526 223.32 24.2592C223.449 24.2659 223.55 24.2741 223.623 24.2841V25.706C223.563 25.6894 223.457 25.6712 223.305 25.6513C223.152 25.6281 223 25.6165 222.847 25.6165C222.496 25.6165 222.183 25.6911 221.908 25.8402C221.636 25.986 221.421 26.1899 221.262 26.4517C221.102 26.7102 221.023 27.0052 221.023 27.3366V32H219.536ZM230.632 26.228L229.284 26.4666C229.228 26.2943 229.139 26.1302 229.016 25.9744C228.897 25.8187 228.734 25.6911 228.529 25.5916C228.323 25.4922 228.066 25.4425 227.758 25.4425C227.337 25.4425 226.986 25.5369 226.704 25.7259C226.422 25.9115 226.282 26.1518 226.282 26.4467C226.282 26.7019 226.376 26.9074 226.565 27.0632C226.754 27.219 227.059 27.3466 227.48 27.446L228.693 27.7244C229.395 27.8868 229.919 28.1371 230.264 28.4751C230.609 28.8132 230.781 29.2524 230.781 29.7926C230.781 30.25 230.648 30.6577 230.383 31.0156C230.121 31.3703 229.755 31.6487 229.284 31.8509C228.817 32.053 228.275 32.1541 227.659 32.1541C226.804 32.1541 226.106 31.9718 225.566 31.6072C225.025 31.2393 224.694 30.7173 224.571 30.0412L226.008 29.8224C226.098 30.197 226.282 30.4804 226.56 30.6726C226.838 30.8615 227.201 30.956 227.649 30.956C228.136 30.956 228.525 30.8549 228.817 30.6527C229.109 30.4472 229.255 30.197 229.255 29.902C229.255 29.6634 229.165 29.4628 228.986 29.3004C228.81 29.138 228.54 29.0154 228.176 28.9325L226.883 28.6491C226.171 28.4867 225.644 28.2282 225.302 27.8736C224.964 27.5189 224.795 27.0698 224.795 26.5263C224.795 26.0755 224.921 25.6811 225.173 25.343C225.425 25.005 225.773 24.7415 226.217 24.5526C226.661 24.3603 227.17 24.2642 227.743 24.2642C228.569 24.2642 229.218 24.4432 229.692 24.8011C230.166 25.1558 230.479 25.6314 230.632 26.228ZM235.706 32.1541C234.954 32.1541 234.306 31.9934 233.763 31.6719C233.222 31.3471 232.805 30.8913 232.51 30.3047C232.218 29.7147 232.072 29.0237 232.072 28.2315C232.072 27.4493 232.218 26.7599 232.51 26.1634C232.805 25.5668 233.216 25.1011 233.743 24.7663C234.273 24.4316 234.893 24.2642 235.602 24.2642C236.033 24.2642 236.451 24.3355 236.855 24.478C237.259 24.6205 237.622 24.8442 237.944 25.1491C238.265 25.4541 238.519 25.8501 238.704 26.3374C238.89 26.8213 238.983 27.4096 238.983 28.1023V28.6293H232.912V27.5156H237.526C237.526 27.1245 237.447 26.7782 237.287 26.4766C237.128 26.1716 236.905 25.9313 236.616 25.7557C236.331 25.58 235.997 25.4922 235.612 25.4922C235.194 25.4922 234.83 25.5949 234.518 25.8004C234.21 26.0026 233.971 26.2678 233.802 26.5959C233.637 26.9207 233.554 27.2737 233.554 27.6548V28.5249C233.554 29.0353 233.643 29.4695 233.822 29.8274C234.005 30.1854 234.258 30.4588 234.583 30.6477C234.908 30.8333 235.287 30.9261 235.721 30.9261C236.003 30.9261 236.26 30.8864 236.492 30.8068C236.724 30.724 236.925 30.6013 237.094 30.4389C237.263 30.2765 237.392 30.076 237.481 29.8374L238.888 30.0909C238.776 30.5052 238.573 30.8681 238.282 31.1797C237.993 31.4879 237.631 31.7282 237.193 31.9006C236.759 32.0696 236.263 32.1541 235.706 32.1541ZM246.354 26.228L245.007 26.4666C244.951 26.2943 244.861 26.1302 244.739 25.9744C244.619 25.8187 244.457 25.6911 244.251 25.5916C244.046 25.4922 243.789 25.4425 243.481 25.4425C243.06 25.4425 242.709 25.5369 242.427 25.7259C242.145 25.9115 242.004 26.1518 242.004 26.4467C242.004 26.7019 242.099 26.9074 242.288 27.0632C242.477 27.219 242.781 27.3466 243.202 27.446L244.415 27.7244C245.118 27.8868 245.642 28.1371 245.987 28.4751C246.331 28.8132 246.504 29.2524 246.504 29.7926C246.504 30.25 246.371 30.6577 246.106 31.0156C245.844 31.3703 245.478 31.6487 245.007 31.8509C244.54 32.053 243.998 32.1541 243.381 32.1541C242.526 32.1541 241.829 31.9718 241.288 31.6072C240.748 31.2393 240.417 30.7173 240.294 30.0412L241.731 29.8224C241.82 30.197 242.004 30.4804 242.283 30.6726C242.561 30.8615 242.924 30.956 243.371 30.956C243.859 30.956 244.248 30.8549 244.54 30.6527C244.831 30.4472 244.977 30.197 244.977 29.902C244.977 29.6634 244.888 29.4628 244.709 29.3004C244.533 29.138 244.263 29.0154 243.898 28.9325L242.606 28.6491C241.893 28.4867 241.366 28.2282 241.025 27.8736C240.687 27.5189 240.518 27.0698 240.518 26.5263C240.518 26.0755 240.644 25.6811 240.896 25.343C241.147 25.005 241.496 24.7415 241.94 24.5526C242.384 24.3603 242.893 24.2642 243.466 24.2642C244.291 24.2642 244.941 24.4432 245.415 24.8011C245.889 25.1558 246.202 25.6314 246.354 26.228Z" fill="white"/>
</g>
<defs>
<clipPath id="bgblur_0_32_17288_clip_path" transform="translate(38 38)"><rect width="272" height="53" rx="26.5"/>
</clipPath></defs>
</svg>
