<svg width="525" height="86" viewBox="0 0 525 86" fill="none" xmlns="http://www.w3.org/2000/svg">
<path d="M117.015 29.835C114.935 29.835 112.946 29.523 111.048 28.899C109.15 28.249 107.655 27.417 106.563 26.403L108.006 23.361C109.046 24.271 110.372 25.025 111.984 25.623C113.596 26.221 115.273 26.52 117.015 26.52C118.601 26.52 119.888 26.338 120.876 25.974C121.864 25.61 122.592 25.116 123.06 24.492C123.528 23.842 123.762 23.114 123.762 22.308C123.762 21.372 123.45 20.618 122.826 20.046C122.228 19.474 121.435 19.019 120.447 18.681C119.485 18.317 118.419 18.005 117.249 17.745C116.079 17.485 114.896 17.186 113.7 16.848C112.53 16.484 111.451 16.029 110.463 15.483C109.501 14.937 108.721 14.209 108.123 13.299C107.525 12.363 107.226 11.167 107.226 9.71101C107.226 8.30701 107.59 7.02001 108.318 5.85001C109.072 4.65401 110.216 3.70501 111.75 3.00301C113.31 2.27501 115.286 1.91101 117.678 1.91101C119.264 1.91101 120.837 2.11901 122.397 2.53501C123.957 2.95101 125.309 3.54901 126.453 4.32901L125.166 7.44901C123.996 6.66901 122.761 6.11001 121.461 5.77201C120.161 5.40801 118.9 5.22601 117.678 5.22601C116.144 5.22601 114.883 5.42101 113.895 5.81101C112.907 6.20101 112.179 6.72101 111.711 7.37101C111.269 8.02101 111.048 8.74901 111.048 9.55501C111.048 10.517 111.347 11.284 111.945 11.856C112.569 12.428 113.362 12.883 114.324 13.221C115.312 13.559 116.391 13.871 117.561 14.157C118.731 14.417 119.901 14.716 121.071 15.054C122.267 15.392 123.346 15.834 124.308 16.38C125.296 16.926 126.089 17.654 126.687 18.564C127.285 19.474 127.584 20.644 127.584 22.074C127.584 23.452 127.207 24.739 126.453 25.935C125.699 27.105 124.529 28.054 122.943 28.782C121.383 29.484 119.407 29.835 117.015 29.835ZM139.834 29.757C137.754 29.757 136.142 29.198 134.998 28.08C133.854 26.962 133.282 25.363 133.282 23.283V4.32901H137.026V23.127C137.026 24.245 137.299 25.103 137.845 25.701C138.417 26.299 139.223 26.598 140.263 26.598C141.433 26.598 142.408 26.273 143.188 25.623L144.358 28.314C143.786 28.808 143.097 29.172 142.291 29.406C141.511 29.64 140.692 29.757 139.834 29.757ZM129.772 11.934V8.85301H142.954V11.934H129.772ZM161.715 29.523V25.155L161.52 24.336V16.887C161.52 15.301 161.052 14.079 160.116 13.221C159.206 12.337 157.828 11.895 155.982 11.895C154.76 11.895 153.564 12.103 152.394 12.519C151.224 12.909 150.236 13.442 149.43 14.118L147.87 11.31C148.936 10.452 150.21 9.80201 151.692 9.36001C153.2 8.89201 154.773 8.65801 156.411 8.65801C159.245 8.65801 161.429 9.34701 162.963 10.725C164.497 12.103 165.264 14.209 165.264 17.043V29.523H161.715ZM154.929 29.757C153.395 29.757 152.043 29.497 150.873 28.977C149.729 28.457 148.845 27.742 148.221 26.832C147.597 25.896 147.285 24.843 147.285 23.673C147.285 22.555 147.545 21.541 148.065 20.631C148.611 19.721 149.482 18.993 150.678 18.447C151.9 17.901 153.538 17.628 155.592 17.628H162.144V20.319H155.748C153.876 20.319 152.615 20.631 151.965 21.255C151.315 21.879 150.99 22.633 150.99 23.517C150.99 24.531 151.393 25.35 152.199 25.974C153.005 26.572 154.123 26.871 155.553 26.871C156.957 26.871 158.179 26.559 159.219 25.935C160.285 25.311 161.052 24.401 161.52 23.205L162.261 25.779C161.767 27.001 160.896 27.976 159.648 28.704C158.4 29.406 156.827 29.757 154.929 29.757ZM172.193 29.523V8.85301H175.781V14.469L175.43 13.065C176.002 11.635 176.964 10.543 178.316 9.78901C179.668 9.03501 181.332 8.65801 183.308 8.65801V12.285C183.152 12.259 182.996 12.246 182.84 12.246C182.71 12.246 182.58 12.246 182.45 12.246C180.448 12.246 178.862 12.844 177.692 14.04C176.522 15.236 175.937 16.965 175.937 19.227V29.523H172.193ZM195.858 29.757C193.778 29.757 192.166 29.198 191.022 28.08C189.878 26.962 189.306 25.363 189.306 23.283V4.32901H193.05V23.127C193.05 24.245 193.323 25.103 193.869 25.701C194.441 26.299 195.247 26.598 196.287 26.598C197.457 26.598 198.432 26.273 199.212 25.623L200.382 28.314C199.81 28.808 199.121 29.172 198.315 29.406C197.535 29.64 196.716 29.757 195.858 29.757ZM185.796 11.934V8.85301H198.978V11.934H185.796ZM224.587 29.757C222.377 29.757 220.427 29.302 218.737 28.392C217.073 27.482 215.773 26.234 214.837 24.648C213.927 23.062 213.472 21.242 213.472 19.188C213.472 17.134 213.914 15.314 214.798 13.728C215.708 12.142 216.943 10.907 218.503 10.023C220.089 9.11301 221.87 8.65801 223.846 8.65801C225.848 8.65801 227.616 9.10001 229.15 9.98401C230.684 10.868 231.88 12.116 232.738 13.728C233.622 15.314 234.064 17.173 234.064 19.305C234.064 19.461 234.051 19.643 234.025 19.851C234.025 20.059 234.012 20.254 233.986 20.436H216.397V17.745H232.036L230.515 18.681C230.541 17.355 230.268 16.172 229.696 15.132C229.124 14.092 228.331 13.286 227.317 12.714C226.329 12.116 225.172 11.817 223.846 11.817C222.546 11.817 221.389 12.116 220.375 12.714C219.361 13.286 218.568 14.105 217.996 15.171C217.424 16.211 217.138 17.407 217.138 18.759V19.383C217.138 20.761 217.45 21.996 218.074 23.088C218.724 24.154 219.621 24.986 220.765 25.584C221.909 26.182 223.222 26.481 224.704 26.481C225.926 26.481 227.031 26.273 228.019 25.857C229.033 25.441 229.917 24.817 230.671 23.985L232.738 26.403C231.802 27.495 230.632 28.327 229.228 28.899C227.85 29.471 226.303 29.757 224.587 29.757ZM235.688 29.523L244.58 17.979L244.541 19.89L236.078 8.85301H240.251L246.725 17.355H245.126L251.6 8.85301H255.695L247.115 19.968L247.154 17.979L256.124 29.523H251.873L245.048 20.475L246.569 20.709L239.861 29.523H235.688ZM271.169 29.757C269.453 29.757 267.88 29.367 266.45 28.587C265.046 27.781 263.915 26.598 263.057 25.038C262.225 23.478 261.809 21.528 261.809 19.188C261.809 16.848 262.212 14.898 263.018 13.338C263.85 11.778 264.968 10.608 266.372 9.82801C267.802 9.04801 269.401 8.65801 271.169 8.65801C273.197 8.65801 274.991 9.10001 276.551 9.98401C278.111 10.868 279.346 12.103 280.256 13.689C281.166 15.249 281.621 17.082 281.621 19.188C281.621 21.294 281.166 23.14 280.256 24.726C279.346 26.312 278.111 27.547 276.551 28.431C274.991 29.315 273.197 29.757 271.169 29.757ZM260.21 37.089V8.85301H263.798V14.43L263.564 19.227L263.954 24.024V37.089H260.21ZM270.857 26.481C272.183 26.481 273.366 26.182 274.406 25.584C275.472 24.986 276.304 24.141 276.902 23.049C277.526 21.931 277.838 20.644 277.838 19.188C277.838 17.706 277.526 16.432 276.902 15.366C276.304 14.274 275.472 13.429 274.406 12.831C273.366 12.233 272.183 11.934 270.857 11.934C269.557 11.934 268.374 12.233 267.308 12.831C266.268 13.429 265.436 14.274 264.812 15.366C264.214 16.432 263.915 17.706 263.915 19.188C263.915 20.644 264.214 21.931 264.812 23.049C265.436 24.141 266.268 24.986 267.308 25.584C268.374 26.182 269.557 26.481 270.857 26.481ZM286.794 29.523V0.585009H290.538V29.523H286.794ZM306.539 29.757C304.459 29.757 302.613 29.302 301.001 28.392C299.389 27.482 298.115 26.234 297.179 24.648C296.243 23.036 295.775 21.216 295.775 19.188C295.775 17.134 296.243 15.314 297.179 13.728C298.115 12.142 299.389 10.907 301.001 10.023C302.613 9.11301 304.459 8.65801 306.539 8.65801C308.593 8.65801 310.426 9.11301 312.038 10.023C313.676 10.907 314.95 12.142 315.86 13.728C316.796 15.288 317.264 17.108 317.264 19.188C317.264 21.242 316.796 23.062 315.86 24.648C314.95 26.234 313.676 27.482 312.038 28.392C310.426 29.302 308.593 29.757 306.539 29.757ZM306.539 26.481C307.865 26.481 309.048 26.182 310.088 25.584C311.154 24.986 311.986 24.141 312.584 23.049C313.182 21.931 313.481 20.644 313.481 19.188C313.481 17.706 313.182 16.432 312.584 15.366C311.986 14.274 311.154 13.429 310.088 12.831C309.048 12.233 307.865 11.934 306.539 11.934C305.213 11.934 304.03 12.233 302.99 12.831C301.95 13.429 301.118 14.274 300.494 15.366C299.87 16.432 299.558 17.706 299.558 19.188C299.558 20.644 299.87 21.931 300.494 23.049C301.118 24.141 301.95 24.986 302.99 25.584C304.03 26.182 305.213 26.481 306.539 26.481ZM322.442 29.523V8.85301H326.03V14.469L325.679 13.065C326.251 11.635 327.213 10.543 328.565 9.78901C329.917 9.03501 331.581 8.65801 333.557 8.65801V12.285C333.401 12.259 333.245 12.246 333.089 12.246C332.959 12.246 332.829 12.246 332.699 12.246C330.697 12.246 329.111 12.844 327.941 14.04C326.771 15.236 326.186 16.965 326.186 19.227V29.523H322.442ZM338.172 29.523V8.85301H341.916V29.523H338.172ZM340.044 4.87501C339.316 4.87501 338.705 4.64101 338.211 4.17301C337.743 3.70501 337.509 3.13301 337.509 2.45701C337.509 1.75501 337.743 1.17001 338.211 0.702009C338.705 0.234009 339.316 9.11951e-06 340.044 9.11951e-06C340.772 9.11951e-06 341.37 0.234009 341.838 0.702009C342.332 1.14401 342.579 1.70301 342.579 2.37901C342.579 3.08101 342.345 3.67901 341.877 4.17301C341.409 4.64101 340.798 4.87501 340.044 4.87501ZM360.101 8.65801C361.791 8.65801 363.273 8.98301 364.547 9.63301C365.847 10.283 366.861 11.271 367.589 12.597C368.317 13.923 368.681 15.6 368.681 17.628V29.523H364.937V18.057C364.937 16.055 364.443 14.547 363.455 13.533C362.493 12.519 361.128 12.012 359.36 12.012C358.034 12.012 356.877 12.272 355.889 12.792C354.901 13.312 354.134 14.079 353.588 15.093C353.068 16.107 352.808 17.368 352.808 18.876V29.523H349.064V8.85301H352.652V14.43L352.067 12.948C352.743 11.596 353.783 10.543 355.187 9.78901C356.591 9.03501 358.229 8.65801 360.101 8.65801ZM384.658 37.323C382.76 37.323 380.914 37.05 379.12 36.504C377.352 35.984 375.909 35.23 374.791 34.242L376.585 31.356C377.547 32.188 378.73 32.838 380.134 33.306C381.538 33.8 383.007 34.047 384.541 34.047C386.985 34.047 388.779 33.475 389.923 32.331C391.067 31.187 391.639 29.445 391.639 27.105V22.737L392.029 18.642L391.834 14.508V8.85301H395.383V26.715C395.383 30.355 394.473 33.033 392.653 34.749C390.833 36.465 388.168 37.323 384.658 37.323ZM384.19 28.665C382.188 28.665 380.394 28.249 378.808 27.417C377.248 26.559 376 25.376 375.064 23.868C374.154 22.36 373.699 20.618 373.699 18.642C373.699 16.64 374.154 14.898 375.064 13.416C376 11.908 377.248 10.738 378.808 9.90601C380.394 9.07401 382.188 8.65801 384.19 8.65801C385.958 8.65801 387.57 9.02201 389.026 9.75001C390.482 10.452 391.639 11.544 392.497 13.026C393.381 14.508 393.823 16.38 393.823 18.642C393.823 20.878 393.381 22.737 392.497 24.219C391.639 25.701 390.482 26.819 389.026 27.573C387.57 28.301 385.958 28.665 384.19 28.665ZM384.619 25.389C385.997 25.389 387.219 25.103 388.285 24.531C389.351 23.959 390.183 23.166 390.781 22.152C391.405 21.138 391.717 19.968 391.717 18.642C391.717 17.316 391.405 16.146 390.781 15.132C390.183 14.118 389.351 13.338 388.285 12.792C387.219 12.22 385.997 11.934 384.619 11.934C383.241 11.934 382.006 12.22 380.914 12.792C379.848 13.338 379.003 14.118 378.379 15.132C377.781 16.146 377.482 17.316 377.482 18.642C377.482 19.968 377.781 21.138 378.379 22.152C379.003 23.166 379.848 23.959 380.914 24.531C382.006 25.103 383.241 25.389 384.619 25.389ZM403.434 29.757C402.706 29.757 402.082 29.51 401.562 29.016C401.042 28.496 400.782 27.846 400.782 27.066C400.782 26.286 401.042 25.649 401.562 25.155C402.082 24.661 402.706 24.414 403.434 24.414C404.136 24.414 404.734 24.661 405.228 25.155C405.748 25.649 406.008 26.286 406.008 27.066C406.008 27.846 405.748 28.496 405.228 29.016C404.734 29.51 404.136 29.757 403.434 29.757Z" fill="white" fill-opacity="0.5"/>
<path d="M4.329 77.523L8.736 55.371H-6.92904e-07L1.053 50.223H24.843L23.79 55.371H15.093L10.647 77.523H4.329ZM38.7724 56.229C40.5404 56.229 42.0484 56.606 43.2964 57.36C44.5444 58.088 45.4284 59.167 45.9484 60.597C46.4944 62.027 46.5594 63.795 46.1434 65.901L43.8034 77.523H37.7194L39.9814 66.291C40.2934 64.757 40.1634 63.574 39.5914 62.742C39.0454 61.91 38.0314 61.494 36.5494 61.494C35.0154 61.494 33.7284 61.936 32.6884 62.82C31.6744 63.704 30.9724 65.056 30.5824 66.876L28.4764 77.523H22.3924L28.1644 48.585H34.2484L31.4794 62.469L30.2704 60.675C31.2844 59.141 32.5324 58.023 34.0144 57.321C35.5224 56.593 37.1084 56.229 38.7724 56.229ZM60.5874 77.835C58.4034 77.835 56.5054 77.445 54.8934 76.665C53.3074 75.885 52.0724 74.793 51.1884 73.389C50.3044 71.985 49.8624 70.334 49.8624 68.436C49.8624 66.096 50.3824 64.016 51.4224 62.196C52.4884 60.35 53.9444 58.894 55.7904 57.828C57.6624 56.762 59.8074 56.229 62.2254 56.229C64.2794 56.229 66.0474 56.619 67.5294 57.399C69.0114 58.153 70.1554 59.219 70.9614 60.597C71.7934 61.949 72.2094 63.574 72.2094 65.472C72.2094 66.018 72.1704 66.564 72.0924 67.11C72.0404 67.656 71.9624 68.176 71.8584 68.67H54.5034L55.1274 65.121H69.0114L66.5154 66.213C66.7234 65.043 66.6584 64.068 66.3204 63.288C65.9824 62.482 65.4364 61.871 64.6824 61.455C63.9284 61.013 63.0184 60.792 61.9524 60.792C60.6264 60.792 59.4954 61.117 58.5594 61.767C57.6494 62.391 56.9604 63.262 56.4924 64.38C56.0244 65.498 55.7904 66.759 55.7904 68.163C55.7904 69.775 56.2324 70.984 57.1164 71.79C58.0264 72.57 59.3914 72.96 61.2114 72.96C62.2774 72.96 63.3044 72.791 64.2924 72.453C65.2804 72.115 66.1254 71.634 66.8274 71.01L69.3624 75.027C68.1404 75.989 66.7624 76.704 65.2284 77.172C63.7204 77.614 62.1734 77.835 60.5874 77.835ZM85.6696 77.523L90.0376 55.8C90.5056 53.512 91.4936 51.692 93.0016 50.34C94.5356 48.962 96.5896 48.273 99.1636 48.273C100.126 48.273 101.023 48.377 101.855 48.585C102.687 48.767 103.402 49.053 104 49.443L101.621 53.811C100.919 53.317 100.113 53.07 99.2026 53.07C98.2666 53.07 97.5386 53.33 97.0186 53.85C96.4986 54.344 96.1216 55.137 95.8876 56.229L95.4586 58.179L95.1466 60.636L91.7926 77.523H85.6696ZM85.5916 61.689L86.5276 57.009H101.075L100.139 61.689H85.5916ZM109.02 77.835C107.304 77.835 105.822 77.471 104.574 76.743C103.326 75.989 102.442 74.897 101.922 73.467C101.402 72.037 101.35 70.269 101.766 68.163L104.067 56.541H110.151L107.928 67.773C107.616 69.307 107.733 70.49 108.279 71.322C108.851 72.154 109.852 72.57 111.282 72.57C112.79 72.57 114.051 72.128 115.065 71.244C116.105 70.36 116.794 69.008 117.132 67.188L119.277 56.541H125.361L121.188 77.523H115.416L116.586 71.595L117.444 73.389C116.456 74.923 115.221 76.054 113.739 76.782C112.257 77.484 110.684 77.835 109.02 77.835ZM135.365 77.835C133.857 77.835 132.57 77.536 131.504 76.938C130.438 76.314 129.671 75.43 129.203 74.286C128.761 73.116 128.696 71.738 129.008 70.152L132.635 51.9H138.719L135.092 70.113C134.936 70.997 135.027 71.699 135.365 72.219C135.703 72.739 136.327 72.999 137.237 72.999C137.653 72.999 138.069 72.934 138.485 72.804C138.927 72.674 139.33 72.492 139.694 72.258L140.591 76.587C139.837 77.055 139.005 77.38 138.095 77.562C137.185 77.744 136.275 77.835 135.365 77.835ZM127.448 61.689L128.384 57.009H142.931L141.995 61.689H127.448ZM152.742 77.835C151.026 77.835 149.544 77.471 148.296 76.743C147.048 75.989 146.164 74.897 145.644 73.467C145.124 72.037 145.072 70.269 145.488 68.163L147.789 56.541H153.873L151.65 67.773C151.338 69.307 151.455 70.49 152.001 71.322C152.573 72.154 153.574 72.57 155.004 72.57C156.512 72.57 157.773 72.128 158.787 71.244C159.827 70.36 160.516 69.008 160.854 67.188L162.999 56.541H169.083L164.91 77.523H159.138L160.308 71.595L161.166 73.389C160.178 74.923 158.943 76.054 157.461 76.782C155.979 77.484 154.406 77.835 152.742 77.835ZM170.547 77.523L174.72 56.541H180.492L179.283 62.508L178.737 60.792C179.673 59.102 180.895 57.919 182.403 57.243C183.911 56.567 185.718 56.229 187.824 56.229L186.732 61.845C186.472 61.819 186.225 61.806 185.991 61.806C185.783 61.78 185.562 61.767 185.328 61.767C183.534 61.767 182.065 62.209 180.921 63.093C179.803 63.977 179.049 65.407 178.659 67.383L176.631 77.523H170.547ZM198.192 77.835C196.008 77.835 194.11 77.445 192.498 76.665C190.912 75.885 189.677 74.793 188.793 73.389C187.909 71.985 187.467 70.334 187.467 68.436C187.467 66.096 187.987 64.016 189.027 62.196C190.093 60.35 191.549 58.894 193.395 57.828C195.267 56.762 197.412 56.229 199.83 56.229C201.884 56.229 203.652 56.619 205.134 57.399C206.616 58.153 207.76 59.219 208.566 60.597C209.398 61.949 209.814 63.574 209.814 65.472C209.814 66.018 209.775 66.564 209.697 67.11C209.645 67.656 209.567 68.176 209.463 68.67H192.108L192.732 65.121H206.616L204.12 66.213C204.328 65.043 204.263 64.068 203.925 63.288C203.587 62.482 203.041 61.871 202.287 61.455C201.533 61.013 200.623 60.792 199.557 60.792C198.231 60.792 197.1 61.117 196.164 61.767C195.254 62.391 194.565 63.262 194.097 64.38C193.629 65.498 193.395 66.759 193.395 68.163C193.395 69.775 193.837 70.984 194.721 71.79C195.631 72.57 196.996 72.96 198.816 72.96C199.882 72.96 200.909 72.791 201.897 72.453C202.885 72.115 203.73 71.634 204.432 71.01L206.967 75.027C205.745 75.989 204.367 76.704 202.833 77.172C201.325 77.614 199.778 77.835 198.192 77.835ZM222.572 77.523L226.745 56.541H232.79L228.617 77.523H222.572ZM230.801 53.616C229.735 53.616 228.877 53.317 228.227 52.719C227.577 52.095 227.252 51.341 227.252 50.457C227.252 49.417 227.616 48.559 228.344 47.883C229.098 47.181 230.073 46.83 231.269 46.83C232.335 46.83 233.193 47.129 233.843 47.727C234.519 48.299 234.857 49.014 234.857 49.872C234.857 50.99 234.48 51.9 233.726 52.602C232.998 53.278 232.023 53.616 230.801 53.616ZM241.908 77.835C240.062 77.835 238.32 77.627 236.682 77.211C235.07 76.795 233.822 76.275 232.938 75.651L235.278 71.244C236.188 71.842 237.293 72.323 238.593 72.687C239.919 73.051 241.245 73.233 242.571 73.233C244.001 73.233 245.041 73.051 245.691 72.687C246.341 72.323 246.666 71.829 246.666 71.205C246.666 70.711 246.393 70.347 245.847 70.113C245.301 69.853 244.612 69.645 243.78 69.489C242.948 69.333 242.051 69.151 241.089 68.943C240.153 68.735 239.256 68.449 238.398 68.085C237.566 67.695 236.877 67.149 236.331 66.447C235.811 65.719 235.551 64.77 235.551 63.6C235.551 62.014 235.993 60.675 236.877 59.583C237.787 58.491 239.035 57.659 240.621 57.087C242.233 56.515 244.053 56.229 246.081 56.229C247.537 56.229 248.954 56.385 250.332 56.697C251.71 57.009 252.88 57.438 253.842 57.984L251.658 62.43C250.67 61.806 249.63 61.39 248.538 61.182C247.472 60.948 246.445 60.831 245.457 60.831C244.027 60.831 242.987 61.039 242.337 61.455C241.713 61.845 241.401 62.326 241.401 62.898C241.401 63.392 241.661 63.782 242.181 64.068C242.727 64.328 243.416 64.549 244.248 64.731C245.08 64.887 245.977 65.069 246.939 65.277C247.901 65.459 248.798 65.745 249.63 66.135C250.462 66.499 251.138 67.032 251.658 67.734C252.204 68.41 252.477 69.333 252.477 70.503C252.477 72.089 252.009 73.441 251.073 74.559C250.163 75.651 248.915 76.47 247.329 77.016C245.743 77.562 243.936 77.835 241.908 77.835ZM275.505 77.835C273.893 77.835 272.398 77.471 271.02 76.743C269.642 75.989 268.537 74.91 267.705 73.506C266.873 72.102 266.457 70.412 266.457 68.436C266.457 66.668 266.743 65.043 267.315 63.561C267.913 62.079 268.745 60.792 269.811 59.7C270.877 58.608 272.112 57.763 273.516 57.165C274.92 56.541 276.428 56.229 278.04 56.229C279.782 56.229 281.277 56.554 282.525 57.204C283.773 57.854 284.696 58.868 285.294 60.246C285.918 61.598 286.139 63.353 285.957 65.511C285.827 67.981 285.32 70.152 284.436 72.024C283.552 73.87 282.356 75.3 280.848 76.314C279.366 77.328 277.585 77.835 275.505 77.835ZM277.377 72.804C278.573 72.804 279.626 72.518 280.536 71.946C281.472 71.348 282.2 70.542 282.72 69.528C283.266 68.488 283.539 67.279 283.539 65.901C283.539 64.471 283.11 63.34 282.252 62.508C281.42 61.676 280.25 61.26 278.742 61.26C277.572 61.26 276.519 61.559 275.583 62.157C274.647 62.729 273.906 63.535 273.36 64.575C272.84 65.589 272.58 66.785 272.58 68.163C272.58 69.593 272.996 70.724 273.828 71.556C274.686 72.388 275.869 72.804 277.377 72.804ZM281.55 77.523L282.369 73.35L283.734 67.11L284.553 60.87L285.411 56.541H291.495L287.322 77.523H281.55ZM292.955 77.523L298.727 48.585H304.811L299.039 77.523H292.955ZM304.685 77.523L308.858 56.541H314.63L313.421 62.508L312.875 60.792C313.811 59.102 315.033 57.919 316.541 57.243C318.049 56.567 319.856 56.229 321.962 56.229L320.87 61.845C320.61 61.819 320.363 61.806 320.129 61.806C319.921 61.78 319.7 61.767 319.466 61.767C317.672 61.767 316.203 62.209 315.059 63.093C313.941 63.977 313.187 65.407 312.797 67.383L310.769 77.523H304.685ZM332.331 77.835C330.147 77.835 328.249 77.445 326.637 76.665C325.051 75.885 323.816 74.793 322.932 73.389C322.048 71.985 321.606 70.334 321.606 68.436C321.606 66.096 322.126 64.016 323.166 62.196C324.232 60.35 325.688 58.894 327.534 57.828C329.406 56.762 331.551 56.229 333.969 56.229C336.023 56.229 337.791 56.619 339.273 57.399C340.755 58.153 341.899 59.219 342.705 60.597C343.537 61.949 343.953 63.574 343.953 65.472C343.953 66.018 343.914 66.564 343.836 67.11C343.784 67.656 343.706 68.176 343.602 68.67H326.247L326.871 65.121H340.755L338.259 66.213C338.467 65.043 338.402 64.068 338.064 63.288C337.726 62.482 337.18 61.871 336.426 61.455C335.672 61.013 334.762 60.792 333.696 60.792C332.37 60.792 331.239 61.117 330.303 61.767C329.393 62.391 328.704 63.262 328.236 64.38C327.768 65.498 327.534 66.759 327.534 68.163C327.534 69.775 327.976 70.984 328.86 71.79C329.77 72.57 331.135 72.96 332.955 72.96C334.021 72.96 335.048 72.791 336.036 72.453C337.024 72.115 337.869 71.634 338.571 71.01L341.106 75.027C339.884 75.989 338.506 76.704 336.972 77.172C335.464 77.614 333.917 77.835 332.331 77.835ZM355.143 77.835C353.531 77.835 352.036 77.471 350.658 76.743C349.28 75.989 348.175 74.91 347.343 73.506C346.511 72.102 346.095 70.412 346.095 68.436C346.095 66.668 346.381 65.043 346.953 63.561C347.551 62.079 348.383 60.792 349.449 59.7C350.515 58.608 351.75 57.763 353.154 57.165C354.558 56.541 356.066 56.229 357.678 56.229C359.42 56.229 360.915 56.554 362.163 57.204C363.411 57.854 364.334 58.868 364.932 60.246C365.556 61.598 365.777 63.353 365.595 65.511C365.465 67.981 364.958 70.152 364.074 72.024C363.19 73.87 361.994 75.3 360.486 76.314C359.004 77.328 357.223 77.835 355.143 77.835ZM357.015 72.804C358.211 72.804 359.264 72.518 360.174 71.946C361.11 71.348 361.838 70.542 362.358 69.528C362.904 68.488 363.177 67.279 363.177 65.901C363.177 64.471 362.748 63.34 361.89 62.508C361.058 61.676 359.888 61.26 358.38 61.26C357.21 61.26 356.157 61.559 355.221 62.157C354.285 62.729 353.544 63.535 352.998 64.575C352.478 65.589 352.218 66.785 352.218 68.163C352.218 69.593 352.634 70.724 353.466 71.556C354.324 72.388 355.507 72.804 357.015 72.804ZM361.188 77.523L362.007 73.35L363.372 67.11L364.191 60.87L365.049 56.541H371.133L366.96 77.523H361.188ZM382.148 77.835C380.536 77.835 379.041 77.471 377.663 76.743C376.285 75.989 375.18 74.91 374.348 73.506C373.516 72.102 373.1 70.412 373.1 68.436C373.1 66.668 373.386 65.043 373.958 63.561C374.556 62.079 375.388 60.792 376.454 59.7C377.52 58.608 378.755 57.763 380.159 57.165C381.563 56.541 383.071 56.229 384.683 56.229C386.321 56.229 387.738 56.515 388.934 57.087C390.13 57.659 391.053 58.543 391.703 59.739C392.379 60.909 392.717 62.391 392.717 64.185C392.717 66.109 392.483 67.903 392.015 69.567C391.573 71.205 390.897 72.648 389.987 73.896C389.077 75.118 387.959 76.08 386.633 76.782C385.333 77.484 383.838 77.835 382.148 77.835ZM384.02 72.804C385.216 72.804 386.269 72.518 387.179 71.946C388.115 71.348 388.843 70.542 389.363 69.528C389.909 68.488 390.182 67.279 390.182 65.901C390.182 64.471 389.753 63.34 388.895 62.508C388.063 61.676 386.893 61.26 385.385 61.26C384.215 61.26 383.162 61.559 382.226 62.157C381.29 62.729 380.549 63.535 380.003 64.575C379.483 65.589 379.223 66.785 379.223 68.163C379.223 69.593 379.639 70.724 380.471 71.556C381.329 72.388 382.512 72.804 384.02 72.804ZM388.154 77.523L389.012 73.35L390.338 67.11L391.157 60.87L393.614 48.585H399.698L393.926 77.523H388.154ZM401.039 85.401C399.973 85.401 398.92 85.232 397.88 84.894C396.814 84.556 395.969 84.114 395.345 83.568L398.153 79.2C398.595 79.59 399.089 79.902 399.635 80.136C400.207 80.37 400.831 80.487 401.507 80.487C402.287 80.487 402.963 80.292 403.535 79.902C404.133 79.512 404.718 78.849 405.29 77.913L406.967 75.261L407.513 74.637L418.589 56.541H424.595L410.633 78.927C409.593 80.565 408.592 81.852 407.63 82.788C406.694 83.75 405.693 84.426 404.627 84.816C403.587 85.206 402.391 85.401 401.039 85.401ZM405.68 78.342L400.649 56.541H406.733L410.555 74.091L405.68 78.342ZM450.329 56.229C452.097 56.229 453.605 56.606 454.853 57.36C456.101 58.088 456.985 59.167 457.505 60.597C458.051 62.027 458.116 63.795 457.7 65.901L455.36 77.523H449.276L451.538 66.291C451.85 64.757 451.72 63.574 451.148 62.742C450.602 61.91 449.588 61.494 448.106 61.494C446.572 61.494 445.285 61.936 444.245 62.82C443.231 63.704 442.529 65.056 442.139 66.876L440.033 77.523H433.949L439.721 48.585H445.805L443.036 62.469L441.827 60.675C442.841 59.141 444.089 58.023 445.571 57.321C447.079 56.593 448.665 56.229 450.329 56.229ZM472.144 77.835C469.96 77.835 468.062 77.445 466.45 76.665C464.864 75.885 463.629 74.793 462.745 73.389C461.861 71.985 461.419 70.334 461.419 68.436C461.419 66.096 461.939 64.016 462.979 62.196C464.045 60.35 465.501 58.894 467.347 57.828C469.219 56.762 471.364 56.229 473.782 56.229C475.836 56.229 477.604 56.619 479.086 57.399C480.568 58.153 481.712 59.219 482.518 60.597C483.35 61.949 483.766 63.574 483.766 65.472C483.766 66.018 483.727 66.564 483.649 67.11C483.597 67.656 483.519 68.176 483.415 68.67H466.06L466.684 65.121H480.568L478.072 66.213C478.28 65.043 478.215 64.068 477.877 63.288C477.539 62.482 476.993 61.871 476.239 61.455C475.485 61.013 474.575 60.792 473.509 60.792C472.183 60.792 471.052 61.117 470.116 61.767C469.206 62.391 468.517 63.262 468.049 64.38C467.581 65.498 467.347 66.759 467.347 68.163C467.347 69.775 467.789 70.984 468.673 71.79C469.583 72.57 470.948 72.96 472.768 72.96C473.834 72.96 474.861 72.791 475.849 72.453C476.837 72.115 477.682 71.634 478.384 71.01L480.919 75.027C479.697 75.989 478.319 76.704 476.785 77.172C475.277 77.614 473.73 77.835 472.144 77.835ZM485.479 77.523L489.652 56.541H495.424L494.215 62.508L493.669 60.792C494.605 59.102 495.827 57.919 497.335 57.243C498.843 56.567 500.65 56.229 502.756 56.229L501.664 61.845C501.404 61.819 501.157 61.806 500.923 61.806C500.715 61.78 500.494 61.767 500.26 61.767C498.466 61.767 496.997 62.209 495.853 63.093C494.735 63.977 493.981 65.407 493.591 67.383L491.563 77.523H485.479ZM513.125 77.835C510.941 77.835 509.043 77.445 507.431 76.665C505.845 75.885 504.61 74.793 503.726 73.389C502.842 71.985 502.4 70.334 502.4 68.436C502.4 66.096 502.92 64.016 503.96 62.196C505.026 60.35 506.482 58.894 508.328 57.828C510.2 56.762 512.345 56.229 514.763 56.229C516.817 56.229 518.585 56.619 520.067 57.399C521.549 58.153 522.693 59.219 523.499 60.597C524.331 61.949 524.747 63.574 524.747 65.472C524.747 66.018 524.708 66.564 524.63 67.11C524.578 67.656 524.5 68.176 524.396 68.67H507.041L507.665 65.121H521.549L519.053 66.213C519.261 65.043 519.196 64.068 518.858 63.288C518.52 62.482 517.974 61.871 517.22 61.455C516.466 61.013 515.556 60.792 514.49 60.792C513.164 60.792 512.033 61.117 511.097 61.767C510.187 62.391 509.498 63.262 509.03 64.38C508.562 65.498 508.328 66.759 508.328 68.163C508.328 69.775 508.77 70.984 509.654 71.79C510.564 72.57 511.929 72.96 513.749 72.96C514.815 72.96 515.842 72.791 516.83 72.453C517.818 72.115 518.663 71.634 519.365 71.01L521.9 75.027C520.678 75.989 519.3 76.704 517.766 77.172C516.258 77.614 514.711 77.835 513.125 77.835Z" fill="white"/>
</svg>
