<svg width="767" height="77" viewBox="0 0 767 77" fill="none" xmlns="http://www.w3.org/2000/svg">
<path d="M17.556 61.5226C13.4493 61.5226 9.90734 60.8296 6.93001 59.4436C3.95268 58.0576 1.64268 56.0556 1.00657e-05 53.4376L8.23901 45.5836C9.31701 47.3803 10.6517 48.792 12.243 49.8186C13.8343 50.794 15.6567 51.2816 17.71 51.2816C20.0713 51.2816 21.9963 50.6143 23.485 49.2796C25.025 47.945 26.0773 45.8146 26.642 42.8886L31.801 16.7086H12.859L14.938 6.69863H46.2L39.039 42.2726C38.115 46.9953 36.7033 50.7683 34.804 53.5916C32.956 56.3636 30.5947 58.3913 27.72 59.6746C24.8453 60.9066 21.4573 61.5226 17.556 61.5226ZM64.6042 61.2146C61.2162 61.2146 58.2902 60.496 55.8262 59.0586C53.3622 57.57 51.6169 55.414 50.5902 52.5906C49.5635 49.7673 49.4609 46.2766 50.2822 42.1186L54.8252 19.1726H66.8372L62.4482 41.3486C61.8322 44.3773 62.0632 46.713 63.1412 48.3556C64.2705 49.9983 66.2469 50.8196 69.0702 50.8196C72.0475 50.8196 74.5372 49.947 76.5392 48.2016C78.5925 46.4563 79.9529 43.787 80.6202 40.1936L84.8552 19.1726H96.8672L88.6282 60.5986H77.2322L79.5422 48.8946L81.2362 52.4366C79.2855 55.4653 76.8472 57.6983 73.9212 59.1356C70.9952 60.5216 67.8895 61.2146 64.6042 61.2146ZM114.849 61.2146C111.204 61.2146 107.765 60.804 104.531 59.9826C101.348 59.1613 98.8839 58.1346 97.1385 56.9026L101.759 48.2016C103.555 49.3823 105.737 50.332 108.304 51.0506C110.922 51.7693 113.54 52.1286 116.158 52.1286C118.981 52.1286 121.034 51.7693 122.318 51.0506C123.601 50.332 124.243 49.3566 124.243 48.1246C124.243 47.1493 123.704 46.4306 122.626 45.9686C121.548 45.4553 120.187 45.0446 118.545 44.7366C116.902 44.4286 115.131 44.0693 113.232 43.6586C111.384 43.248 109.613 42.6833 107.919 41.9646C106.276 41.1946 104.916 40.1166 103.838 38.7306C102.811 37.2933 102.298 35.4196 102.298 33.1096C102.298 29.9783 103.17 27.3346 104.916 25.1786C106.712 23.0226 109.176 21.38 112.308 20.2506C115.49 19.1213 119.084 18.5566 123.088 18.5566C125.962 18.5566 128.76 18.8646 131.481 19.4806C134.201 20.0966 136.511 20.9436 138.411 22.0216L134.099 30.7996C132.148 29.5676 130.095 28.7463 127.939 28.3356C125.834 27.8736 123.806 27.6426 121.856 27.6426C119.032 27.6426 116.979 28.0533 115.696 28.8746C114.464 29.6446 113.848 30.5943 113.848 31.7236C113.848 32.699 114.361 33.469 115.388 34.0336C116.466 34.547 117.826 34.9833 119.469 35.3426C121.111 35.6506 122.882 36.01 124.782 36.4206C126.681 36.78 128.452 37.3446 130.095 38.1146C131.737 38.8333 133.072 39.8856 134.099 41.2716C135.177 42.6063 135.716 44.4286 135.716 46.7386C135.716 49.87 134.792 52.5393 132.944 54.7466C131.147 56.9026 128.683 58.5196 125.552 59.5976C122.42 60.6756 118.853 61.2146 114.849 61.2146ZM157.526 61.2146C154.548 61.2146 152.007 60.6243 149.903 59.4436C147.798 58.2116 146.284 56.4663 145.36 54.2076C144.487 51.8976 144.359 49.177 144.975 46.0456L152.136 10.0096H164.148L156.987 45.9686C156.679 47.714 156.858 49.1 157.526 50.1266C158.193 51.1533 159.425 51.6666 161.222 51.6666C162.043 51.6666 162.864 51.5383 163.686 51.2816C164.558 51.025 165.354 50.6656 166.073 50.2036L167.844 58.7506C166.355 59.6746 164.712 60.3163 162.916 60.6756C161.119 61.035 159.322 61.2146 157.526 61.2146ZM141.895 29.3366L143.743 20.0966H172.464L170.616 29.3366H141.895ZM212.794 61.2146C209.817 61.2146 207.276 60.6243 205.171 59.4436C203.067 58.2116 201.552 56.4663 200.628 54.2076C199.756 51.8976 199.627 49.177 200.243 46.0456L207.404 10.0096H219.416L212.255 45.9686C211.947 47.714 212.127 49.1 212.794 50.1266C213.462 51.1533 214.694 51.6666 216.49 51.6666C217.312 51.6666 218.133 51.5383 218.954 51.2816C219.827 51.025 220.623 50.6656 221.341 50.2036L223.112 58.7506C221.624 59.6746 219.981 60.3163 218.184 60.6756C216.388 61.035 214.591 61.2146 212.794 61.2146ZM197.163 29.3366L199.011 20.0966H227.732L225.884 29.3366H197.163ZM261.733 18.5566C265.224 18.5566 268.201 19.301 270.665 20.7896C273.129 22.227 274.875 24.3573 275.901 27.1806C276.979 30.004 277.108 33.4946 276.286 37.6526L271.666 60.5986H259.654L264.12 38.4226C264.736 35.394 264.48 33.0583 263.35 31.4156C262.272 29.773 260.27 28.9516 257.344 28.9516C254.316 28.9516 251.775 29.8243 249.721 31.5696C247.719 33.315 246.333 35.9843 245.563 39.5776L241.405 60.5986H229.393L240.789 3.46463H252.801L247.334 30.8766L244.947 27.3346C246.949 24.306 249.413 22.0986 252.339 20.7126C255.317 19.2753 258.448 18.5566 261.733 18.5566ZM304.804 61.2146C300.492 61.2146 296.745 60.4446 293.562 58.9046C290.431 57.3646 287.992 55.2086 286.247 52.4366C284.502 49.6646 283.629 46.405 283.629 42.6576C283.629 38.0376 284.656 33.931 286.709 30.3376C288.814 26.693 291.688 23.8183 295.333 21.7136C299.029 19.609 303.264 18.5566 308.038 18.5566C312.093 18.5566 315.584 19.3266 318.51 20.8666C321.436 22.3553 323.695 24.46 325.286 27.1806C326.929 29.85 327.75 33.0583 327.75 36.8056C327.75 37.8836 327.673 38.9616 327.519 40.0396C327.416 41.1176 327.262 42.1443 327.057 43.1196H292.792L294.024 36.1126H321.436L316.508 38.2686C316.919 35.9586 316.79 34.0336 316.123 32.4936C315.456 30.9023 314.378 29.696 312.889 28.8746C311.4 28.002 309.604 27.5656 307.499 27.5656C304.881 27.5656 302.648 28.2073 300.8 29.4906C299.003 30.7226 297.643 32.4423 296.719 34.6496C295.795 36.857 295.333 39.3466 295.333 42.1186C295.333 45.3013 296.206 47.6883 297.951 49.2796C299.748 50.8196 302.443 51.5896 306.036 51.5896C308.141 51.5896 310.168 51.256 312.119 50.5886C314.07 49.9213 315.738 48.9716 317.124 47.7396L322.129 55.6706C319.716 57.57 316.996 58.9816 313.967 59.9056C310.99 60.7783 307.935 61.2146 304.804 61.2146ZM352.939 60.5986L361.178 19.1726H372.574L370.187 30.9536L369.109 27.5656C370.957 24.229 373.37 21.8933 376.347 20.5586C379.324 19.224 382.892 18.5566 387.05 18.5566L384.894 29.6446C384.381 29.5933 383.893 29.5676 383.431 29.5676C383.02 29.5163 382.584 29.4906 382.122 29.4906C378.58 29.4906 375.68 30.3633 373.421 32.1086C371.214 33.854 369.725 36.6773 368.955 40.5786L364.951 60.5986H352.939ZM385.875 60.5986L394.114 19.1726H406.049L397.81 60.5986H385.875ZM402.122 13.3976C400.017 13.3976 398.323 12.8073 397.04 11.6266C395.756 10.3946 395.115 8.90596 395.115 7.16063C395.115 5.1073 395.833 3.4133 397.271 2.07863C398.759 0.692628 400.684 -0.000371814 403.046 -0.000371814C405.15 -0.000371814 406.844 0.589962 408.128 1.77063C409.462 2.89996 410.13 4.31163 410.13 6.00563C410.13 8.21296 409.385 10.0096 407.897 11.3956C406.459 12.7303 404.534 13.3976 402.122 13.3976ZM426.593 76.1526C422.589 76.1526 418.893 75.6906 415.505 74.7666C412.168 73.8426 409.293 72.4823 406.881 70.6856L412.579 61.9846C414.221 63.3193 416.326 64.3973 418.893 65.2186C421.511 66.04 424.257 66.4506 427.132 66.4506C431.29 66.4506 434.395 65.5523 436.449 63.7556C438.553 61.959 439.965 59.2896 440.684 55.7476L442.147 48.2786L444.919 38.5766L446.767 28.1046L448.461 19.1726H459.934L453.081 53.6686C451.489 61.6253 448.461 67.349 443.995 70.8396C439.58 74.3816 433.779 76.1526 426.593 76.1526ZM428.364 58.5966C424.976 58.5966 421.896 57.9036 419.124 56.5176C416.352 55.1316 414.144 53.1553 412.502 50.5886C410.859 47.9706 410.038 44.8393 410.038 41.1946C410.038 38.012 410.602 35.0603 411.732 32.3396C412.912 29.619 414.529 27.232 416.583 25.1786C418.687 23.074 421.126 21.457 423.898 20.3276C426.721 19.147 429.801 18.5566 433.138 18.5566C436.166 18.5566 438.913 19.1213 441.377 20.2506C443.841 21.38 445.74 23.2023 447.075 25.7176C448.461 28.233 448.974 31.5953 448.615 35.8046C448.307 40.3733 447.306 44.3773 445.612 47.8166C443.918 51.2046 441.608 53.8483 438.682 55.7476C435.807 57.647 432.368 58.5966 428.364 58.5966ZM431.598 48.7406C433.959 48.7406 436.038 48.2273 437.835 47.2006C439.631 46.174 441.043 44.7623 442.07 42.9656C443.096 41.1176 443.61 39.013 443.61 36.6516C443.61 34.1363 442.788 32.16 441.146 30.7226C439.503 29.234 437.219 28.4896 434.293 28.4896C431.931 28.4896 429.827 29.003 427.979 30.0296C426.182 31.0563 424.745 32.4936 423.667 34.3416C422.64 36.1383 422.127 38.2173 422.127 40.5786C422.127 43.094 422.974 45.096 424.668 46.5846C426.362 48.022 428.672 48.7406 431.598 48.7406ZM495.215 18.5566C498.705 18.5566 501.683 19.301 504.147 20.7896C506.611 22.227 508.356 24.3573 509.383 27.1806C510.461 30.004 510.589 33.4946 509.768 37.6526L505.148 60.5986H493.136L497.602 38.4226C498.218 35.394 497.961 33.0583 496.832 31.4156C495.754 29.773 493.752 28.9516 490.826 28.9516C487.797 28.9516 485.256 29.8243 483.203 31.5696C481.201 33.315 479.815 35.9843 479.045 39.5776L474.887 60.5986H462.875L474.271 3.46463H486.283L480.816 30.8766L478.429 27.3346C480.431 24.306 482.895 22.0986 485.821 20.7126C488.798 19.2753 491.929 18.5566 495.215 18.5566ZM532.976 61.2146C529.999 61.2146 527.458 60.6243 525.353 59.4436C523.248 58.2116 521.734 56.4663 520.81 54.2076C519.937 51.8976 519.809 49.177 520.425 46.0456L527.586 10.0096H539.598L532.437 45.9686C532.129 47.714 532.309 49.1 532.976 50.1266C533.643 51.1533 534.875 51.6666 536.672 51.6666C537.493 51.6666 538.315 51.5383 539.136 51.2816C540.009 51.025 540.804 50.6656 541.523 50.2036L543.294 58.7506C541.805 59.6746 540.163 60.3163 538.366 60.6756C536.569 61.035 534.773 61.2146 532.976 61.2146ZM517.345 29.3366L519.193 20.0966H547.914L546.066 29.3366H517.345ZM588.245 61.2146C585.267 61.2146 582.726 60.6243 580.622 59.4436C578.517 58.2116 577.003 56.4663 576.079 54.2076C575.206 51.8976 575.078 49.177 575.694 46.0456L582.855 10.0096H594.867L587.706 45.9686C587.398 47.714 587.577 49.1 588.245 50.1266C588.912 51.1533 590.144 51.6666 591.941 51.6666C592.762 51.6666 593.583 51.5383 594.405 51.2816C595.277 51.025 596.073 50.6656 596.792 50.2036L598.563 58.7506C597.074 59.6746 595.431 60.3163 593.635 60.6756C591.838 61.035 590.041 61.2146 588.245 61.2146ZM572.614 29.3366L574.462 20.0966H603.183L601.335 29.3366H572.614ZM625.202 61.2146C620.993 61.2146 617.322 60.4446 614.191 58.9046C611.06 57.3646 608.621 55.2086 606.876 52.4366C605.182 49.6646 604.335 46.405 604.335 42.6576C604.335 38.0376 605.413 33.931 607.569 30.3376C609.725 26.693 612.677 23.8183 616.424 21.7136C620.223 19.609 624.535 18.5566 629.36 18.5566C633.621 18.5566 637.291 19.3266 640.371 20.8666C643.502 22.4066 645.915 24.5626 647.609 27.3346C649.354 30.0553 650.227 33.315 650.227 37.1136C650.227 41.6823 649.149 45.789 646.993 49.4336C644.837 53.0783 641.885 55.953 638.138 58.0576C634.391 60.1623 630.079 61.2146 625.202 61.2146ZM625.972 51.3586C628.333 51.3586 630.412 50.794 632.209 49.6646C634.057 48.484 635.494 46.867 636.521 44.8136C637.548 42.7603 638.061 40.3733 638.061 37.6526C638.061 34.8806 637.24 32.6476 635.597 30.9536C633.954 29.2596 631.644 28.4126 628.667 28.4126C626.306 28.4126 624.201 29.003 622.353 30.1836C620.556 31.313 619.119 32.9043 618.041 34.9576C617.014 37.011 616.501 39.398 616.501 42.1186C616.501 44.942 617.322 47.2006 618.965 48.8946C620.608 50.5373 622.943 51.3586 625.972 51.3586ZM675.583 61.2146C671.374 61.2146 667.703 60.4446 664.572 58.9046C661.441 57.3646 659.002 55.2086 657.257 52.4366C655.563 49.6646 654.716 46.405 654.716 42.6576C654.716 38.0376 655.794 33.931 657.95 30.3376C660.106 26.693 663.058 23.8183 666.805 21.7136C670.604 19.609 674.916 18.5566 679.741 18.5566C684.002 18.5566 687.672 19.3266 690.752 20.8666C693.883 22.4066 696.296 24.5626 697.99 27.3346C699.735 30.0553 700.608 33.315 700.608 37.1136C700.608 41.6823 699.53 45.789 697.374 49.4336C695.218 53.0783 692.266 55.953 688.519 58.0576C684.772 60.1623 680.46 61.2146 675.583 61.2146ZM676.353 51.3586C678.714 51.3586 680.793 50.794 682.59 49.6646C684.438 48.484 685.875 46.867 686.902 44.8136C687.929 42.7603 688.442 40.3733 688.442 37.6526C688.442 34.8806 687.621 32.6476 685.978 30.9536C684.335 29.2596 682.025 28.4126 679.048 28.4126C676.687 28.4126 674.582 29.003 672.734 30.1836C670.937 31.313 669.5 32.9043 668.422 34.9576C667.395 37.011 666.882 39.398 666.882 42.1186C666.882 44.942 667.703 47.2006 669.346 48.8946C670.989 50.5373 673.324 51.3586 676.353 51.3586ZM704.327 60.5986L715.723 3.46463H727.735L716.339 60.5986H704.327ZM742.579 61.2146C738.934 61.2146 735.495 60.804 732.261 59.9826C729.078 59.1613 726.614 58.1346 724.869 56.9026L729.489 48.2016C731.286 49.3823 733.467 50.332 736.034 51.0506C738.652 51.7693 741.27 52.1286 743.888 52.1286C746.711 52.1286 748.765 51.7693 750.048 51.0506C751.331 50.332 751.973 49.3566 751.973 48.1246C751.973 47.1493 751.434 46.4306 750.356 45.9686C749.278 45.4553 747.918 45.0446 746.275 44.7366C744.632 44.4286 742.861 44.0693 740.962 43.6586C739.114 43.248 737.343 42.6833 735.649 41.9646C734.006 41.1946 732.646 40.1166 731.568 38.7306C730.541 37.2933 730.028 35.4196 730.028 33.1096C730.028 29.9783 730.901 27.3346 732.646 25.1786C734.443 23.0226 736.907 21.38 740.038 20.2506C743.221 19.1213 746.814 18.5566 750.818 18.5566C753.693 18.5566 756.49 18.8646 759.211 19.4806C761.932 20.0966 764.242 20.9436 766.141 22.0216L761.829 30.7996C759.878 29.5676 757.825 28.7463 755.669 28.3356C753.564 27.8736 751.537 27.6426 749.586 27.6426C746.763 27.6426 744.709 28.0533 743.426 28.8746C742.194 29.6446 741.578 30.5943 741.578 31.7236C741.578 32.699 742.091 33.469 743.118 34.0336C744.196 34.547 745.556 34.9833 747.199 35.3426C748.842 35.6506 750.613 36.01 752.512 36.4206C754.411 36.78 756.182 37.3446 757.825 38.1146C759.468 38.8333 760.802 39.8856 761.829 41.2716C762.907 42.6063 763.446 44.4286 763.446 46.7386C763.446 49.87 762.522 52.5393 760.674 54.7466C758.877 56.9026 756.413 58.5196 753.282 59.5976C750.151 60.6756 746.583 61.2146 742.579 61.2146Z" fill="white"/>
</svg>
