<svg width="708" height="167" viewBox="0 0 708 167" fill="none" xmlns="http://www.w3.org/2000/svg">
    <g style="mix-blend-mode:overlay">
        <path
            d="M28.8774 66L10.7755 11.8488H18.7434L35.3756 61.8226H31.3529L48.6039 11.8488H55.721L72.5852 61.8226H68.7173L85.5815 11.8488H92.9306L74.8286 66H66.7059L50.9247 19.662H53.0134L37.1548 66H28.8774ZM120.738 24.613C124.091 24.613 127.03 25.2577 129.557 26.547C132.136 27.8363 134.147 29.7961 135.591 32.4263C137.035 35.0565 137.757 38.3829 137.757 42.4055V66H130.331V43.2565C130.331 39.2854 129.351 36.2942 127.391 34.2829C125.483 32.2715 122.775 31.2659 119.269 31.2659C116.638 31.2659 114.343 31.7816 112.384 32.813C110.424 33.8445 108.902 35.3659 107.819 37.3772C106.788 39.3886 106.272 41.8898 106.272 44.881V66H98.8458V8.59973H106.272V36.0621L104.802 33.1225C106.143 30.4407 108.206 28.352 110.991 26.8564C113.776 25.3608 117.025 24.613 120.738 24.613ZM173.354 66V57.3358L172.967 55.7113V40.9357C172.967 37.7898 172.039 35.3659 170.182 33.664C168.377 31.9105 165.644 31.0338 161.982 31.0338C159.559 31.0338 157.186 31.4464 154.865 32.2715C152.545 33.0451 150.585 34.1024 148.986 35.4433L145.892 29.8734C148.006 28.1715 150.533 26.8822 153.473 26.0055C156.464 25.0772 159.584 24.613 162.833 24.613C168.455 24.613 172.787 25.9797 175.83 28.713C178.872 31.4464 180.394 35.6238 180.394 41.2452V66H173.354ZM159.894 66.4642C156.851 66.4642 154.169 65.9484 151.848 64.917C149.579 63.8855 147.826 62.4673 146.588 60.6622C145.35 58.8056 144.731 56.7169 144.731 54.3962C144.731 52.1786 145.247 50.1672 146.279 48.3622C147.362 46.5571 149.089 45.1131 151.462 44.0301C153.886 42.9471 157.135 42.4055 161.209 42.4055H174.205V47.7433H161.518C157.805 47.7433 155.304 48.3622 154.014 49.5999C152.725 50.8377 152.08 52.3333 152.08 54.0867C152.08 56.0981 152.88 57.7226 154.479 58.9603C156.077 60.1465 158.295 60.7396 161.131 60.7396C163.916 60.7396 166.34 60.1207 168.403 58.883C170.518 57.6452 172.039 55.8402 172.967 53.4679L174.437 58.5735C173.457 60.9975 171.73 62.9314 169.254 64.3755C166.779 65.7679 163.659 66.4642 159.894 66.4642ZM204.618 66.4642C200.493 66.4642 197.295 65.3553 195.026 63.1377C192.757 60.9201 191.622 57.7484 191.622 53.6226V16.0262H199.049V53.3131C199.049 55.5308 199.59 57.2327 200.673 58.4188C201.808 59.605 203.406 60.1981 205.469 60.1981C207.79 60.1981 209.724 59.5534 211.271 58.2641L213.592 63.6019C212.457 64.5818 211.091 65.3038 209.492 65.7679C207.945 66.2321 206.32 66.4642 204.618 66.4642ZM184.66 31.1112V24.9998H210.807V31.1112H184.66ZM236.149 66V24.9998H243.576V66H236.149ZM239.863 17.1092C238.419 17.1092 237.207 16.645 236.227 15.7167C235.298 14.7884 234.834 13.6538 234.834 12.313C234.834 10.9205 235.298 9.76011 236.227 8.8318C237.207 7.9035 238.419 7.43934 239.863 7.43934C241.307 7.43934 242.493 7.9035 243.421 8.8318C244.401 9.70854 244.891 10.8173 244.891 12.1582C244.891 13.5507 244.427 14.7369 243.498 15.7167C242.57 16.645 241.358 17.1092 239.863 17.1092ZM255.24 66V21.3639C255.24 17.3413 256.401 14.1438 258.722 11.7714C261.094 9.34753 264.446 8.13557 268.778 8.13557C270.377 8.13557 271.898 8.34186 273.342 8.75445C274.838 9.11545 276.101 9.70854 277.133 10.5337L274.89 16.1809C274.116 15.562 273.239 15.0979 272.259 14.7884C271.279 14.4274 270.248 14.2469 269.165 14.2469C266.999 14.2469 265.349 14.8658 264.214 16.1035C263.079 17.2897 262.512 19.069 262.512 21.4413V26.9338L262.667 30.3376V66H255.24ZM248.278 31.1112V24.9998H274.425V31.1112H248.278ZM309.088 66.4642C304.962 66.4642 301.764 65.3553 299.495 63.1377C297.226 60.9201 296.091 57.7484 296.091 53.6226V16.0262H303.518V53.3131C303.518 55.5308 304.059 57.2327 305.142 58.4188C306.277 59.605 307.876 60.1981 309.939 60.1981C312.259 60.1981 314.193 59.5534 315.74 58.2641L318.061 63.6019C316.927 64.5818 315.56 65.3038 313.961 65.7679C312.414 66.2321 310.789 66.4642 309.088 66.4642ZM289.129 31.1112V24.9998H315.276V31.1112H289.129ZM345.334 24.613C348.686 24.613 351.626 25.2577 354.153 26.547C356.732 27.8363 358.743 29.7961 360.187 32.4263C361.631 35.0565 362.353 38.3829 362.353 42.4055V66H354.927V43.2565C354.927 39.2854 353.947 36.2942 351.987 34.2829C350.079 32.2715 347.371 31.2659 343.864 31.2659C341.234 31.2659 338.939 31.7816 336.979 32.813C335.02 33.8445 333.498 35.3659 332.415 37.3772C331.384 39.3886 330.868 41.8898 330.868 44.881V66H323.442V8.59973H330.868V36.0621L329.398 33.1225C330.739 30.4407 332.802 28.352 335.587 26.8564C338.372 25.3608 341.621 24.613 345.334 24.613ZM390.756 66.4642C386.372 66.4642 382.504 65.5616 379.152 63.7566C375.851 61.9516 373.272 59.4761 371.416 56.3301C369.611 53.1842 368.708 49.5741 368.708 45.4999C368.708 41.4257 369.585 37.8156 371.338 34.6697C373.144 31.5237 375.593 29.074 378.688 27.3206C381.833 25.5155 385.366 24.613 389.286 24.613C393.257 24.613 396.764 25.4897 399.807 27.2432C402.849 28.9967 405.222 31.4722 406.924 34.6697C408.677 37.8156 409.554 41.503 409.554 45.732C409.554 46.0414 409.528 46.4024 409.476 46.815C409.476 47.2276 409.451 47.6144 409.399 47.9754H374.51V42.6376H405.531L402.514 44.4942C402.566 41.864 402.024 39.5175 400.89 37.4546C399.755 35.3917 398.182 33.7929 396.171 32.6583C394.211 31.4722 391.916 30.8791 389.286 30.8791C386.707 30.8791 384.412 31.4722 382.401 32.6583C380.389 33.7929 378.816 35.4175 377.682 37.5319C376.547 39.5948 375.98 41.9672 375.98 44.649V45.8867C375.98 48.62 376.599 51.0697 377.837 53.2358C379.126 55.3503 380.905 57.0006 383.174 58.1868C385.444 59.3729 388.048 59.966 390.988 59.966C393.412 59.966 395.603 59.5534 397.563 58.7283C399.574 57.9031 401.328 56.6654 402.824 55.015L406.924 59.8113C405.067 61.9773 402.746 63.6277 399.961 64.7623C397.228 65.8969 394.159 66.4642 390.756 66.4642ZM416.268 66V24.9998H423.385V36.1395L422.689 33.3546C423.823 30.5181 425.732 28.352 428.413 26.8564C431.095 25.3608 434.396 24.613 438.315 24.613V31.8074C438.006 31.7558 437.696 31.73 437.387 31.73C437.129 31.73 436.871 31.73 436.613 31.73C432.642 31.73 429.496 32.9162 427.176 35.2885C424.855 37.6609 423.694 41.0904 423.694 45.5773V66H416.268ZM461.749 66.4642C457.366 66.4642 453.498 65.5616 450.145 63.7566C446.845 61.9516 444.266 59.4761 442.41 56.3301C440.605 53.1842 439.702 49.5741 439.702 45.4999C439.702 41.4257 440.579 37.8156 442.332 34.6697C444.137 31.5237 446.587 29.074 449.681 27.3206C452.827 25.5155 456.36 24.613 460.28 24.613C464.251 24.613 467.758 25.4897 470.8 27.2432C473.843 28.9967 476.215 31.4722 477.917 34.6697C479.671 37.8156 480.548 41.503 480.548 45.732C480.548 46.0414 480.522 46.4024 480.47 46.815C480.47 47.2276 480.444 47.6144 480.393 47.9754H445.504V42.6376H476.525L473.508 44.4942C473.559 41.864 473.018 39.5175 471.883 37.4546C470.749 35.3917 469.176 33.7929 467.164 32.6583C465.205 31.4722 462.91 30.8791 460.28 30.8791C457.701 30.8791 455.406 31.4722 453.395 32.6583C451.383 33.7929 449.81 35.4175 448.676 37.5319C447.541 39.5948 446.974 41.9672 446.974 44.649V45.8867C446.974 48.62 447.593 51.0697 448.83 53.2358C450.12 55.3503 451.899 57.0006 454.168 58.1868C456.437 59.3729 459.042 59.966 461.981 59.966C464.405 59.966 466.597 59.5534 468.557 58.7283C470.568 57.9031 472.322 56.6654 473.817 55.015L477.917 59.8113C476.061 61.9773 473.74 63.6277 470.955 64.7623C468.222 65.8969 465.153 66.4642 461.749 66.4642ZM513.103 66L497.863 24.9998H504.903L518.441 62.1321H515.114L529.193 24.9998H535.46L549.229 62.1321H545.98L559.828 24.9998H566.48L551.163 66H544.046L531.127 32.1168H533.293L520.22 66H513.103ZM594.585 66V57.3358L594.198 55.7113V40.9357C594.198 37.7898 593.27 35.3659 591.413 33.664C589.608 31.9105 586.875 31.0338 583.213 31.0338C580.789 31.0338 578.417 31.4464 576.096 32.2715C573.775 33.0451 571.816 34.1024 570.217 35.4433L567.123 29.8734C569.237 28.1715 571.764 26.8822 574.704 26.0055C577.695 25.0772 580.815 24.613 584.064 24.613C589.686 24.613 594.018 25.9797 597.061 28.713C600.103 31.4464 601.625 35.6238 601.625 41.2452V66H594.585ZM581.125 66.4642C578.082 66.4642 575.4 65.9484 573.079 64.917C570.81 63.8855 569.057 62.4673 567.819 60.6622C566.581 58.8056 565.962 56.7169 565.962 54.3962C565.962 52.1786 566.478 50.1672 567.509 48.3622C568.592 46.5571 570.32 45.1131 572.692 44.0301C575.116 42.9471 578.365 42.4055 582.44 42.4055H595.436V47.7433H582.749C579.036 47.7433 576.535 48.3622 575.245 49.5999C573.956 50.8377 573.311 52.3333 573.311 54.0867C573.311 56.0981 574.111 57.7226 575.709 58.9603C577.308 60.1465 579.526 60.7396 582.362 60.7396C585.147 60.7396 587.571 60.1207 589.634 58.883C591.749 57.6452 593.27 55.8402 594.198 53.4679L595.668 58.5735C594.688 60.9975 592.96 62.9314 590.485 64.3755C588.01 65.7679 584.889 66.4642 581.125 66.4642ZM623.528 66.4642C620.125 66.4642 616.876 66 613.781 65.0717C610.738 64.1434 608.34 63.0088 606.587 61.6679L609.681 55.7886C611.435 56.9748 613.601 57.9805 616.179 58.8056C618.758 59.6308 621.388 60.0434 624.07 60.0434C627.525 60.0434 630.001 59.5534 631.496 58.5735C633.044 57.5937 633.817 56.227 633.817 54.4735C633.817 53.1842 633.353 52.1786 632.425 51.4565C631.496 50.7345 630.259 50.193 628.711 49.832C627.216 49.471 625.54 49.1616 623.683 48.9037C621.827 48.5943 619.97 48.2332 618.113 47.8207C616.257 47.3565 614.555 46.7376 613.008 45.9641C611.46 45.1389 610.223 44.0301 609.294 42.6376C608.366 41.1936 607.902 39.2854 607.902 36.9131C607.902 34.4376 608.598 32.2715 609.991 30.4149C611.383 28.5583 613.343 27.1401 615.87 26.1602C618.449 25.1287 621.491 24.613 624.998 24.613C627.68 24.613 630.388 24.9482 633.121 25.6187C635.906 26.2375 638.175 27.1401 639.929 28.3262L636.757 34.2055C634.9 32.9678 632.966 32.1168 630.955 31.6527C628.944 31.1885 626.932 30.9564 624.921 30.9564C621.672 30.9564 619.248 31.4979 617.649 32.581C616.05 33.6124 615.251 34.9533 615.251 36.6036C615.251 37.9961 615.715 39.0791 616.643 39.8527C617.623 40.5747 618.861 41.142 620.357 41.5546C621.904 41.9672 623.606 42.3282 625.462 42.6376C627.319 42.8955 629.176 43.2565 631.032 43.7206C632.889 44.1332 634.565 44.7263 636.061 45.4999C637.608 46.2735 638.845 47.3565 639.774 48.749C640.754 50.1414 641.244 51.998 641.244 54.3188C641.244 56.7943 640.522 58.9346 639.078 60.7396C637.634 62.5446 635.596 63.9629 632.966 64.9943C630.336 65.9742 627.19 66.4642 623.528 66.4642ZM689.555 66V57.3358L689.168 55.7113V40.9357C689.168 37.7898 688.24 35.3659 686.383 33.664C684.578 31.9105 681.845 31.0338 678.183 31.0338C675.759 31.0338 673.387 31.4464 671.066 32.2715C668.745 33.0451 666.785 34.1024 665.187 35.4433L662.092 29.8734C664.207 28.1715 666.734 26.8822 669.674 26.0055C672.665 25.0772 675.785 24.613 679.034 24.613C684.655 24.613 688.987 25.9797 692.03 28.713C695.073 31.4464 696.594 35.6238 696.594 41.2452V66H689.555ZM676.094 66.4642C673.052 66.4642 670.37 65.9484 668.049 64.917C665.78 63.8855 664.026 62.4673 662.789 60.6622C661.551 58.8056 660.932 56.7169 660.932 54.3962C660.932 52.1786 661.448 50.1672 662.479 48.3622C663.562 46.5571 665.29 45.1131 667.662 44.0301C670.086 42.9471 673.335 42.4055 677.409 42.4055H690.406V47.7433H677.719C674.006 47.7433 671.504 48.3622 670.215 49.5999C668.926 50.8377 668.281 52.3333 668.281 54.0867C668.281 56.0981 669.08 57.7226 670.679 58.9603C672.278 60.1465 674.496 60.7396 677.332 60.7396C680.117 60.7396 682.541 60.1207 684.604 58.883C686.718 57.6452 688.24 55.8402 689.168 53.4679L690.638 58.5735C689.658 60.9975 687.93 62.9314 685.455 64.3755C682.979 65.7679 679.859 66.4642 676.094 66.4642ZM163.295 83.1857C165.914 83.1857 167.198 84.4322 167.148 86.9252L166.733 107.738C167.387 107.31 168.092 106.882 168.848 106.454C171.114 105.169 173.758 104.527 176.78 104.527C182.219 104.527 186.79 106.68 190.492 110.987C194.345 115.469 196.082 121.097 195.704 127.871C195.427 132.958 193.463 137.302 189.812 140.903C186.387 144.201 182.534 145.863 178.253 145.889C173.872 145.914 169.767 144.655 165.939 142.111C165.738 144.504 164.378 145.675 161.86 145.624C159.594 145.574 158.486 144.201 158.536 141.507L159.82 86.6985C159.871 84.3566 161.029 83.1857 163.295 83.1857ZM178.253 138.523C181.653 138.07 184.184 136.748 185.846 134.557C187.86 131.837 188.905 129.004 188.981 126.058C189.082 121.727 187.999 118.327 185.732 115.859C183.894 113.845 181.64 112.51 178.971 111.855C174.841 110.873 170.686 112.409 166.506 116.464L166.166 133.764C171.001 137.365 175.03 138.951 178.253 138.523ZM205.44 127.644C205.566 130.49 206.85 132.983 209.293 135.123C212.113 137.616 215.286 138.85 218.812 138.825C223.949 138.775 227.399 137.767 229.162 135.803C230.849 133.915 232.234 132.857 233.317 132.63C234.525 132.379 235.381 132.756 235.885 133.764C237.069 136.105 236.515 138.296 234.223 140.336C230.194 143.912 224.906 145.675 218.358 145.624C213.549 145.574 209.343 144.063 205.742 141.091C201.26 137.415 199.019 132.429 199.019 126.133C199.019 120.946 200.429 116.325 203.249 112.271C206.775 107.209 211.333 104.502 216.923 104.15C222.74 103.797 227.285 105.232 230.559 108.456C233.656 111.478 235.142 114.915 235.016 118.768C234.916 121.865 233.518 123.603 230.824 123.98L205.44 127.644ZM206.271 121.412L228.482 118.163C228.104 115.973 226.958 114.26 225.044 113.026C222.828 111.616 220.474 110.924 217.981 110.949C214.506 110.949 211.509 112.497 208.991 115.595C207.883 116.98 206.976 118.919 206.271 121.412ZM253.024 83.1857C255.593 83.1857 256.877 84.4322 256.877 86.9252C256.827 93.3466 256.713 99.214 256.537 104.527L264.205 104.49C267.302 104.464 268.851 105.723 268.851 108.267C268.851 110.835 267.378 112.12 264.432 112.12C261.737 112.12 259.043 112.12 256.348 112.12L255.706 141.583C255.681 144.327 254.309 145.675 251.589 145.624C249.323 145.574 248.215 144.201 248.265 141.507L248.945 112.12C245.973 112.12 243.014 112.12 240.068 112.12C237.903 112.12 236.82 110.886 236.82 108.418C236.82 105.875 238.016 104.603 240.408 104.603C243.304 104.603 246.213 104.59 249.134 104.565L249.549 86.6985C249.6 84.3566 250.758 83.1857 253.024 83.1857ZM285.915 83.1857C288.483 83.1857 289.768 84.4322 289.768 86.9252C289.717 93.3466 289.604 99.214 289.428 104.527L297.096 104.49C300.193 104.464 301.742 105.723 301.742 108.267C301.742 110.835 300.269 112.12 297.322 112.12C294.628 112.12 291.933 112.12 289.239 112.12L288.597 141.583C288.572 144.327 287.199 145.675 284.479 145.624C282.213 145.574 281.105 144.201 281.155 141.507L281.835 112.12C278.864 112.12 275.905 112.12 272.959 112.12C270.793 112.12 269.71 110.886 269.71 108.418C269.71 105.875 270.906 104.603 273.299 104.603C276.195 104.603 279.103 104.59 282.024 104.565L282.44 86.6985C282.49 84.3566 283.648 83.1857 285.915 83.1857ZM310.004 127.644C310.13 130.49 311.414 132.983 313.857 135.123C316.677 137.616 319.85 138.85 323.376 138.825C328.513 138.775 331.963 137.767 333.726 135.803C335.413 133.915 336.798 132.857 337.881 132.63C339.089 132.379 339.946 132.756 340.449 133.764C341.633 136.105 341.079 138.296 338.787 140.336C334.758 143.912 329.47 145.675 322.923 145.624C318.113 145.574 313.907 144.063 310.306 141.091C305.824 137.415 303.583 132.429 303.583 126.133C303.583 120.946 304.993 116.325 307.813 112.271C311.339 107.209 315.897 104.502 321.487 104.15C327.304 103.797 331.85 105.232 335.123 108.456C338.221 111.478 339.706 114.915 339.58 118.768C339.48 121.865 338.082 123.603 335.388 123.98L310.004 127.644ZM310.835 121.412L333.046 118.163C332.668 115.973 331.522 114.26 329.608 113.026C327.392 111.616 325.038 110.924 322.545 110.949C319.07 110.949 316.073 112.497 313.555 115.595C312.447 116.98 311.54 118.919 310.835 121.412ZM348.447 102.676C351.016 102.676 352.3 103.923 352.3 106.416C352.3 106.869 352.3 107.335 352.3 107.814C355.121 105.673 357.903 104.578 360.648 104.527C363.997 104.477 366.755 104.993 368.92 106.076C372.748 107.99 374.322 109.967 373.642 112.006C372.534 115.23 370.532 115.859 367.636 113.895C365.37 112.359 362.776 111.88 359.855 112.46C357.009 113.014 354.403 114.462 352.036 116.804L351.394 141.583C351.318 144.327 349.958 145.675 347.314 145.624C345.048 145.574 343.952 144.201 344.028 141.507L344.897 106.189C344.947 103.847 346.131 102.676 348.447 102.676ZM422.954 109.438L427.373 135.652L435.759 109.438C436.892 105.887 438.39 104.25 440.254 104.527C442.873 104.93 443.641 106.693 442.558 109.816L431.642 141.28C430.584 144.353 428.998 145.889 426.882 145.889C424.289 145.889 422.702 144.353 422.123 141.28L418.119 120.543L410.829 141.28C409.746 144.353 408.16 145.889 406.069 145.889C403.476 145.889 401.889 144.353 401.31 141.28L395.342 109.816C394.738 106.643 395.594 104.88 397.911 104.527C400.127 104.175 401.537 105.812 402.141 109.438L406.561 135.652L414.946 109.438C416.004 106.139 417.389 104.49 419.101 104.49C421.116 104.49 422.4 106.139 422.954 109.438ZM460.491 146.115C449.184 146.14 443.493 140.097 443.417 127.984C443.342 120.102 445.935 114.008 451.198 109.702C457.242 104.741 463.563 103.306 470.16 105.396C470.891 104.767 472.024 104.628 473.56 104.981C476.582 105.661 477.803 107.612 477.224 110.835C476.645 113.983 476.292 119.347 476.166 126.927C476.066 132.97 476.745 137.251 478.206 139.769C480.346 143.446 480.044 145.561 477.299 146.115C474.152 146.77 472.326 145.435 471.822 142.111C466.61 144.755 462.832 146.09 460.491 146.115ZM464.872 138.523C465.779 138.196 467.353 137.113 469.594 135.274C468.687 124.446 468.813 116.992 469.972 112.913C467.529 111.377 464.973 110.936 462.304 111.591C460.44 112.044 458.954 112.686 457.846 113.517C453.364 116.766 451.01 121.349 450.783 127.267C450.858 134.972 453.503 139.001 458.715 139.354C460.906 139.505 462.958 139.228 464.872 138.523ZM513.703 105.132C516.12 106.164 516.687 108.166 515.403 111.138L493.834 160.884C492.097 164.914 490.12 166.475 487.904 165.568C485.26 164.485 484.807 161.942 486.544 157.938L494.061 140.563L478.347 111.478C476.736 108.506 477.038 106.429 479.254 105.245C481.596 103.986 483.56 104.855 485.147 107.851L497.8 131.913L508.15 108.078C509.434 105.107 511.285 104.124 513.703 105.132ZM527.178 137.352C527.556 137.251 527.946 137.213 528.349 137.239C528.777 137.239 529.193 137.289 529.596 137.39C530.376 137.616 531.056 138.019 531.635 138.598C532.315 139.228 532.731 139.921 532.882 140.676C532.957 141.079 533.008 141.494 533.033 141.922C533.033 142.426 532.995 142.816 532.92 143.093C532.668 144.025 532.202 144.806 531.522 145.435C530.817 146.065 529.973 146.443 528.991 146.569C528.79 146.594 528.576 146.619 528.349 146.644C527.619 146.644 526.939 146.48 526.309 146.153C525.453 145.75 524.786 145.133 524.307 144.302C523.879 143.572 523.665 142.779 523.665 141.922C523.665 141.293 523.778 140.689 524.005 140.109C524.282 139.429 524.71 138.85 525.289 138.372C525.793 137.893 526.423 137.553 527.178 137.352ZM518.868 93.4221C521.839 90.0729 526.599 88.3354 533.146 88.2095C541.859 88.0332 546.795 92.0749 547.953 100.335C549.363 110.055 546.719 115.834 540.021 117.672C535.287 118.957 532.92 120.656 532.92 122.772C532.819 127.783 531.635 130.351 529.369 130.477C525.944 130.654 524.584 127.858 525.289 122.092C525.919 116.879 528.815 113.467 533.977 111.855C539.114 110.269 541.167 106.882 540.134 101.694C539.454 98.2948 537.226 96.3684 533.448 95.9151C529.973 95.487 527.228 96.1669 525.214 97.9549C522.091 100.75 519.85 101.619 518.49 100.561C516.174 98.7481 516.299 96.3684 518.868 93.4221Z"
            fill="#1D1D1D" />
    </g>
</svg>